<svg width="60" height="25" viewBox="0 0 60 25" fill="none" xmlns="http://www.w3.org/2000/svg">
<path opacity="0.4" d="M25.2079 12.5315L22.9943 1.32437C22.9629 1.11929 22.8912 0.922549 22.7834 0.745643C22.6755 0.568737 22.5337 0.415212 22.3662 0.294033C22.1987 0.172854 22.0089 0.0864501 21.8078 0.0398681C21.6067 -0.00671395 21.3984 -0.0125407 21.195 0.0227281L3.20186 3.51114C2.99767 3.53941 2.80129 3.60895 2.62453 3.71556C2.44777 3.82217 2.2943 3.96364 2.17336 4.13147C2.05242 4.2993 1.96651 4.49 1.9208 4.69209C1.87509 4.89419 1.87052 5.1035 1.90738 5.30741L4.04326 16.5797C4.12469 16.9796 4.35859 17.3316 4.69488 17.5603C5.03118 17.7889 5.44314 17.8761 5.84258 17.8032L23.9134 14.3408C24.1174 14.3093 24.313 14.2372 24.489 14.1287C24.6649 14.0203 24.8176 13.8777 24.9381 13.7092C25.0586 13.5408 25.1445 13.3499 25.1908 13.1477C25.2372 12.9455 25.243 12.736 25.2079 12.5315Z" fill="white"/>
<path d="M23.2741 2.53507L2.09192 6.59814L2.64496 9.51333L23.8272 5.45026L23.2741 2.53507Z" fill="#10001F"/>
<path d="M20.8458 9.69543H2.14066C1.93897 9.69543 1.73928 9.73558 1.55311 9.81358C1.36694 9.89158 1.19798 10.0059 1.05597 10.1499C0.913958 10.2939 0.801716 10.4648 0.725718 10.6526C0.649721 10.8405 0.611473 11.0416 0.613183 11.2444V22.9592C0.606233 23.1653 0.640604 23.3706 0.71425 23.563C0.787895 23.7554 0.899306 23.9309 1.04184 24.0791C1.18438 24.2273 1.35513 24.3451 1.54391 24.4255C1.73269 24.506 1.93564 24.5473 2.14066 24.5472H20.8458C21.0481 24.5472 21.2484 24.5072 21.4353 24.4293C21.6222 24.3515 21.792 24.2374 21.935 24.0935C22.0781 23.9497 22.1915 23.7789 22.2689 23.591C22.3464 23.4031 22.3862 23.2017 22.3862 22.9983V11.2834C22.3862 10.8726 22.2239 10.4786 21.935 10.1882C21.6461 9.89768 21.2543 9.73448 20.8458 9.73448" fill="white"/>
<path d="M7.707 18.8576H2.8139C2.78052 18.8594 2.74714 18.8543 2.71579 18.8427C2.68444 18.8311 2.65578 18.8131 2.63155 18.79C2.60732 18.7668 2.58804 18.739 2.57488 18.7081C2.56172 18.6772 2.55495 18.6439 2.555 18.6103V15.3042C2.555 15.2351 2.58228 15.1689 2.63083 15.1201C2.67938 15.0713 2.74523 15.0438 2.8139 15.0438H7.707C7.77566 15.0438 7.84151 15.0713 7.89007 15.1201C7.93862 15.1689 7.96589 15.2351 7.96589 15.3042V18.6103C7.96594 18.6439 7.95918 18.6772 7.94602 18.7081C7.93285 18.739 7.91357 18.7668 7.88934 18.79C7.86512 18.8131 7.83645 18.8311 7.8051 18.8427C7.77375 18.8543 7.74037 18.8594 7.707 18.8576Z" fill="#10001F"/>
<path d="M7.9649 16.4106V16.1372H6.34681V15.0438H6.07497V16.1372H4.17209V15.0438H3.90025V16.1372H2.60578V16.4106H3.90025V17.5039H2.60578V17.7773H3.90025V18.8576H4.17209V17.7773H6.07497V18.8707H6.34681V17.7773H7.9649V17.5039H7.08466V16.4106H7.9649ZM4.17209 16.4106H5.25945V17.5039H4.17209V16.4106ZM6.8646 17.5039H5.57012V16.4106H6.8646V17.5039Z" fill="white"/>
<path d="M3.13885 13.709H2.37511V11.8996L2.81365 11.8755C2.90793 11.8752 3.2193 11.8597 3.31792 11.8755C3.39378 11.8918 3.46424 11.9573 3.51424 12.0169C3.58988 12.1031 3.63134 12.2143 3.63074 12.3293C3.63706 12.3881 3.62851 12.4476 3.60588 12.5022C3.58325 12.5568 3.54728 12.6048 3.5013 12.6417C3.59885 12.6651 3.6883 12.7146 3.76019 12.7849C3.82269 12.8668 3.85474 12.9681 3.85081 13.0712C3.85315 13.1967 3.84554 13.4504 3.76019 13.5419C3.69721 13.6622 3.69292 13.6387 3.60588 13.6679C3.51884 13.6971 3.42429 13.7184 3.33302 13.709H3.13885ZM2.76345 12.6287H3.02234C3.13885 12.6287 3.15322 12.6287 3.25535 12.6287C3.28229 12.6134 3.30408 12.5903 3.31792 12.5625C3.33176 12.5347 3.33701 12.5033 3.33302 12.4725C3.33302 12.3862 3.26308 12.3163 3.17682 12.3163C3.14828 12.3163 3.11939 12.3163 3.08707 12.3163H2.76345V12.6287ZM2.76345 13.3803H3.02234C3.05315 13.3803 3.08656 13.3803 3.12064 13.3803C3.23991 13.3803 3.35891 13.3077 3.35891 13.1884C3.36199 13.1594 3.35621 13.1302 3.34233 13.1046C3.32845 13.079 3.30714 13.0583 3.28124 13.0452C3.18709 13.0279 3.08707 13.0256 2.99279 13.0256H2.76345V13.4487V13.3803Z" fill="#10001F"/>
<path d="M5.50601 13.7031L5.35067 13.3126H4.61282L4.44454 13.7031H4.03031L4.79405 11.8938H5.16945L5.92024 13.7031H5.50601ZM4.97528 12.4014L4.75522 12.9221H5.19534L4.97528 12.4014Z" fill="#10001F"/>
<path d="M7.35769 11.9066H7.74604V13.7029H7.35769L6.51629 12.5705V13.7029H6.12794V11.9066H6.4904L7.35769 13.0521V11.9066Z" fill="#10001F"/>
<path d="M8.17221 11.8938H8.56055V12.6357L9.22073 11.8938H9.6738L8.97478 12.7008L9.31135 13.1694L9.6738 13.7031H9.24662L8.74178 13.0392L8.56055 13.2475V13.7552H8.17221V11.8938Z" fill="#10001F"/>
<path d="M21.3239 14.6792C21.699 14.7703 22.0635 14.9012 22.4112 15.0697V14.6011C21.1306 14.0513 19.6942 13.9911 18.3725 14.4319C17.6158 14.6678 16.9142 15.0544 16.3092 15.5688C15.7043 16.0831 15.2086 16.7146 14.8515 17.4257C14.2466 18.6228 14.0457 19.9855 14.2793 21.3076C14.5128 22.6297 15.1681 23.8395 16.146 24.7539H16.7803C15.9356 24.0807 15.3019 23.1768 14.9551 22.1506L17.2592 21.3957C17.5513 22.3127 17.9603 23.1877 18.476 23.999C18.1087 24.2184 17.7621 24.4711 17.4404 24.7539H18.0747C18.2743 24.596 18.4817 24.4483 18.6961 24.3114L19.0326 24.7539H19.5893C19.4078 24.566 19.2392 24.3659 19.0844 24.1552C19.6568 23.8248 20.2594 23.5502 20.8837 23.3351L21.3239 24.6238C21.4541 24.5852 21.58 24.5329 21.6993 24.4676L21.285 23.1659C21.6583 23.0461 22.0387 22.9504 22.4242 22.8796V22.45C21.9871 22.5346 21.5549 22.6432 21.1297 22.7754L20.3918 20.4064L22.3983 19.7426V19.3131L20.2753 20.0029L19.5504 17.6469C20.2107 17.4172 20.8478 17.1252 21.4533 16.7748C21.8247 17.3464 22.1411 17.9522 22.3983 18.5841V17.5819C22.218 17.2287 22.0193 16.8855 21.8028 16.5536C22.0099 16.4234 22.2041 16.2802 22.3983 16.137V15.6034C22.1309 15.8249 21.8499 16.0292 21.5569 16.2151C21.3849 15.9786 21.199 15.7526 21.0002 15.5383C20.6369 15.1468 20.1959 14.8364 19.7058 14.6271C20.2448 14.5653 20.7899 14.5828 21.3239 14.6792ZM18.3077 14.9265L19.0456 17.3215C18.4208 17.5155 17.7794 17.6506 17.1298 17.725C17.1097 17.4608 17.1097 17.1953 17.1298 16.931C17.155 16.5302 17.2721 16.1407 17.472 15.7929C17.6719 15.4451 17.9491 15.1486 18.2819 14.9265H18.3077ZM15.2398 17.6209C15.6978 16.7182 16.3913 15.9577 17.2463 15.4211C17.0002 15.8693 16.8379 16.359 16.7673 16.866C16.7205 17.1588 16.6945 17.4546 16.6897 17.7511C16.1964 17.7792 15.7016 17.753 15.214 17.673C15.214 17.673 15.2269 17.6339 15.2398 17.6209ZM14.8515 21.7211C14.5206 20.5153 14.598 19.2331 15.0716 18.0765C15.6102 18.1674 16.1572 18.1979 16.7026 18.1676C16.7329 19.1162 16.8852 20.0569 17.1557 20.9661L14.8515 21.7211ZM20.7414 22.8405C20.0802 23.0678 19.4428 23.3599 18.8385 23.7126C18.3413 22.9428 17.9454 22.1115 17.6605 21.2395L20.0294 20.4715L20.7414 22.8405ZM19.887 20.081L17.5311 20.849C17.2706 19.9694 17.127 19.059 17.1039 18.1416C17.7972 18.068 18.482 17.9286 19.1491 17.725L19.887 20.081ZM20.7155 15.7726C20.8837 15.9548 21.052 16.1631 21.2203 16.3713C20.6482 16.7058 20.0457 16.9847 19.421 17.2044L18.6702 14.7963C18.8494 14.7576 19.0347 14.7576 19.2139 14.7963C19.7898 14.9782 20.3048 15.3159 20.7025 15.7726H20.7155Z" fill="#10001F"/>
<path d="M11.8745 21.9033H10.114V22.6843H11.8745V21.9033Z" fill="#10001F"/>
<path d="M8.08209 21.9033H6.32161V22.6843H8.08209V21.9033Z" fill="#10001F"/>
<path d="M4.28966 21.9033H2.52917V22.6843H4.28966V21.9033Z" fill="#10001F"/>
<path d="M31.9008 7.09055C32.0671 6.70033 32.1466 6.27832 32.1338 5.85399C32.1338 4.25296 31.4348 3.44594 30.0626 3.44594H28.1857V11.6593H29.3507V8.1579H30.0497L31.1371 11.6593H32.4315L31.1371 7.91059C31.4771 7.73268 31.7465 7.44338 31.9008 7.09055ZM30.9299 6.38766C30.9127 6.52511 30.8687 6.65781 30.8005 6.77816C30.7284 6.88396 30.6303 6.96917 30.5157 7.02547C30.3612 7.09433 30.1926 7.12555 30.0238 7.11658H29.3507V4.51329H29.9591C30.113 4.49613 30.2689 4.51677 30.4131 4.57345C30.5574 4.63013 30.6859 4.72115 30.7875 4.8387C30.8599 4.96762 30.9082 5.1088 30.9299 5.25523C30.9299 5.41143 30.9299 5.59366 30.9299 5.80192C30.9299 6.01018 30.9429 6.23146 30.9299 6.38766ZM33.8554 11.1647C34.0336 11.3369 34.2392 11.4777 34.4638 11.5812C34.6939 11.6761 34.9401 11.7248 35.1887 11.7244C35.4414 11.7235 35.6917 11.675 35.9266 11.5812C36.1494 11.4746 36.3546 11.3341 36.535 11.1647C36.8746 10.8164 37.0691 10.3508 37.0787 9.86306V3.44594H35.9137V9.69384C35.9298 9.92942 35.8557 10.1623 35.7065 10.3447C35.5669 10.4784 35.3815 10.5529 35.1887 10.5529C34.996 10.5529 34.8106 10.4784 34.671 10.3447C34.5946 10.2558 34.537 10.1523 34.5014 10.0405C34.4658 9.92867 34.453 9.81076 34.4638 9.69384V3.44594H33.2988V9.81099C33.2971 10.0653 33.3455 10.3175 33.4412 10.5529C33.5442 10.7788 33.6842 10.9856 33.8554 11.1647ZM41.0398 3.53706C40.7856 3.43052 40.5125 3.37736 40.2372 3.38086C39.934 3.37566 39.6334 3.43789 39.3569 3.56309C39.1194 3.67369 38.9077 3.83335 38.7356 4.03168C38.5678 4.24508 38.4405 4.48778 38.3602 4.74759C38.2774 5.03537 38.2338 5.33313 38.2308 5.63271C38.214 6.08103 38.3027 6.527 38.4897 6.93435C38.7194 7.32705 39.0826 7.62293 39.5123 7.76741L40.3407 8.10583C40.4651 8.15001 40.5827 8.21134 40.6903 8.28806C40.7775 8.33535 40.8528 8.40215 40.9103 8.48331C40.9574 8.59085 40.988 8.70496 41.0009 8.82174C41.0009 8.96492 41.0009 9.13414 41.0009 9.35542C41.0009 9.5767 41.0009 9.70686 41.0009 9.85004C40.9978 9.98663 40.9623 10.1205 40.8974 10.2405C40.8348 10.3449 40.7453 10.4304 40.6385 10.4878C40.4932 10.5571 40.3329 10.5884 40.1725 10.579C40.0538 10.5893 39.9344 10.5711 39.8241 10.5258C39.7138 10.4805 39.6158 10.4095 39.5382 10.3186C39.4095 10.151 39.3411 9.94459 39.344 9.73289V9.3424H38.1531V9.77194C38.1493 10.0362 38.2023 10.2982 38.3084 10.5399C38.4112 10.7698 38.5512 10.9809 38.7227 11.1647C38.9079 11.3402 39.1227 11.4813 39.3569 11.5812C39.6095 11.6761 39.877 11.7246 40.1466 11.7244C40.4751 11.7319 40.8014 11.6698 41.1045 11.5422C41.3484 11.4244 41.5613 11.2505 41.7258 11.0345C41.8822 10.8083 41.9882 10.5508 42.0365 10.2796C42.1057 9.96324 42.1404 9.64026 42.1401 9.31637C42.1615 9.04779 42.1615 8.77792 42.1401 8.50935C42.1481 8.27919 42.113 8.04958 42.0365 7.83249C41.9383 7.65632 41.8114 7.49793 41.6611 7.3639C41.4671 7.21744 41.2536 7.09914 41.0268 7.01245L40.1336 6.66101C39.9883 6.62797 39.8456 6.58447 39.7065 6.53084C39.6247 6.47412 39.5581 6.39815 39.5123 6.30956C39.472 6.2194 39.4499 6.12204 39.4476 6.0232C39.4404 5.88879 39.4404 5.7541 39.4476 5.61969C39.4411 5.48961 39.4411 5.35928 39.4476 5.2292C39.469 5.10916 39.5129 4.99432 39.577 4.89077C39.6426 4.79694 39.7262 4.71728 39.823 4.65647C39.9423 4.59263 40.0762 4.56123 40.2113 4.56536C40.3339 4.55472 40.4571 4.57679 40.5684 4.62936C40.6798 4.68193 40.7754 4.76312 40.8456 4.86474C40.9774 5.07004 41.045 5.31031 41.0398 5.55461V5.82795H42.2048V5.2292C42.208 4.98749 42.1626 4.74762 42.0714 4.52396C41.9802 4.30029 41.8451 4.09744 41.6741 3.92755C41.4862 3.76214 41.2717 3.63009 41.0398 3.53706ZM45.9199 3.53706C45.6703 3.43048 45.4014 3.37729 45.1303 3.38086C44.8228 3.37416 44.5177 3.43641 44.2371 3.56309C44.0014 3.67056 43.7933 3.83085 43.6287 4.03168C43.4568 4.2444 43.3251 4.48706 43.2404 4.74759C43.1619 5.03597 43.1227 5.33373 43.1239 5.63271C43.1003 6.08155 43.1893 6.52915 43.3828 6.93435C43.6037 7.3294 43.964 7.62669 44.3924 7.76741L45.2339 8.10583C45.3556 8.15576 45.4726 8.21676 45.5834 8.28806C45.6643 8.33905 45.7347 8.40536 45.7905 8.48331C45.8376 8.59085 45.8681 8.70496 45.8811 8.82174C45.8811 8.96492 45.8811 9.13414 45.8811 9.35542C45.8811 9.5767 45.8811 9.70686 45.8811 9.85004C45.8839 9.98742 45.848 10.1228 45.7775 10.2405C45.7184 10.3477 45.6281 10.434 45.5186 10.4878C45.3741 10.5593 45.2133 10.5908 45.0526 10.579C44.9339 10.5893 44.8145 10.5711 44.7042 10.5258C44.5939 10.4805 44.4959 10.4095 44.4183 10.3186C44.2934 10.1498 44.2294 9.94319 44.2371 9.73289V9.3424H43.0591V9.77194C43.0553 10.0362 43.1083 10.2982 43.2145 10.5399C43.3172 10.7698 43.4572 10.9809 43.6287 11.1647C43.8139 11.3402 44.0287 11.4813 44.263 11.5812C44.5156 11.6761 44.783 11.7246 45.0526 11.7244C45.3811 11.7319 45.7075 11.6698 46.0105 11.5422C46.2544 11.4244 46.4673 11.2505 46.6319 11.0345C46.7975 10.8106 46.9124 10.5529 46.9684 10.2796C47.0376 9.96324 47.0723 9.64026 47.072 9.31637C47.0865 9.04756 47.0865 8.77815 47.072 8.50935C47.0357 8.27321 46.9614 8.04459 46.8519 7.83249C46.7537 7.65632 46.6268 7.49793 46.4765 7.3639C46.2839 7.21526 46.0701 7.09677 45.8423 7.01245L44.9491 6.66101L44.6255 6.53084C44.5471 6.4704 44.4812 6.39525 44.4313 6.30956C44.382 6.22132 44.3511 6.12387 44.3407 6.0232C44.3335 5.88879 44.3335 5.7541 44.3407 5.61969C44.3273 5.48553 44.3273 5.35035 44.3407 5.21618C44.3578 5.09697 44.3974 4.98212 44.4572 4.87775C44.5228 4.78393 44.6064 4.70426 44.7031 4.64346C44.8236 4.58271 44.9567 4.55148 45.0915 4.55234C45.214 4.5417 45.3372 4.56378 45.4486 4.61634C45.56 4.66891 45.6556 4.7501 45.7257 4.85172C45.8575 5.05702 45.9252 5.2973 45.9199 5.54159V5.81494H47.0849V5.2292C47.0912 4.98707 47.0473 4.74629 46.9559 4.52218C46.8645 4.29808 46.7277 4.09557 46.5542 3.92755C46.3664 3.76214 46.1519 3.63009 45.9199 3.53706ZM49.3762 3.44594H48.2111V11.6593H49.3762V3.44594ZM51.9651 3.44594L50.1528 11.6593H51.3179L51.6674 9.88909H53.2596L53.6868 11.6593H54.8647L53.0136 3.44594H51.9651ZM51.8745 8.78269L52.4441 5.81494L53.0136 8.78269H51.8745ZM58.4375 3.44594V8.3922L56.677 3.44594H55.5508V11.6593H56.7158V6.72609L58.5022 11.6593H59.6025V3.44594H58.4375ZM31.2536 15.1608C31.0871 14.9846 30.8861 14.845 30.6633 14.7509C30.4405 14.6568 30.2007 14.6102 29.9591 14.6141C29.6936 14.6125 29.4301 14.6611 29.1824 14.7572C28.9567 14.853 28.7504 14.9898 28.574 15.1608C28.4039 15.3305 28.2716 15.5346 28.1857 15.7595C28.0957 15.9962 28.0517 16.2481 28.0562 16.5015V20.9791C28.0436 21.3001 28.101 21.62 28.2245 21.9163C28.3316 22.1422 28.4862 22.342 28.6776 22.502C28.8581 22.6556 29.0703 22.7667 29.2989 22.8275C29.518 22.8888 29.7446 22.9195 29.972 22.9186C30.2262 22.9195 30.4777 22.8663 30.7099 22.7624C30.9266 22.6585 31.1237 22.5176 31.2924 22.3458C31.4596 22.1662 31.5953 21.9594 31.6937 21.7341C31.788 21.5073 31.8364 21.2639 31.8361 21.0182V20.5105H30.6581V20.914C30.6676 21.0517 30.6455 21.1898 30.5934 21.3175C30.5558 21.4151 30.4985 21.5038 30.4251 21.5779C30.3504 21.6339 30.2674 21.6778 30.1791 21.708H29.9332C29.8269 21.721 29.719 21.7048 29.6211 21.6613C29.5231 21.6178 29.4387 21.5485 29.3766 21.4607C29.2664 21.2813 29.2123 21.0727 29.2212 20.862V16.7097C29.2154 16.4718 29.2641 16.2357 29.3636 16.0198C29.4233 15.9218 29.5104 15.8437 29.614 15.7951C29.7176 15.7465 29.8331 15.7296 29.9461 15.7465C30.047 15.7444 30.1468 15.767 30.237 15.8123C30.3272 15.8577 30.4051 15.9244 30.4639 16.0068C30.5945 16.1784 30.6629 16.3896 30.6581 16.6056V16.944H31.8361V16.4884C31.8362 16.2173 31.788 15.9484 31.6937 15.6944C31.6156 15.4852 31.5017 15.2914 31.3571 15.1217L31.2536 15.1608ZM34.2697 14.6791L32.4445 22.8925H33.6224L33.959 21.1223H35.5512L35.9007 22.8925H37.0657L35.2405 14.6791H34.2697ZM34.2697 19.9768L34.8392 17.0091L35.4088 19.9768H34.2697ZM41.687 18.2457C41.8533 17.8554 41.9328 17.4334 41.92 17.0091C41.92 15.4081 41.2339 14.601 39.8488 14.601H37.9719V22.8144H39.1369V19.3521H39.8359L40.9362 22.8535H42.2307L40.9362 19.1047C41.278 18.9147 41.5435 18.611 41.687 18.2457ZM40.742 17.5818C40.7248 17.7193 40.6808 17.852 40.6126 17.9723C40.5475 18.0842 40.4473 18.1711 40.3278 18.2196C40.1732 18.2885 40.0047 18.3197 39.8359 18.3107H39.1628V15.7074H39.7712C39.9252 15.6891 40.0814 15.7093 40.2259 15.766C40.3703 15.8228 40.4987 15.9144 40.5996 16.0329C40.6703 16.1626 40.7184 16.3034 40.742 16.4494C40.742 16.6056 40.742 16.7878 40.742 16.9961C40.742 17.2043 40.742 17.4256 40.742 17.5818ZM44.8455 14.6401H43.085V22.8535H44.7161C45.0043 22.8733 45.2935 22.8351 45.5669 22.7412C45.8402 22.6474 46.0923 22.4997 46.3083 22.3068C46.511 22.0753 46.6649 21.8048 46.7606 21.5117C46.8563 21.2185 46.8918 20.9089 46.8649 20.6016V16.6967C46.9041 16.1277 46.7179 15.5663 46.3471 15.1347C46.1396 14.9517 45.897 14.8134 45.6343 14.7283C45.3716 14.6432 45.0943 14.6132 44.8196 14.6401H44.8455ZM45.7257 20.7188C45.7488 20.9954 45.6756 21.2714 45.5186 21.4998C45.4275 21.5904 45.3176 21.6595 45.1967 21.7023C45.0759 21.745 44.9471 21.7603 44.8196 21.7471H44.2759V15.7465H44.8196C44.9514 15.7314 45.0848 15.7484 45.2087 15.796C45.3326 15.8435 45.4433 15.9203 45.5316 16.0198C45.6737 16.2398 45.7418 16.4999 45.7257 16.7618V20.7188ZM50.9036 14.7442C50.657 14.6271 50.3867 14.5692 50.114 14.575C49.8065 14.5683 49.5014 14.6306 49.2208 14.7572C48.9817 14.865 48.7727 15.0304 48.6124 15.2389C48.438 15.445 48.306 15.6839 48.2241 15.9417C48.1456 16.2301 48.1064 16.5279 48.1076 16.8269C48.0878 17.2754 48.1766 17.7221 48.3665 18.1285C48.5927 18.5162 48.9516 18.8077 49.3762 18.9485L50.2176 19.287L50.5671 19.4692C50.6513 19.5214 50.7223 19.5928 50.7742 19.6775C50.823 19.7798 50.8536 19.8899 50.8648 20.0029C50.8648 20.1461 50.8648 20.3153 50.8648 20.5366C50.8648 20.7578 50.8648 20.888 50.8648 21.0442C50.8658 21.1773 50.83 21.308 50.7613 21.4217C50.7021 21.5288 50.6118 21.6151 50.5024 21.669C50.3578 21.7405 50.197 21.7719 50.0363 21.7601C49.9177 21.7704 49.7982 21.7522 49.6879 21.7069C49.5777 21.6617 49.4797 21.5907 49.4021 21.4998C49.2734 21.3322 49.205 21.1257 49.2079 20.914V20.5496H48.0429V20.9921C48.0405 21.252 48.0935 21.5095 48.1982 21.7471C48.3009 21.977 48.4409 22.1881 48.6124 22.3719C48.7977 22.5474 49.0124 22.6884 49.2467 22.7884C49.4993 22.8833 49.7667 22.9318 50.0363 22.9316C50.3648 22.939 50.6912 22.877 50.9943 22.7494C51.2436 22.6404 51.4585 22.4648 51.6156 22.2417C51.7812 22.0178 51.8961 21.7601 51.9522 21.4868C52.0213 21.1704 52.0561 20.8474 52.0557 20.5235C52.0703 20.2591 52.0703 19.994 52.0557 19.7295C52.0264 19.5092 51.9654 19.2944 51.8745 19.0917C51.7763 18.9156 51.6494 18.7572 51.4991 18.6231C51.3065 18.4745 51.0926 18.356 50.8648 18.2717L49.8033 17.9072C49.6763 17.8598 49.5548 17.7987 49.4409 17.725C49.3599 17.6675 49.2933 17.5917 49.2467 17.5037C49.1956 17.4163 49.1646 17.3184 49.1561 17.2174C49.1487 17.083 49.1487 16.9482 49.1561 16.8138C49.1427 16.6797 49.1427 16.5445 49.1561 16.4103C49.1752 16.2916 49.2146 16.1771 49.2726 16.0719C49.3351 15.9788 49.4196 15.9027 49.5186 15.8506C49.6357 15.7798 49.7703 15.7437 49.9069 15.7465C50.0295 15.7359 50.1527 15.7579 50.264 15.8105C50.3754 15.8631 50.471 15.9443 50.5412 16.0459C50.6712 16.2568 50.7386 16.5006 50.7354 16.7488V17.0091H51.9004V16.4364C51.9059 16.1943 51.8615 15.9538 51.7702 15.7298C51.6789 15.5058 51.5425 15.3032 51.3696 15.1347C51.2124 14.9737 51.0284 14.8416 50.826 14.7442H50.9036Z" fill="white"/>
</svg>
