<svg width="36" height="43" viewBox="0 0 36 43" fill="none" xmlns="http://www.w3.org/2000/svg">
<path d="M11.5 5.40898C13.5024 4.57971 15.6978 4.12207 18 4.12207C22.6838 4.12207 26.9253 6.01629 30 9.08048C33.0886 12.1585 35 16.4171 35 21.1221C35 23.1433 34.6473 25.0821 34 26.8803M2.5 14.1298C1.53638 16.2625 1 18.6296 1 21.1221C1 25.8271 2.91138 30.0856 6 33.1637C9.07474 36.2278 13.3162 38.1221 18 38.1221C20.4924 38.1221 22.8596 37.5857 24.9923 36.6221" stroke="#52586F" stroke-width="1.8" stroke-linecap="round" stroke-linejoin="round"/>
<path fill-rule="evenodd" clip-rule="evenodd" d="M9.78672 1.58303C9.98034 1.02988 10.606 0.761043 11.1405 1.00131L11.2039 1.02979C11.6766 1.24226 11.9087 1.7807 11.7385 2.27024L10.4943 5.84937L13.9505 7.4028C14.4232 7.61528 14.6552 8.15371 14.4851 8.64325L14.4622 8.70888C14.2698 9.26245 13.6447 9.53263 13.1097 9.29351L8.7421 7.34165C8.26742 7.12952 8.03448 6.58903 8.20625 6.0983L9.78672 1.58303Z" fill="#52586F"/>
<path fill-rule="evenodd" clip-rule="evenodd" d="M25.4483 41.0062C25.1767 41.5256 24.5188 41.7011 24.0246 41.3861L23.966 41.3487C23.529 41.0701 23.3773 40.5038 23.6164 40.044L25.3651 36.6824L22.1699 34.6455C21.7329 34.3669 21.5811 33.8006 21.8203 33.3408L21.8524 33.2792C22.1228 32.7592 22.7804 32.5823 23.2753 32.8963L27.3147 35.4592C27.7537 35.7377 27.906 36.3062 27.6651 36.767L25.4483 41.0062Z" fill="#52586F"/>
<path d="M19.9792 24.3391C19.9792 23.8922 19.8295 23.5242 19.5301 23.235C19.2308 22.9406 18.7318 22.6777 18.0333 22.4464C17.3347 22.2098 16.7914 21.9916 16.4033 21.7918C15.1116 21.1346 14.4657 20.1619 14.4657 18.8738C14.4657 18.0011 14.7457 17.2834 15.3056 16.7208C15.8656 16.1583 16.6251 15.8244 17.5842 15.7192V14H18.9148V15.735C19.8794 15.8665 20.6251 16.2555 21.1518 16.9022C21.6784 17.5436 21.9418 18.3796 21.9418 19.4101H19.9293C19.9293 18.7476 19.7713 18.2271 19.4553 17.8486C19.1448 17.4648 18.7207 17.2729 18.183 17.2729C17.6507 17.2729 17.2349 17.4096 16.9356 17.683C16.6362 17.9564 16.4865 18.3481 16.4865 18.858C16.4865 19.3155 16.6334 19.6835 16.9272 19.9621C17.2266 20.2355 17.7311 20.4958 18.4407 20.7429C19.1504 20.99 19.7076 21.2187 20.1123 21.429C20.517 21.6393 20.8579 21.8812 21.1351 22.1546C21.4123 22.4227 21.6258 22.7329 21.7755 23.0852C21.9252 23.4374 22 23.8502 22 24.3233C22 25.2119 21.7117 25.9322 21.1351 26.4842C20.5641 27.0363 19.7658 27.3623 18.7401 27.4621V29H17.4179V27.47C16.3202 27.3544 15.4747 26.9811 14.8815 26.3502C14.2938 25.7192 14 24.8833 14 23.8423H16.0208C16.0208 24.5047 16.1954 25.0174 16.5447 25.3801C16.8995 25.7429 17.3985 25.9243 18.0416 25.9243C18.6736 25.9243 19.1532 25.7797 19.4802 25.4905C19.8129 25.2014 19.9792 24.8176 19.9792 24.3391Z" fill="#52586F"/>
</svg>
