<svg width="79" height="15" viewBox="0 0 79 15" fill="none" xmlns="http://www.w3.org/2000/svg">
<path d="M5.13141 13.9674L7.67279 7.19738L0.456866 9.58604C-0.359534 9.85428 0.167176 9.2156 0.167176 9.2156L1.28643 7.84883C1.81314 7.19738 2.68221 7.19738 2.68221 7.19738C2.68221 7.19738 1.81314 7.19738 1.28643 6.54593L0.167176 5.17916C0.167176 5.17916 -0.359534 4.52771 0.456866 4.80873L7.67279 7.19738V11.8853C7.67279 11.8853 7.67279 12.7028 6.98807 13.201L5.53961 14.2484C5.53961 14.2356 4.84172 14.7338 5.13141 13.9674ZM7.67279 2.50949V7.19738L5.13141 0.427395C4.84172 -0.339018 5.52645 0.15915 5.52645 0.15915L6.9749 1.20658C7.67279 1.69198 7.67279 2.50949 7.67279 2.50949Z" fill="#9DA3B4" fill-opacity="0.5"/>
<path d="M41.8418 11.0671H42.5134L42.8425 10.1985H44.1066L44.449 11.0671H45.1469L43.7248 7.60547H43.2112L41.8418 11.0671ZM43.0269 9.70033L43.2902 9.02333C43.3824 8.75509 43.4351 8.6018 43.4746 8.48684H43.4878C43.5141 8.6018 43.5668 8.75509 43.6721 9.02333L43.9223 9.7131H43.0269V9.70033ZM46.9245 11.131C47.5829 11.131 48.0438 10.9138 48.2545 10.4667C48.3467 10.2879 48.3862 10.058 48.3862 9.78974V7.63101H47.7409V9.73865C47.7409 9.93025 47.7146 10.0835 47.6488 10.2113C47.5303 10.454 47.2801 10.5945 46.9245 10.5945C46.569 10.5945 46.3188 10.454 46.2003 10.2113C46.1345 10.0835 46.1081 9.93025 46.1081 9.75142V7.63101H45.4629V9.78974C45.4629 10.0452 45.5024 10.2751 45.5946 10.454C45.8053 10.901 46.2662 11.131 46.9245 11.131ZM49.9136 11.0671H50.5588V8.15473H51.5069L51.6781 7.61824H48.8734V8.15473H49.9136V11.0671ZM52.139 11.0671H52.7842V9.57259H54.4828V11.0671H55.1412V7.61824H54.4828V9.04888H52.7842V7.63101H52.139V11.0671ZM57.6299 11.131C58.6702 11.131 59.4207 10.4284 59.4207 9.36822C59.4207 8.33356 58.6833 7.60547 57.6299 7.60547C56.5765 7.60547 55.8391 8.32079 55.8391 9.36822C55.8391 10.4156 56.5765 11.131 57.6299 11.131ZM57.6299 10.5945C56.9715 10.5945 56.537 10.1346 56.537 9.35544C56.537 8.57626 56.9847 8.11641 57.6299 8.11641C58.3015 8.11641 58.7228 8.58903 58.7228 9.35544C58.7228 10.1474 58.2751 10.5945 57.6299 10.5945ZM60.1054 11.0671H60.7507V9.72587H61.0535C61.1457 9.75142 61.2642 9.89193 61.4354 10.1985L61.9489 11.0671H62.6863L62.0938 10.058C61.9094 9.73865 61.7646 9.55982 61.6461 9.49595V9.48318C62.0543 9.35544 62.344 9.04888 62.344 8.58903C62.344 8.24414 62.1991 7.9248 61.8172 7.74597C61.6329 7.65656 61.3959 7.60547 61.0535 7.60547H60.0791V11.0671H60.1054ZM60.7638 9.21493V8.14196H61.0667C61.2642 8.14196 61.3827 8.18028 61.4617 8.24415C61.6197 8.33356 61.6987 8.49962 61.6987 8.67845C61.6987 8.8956 61.6066 9.04888 61.4486 9.13829C61.3432 9.18939 61.2247 9.22771 61.0535 9.22771H60.7638V9.21493ZM63.2262 11.0671H63.8714V7.61824H63.2262V11.0671ZM65.3989 11.0671H66.0441V8.15473H66.9922L67.1765 7.61824H64.3718V8.15473H65.412V11.0671H65.3989ZM68.6381 11.0671H69.2965V9.7131L70.508 7.63101H69.8101L68.9805 9.15107H68.9673L68.1378 7.63101H67.4267L68.6381 9.7131V11.0671Z" fill="#9DA3B4" fill-opacity="0.5"/>
<path d="M41.8408 6.59836H42.486V4.644C42.486 4.52904 42.486 4.35021 42.486 4.2097H42.4992C42.565 4.33744 42.6704 4.46517 42.7362 4.56736L43.5131 5.65311H43.8028L44.5007 4.59291C44.5665 4.50349 44.6982 4.29912 44.7377 4.2097H44.7509C44.7377 4.35021 44.7377 4.52904 44.7377 4.66955V6.61113H45.3961V3.16227H44.8035L43.9476 4.43962C43.8291 4.61845 43.7369 4.77174 43.6579 4.89947H43.6448C43.5658 4.75896 43.4736 4.63123 43.3419 4.4524L42.407 3.14949H41.8145V6.59836H41.8408ZM45.8701 6.59836H46.5417L46.8709 5.72976H48.135L48.4773 6.59836H49.1752L47.7531 3.13672H47.2396L45.8701 6.59836ZM47.0684 5.21881L47.3317 4.54181C47.4239 4.27357 47.4766 4.12028 47.5161 4.00532H47.5293C47.5556 4.12028 47.6083 4.27357 47.7004 4.54181L47.9506 5.23159H47.0684V5.21881ZM49.6624 6.59836H51.5718V6.06187H50.3076V3.14949H49.6624V6.59836ZM52.4013 6.59836H53.0465V3.68598H53.9946L54.179 3.14949H51.3742V3.68598H52.4145V6.59836H52.4013ZM53.8498 6.59836H54.5213L54.8505 5.72976H56.1146L56.457 6.59836H57.1549L55.7328 3.13672H55.2192L53.8498 6.59836ZM55.048 5.21881L55.3114 4.54181C55.4036 4.27357 55.4562 4.12028 55.4957 4.00532H55.5089C55.5352 4.12028 55.5879 4.27357 55.6933 4.54181L55.9434 5.23159H55.048V5.21881ZM61.8031 4.92502H61.1447V6.02355C60.9999 6.08742 60.7892 6.12574 60.5521 6.12574C59.7884 6.12574 59.3407 5.64034 59.3407 4.89947C59.3407 4.17138 59.7884 3.66044 60.6443 3.66044C61.0262 3.66044 61.3422 3.74985 61.6187 3.89036V3.30278C61.3554 3.21336 60.9999 3.13672 60.5917 3.13672C59.4066 3.13672 58.6428 3.90313 58.6428 4.95057C58.6428 5.93413 59.3275 6.66223 60.4995 6.66223C60.9999 6.66223 61.4739 6.54727 61.7899 6.38121V4.92502H61.8031ZM62.2245 6.59836H62.896L63.2252 5.72976H64.4893L64.8317 6.59836H65.5296L64.1206 3.13672H63.5939L62.2245 6.59836ZM63.4227 5.21881L63.6861 4.54181C63.7782 4.27357 63.8309 4.12028 63.8704 4.00532H63.8836C63.9099 4.12028 63.9626 4.27357 64.0679 4.54181L64.3181 5.23159H63.4227V5.21881ZM66.0168 6.59836H66.662V4.644C66.662 4.52904 66.662 4.35021 66.662 4.2097H66.6751C66.741 4.33744 66.8463 4.46517 66.9122 4.56736L67.6891 5.65311H67.9919L68.6898 4.59291C68.7557 4.50349 68.8873 4.29912 68.9268 4.2097H68.94C68.9268 4.35021 68.9268 4.52904 68.9268 4.66955V6.61113H69.5852V3.16227H68.9927L68.1368 4.43962C68.0183 4.61845 67.9261 4.77174 67.8471 4.89947H67.8339C67.7549 4.75896 67.6627 4.63123 67.5442 4.4524L66.6093 3.14949H66.0168V6.59836ZM70.4675 6.59836H71.1127V3.14949H70.4675V6.59836ZM75.1552 6.59836V3.14949H74.4968V4.98889C74.4968 5.18049 74.4968 5.38487 74.51 5.5637H74.4968C74.3914 5.39764 74.2598 5.23159 74.1018 5.02721L72.6138 3.13672H71.9686V6.58559H72.6138V4.63123C72.6138 4.42685 72.6138 4.23525 72.6006 4.09474H72.6138C72.7323 4.24802 72.8508 4.42685 73.0088 4.61846L74.5495 6.58559H75.1552V6.59836ZM79.0002 4.92502H78.3418V6.02355C78.1969 6.08742 77.9862 6.12574 77.7492 6.12574C76.9855 6.12574 76.5378 5.64034 76.5378 4.89947C76.5378 4.17138 76.9855 3.66044 77.8414 3.66044C78.2233 3.66044 78.5393 3.74985 78.8158 3.89036V3.30278C78.5525 3.21336 78.1969 3.13672 77.7887 3.13672C76.6036 3.13672 75.8399 3.90313 75.8399 4.95057C75.8399 5.93413 76.5246 6.66223 77.6965 6.66223C78.1969 6.66223 78.671 6.54727 78.987 6.38121V4.92502H79.0002Z" fill="#9DA3B4" fill-opacity="0.5"/>
<path d="M9.38281 11.1039H11.9374V5.77734C12.3982 5.44522 12.9908 5.26639 13.478 5.26639C14.4261 5.26639 14.5314 5.91785 14.5314 6.68426V11.1039H17.0859V5.94339V5.77734C17.5468 5.44522 18.1262 5.26639 18.6134 5.26639C19.5615 5.26639 19.68 5.8923 19.68 6.64594V11.1039H22.2477V6.00726C22.2477 3.83576 20.8783 3.13321 19.4035 3.13321C18.5739 3.13321 17.56 3.47809 16.5856 4.23173C16.1642 3.54196 15.4136 3.13321 14.3997 3.13321C13.4385 3.13321 12.5167 3.58028 11.7793 4.11677L11.5423 3.32481H9.39598V11.1039H9.38281ZM26.8169 14.9999C29.8718 14.9999 31.3071 13.7353 31.3071 12.3429C31.3071 9.43058 26.04 10.6952 26.04 9.37948C26.04 9.30284 26.04 9.21343 26.1058 9.0346C26.3429 9.09846 26.6852 9.13679 27.0144 9.13679C29.0686 9.13679 30.5039 7.99994 30.5039 6.21164C30.5039 5.57296 30.3064 4.95983 29.9245 4.48721C30.0562 4.43611 30.2932 4.42334 30.3985 4.42334C30.596 4.42334 30.8594 4.46166 31.0701 4.49998L31.5441 2.78832C31.4124 2.77555 31.1359 2.75 30.9647 2.75C29.806 2.75 29.2924 3.03102 28.8316 3.43977C28.7657 3.50364 28.7131 3.54196 28.634 3.49087C28.2917 3.29926 27.6991 3.13321 26.9617 3.13321C24.4862 3.13321 23.4855 4.69158 23.4855 6.05836C23.4855 7.08024 23.9595 8.02548 24.8944 8.51088C24.2492 8.85577 23.8278 9.39226 23.8278 9.94152C23.8278 10.3375 24.0122 10.7079 24.3545 10.8995C23.6303 11.1422 22.9324 11.7809 22.9324 12.6878C22.9324 13.978 24.2887 14.9999 26.8169 14.9999ZM27.1856 13.3265C25.9083 13.3265 25.1841 12.8794 25.1841 12.2408C25.1841 11.8959 25.3685 11.6532 25.5265 11.5127C26.3429 11.9214 28.8974 11.6915 28.8974 12.6112C28.8974 13.0966 28.081 13.3265 27.1856 13.3265ZM27.0012 7.32294C26.2375 7.32294 25.8688 6.73536 25.8688 6.135C25.8688 5.31749 26.356 4.93428 26.9749 4.93428C27.7518 4.93428 28.1468 5.56018 28.1468 6.14777C28.1337 6.92696 27.6465 7.32294 27.0012 7.32294ZM37.0746 11.1039H39.1814C39.0497 10.6824 39.0497 10.0565 39.0497 9.57109V6.0839C39.0497 4.19341 38.0358 3.12043 35.5603 3.12043C34.283 3.12043 33.2033 3.41423 32.2552 3.87407L33.0452 5.43245C33.6246 5.13866 34.4015 4.95983 35.0731 4.95983C35.9421 4.95983 36.482 5.25362 36.482 5.98171V6.05836L35.2048 6.10945C34.3883 6.14777 33.6641 6.28828 33.0847 6.58207C32.2552 7.0036 31.7416 7.65505 31.7416 8.70248C31.7416 10.197 32.9004 11.2444 34.4674 11.2444C35.4681 11.2444 36.166 10.8868 36.7059 10.4269L37.0746 11.1039ZM36.482 7.64228V9.08569C36.2977 9.20065 35.8763 9.36671 35.3101 9.36671C34.7044 9.36671 34.3093 9.09847 34.3093 8.56198C34.3093 8.22986 34.4279 8.03826 34.6649 7.88497C34.8887 7.75724 35.2048 7.69337 35.613 7.66783L36.482 7.64228Z" fill="#9DA3B4" fill-opacity="0.5"/>
</svg>
