<svg width="77" height="26" viewBox="0 0 77 26" fill="none" xmlns="http://www.w3.org/2000/svg">
<path fill-rule="evenodd" clip-rule="evenodd" d="M55.4203 6.14086C57.1388 6.14086 58.5316 4.76641 58.5316 3.07152C58.5316 1.37565 57.1388 -0.00012207 55.4203 -0.00012207C53.7039 -0.00012207 52.3117 1.37565 52.3117 3.07152C52.3117 4.76641 53.7039 6.14086 55.4203 6.14086ZM31.5921 7.79845C31.4517 8.1466 30.4412 10.9645 27.9974 13.885V1.39743L21.4861 2.66793V25.303H27.9974V18.3063C29.8833 21.0988 30.8146 25.303 30.8146 25.303H38.6138C37.8424 22.1366 34.4677 16.2983 34.4677 16.2983C37.4964 12.5072 38.8267 8.46769 39.0383 7.79845H31.5921ZM48.7101 7.56217C42.878 7.74697 39.9174 10.3302 39.9174 15.4654V25.303H46.28V17.2807C46.28 14.2057 46.6878 12.8877 50.3837 12.762V7.65226C49.7617 7.52191 48.7101 7.56217 48.7101 7.56217ZM10.5659 10.2909C9.76833 10.2391 7.92189 10.1213 7.92189 8.48023C7.92189 6.4999 10.5802 6.4999 11.5773 6.4999C13.3305 6.4999 15.6011 7.0114 17.2226 7.49023C17.2226 7.49023 18.1271 7.80505 18.8969 8.12746L18.9685 8.1466V2.72304L18.8702 2.69433C16.9566 2.03334 14.7314 1.39743 10.606 1.39743C3.49296 1.39743 0.972656 5.48845 0.972656 8.99305C0.972656 11.0133 1.84975 15.768 9.99596 16.3164C10.6865 16.3583 12.5193 16.4626 12.5193 18.1585C12.5193 19.5587 11.0188 20.3843 8.49514 20.3843C5.72949 20.3843 3.04673 19.688 1.41722 19.0277V24.6136C3.85664 25.2449 6.60658 25.5604 9.8295 25.5604C16.7844 25.5604 19.8994 21.6898 19.8994 17.8536C19.8994 13.5038 16.4137 10.6777 10.5659 10.2909ZM52.2663 25.303H58.5774V7.81825H52.2663V25.303ZM70.461 2.51217V25.303H76.7731V1.39743L70.461 2.51217ZM61.2508 2.51217L67.5569 1.39743V25.303H61.2508V2.51217Z" fill="white"/>
</svg>
