<?xml version="1.0" encoding="UTF-8"?>
<svg width="80px" height="80px" viewBox="0 0 80 80" version="1.1" xmlns="http://www.w3.org/2000/svg" xmlns:xlink="http://www.w3.org/1999/xlink">
    <title>Casino Technology_logo_mini_color Copy</title>
    <defs>
        <linearGradient x1="76.333468%" y1="54.3338434%" x2="11.4107982%" y2="23.0118972%" id="linearGradient-1">
            <stop stop-color="#DA001F" offset="0%"></stop>
            <stop stop-color="#DA001F" stop-opacity="0" offset="100%"></stop>
        </linearGradient>
        <linearGradient x1="54.3370285%" y1="23.662563%" x2="23.0150785%" y2="88.5852571%" id="linearGradient-2">
            <stop stop-color="#DA001F" offset="0%"></stop>
            <stop stop-color="#DA001F" stop-opacity="0" offset="100%"></stop>
        </linearGradient>
        <linearGradient x1="23.6636936%" y1="45.6674943%" x2="88.5863982%" y2="76.9894444%" id="linearGradient-3">
            <stop stop-color="#DA001F" offset="0%"></stop>
            <stop stop-color="#DA001F" stop-opacity="0" offset="100%"></stop>
        </linearGradient>
        <linearGradient x1="45.6627647%" y1="76.3287768%" x2="76.9847148%" y2="11.4060827%" id="linearGradient-4">
            <stop stop-color="#DA001F" offset="0%"></stop>
            <stop stop-color="#DA001F" stop-opacity="0" offset="100%"></stop>
        </linearGradient>
    </defs>
    <g id="Casino-Technology_logo_mini_color-Copy" stroke="none" stroke-width="1" fill="none" fill-rule="evenodd">
        <g id="4theplayer_color_mini" transform="translate(2.000000, 2.000000)" fill-rule="nonzero">
            <g id="Group">
                <g id="XMLID_42_" transform="translate(21.483236, 0.000000)" fill="url(#linearGradient-1)">
                    <g id="Symbol_2_copy_2_0_Layer2_0_FILL_71_" transform="translate(0.008200, 0.030066)">
                        <path d="M31.7438047,19.8542274 L44.4478863,33.7554665 L51.4832362,17.5528426 L47.9026968,17.962828 C41.0368076,6.80575802 31.2955539,2.80976676 24.8833819,1.12609329 C13.3983236,-1.88593294 3.04482507,2.0335277 0.0491982507,3.53680758 C8.09037901,2.07725948 15.7434402,3.41654519 22.4508017,6.88228863 C28.1632653,9.83418367 32.662172,13.8247085 36.3465743,19.3021137 L31.7438047,19.8542274 Z" id="Path"></path>
                    </g>
                </g>
                <g id="XMLID_41_" transform="translate(0.000000, 1.803936)" fill="url(#linearGradient-2)">
                    <g id="Symbol_2_copy_2_0_Layer2_0_FILL_70_" transform="translate(0.008200, 0.030066)">
                        <path d="M19.8760933,19.7503644 L33.7773324,7.0462828 L17.5747085,0.0109329446 L17.9846939,3.5914723 C6.82762391,10.4573615 2.83163265,20.1986152 1.14795918,26.6107872 C-1.86406706,38.0958455 2.05539359,48.449344 3.55867347,51.4449708 C2.09912536,43.4037901 3.43841108,35.7507289 6.90415452,29.0433673 C9.85604956,23.3309038 13.8465743,18.8319971 19.3239796,15.1475948 L19.8760933,19.7503644 Z" id="Path"></path>
                    </g>
                </g>
                <g id="XMLID_40_" transform="translate(1.749271, 40.943878)" fill="url(#linearGradient-3)">
                    <g id="Symbol_2_copy_2_0_Layer2_0_FILL_68_" transform="translate(0.008200, 0.030066)">
                        <path d="M19.7612974,13.9340379 L7.05721574,0.0327988338 L0.0218658892,16.2354227 L3.60240525,15.8254373 C10.4682945,26.9825073 20.2095481,30.9784985 26.6217201,32.662172 C38.1067784,35.6741983 48.460277,31.7547376 51.4559038,30.2514577 C43.414723,31.7110058 35.7616618,30.3717201 29.0543003,26.9059767 C23.3418367,23.9540816 18.84293,19.9635569 15.1585277,14.4861516 L19.7612974,13.9340379 Z" id="Path"></path>
                    </g>
                </g>
                <g transform="translate(41.170736, 21.513302)" fill="url(#linearGradient-4)" id="Symbol_2_copy_2_0_Layer2_0_FILL_67_">
                    <path d="M13.912172,31.7328717 L0.0109329446,44.4424198 L16.2135569,51.4777697 L15.8035714,47.8972303 C26.9606414,41.0313411 30.9566327,31.2900875 32.6403061,24.8779155 C35.6523324,13.3928571 31.7328717,3.0393586 30.2295918,0.0437317784 C31.6891399,8.08491254 30.3498542,15.7379738 26.8841108,22.4453353 C23.9322157,28.1577988 19.941691,32.6567055 14.4642857,36.3411079 L13.912172,31.7328717 Z" id="Path"></path>
                </g>
            </g>
            <path d="M16.2135569,38.0083819 L16.2244898,38.0193149 C16.5470117,38.3473032 21.8440233,43.6388484 21.8440233,43.6388484 L37.1337464,43.6388484 L37.1337464,58.9285714 L37.1446793,58.9395044 L45.1530612,50.9201895 L45.1421283,43.6443149 L52.4234694,43.6443149 L52.4234694,37.0080175 L45.1366618,37.0080175 L45.1475948,17.0936589 L41.1406706,13.1031341 L16.2135569,38.0083819 Z M37.1282799,37.0080175 L28.1140671,37.0080175 L37.1282799,27.9938047 L37.1282799,37.0080175 L37.1282799,37.0080175 Z M43.7808455,17.8443003 L43.7808455,17.8643003 L43.7608455,17.8443003 L43.7808455,17.8443003 Z" id="Shape" fill="#26252F"></path>
        </g>
    </g>
</svg>