<svg width="44" height="44" viewBox="0 0 44 44" fill="none" xmlns="http://www.w3.org/2000/svg">
<path fill-rule="evenodd" clip-rule="evenodd" d="M21.9999 41C32.4933 41 40.9999 32.4934 40.9999 22C40.9999 11.5066 32.4933 3 21.9999 3C11.5065 3 2.99988 11.5066 2.99988 22C2.99988 32.4934 11.5065 41 21.9999 41ZM21.9999 44C34.1501 44 43.9999 34.1503 43.9999 22C43.9999 9.84974 34.1501 0 21.9999 0C9.84961 0 -0.00012207 9.84974 -0.00012207 22C-0.00012207 34.1503 9.84961 44 21.9999 44Z" fill="#E45809"/>
<path fill-rule="evenodd" clip-rule="evenodd" d="M13.3513 13.2458C13.3693 12.5225 13.9033 11.9199 14.6142 11.8076L22.308 10.5928L22.386 11.0867L22.308 10.5928C23.3106 10.4346 24.1583 11.2896 24.0502 12.2738C24.0076 12.661 23.9724 13.0375 23.9444 13.4051C23.9155 13.7826 23.7427 14.0878 23.5531 14.3242C23.3668 14.5565 23.1375 14.7542 22.9561 14.9092C22.5935 15.219 22.5678 15.7848 22.7731 16.0615C22.8402 16.152 22.9286 16.2469 23.0402 16.359C23.0699 16.3889 23.1025 16.4211 23.1367 16.4548C23.2204 16.5376 23.3136 16.6297 23.3971 16.7191C23.6311 16.9693 23.9185 17.3264 23.9621 17.8033C24.2256 20.6835 24.9861 23.4528 26.1298 27.3223C26.3882 28.1967 25.8143 29.1014 24.9093 29.2342L16.9129 30.4081L16.8402 29.9134L16.9129 30.4081C16.173 30.5167 15.4612 30.063 15.2573 29.3377C14.2326 25.6936 13.6853 22.8382 13.4546 19.6921C13.4255 19.2949 13.5683 18.9564 13.75 18.6905C13.9287 18.4288 14.1627 18.211 14.3665 18.04C14.7746 17.6974 14.7546 17.1411 14.5084 16.8836L14.8699 16.5381L14.5084 16.8836C14.4266 16.7979 14.3342 16.7124 14.2268 16.6129C14.2146 16.6016 14.2022 16.5901 14.1896 16.5784C14.0718 16.4692 13.9383 16.344 13.8164 16.2088C13.5774 15.9438 13.3178 15.5708 13.3211 15.081C13.3251 14.4912 13.3354 13.881 13.3513 13.2458ZM14.7702 12.7954C14.5322 12.833 14.3569 13.0338 14.351 13.2708L13.8511 13.2583L14.351 13.2708C14.3352 13.9008 14.325 14.5049 14.3211 15.0878C14.3203 15.2013 14.3767 15.337 14.559 15.5391C14.6476 15.6374 14.7511 15.7353 14.8696 15.8452C14.8819 15.8566 14.8945 15.8682 14.9072 15.88C15.011 15.9761 15.127 16.0834 15.2314 16.1927C15.9038 16.8963 15.8292 18.1178 15.0095 18.8059C14.8291 18.9573 14.6774 19.1057 14.5757 19.2546C14.4768 19.3993 14.4444 19.5158 14.4519 19.619C14.6766 22.6829 15.2087 25.4708 16.22 29.067L15.7386 29.2023L16.22 29.067C16.2863 29.3029 16.5196 29.4551 16.7676 29.4187L16.8394 29.9079L16.7676 29.4187L24.7641 28.2449C25.0642 28.2008 25.2576 27.8994 25.1708 27.6057C24.0293 23.7437 23.2399 20.8857 22.9662 17.8944C22.955 17.7711 22.8755 17.6254 22.6666 17.402C22.5969 17.3274 22.5273 17.2586 22.4505 17.1828C22.4129 17.1456 22.3736 17.1068 22.3317 17.0647C22.2134 16.946 22.0823 16.8088 21.9699 16.6573C21.4411 15.9444 21.5577 14.7887 22.3065 14.1489C22.4942 13.9886 22.6537 13.8473 22.7731 13.6985C22.8892 13.5537 22.9391 13.4356 22.9473 13.329C22.9762 12.9498 23.0124 12.5622 23.0562 12.1645C23.095 11.8109 22.7909 11.529 22.464 11.5806L14.7702 12.7954Z" fill="#0E152F"/>
<path fill-rule="evenodd" clip-rule="evenodd" d="M25.4992 14.6779L26.243 14.9473C26.1295 15.8473 26.7057 16.7097 27.6085 16.9328C28.3825 17.1242 29.1634 16.788 29.5718 16.1531L30.4049 16.4548C31.0378 16.6841 31.2669 17.4595 30.8864 18.0145C30.6662 18.3355 30.4613 18.6498 30.2697 18.9598C28.5555 21.7239 27.4924 25.6077 27.0127 28.0001C26.8875 28.6242 26.2347 29.0059 25.6382 28.7826L24.622 28.4019C24.7251 27.5088 24.1506 26.6569 23.2542 26.4353C22.5001 26.2488 21.7395 26.5631 21.3232 27.1665L20.4736 26.8483C20.0578 26.6926 19.7928 26.2826 19.8623 25.8443C20.1497 24.0304 21.0966 20.5644 23.3264 16.8392C23.6254 16.287 23.9489 15.7142 24.3009 15.1094C24.5425 14.6944 25.0474 14.5143 25.4992 14.6779Z" fill="#E45809"/>
<path fill-rule="evenodd" clip-rule="evenodd" d="M17.7714 12.0036L19.2919 12.1641C19.4462 13.4746 20.5614 14.4912 21.9142 14.4912C23.0741 14.4912 24.0594 13.7438 24.414 12.7046L26.3068 12.9043C26.9763 12.9749 27.3857 13.6729 27.1398 14.2992C26.8513 15.0341 26.599 15.7388 26.379 16.424C24.8448 21.1722 24.7692 27.4268 24.9686 30.8881C25.0052 31.5236 24.4641 32.0501 23.8315 31.9764L21.7056 31.7288C21.5386 30.4322 20.4298 29.4303 19.0869 29.4303C17.9574 29.4303 16.9935 30.1391 16.6163 31.1359L14.9653 30.9436C14.5243 30.8922 14.1683 30.5581 14.1217 30.1169C13.8536 27.5777 13.9051 22.1595 15.8332 15.8536C16.0905 14.8613 16.3821 13.8216 16.7108 12.7098C16.847 12.2493 17.2936 11.9532 17.7714 12.0036Z" fill="#E45809"/>
<path fill-rule="evenodd" clip-rule="evenodd" d="M19.4388 10.7717L20.5515 10.8891L20.6823 12.0003C20.7545 12.6134 21.2789 13.0911 21.9142 13.0911C22.4575 13.0911 22.922 12.7416 23.089 12.2523L23.4498 11.1949L26.4537 11.5119C28.0734 11.6828 29.0154 13.3526 28.443 14.8107C28.1643 15.5204 27.9222 16.1973 27.7119 16.852L27.7112 16.8543C26.258 21.3519 26.1699 27.3974 26.3663 30.8075C26.4512 32.2823 25.1949 33.5446 23.6695 33.3669L20.4569 32.9927L20.3171 31.9076C20.2389 31.3009 19.7174 30.8302 19.0869 30.8302C18.5579 30.8302 18.1035 31.1614 17.9257 31.6313L17.5391 32.6528L14.8033 32.3341C13.7643 32.213 12.8502 31.4074 12.7295 30.2638C12.4433 27.5539 12.5075 21.9581 14.4856 15.473C14.7458 14.471 15.0394 13.4253 15.3683 12.3128C15.6974 11.1994 16.7744 10.4905 17.9183 10.6112L17.7714 12.0035C17.2936 11.9531 16.847 12.2492 16.7108 12.7097C16.3821 13.8215 16.0905 14.8612 15.8332 15.8535C13.9051 22.1593 13.8536 27.5776 14.1217 30.1168C14.1683 30.558 14.5243 30.8921 14.9653 30.9435L16.6163 31.1358C16.9935 30.139 17.9574 29.4302 19.0869 29.4302C20.4298 29.4302 21.5386 30.4321 21.7056 31.7287L23.8315 31.9763C24.4641 32.05 25.0052 31.5235 24.9686 30.888C24.7692 27.4267 24.8448 21.1721 26.379 16.4239C26.5991 15.7387 26.8513 15.0339 27.1398 14.299C27.3857 13.6728 26.9763 12.9748 26.3068 12.9042L24.414 12.7044C24.0594 13.7437 23.0741 14.4911 21.9142 14.4911C20.5614 14.4911 19.4462 13.4745 19.2919 12.164L17.7714 12.0035M19.4388 10.7717L17.9183 10.6112L19.4388 10.7717Z" fill="#0E152F"/>
<path d="M20.3311 19.1869C20.2617 19.0503 20.0707 19.0393 19.9861 19.167L18.983 20.6805C18.952 20.7273 18.9027 20.7589 18.8472 20.7676L17.0526 21.0491C16.9012 21.0728 16.8317 21.251 16.9271 21.3709L18.0575 22.792C18.0924 22.8359 18.1073 22.8925 18.0984 22.9479L17.8117 24.7406C17.7875 24.8919 17.9356 25.013 18.0792 24.9594L19.7809 24.3241C19.8335 24.3045 19.892 24.3079 19.942 24.3334L21.5594 25.1599C21.6959 25.2296 21.8569 25.1263 21.8502 24.9732L21.7715 23.1595C21.7691 23.1035 21.7904 23.049 21.8301 23.0093L23.1165 21.7275C23.225 21.6193 23.1764 21.4343 23.0287 21.3934L21.2784 20.9077C21.2243 20.8927 21.179 20.8556 21.1536 20.8056L20.3311 19.1869Z" fill="#0E152F"/>
</svg>
