<svg width="44" height="44" viewBox="0 0 44 44" fill="none" xmlns="http://www.w3.org/2000/svg">
<path fill-rule="evenodd" clip-rule="evenodd" d="M22 41C32.4934 41 41 32.4934 41 22C41 11.5066 32.4934 3 22 3C11.5066 3 3 11.5066 3 22C3 32.4934 11.5066 41 22 41ZM22 44C34.1503 44 44 34.1503 44 22C44 9.84974 34.1503 0 22 0C9.84974 0 0 9.84974 0 22C0 34.1503 9.84974 44 22 44Z" fill="#E45809"/>
<path fill-rule="evenodd" clip-rule="evenodd" d="M27.3438 19.2582C27.7827 18.0412 28.0166 16.7446 28.0166 15.4145V14.9369L30.0855 14.9369C30.0831 16.7935 28.9922 18.4441 27.3438 19.2582ZM22.7629 25.0541C24.3215 24.0202 25.5895 22.6604 26.489 21.0993C29.4732 20.4507 31.6009 17.8913 31.6009 14.9308V14.491C31.6009 13.9297 31.1293 13.4746 30.5476 13.4746L28.0166 13.4746V13.3993C28.0166 12.6265 27.3673 12 26.5665 12H16.2806C15.4798 12 14.8305 12.6265 14.8305 13.3993V13.4724L12.443 13.4724C11.8665 13.4724 11.3992 13.9234 11.3992 14.4797V15.2696C11.3992 18.031 13.4399 20.3956 16.2462 20.9006C17.1794 22.5964 18.5419 24.0657 20.2372 25.1539V26.6393C20.6322 26.5464 21.0572 26.4959 21.5 26.4959C21.9428 26.4959 22.3679 26.5464 22.7629 26.6393V25.0541ZM12.9146 15.2696C12.9146 16.9567 13.9375 18.445 15.4589 19.1328C15.0486 17.9523 14.8305 16.699 14.8305 15.4145V14.9347L12.9146 14.9347V15.2696ZM17.7115 30.2778C17.7115 28.8853 19.4077 27.7565 21.5 27.7565C23.5924 27.7565 25.2886 28.8853 25.2886 30.2778H17.7115Z" fill="#E45809"/>
<path d="M22.5364 23.6836C22.5364 23.2792 22.8655 22.9499 23.2749 22.9446L27.2653 22.8936C27.6823 22.8883 28.0233 23.2207 28.0233 23.6326V30.3547L25.2798 27.9449L22.5364 30.3547V23.6836Z" fill="#E45809"/>
<path fill-rule="evenodd" clip-rule="evenodd" d="M28.7725 32L25.2808 28.9329L21.7891 32V23.6826C21.7891 22.8738 22.4473 22.2152 23.2662 22.2047L27.2566 22.1537C28.0906 22.143 28.7725 22.8078 28.7725 23.6316V32Z" fill="#E45809"/>
<path fill-rule="evenodd" clip-rule="evenodd" d="M28.7724 32.0001L25.2807 28.933L21.789 32.0001V23.6827C21.789 22.8739 22.4473 22.2153 23.2662 22.2048L27.2566 22.1538C28.0906 22.1431 28.7724 22.8079 28.7724 23.6317V32.0001ZM30.1724 35.0933L25.2807 30.7965L20.389 35.0933V23.6827C20.389 22.0917 21.6793 20.825 23.2483 20.8049L27.2387 20.7539C28.8361 20.7335 30.1724 22.0111 30.1724 23.6317V35.0933Z" fill="#0E152F"/>
<path d="M21.5387 22.8855C21.5387 20.889 23.1774 19.2705 25.1988 19.2705H25.3608C27.3822 19.2705 29.0208 20.889 29.0208 22.8855C29.0208 24.882 27.3822 26.5005 25.3608 26.5005H25.1988C23.1774 26.5005 21.5387 24.882 21.5387 22.8855Z" fill="#0E152F"/>
<path fill-rule="evenodd" clip-rule="evenodd" d="M25.0244 17.5703H25.2154C28.0848 17.5703 30.4108 19.9391 30.4108 22.8612C30.4108 25.7833 28.0848 28.1522 25.2154 28.1522H25.0244C22.1551 28.1522 19.829 25.7833 19.829 22.8612C19.829 19.9391 22.1551 17.5703 25.0244 17.5703Z" fill="#0E152F"/>
<path d="M25.1198 27.1887C27.5106 27.1887 29.4488 25.2505 29.4488 22.8597C29.4488 20.4689 27.5106 18.5308 25.1198 18.5308C22.729 18.5308 20.7909 20.4689 20.7909 22.8597C20.7909 25.2505 22.729 27.1887 25.1198 27.1887Z" fill="#E45809"/>
<path fill-rule="evenodd" clip-rule="evenodd" d="M25.1198 26.7887C27.2897 26.7887 29.0488 25.0296 29.0488 22.8597C29.0488 20.6898 27.2897 18.9308 25.1198 18.9308C22.9499 18.9308 21.1909 20.6898 21.1909 22.8597C21.1909 25.0296 22.9499 26.7887 25.1198 26.7887ZM29.4488 22.8597C29.4488 25.2505 27.5106 27.1887 25.1198 27.1887C22.729 27.1887 20.7909 25.2505 20.7909 22.8597C20.7909 20.4689 22.729 18.5308 25.1198 18.5308C27.5106 18.5308 29.4488 20.4689 29.4488 22.8597Z" fill="#0E152F"/>
</svg>
