<svg width="44" height="44" viewBox="0 0 44 44" fill="none" xmlns="http://www.w3.org/2000/svg">
<path fill-rule="evenodd" clip-rule="evenodd" d="M22 41C32.4934 41 41 32.4934 41 22C41 11.5066 32.4934 3 22 3C11.5066 3 3 11.5066 3 22C3 32.4934 11.5066 41 22 41ZM22 44C34.1503 44 44 34.1503 44 22C44 9.84974 34.1503 0 22 0C9.84974 0 0 9.84974 0 22C0 34.1503 9.84974 44 22 44Z" fill="#E45809"/>
<path d="M14 12.4C14 12.1791 14.1791 12 14.4 12H29.6C29.8209 12 30 12.1791 30 12.4V29.6C30 29.8209 29.8209 30 29.6 30H14.4C14.1791 30 14 29.8209 14 29.6V12.4Z" fill="#E45809"/>
<path d="M16.5262 24.5996H19.0526V27.2996H16.5262V24.5996Z" fill="#0E152F"/>
<path d="M16.5262 20.0996H19.0526V22.7996H16.5262V20.0996Z" fill="#0E152F"/>
<path d="M20.7368 24.5996H23.2631V27.2996H20.7368V24.5996Z" fill="#0E152F"/>
<path d="M16.5262 12H19.0526V13.8H16.5262V12Z" fill="#0E152F"/>
<path d="M20.7368 20.0996H23.2631V22.7996H20.7368V20.0996Z" fill="#0E152F"/>
<path d="M24.9473 24.5996H27.4736V27.2996H24.9473V24.5996Z" fill="#0E152F"/>
<path d="M24.9473 12H27.4736V13.8H24.9473V12Z" fill="#0E152F"/>
<path d="M24.9473 20.0996H27.4736V22.7996H24.9473V20.0996Z" fill="#0E152F"/>
<path d="M30 15.7803L30 17.4003L14 17.4003L14 15.781L30 15.7803Z" fill="#0E152F"/>
</svg>
