<svg width="14" height="14" viewBox="0 0 14 14" fill="none" xmlns="http://www.w3.org/2000/svg">
  <path fill-rule="evenodd" clip-rule="evenodd" d="M0.476047 0H13.524C13.7869 0 14 0.183531 14 0.409929V13.5901C14 13.8165 13.7869 14 13.524 14H0.476047C0.213133 14 0 13.8165 0 13.5901V0.409929C0 0.183531 0.213133 0 0.476047 0ZM3.2638 11.7001H7.42828C8.67787 11.6915 9.62091 11.4558 10.2574 10.9931C10.894 10.5304 11.2123 9.83856 11.2123 8.91748C11.2123 8.40959 11.069 7.97919 10.7824 7.62625C10.4959 7.27331 10.0848 7.03228 9.54928 6.90316C10.0237 6.7396 10.3831 6.48566 10.6274 6.14133C10.8717 5.797 10.9938 5.38166 10.9938 4.89529C10.9938 4.05168 10.6497 3.40822 9.9615 2.9649C9.27328 2.52157 8.26917 2.29991 6.94912 2.29991H3.2638V11.7001ZM5.73712 7.70372H7.47056C8.32084 7.70803 8.74598 8.10185 8.74598 8.8852C8.74598 9.22523 8.62619 9.48885 8.3866 9.67608C8.14702 9.86331 7.8041 9.95692 7.35781 9.95692H5.73712V7.70372ZM5.73712 6.2188V4.04953H6.94912C7.50344 4.04953 7.90509 4.13669 8.15407 4.31101C8.40305 4.48533 8.52753 4.77047 8.52753 5.16645C8.52753 5.51078 8.41244 5.77118 8.18225 5.94765C7.95207 6.12411 7.56686 6.2145 7.02663 6.2188H5.73712Z" fill="#FFC927"/>
</svg>
