<?xml version="1.0" encoding="utf-8"?>
<!-- Generator: Adobe Illustrator 24.0.1, SVG Export Plug-In . SVG Version: 6.00 Build 0)  -->
<svg version="1.1" id="Слой_1" xmlns="http://www.w3.org/2000/svg" xmlns:xlink="http://www.w3.org/1999/xlink" x="0px" y="0px"
	 viewBox="0 0 1100 313" style="enable-background:new 0 0 1100 313;" xml:space="preserve">
<style type="text/css">
	.st0{fill:#FFFFFF;}
	.st1{fill:#ffffff;}
</style>
<g id="surface1">
	<path class="st0" d="M114.9,140H76.8l15.9-46.9c1.1-3.2,2.1-6.4,3-9.5c1,3.2,2,6.5,3.2,9.9L114.9,140z M75.7,24.5L3,237.5h42.7
		l20.5-62.1h58.9l21.1,62.1h43.6l-72.6-213H75.7z"/>
	<path class="st0" d="M261.8,140.5c-19.6-7.8-21.8-11.4-21.8-17.1c0-7.2,6-11.6,15.7-11.6c11.6,0,20.5,4.6,24.9,7.3l8.4,5.3l11-33.8
		l-5-3.2c-9.6-6.3-24.1-10.1-38.8-10.1c-32.8,0-56.6,20.7-56.6,49.3c0,26.3,23.3,40.3,42.8,47.4c19.6,7.3,21.1,12.3,21.1,18.6
		c0,11.6-12.2,13.4-19.5,13.4c-11.3,0-23.4-4.8-30.3-8.9l-8.4-4.9l-11,34.5l5.3,3.1c11.9,7,27.9,11,43.8,11
		c36.2,0,60.5-20.3,60.5-50.5C303.8,159.8,279.7,147.2,261.8,140.5"/>
	<path class="st0" d="M368,43.5l-40.7,12.3v24.4h-22v35.1h22v69.6c0,19.5,3.9,33.3,12,42.4c7.9,8.6,19.8,13.4,33.5,13.4
		c12.4,0,21.2-2.5,25.4-4l5.5-1.9l-2.1-35.2l-9.4,2.8c-2.8,0.8-6,1.4-12.7,1.4c-4.9,0-11.6,0-11.6-19.8v-68.8h36.9v-35H368V43.5z"/>
	<path class="st0" d="M504,78.8l-7.5-1c-2.2-0.3-4.4-0.6-7.3-0.6c-12.8,0-24.7,5.3-33.7,14.5L455,80.2h-38.3l0.5,8.2
		c0.8,12.1,1.2,26,1.2,43.7v105.3h41.2v-83.3c0-3.9,0.3-7.8,0.7-10.6c3-16.3,13.3-26.5,27-26.5c3.2,0,5.3,0,7.1,0.4l9.4,2V78.8H504z
		"/>
	<path class="st0" d="M613.4,158.5c0,27.4-14.9,47.4-35.3,47.4c-20.3,0-35.1-19.7-35.1-46.8c0-17.5,7.5-47.1,35.7-47.1
		C606.1,112,613.4,142.5,613.4,158.5 M579.2,77.3c-46,0-78,34-78,82.7c0,47.5,31.1,80.7,75.7,80.7c37.7,0,78.4-26,78.4-83.1
		C655.2,110.3,623.9,77.3,579.2,77.3"/>
	<path class="st0" d="M769.3,90c0,29.7-26.2,34.2-41.8,34.2c-5.2,0-9.6-0.2-13.4-0.7v-64c4-0.5,9.4-0.8,16.3-0.8
		C748.1,58.7,769.3,64.1,769.3,90 M790.4,41.5c-13.6-12.2-33.9-18.4-60.6-18.4c-17.8,0-34.7,1.3-50.2,3.9l-6.4,1.1v209.4h40.9v-77.8
		c4.2,0.4,8.6,0.5,12.8,0.5c27.6,0,51.1-8.5,65.9-24c11.6-11.9,17.4-27.9,17.4-47.6C810.2,69.6,803.1,52.8,790.4,41.5"/>
	<path class="st0" d="M866.9,206.2c-6.1,0-16.3-2.2-16.3-16.9c0-5.7,1.7-10.1,5.3-13.6c4.8-4.7,15.5-10.1,39.4-10.7v17
		c0,1.2-0.1,3.5-0.8,5.7C891.6,196.2,882.6,206.2,866.9,206.2 M935.6,195.7v-53c0-42.2-21.9-65.5-61.6-65.5c-18.4,0-37.5,5-51,13.5
		l-5.2,3.2l11.1,32.7l8.4-5.7c8.5-5.8,20.8-9.2,33-9.2c8.3-0.1,14.4,1.8,18.3,5.7c3.3,3.3,5.3,8.1,5.9,14.4
		c-32.2,0.9-55.7,8.6-70,22.9c-10,9.9-15,22.5-15,37.5c0,24.1,17.6,48.4,51.1,48.4c14.3,0,27.8-4.6,38.3-12.6l1.1,9.4h39l-1.4-8.9
		C936.3,220,935.6,209,935.6,195.7"/>
	<path class="st0" d="M1048.9,80.2l-29.9,88.4c-0.8,2.2-1.5,4.5-2.2,6.8c-0.8-2.2-1.5-4.3-2.3-6.3l-32.6-88.9H937l56.4,141.3
		l0.2,0.4c0.9,1.9,1.2,2.9,1.3,3.3c-0.3,0.8-0.9,2.2-1.3,3.1c-4.9,10.4-12.1,20.1-19.5,25.9l-0.2,0.2c-8.2,7-16.7,10.1-19.9,11.2
		l-7.2,2.3l10.6,35.2l6.8-1.2c4.1-0.7,18.7-4.2,35.4-18.2c20.1-17.7,33.3-45.9,50.7-91.8L1093,80.2H1048.9z"/>
	<path class="st1" d="M153.4,83.1C180,56,225,39.8,273.8,39.8c19,0,37.6,2.4,55.1,7.3l1.4,0.4l31.3-9.5l-14.1-5.4
		C321,22.4,290.2,17,258.5,17c-45.9,0-88.8,11.1-120.7,31.2l-3.4,2.2L147.6,89L153.4,83.1z"/>
</g>
</svg>
