<svg width="33" height="30" viewBox="0 0 33 30" fill="none" xmlns="http://www.w3.org/2000/svg">
<path fill-rule="evenodd" clip-rule="evenodd" d="M32.2839 13.0532C32.2839 19.9623 25.0569 25.5632 16.142 25.5632C14.9276 25.5632 13.7445 25.4593 12.6068 25.2623L5.13431 29.5766V22.2034C1.97526 19.9198 0 16.6653 0 13.0532C0 6.14414 7.227 0.543213 16.142 0.543213C25.0569 0.543213 32.2839 6.14414 32.2839 13.0532ZM9.49527 9.08895C8.97086 9.08895 8.54574 9.51407 8.54574 10.0385C8.54574 10.5629 8.97086 10.988 9.49527 10.988H19.9401C20.4645 10.988 20.8896 10.5629 20.8896 10.0385C20.8896 9.51407 20.4645 9.08895 19.9401 9.08895H9.49527ZM8.54574 13.8366C8.54574 13.3122 8.97086 12.8871 9.49527 12.8871H22.7886C23.3131 12.8871 23.7382 13.3122 23.7382 13.8366C23.7382 14.361 23.3131 14.7861 22.7886 14.7861H9.49527C8.97086 14.7861 8.54574 14.361 8.54574 13.8366ZM9.49527 16.6852C8.97086 16.6852 8.54574 17.1103 8.54574 17.6347C8.54574 18.1591 8.97086 18.5842 9.49527 18.5842H19.9401C20.4645 18.5842 20.8896 18.1591 20.8896 17.6347C20.8896 17.1103 20.4645 16.6852 19.9401 16.6852H9.49527Z" fill="#F3B233"/>
</svg>
