<?xml version="1.0" encoding="UTF-8"?>
<svg width="80px" height="80px" viewBox="0 0 80 80" version="1.1" xmlns="http://www.w3.org/2000/svg" xmlns:xlink="http://www.w3.org/1999/xlink">
    <!-- Generator: Sketch 48.2 (47327) - http://www.bohemiancoding.com/sketch -->
    <title>belatra color</title>
    <desc>Created with Sketch.</desc>
    <defs></defs>
    <g id="Page-1" stroke="none" stroke-width="1" fill="none" fill-rule="evenodd">
        <g id="belatra-color" fill="#2C3689" fill-rule="nonzero">
            <path d="M25.6225748,14.8984378 L12.7015762,27.8194364 C12.4024636,28.1089161 12.237371,28.5098553 12.2459239,28.9260207 C12.2390846,29.3562492 12.4029147,29.7716756 12.7015762,30.0814249 L25.5574816,43.0024235 C25.8550797,43.2893462 26.2507192,43.4522566 26.6640659,43.4580758 C27.0906691,43.4461467 27.4995594,43.2848942 27.81947,43.0024235 L40.7404687,30.0814249 C41.0391302,29.7716756 41.2029603,29.3562492 41.196121,28.9260207 C41.2046739,28.5098553 41.0395813,28.1089161 40.7404687,27.8194364 L27.81947,14.8984378 C27.5097207,14.5997763 27.0942944,14.4359462 26.6640659,14.4427855 C26.2479005,14.4342326 25.8469613,14.5993252 25.5574816,14.8984378 L25.6225748,14.8984378 Z M28.8772344,13.8894934 L34.0358699,19.0969487 C36.2555548,17.3514838 38.5640215,15.7219779 40.9520215,14.2149593 L41.2286676,14.035953 L41.4564938,14.2149593 C41.5541336,14.2149593 69.1211004,31.562295 69.1211004,48.0796925 C69.1315171,51.9322463 67.6434275,55.6378811 64.9714094,58.4132367 C62.3471157,61.1595258 58.7130655,62.7119356 54.9145112,62.7093874 C52.0330928,62.7125912 49.2105094,61.894042 46.7778622,60.3497591 C45.0026008,59.2630047 43.4907766,57.7956459 42.3515252,56.0536085 C43.6045691,65.4595747 53.645194,66.0128669 54.8005981,66.0128669 L54.8982379,66.0128669 L54.8982379,66.9404448 L27.4451842,66.9404448 L27.4451842,66.0128669 L27.542824,66.0128669 C28.6982281,66.0128669 38.7063064,65.4595747 39.9918969,56.0536085 C38.827749,57.7749463 37.320874,59.2375016 35.5655599,60.3497591 C33.1303153,61.8882785 30.3094401,62.7063323 27.4289109,62.7093874 C23.6449052,62.6943782 20.0306353,61.1370098 17.4208326,58.3969634 C14.7310127,55.6331568 13.2398799,51.9199436 13.2711416,48.0634192 C13.3004692,45.9512942 13.6912509,43.8597865 14.4265458,41.8795659 C15.1365493,39.9763118 16.0475854,38.1542396 17.1441866,36.4442844 L11.708905,31.0415495 C11.1723345,30.468181 10.8754,29.7112892 10.8789668,28.9260207 C10.8719396,28.1497584 11.1699671,27.4017679 11.708905,26.8430386 L24.7275434,13.8244002 C25.2717495,13.3323513 25.9792154,13.059803 26.7128858,13.0595552 C27.492536,13.0601307 28.2428728,13.3567755 28.8121412,13.8894934 L28.8772344,13.8894934 Z" id="Shape"></path>
        </g>
    </g>
</svg>