<?xml version="1.0" encoding="UTF-8"?>
<svg width="80px" height="80px" viewBox="0 0 80 80" version="1.1" xmlns="http://www.w3.org/2000/svg" xmlns:xlink="http://www.w3.org/1999/xlink">
    <!-- Generator: Sketch 48.2 (47327) - http://www.bohemiancoding.com/sketch -->
    <title>bgaming color</title>
    <desc>Created with Sketch.</desc>
    <defs></defs>
    <g id="Page-1" stroke="none" stroke-width="1" fill="none" fill-rule="evenodd">
        <g id="bgaming-color" fill="#FFC927">
            <path d="M12.5911148,5.8477462 L67.4088852,5.8477462 C68.5134547,5.8477462 69.4088852,6.7431767 69.4088852,7.8477462 L69.4088852,72.1522538 C69.4088852,73.2568233 68.5134547,74.1522538 67.4088852,74.1522538 L12.5911148,74.1522538 C11.4865453,74.1522538 10.5911148,73.2568233 10.5911148,72.1522538 L10.5911148,7.8477462 C10.5911148,6.7431767 11.4865453,5.8477462 12.5911148,5.8477462 Z M24.3032016,62.9312225 L41.7993148,62.9312225 C47.0491618,62.8892237 51.011158,61.7395242 53.6854222,59.4820894 C56.3596864,57.2246547 57.6967984,53.8490529 57.6967984,49.3551828 C57.6967984,46.8772544 57.0948513,44.7773466 55.890939,43.0553964 C54.6870267,41.3334462 52.9601293,40.1574978 50.7101948,39.527516 C52.7035578,38.7295391 54.2133596,37.4905935 55.2396455,35.810642 C56.2659313,34.1306906 56.7790666,32.1042796 56.7790666,29.7313482 C56.7790666,25.6154671 55.3334067,22.476105 52.4420436,20.3131675 C49.5506805,18.15023 45.3321167,17.0687775 39.7862256,17.0687775 L24.3032016,17.0687775 L24.3032016,62.9312225 Z M34.6942942,43.4333836 L41.9769403,43.4333836 C45.5492047,43.454383 47.33531,45.3757986 47.33531,49.1976881 C47.33531,50.8566402 46.8320428,52.1428337 45.8254932,53.0563073 C44.8189435,53.9697809 43.3782177,54.4265109 41.5032723,54.4265109 L34.6942942,54.4265109 L34.6942942,43.4333836 Z M34.6942942,36.1886292 L34.6942942,25.6049881 L39.7862256,25.6049881 C42.1151052,25.6049881 43.8025307,26.0302194 44.8485528,26.8806948 C45.894575,27.7311702 46.4175782,29.1223592 46.4175782,31.0543033 C46.4175782,32.7342548 45.9340469,34.004699 44.9669698,34.8656741 C43.9998928,35.7266492 42.3815431,36.1676298 40.1118724,36.1886292 L34.6942942,36.1886292 Z" id="Combined-Shape"></path>
        </g>
    </g>
</svg>