<svg width="92" height="31" viewBox="0 0 92 31" fill="none" xmlns="http://www.w3.org/2000/svg">
<path d="M18.8385 13.0376C17.6109 18.5534 12.3933 22.0635 7.17577 20.5592C2.11168 19.222 -0.95746 13.539 0.270198 7.85606C1.49786 2.34022 6.7154 -1.00271 11.9329 0.334462C16.997 1.67163 20.2196 7.35462 18.8385 13.0376ZM13.7744 9.02608C13.9279 7.52176 13.0071 6.85318 11.626 6.35174L12.0864 4.51312L11.0122 4.17883L10.7053 6.01744C10.3984 5.8503 10.0915 5.8503 9.78454 5.8503L10.2449 4.01169L9.17072 3.67739L8.71034 5.516C8.55689 5.516 8.24997 5.34886 8.09652 5.34886L6.56194 5.01456L6.40849 6.18459L7.17577 6.35174C7.48269 6.51888 7.63614 6.85318 7.63614 7.02032L7.17577 9.19323L6.40849 12.2019C6.40849 12.369 6.25503 12.5362 5.94811 12.5362L5.18083 12.369L4.567 13.539L5.94811 14.0405C6.25503 14.0405 6.56194 14.2076 6.7154 14.2076L6.25503 16.0462L7.32923 16.3805L7.7896 14.5419C8.09652 14.5419 8.40343 14.7091 8.71034 14.7091L8.24997 16.5477L9.32417 16.882L9.78454 15.0434C11.4726 15.3776 12.8537 15.2105 13.4675 13.3719C13.9279 12.0347 13.4675 11.199 12.3933 10.6975C13.1606 10.5304 13.621 10.029 13.7744 9.02608ZM11.4726 12.7033C11.0122 14.0405 8.8638 13.3719 8.09652 13.2047L8.71034 10.5304C9.47763 10.8647 11.7795 11.199 11.4726 12.7033ZM11.7795 9.02608C11.4726 10.1961 9.63109 9.52752 9.01726 9.36037L9.47763 7.18747C10.0915 7.35462 12.0864 7.68891 11.7795 9.02608Z" fill="white"/>
<path d="M28.1991 6.35083C28.9664 6.35083 29.5802 6.51798 30.194 6.85227C30.6544 7.01942 31.1148 7.52086 31.5751 8.0223C31.882 8.52374 32.189 9.19232 32.3424 9.86091C32.4959 10.5295 32.6493 11.1981 32.6493 12.0338C32.6493 13.2038 32.4959 14.3739 32.0355 15.5439C31.5751 16.5468 31.1148 17.5496 30.3475 18.3854C29.5802 19.054 28.8129 19.7226 27.8922 20.224C26.818 20.7254 25.7438 20.8926 24.6696 20.8926C24.5161 20.8926 24.2092 20.8926 23.9023 20.8926C23.5954 20.8926 23.135 20.8926 22.6746 20.7254C22.2142 20.7254 21.6004 20.5583 21.14 20.5583C20.6797 20.3911 20.0658 20.224 19.6055 19.8897L23.9023 0.667854L27.5852 -0.000732422L26.0507 6.85227C26.511 6.68513 26.818 6.51798 27.1249 6.51798C27.4318 6.35083 27.7387 6.35083 28.1991 6.35083ZM24.9765 17.7168C25.5903 17.7168 26.0507 17.5496 26.511 17.2154C27.1249 16.8811 27.5852 16.5468 27.8922 16.0453C28.1991 15.5439 28.506 14.8753 28.8129 14.3739C28.9664 13.7053 29.1198 13.0367 29.1198 12.3681C29.1198 11.5324 28.9664 10.8638 28.6594 10.3623C28.3525 9.86091 27.8922 9.69376 27.2783 9.69376C26.9714 9.69376 26.6645 9.69376 26.3576 9.69376C26.0507 9.86091 25.5903 10.0281 25.2834 10.3623L23.7488 17.5496C23.9023 17.5496 23.9023 17.5496 24.0557 17.5496C24.0557 17.7168 24.2092 17.7168 24.2092 17.7168C24.3626 17.7168 24.3626 17.7168 24.5161 17.7168C24.6696 17.7168 24.823 17.7168 24.9765 17.7168Z" fill="white"/>
<path d="M36.64 20.5599H32.957L36.0262 6.68675H39.7091L36.64 20.5599ZM38.328 5.01529C37.8677 5.01529 37.4073 4.84815 36.9469 4.51386C36.4865 4.17956 36.3331 3.67813 36.3331 3.00954C36.3331 2.5081 36.4865 2.17381 36.4865 1.83952C36.64 1.50523 36.9469 1.33808 37.1004 1.00379C37.4073 0.836643 37.5607 0.669497 37.8677 0.502351C38.1746 0.335205 38.4815 0.335205 38.7884 0.335205C39.4022 0.335205 39.8626 0.502351 40.1695 0.836643C40.6299 1.17094 40.7833 1.50523 40.7833 2.34096C40.7833 2.67525 40.7833 3.00954 40.6299 3.34383C40.4764 3.67813 40.323 3.84527 40.0161 4.17956C39.8626 4.34671 39.5557 4.51386 39.2488 4.681C38.9419 4.84815 38.6349 5.01529 38.328 5.01529Z" fill="white"/>
<path d="M42.7779 3.17603L46.6143 2.50745L45.6935 6.68611H49.6834L48.9161 9.86189H44.9263L43.8521 14.7091C43.6986 15.2106 43.6986 15.5449 43.6986 15.8792C43.6986 16.2135 43.6986 16.5477 43.8521 16.7149C43.8521 17.0492 44.0055 17.2163 44.3124 17.3835C44.6193 17.5506 44.9263 17.5506 45.3866 17.5506C45.847 17.5506 46.1539 17.5506 46.6143 17.5506C46.9212 17.3835 47.2281 17.2163 47.6885 17.2163L47.9954 20.225C47.3816 20.3921 46.9212 20.5593 46.3074 20.7264C45.847 20.8936 45.0797 20.8936 44.3124 20.8936C43.2382 20.8936 42.3175 20.7264 41.7037 20.3921C41.0898 20.0578 40.6295 19.5564 40.476 18.8878C40.1691 18.2192 40.0156 17.5506 40.0156 16.7149C40.1691 15.8792 40.1691 15.0434 40.476 14.2077L42.7779 3.17603Z" fill="white"/>
<path d="M49.5273 15.0415C49.5273 13.8715 49.6808 12.7014 49.9877 11.5314C50.4481 10.5285 50.9085 9.69281 51.5223 8.85708C52.2896 8.02135 53.0569 7.35276 53.9776 7.01847C54.8983 6.51703 55.9725 6.18274 57.2002 6.18274C57.9675 6.18274 58.5813 6.34989 59.1951 6.51703C59.6555 6.68418 60.2693 6.85132 60.7297 7.01847L59.502 10.1942C59.1951 10.0271 58.7348 9.85995 58.4279 9.69281C58.1209 9.69281 57.6606 9.52566 57.2002 9.52566C55.9725 9.52566 55.0518 10.0271 54.2845 11.03C53.6707 11.8657 53.2103 13.0357 53.2103 14.54C53.2103 15.5429 53.3638 16.2115 53.8241 16.7129C54.1311 17.3815 54.7449 17.5487 55.8191 17.5487C56.2795 17.5487 56.7398 17.5487 57.2002 17.3815C57.5071 17.3815 57.9675 17.2144 58.2744 17.0472L58.5813 20.223C58.1209 20.3902 57.6606 20.5573 57.0467 20.7245C56.4329 20.8916 55.8191 20.8916 55.0518 20.8916C54.1311 20.8916 53.2103 20.7245 52.5965 20.3902C51.8292 20.223 51.2154 19.7216 50.755 19.2201C50.2946 18.7187 49.9877 18.0501 49.8343 17.2144C49.6808 16.5458 49.5273 15.8772 49.5273 15.0415Z" fill="white"/>
<path d="M65.486 20.8916C64.7187 20.8916 63.9514 20.7245 63.3376 20.5573C62.5703 20.223 62.1099 19.8887 61.6495 19.3873C61.3426 18.8858 61.0357 18.2173 60.7288 17.5487C60.5753 16.8801 60.4219 16.0444 60.4219 15.2086C60.4219 14.2058 60.5753 13.0357 60.8822 12.0329C61.1892 11.03 61.6495 10.0271 62.2634 9.19137C62.8772 8.35564 63.6445 7.68705 64.5652 7.01847C65.486 6.51703 66.5602 6.18274 67.6344 6.18274C68.5551 6.18274 69.1689 6.34989 69.9362 6.68418C70.5501 7.01847 71.0104 7.35276 71.4708 7.8542C71.9312 8.35564 72.2381 9.02422 72.3916 9.69281C72.545 10.3614 72.6985 11.1971 72.6985 12.0329C72.6985 13.0357 72.545 14.2058 72.2381 15.2086C71.9312 16.2115 71.4708 17.2144 70.857 18.0501C70.2432 18.8858 69.4759 19.5544 68.7086 20.0559C67.7878 20.7245 66.7136 20.8916 65.486 20.8916ZM67.3275 9.52566C66.7136 9.52566 66.2533 9.69281 65.9463 10.0271C65.486 10.3614 65.1791 10.8628 64.8721 11.3643C64.5652 11.8657 64.4118 12.3671 64.2583 13.0357C64.1049 13.7043 64.1049 14.2058 64.1049 14.7072C64.1049 15.7101 64.1049 16.3787 64.4118 16.8801C64.7187 17.3815 65.1791 17.5487 65.7929 17.5487C66.4067 17.5487 66.8671 17.3815 67.3275 17.0472C67.6344 16.7129 67.9413 16.3787 68.2482 15.8772C68.5551 15.3758 68.7086 14.7072 68.862 14.2058C69.0155 13.5372 69.1689 12.8686 69.1689 12.3671C69.1689 11.5314 69.0155 10.8628 68.7086 10.3614C68.4017 9.85995 67.9413 9.52566 67.3275 9.52566Z" fill="white"/>
<path d="M76.6908 20.5599H73.0078L76.077 6.68675H79.7599L76.6908 20.5599ZM78.3788 5.01529C77.9184 5.01529 77.4581 4.84815 76.9977 4.51386C76.6908 4.17956 76.3839 3.67813 76.3839 3.00954C76.3839 2.5081 76.5373 2.17381 76.6908 1.83952C76.6908 1.50523 76.9977 1.33808 77.1512 1.00379C77.4581 0.836643 77.6115 0.669497 77.9184 0.502351C78.2254 0.335205 78.5323 0.335205 78.9926 0.335205C79.453 0.335205 79.9134 0.502351 80.2203 0.836643C80.6807 1.17094 80.8341 1.50523 80.8341 2.34096C80.8341 2.67525 80.8341 3.00954 80.6807 3.34383C80.5272 3.67813 80.3738 3.84527 80.0669 4.17956C79.9134 4.34671 79.6065 4.51386 79.2996 4.681C78.9926 4.84815 78.6857 5.01529 78.3788 5.01529Z" fill="white"/>
<path d="M82.3699 7.18607C82.5234 7.18607 82.8303 7.01893 83.1372 7.01893C83.5976 6.85178 83.9045 6.68463 84.3649 6.68463C84.6718 6.51749 85.1322 6.51749 85.746 6.35034C86.2064 6.35034 86.8202 6.35034 87.434 6.35034C89.2755 6.35034 90.6566 6.85178 91.4239 8.18895C92.0377 9.35898 92.1912 11.0304 91.7308 13.0362L90.0428 20.5578H86.5133L88.0478 13.2034C88.2013 12.7019 88.2013 12.3676 88.3548 11.8662C88.3548 11.3647 88.3548 11.0304 88.3548 10.6962C88.2013 10.3619 88.0478 10.1947 87.8944 9.86042C87.5875 9.69327 87.2806 9.69327 86.8202 9.69327C86.3598 9.69327 85.8994 9.69327 85.2856 9.86042L82.9838 20.5578H79.3008L82.3699 7.18607Z" fill="white"/>
<path d="M38.6361 28.9164L37.8688 30.2536H37.1016C37.7154 29.2507 38.1758 28.2478 38.7896 27.4121C39.25 26.4092 39.7103 25.5735 40.3242 24.9049H40.938C41.0915 25.2392 41.0915 25.5735 41.0915 26.0749C41.2449 26.4092 41.2449 26.9107 41.2449 27.245C41.3984 27.7464 41.3984 28.2478 41.5518 28.7493C41.5518 29.2507 41.5518 29.7522 41.7053 30.2536H40.938C40.938 30.0865 40.938 29.7522 40.938 29.585C40.7845 29.2507 40.7845 29.0836 40.7845 28.9164H38.6361ZM40.7845 28.2478C40.7845 27.9135 40.6311 27.4121 40.6311 27.0778C40.6311 26.5764 40.4776 26.0749 40.4776 25.7406C40.3242 25.9078 40.0173 26.2421 39.8638 26.7435C39.5569 27.0778 39.25 27.7464 38.9431 28.2478H40.7845Z" fill="white"/>
<path d="M44.1618 30.4203C43.8549 30.4203 43.7014 30.4203 43.3945 30.2531C43.0876 30.086 42.9341 29.9188 42.7807 29.7517C42.6272 29.5846 42.4738 29.4174 42.4738 29.0831C42.3203 28.916 42.3203 28.5817 42.3203 28.2474C42.3203 27.7459 42.3203 27.4116 42.4738 26.9102C42.6272 26.5759 42.9341 26.0745 43.0876 25.7402C43.3945 25.4059 43.7014 25.2387 44.0083 25.0716C44.3153 24.7373 44.7756 24.7373 45.236 24.7373C45.5429 24.7373 45.8498 24.7373 46.1567 24.9045C46.3102 24.9045 46.4637 25.0716 46.6171 25.0716L46.3102 25.7402C46.1567 25.573 46.0033 25.573 45.8498 25.4059C45.6964 25.4059 45.3895 25.4059 45.236 25.4059C44.7756 25.4059 44.6222 25.4059 44.3153 25.573C44.0083 25.7402 43.8549 26.0745 43.548 26.2416C43.3945 26.5759 43.2411 26.9102 43.2411 27.2445C43.0876 27.5788 43.0876 27.9131 43.0876 28.2474C43.0876 29.2503 43.3945 29.7517 44.3153 29.7517C44.4687 29.7517 44.6222 29.7517 44.7756 29.7517C44.9291 29.5846 44.9291 29.5846 45.0825 29.5846C45.236 29.5846 45.236 29.5846 45.3895 29.4174H45.5429L45.6964 30.086C45.6964 30.086 45.5429 30.086 45.3895 30.086C45.3895 30.2531 45.236 30.2531 45.0825 30.2531C44.9291 30.2531 44.9291 30.2531 44.7756 30.4203C44.6222 30.4203 44.4687 30.4203 44.1618 30.4203Z" fill="white"/>
<path d="M48.3024 30.4203C47.9955 30.4203 47.6886 30.4203 47.3817 30.2531C47.2282 30.086 47.0748 29.9188 46.9213 29.7517C46.7679 29.5846 46.6144 29.4174 46.4609 29.0831C46.4609 28.916 46.4609 28.5817 46.4609 28.2474C46.4609 27.7459 46.4609 27.4116 46.6144 26.9102C46.7679 26.5759 46.9213 26.0745 47.2282 25.7402C47.3817 25.4059 47.6886 25.2387 48.149 25.0716C48.4559 24.7373 48.9163 24.7373 49.2232 24.7373C49.6835 24.7373 49.9905 24.7373 50.1439 24.9045C50.4508 24.9045 50.6043 25.0716 50.6043 25.0716L50.2974 25.7402C50.2974 25.573 50.1439 25.573 49.9905 25.4059C49.6835 25.4059 49.5301 25.4059 49.2232 25.4059C48.9163 25.4059 48.6093 25.4059 48.3024 25.573C48.149 25.7402 47.8421 26.0745 47.6886 26.2416C47.5351 26.5759 47.3817 26.9102 47.2282 27.2445C47.2282 27.5788 47.0748 27.9131 47.0748 28.2474C47.0748 29.2503 47.5351 29.7517 48.3024 29.7517C48.4559 29.7517 48.6093 29.7517 48.7628 29.7517C48.9163 29.5846 49.0697 29.5846 49.2232 29.5846C49.2232 29.5846 49.3766 29.5846 49.3766 29.4174C49.5301 29.4174 49.5301 29.4174 49.6835 29.4174V30.086C49.6835 30.086 49.6835 30.086 49.5301 30.086C49.3766 30.2531 49.3766 30.2531 49.2232 30.2531C49.0697 30.2531 48.9163 30.2531 48.7628 30.4203C48.6093 30.4203 48.4559 30.4203 48.3024 30.4203Z" fill="white"/>
<path d="M50.2969 30.2536L51.3711 24.9049H54.4402L54.2868 25.4063H51.9849L51.678 27.0778H53.6729L53.5195 27.7464H51.5245L51.0642 29.585H53.5195L53.366 30.2536H50.2969Z" fill="white"/>
<path d="M56.4358 24.7373C57.0496 24.7373 57.51 24.9045 57.8169 25.0716C58.1238 25.4059 58.2773 25.7402 58.2773 26.2416C58.2773 26.5759 58.1238 26.9102 58.1238 27.0774C57.9704 27.4117 57.8169 27.5788 57.51 27.746C57.3565 27.9131 57.0496 28.0803 56.7427 28.0803C56.4358 28.2474 55.9754 28.2474 55.6685 28.2474H55.2081L54.7478 30.2532H53.9805L55.2081 24.9045C55.3616 24.9045 55.6685 24.7373 55.822 24.7373C56.1289 24.7373 56.2823 24.7373 56.4358 24.7373ZM56.4358 25.4059C56.1289 25.4059 55.822 25.4059 55.822 25.4059L55.3616 27.5788H55.822C55.9754 27.5788 56.1289 27.5788 56.4358 27.5788C56.5892 27.5788 56.7427 27.4117 56.8962 27.4117C57.0496 27.2445 57.2031 27.0774 57.3565 26.9102C57.51 26.7431 57.51 26.5759 57.51 26.2416C57.51 25.9073 57.3565 25.7402 57.2031 25.573C57.0496 25.4059 56.7427 25.4059 56.4358 25.4059Z" fill="white"/>
<path d="M62.5747 24.9049L62.4212 25.4063H60.8867L59.8125 30.2536H59.0452L60.1194 25.4063H58.7383V24.9049H62.5747Z" fill="white"/>
<path d="M61.9609 30.2536L63.0351 24.9049H66.1043L65.9508 25.4063H63.649L63.3421 27.0778H65.337L65.1835 27.7464H63.1886L62.7282 29.585H65.1835L65.0301 30.2536H61.9609Z" fill="white"/>
<path d="M68.0999 24.7373C68.8671 24.7373 69.481 24.9045 69.7879 25.4059C70.0948 25.7402 70.4017 26.2416 70.4017 26.9102C70.4017 27.4117 70.2483 27.746 70.0948 28.2474C69.9413 28.5817 69.7879 28.916 69.481 29.2503C69.3275 29.5846 68.8671 29.9189 68.5602 30.086C68.0999 30.2532 67.486 30.2532 67.0257 30.2532C66.7187 30.2532 66.5653 30.2532 66.2584 30.2532C66.1049 30.2532 65.798 30.2532 65.6445 30.2532L66.8722 24.9045C67.0257 24.9045 67.3326 24.7373 67.486 24.7373C67.6395 24.7373 67.9464 24.7373 68.0999 24.7373ZM68.0999 25.4059C67.6395 25.4059 67.486 25.4059 67.486 25.4059L66.5653 29.5846C66.5653 29.5846 66.5653 29.5846 66.7187 29.7517C66.7187 29.7517 66.8722 29.7517 67.1791 29.7517C67.486 29.7517 67.7929 29.5846 68.0999 29.4174C68.4068 29.4174 68.7137 29.0831 68.8671 28.916C69.1741 28.5817 69.3275 28.4146 69.481 28.0803C69.481 27.746 69.6344 27.2445 69.6344 26.9102C69.6344 26.4088 69.481 26.0745 69.1741 25.7402C69.0206 25.573 68.5602 25.4059 68.0999 25.4059Z" fill="white"/>
<path d="M75.77 30.2536H75.0027L75.6166 27.7464H73.3147L72.7009 30.2536H71.9336L73.1613 24.9049H73.9285L73.4682 27.0778H75.77L76.2304 24.9049H76.8442L75.77 30.2536Z" fill="white"/>
<path d="M76.8477 30.2536L78.0753 24.9049H80.991L80.8376 25.4063H78.5357L78.2288 27.0778H80.2237L80.0703 27.7464H78.0753L77.6149 29.585H80.0703L79.9168 30.2536H76.8477Z" fill="white"/>
<path d="M83.1389 24.7373C83.5993 24.7373 84.0597 24.9045 84.3666 25.0716C84.6735 25.4059 84.827 25.7402 84.827 26.2416C84.827 26.5759 84.6735 27.0774 84.52 27.2445C84.2131 27.5788 83.9062 27.9131 83.4458 27.9131C83.4458 28.0803 83.5993 28.2474 83.5993 28.4146C83.7527 28.5817 83.7527 28.7488 83.9062 28.916C83.9062 29.2503 84.0597 29.4174 84.0597 29.5846C84.2131 29.9189 84.2131 30.086 84.2131 30.2532H83.5993C83.4458 30.086 83.4458 29.9189 83.2924 29.5846C83.2924 29.4174 83.2924 29.2503 83.1389 29.0831C83.1389 28.916 82.9855 28.7488 82.9855 28.5817C82.832 28.4146 82.832 28.2474 82.6785 28.0803H82.5251H82.3716H81.7578L81.2974 30.2532H80.6836L81.7578 24.9045C82.0647 24.9045 82.2182 24.7373 82.3716 24.7373C82.6785 24.7373 82.832 24.7373 83.1389 24.7373ZM82.9855 25.4059C82.6785 25.4059 82.5251 25.4059 82.3716 25.4059L81.9113 27.5788H82.3716C82.5251 27.5788 82.6785 27.4117 82.9855 27.4117C83.1389 27.4117 83.2924 27.4117 83.4458 27.2445C83.7527 27.2445 83.9062 27.0774 83.9062 26.9102C84.0597 26.7431 84.0597 26.5759 84.0597 26.2416C84.0597 25.9073 84.0597 25.7402 83.7527 25.573C83.5993 25.4059 83.2924 25.4059 82.9855 25.4059Z" fill="white"/>
<path d="M84.8281 30.2536L86.0558 24.9049H88.9715V25.4063H86.6696L86.2092 27.0778H88.3576L88.2042 27.7464H86.2092L85.7489 29.585H88.2042L88.0507 30.2536H84.8281Z" fill="white"/>
</svg>
