<svg width="30" height="31" viewBox="0 0 30 31" fill="none" xmlns="http://www.w3.org/2000/svg">
<path fill-rule="evenodd" clip-rule="evenodd" d="M14.8579 5.43746C14.2288 3.73694 12.6152 1.81019 11.5687 1.12803C10.0411 0.132208 8.08782 0.723168 7.20587 2.44797C6.32392 4.17277 6.84731 6.37827 8.37489 7.37409C8.5715 7.50225 8.8118 7.62803 9.08319 7.74622H1.73149C0.775215 7.74622 0 8.55621 0 9.55538V13.6558C0 14.655 0.775214 15.6083 1.73149 15.6083V16.2459L1.74159 15.3336L13.542 15.3333L13.542 8.38276L15.8933 8.3565L15.8933 15.3332L27.7098 15.3329L27.7067 15.6083C28.6617 15.6064 29.4353 14.654 29.4353 13.6558V9.55538C29.4353 8.55621 28.6601 7.74622 27.7038 7.74622H20.6334C20.9044 7.62815 21.1443 7.50253 21.3407 7.37452C22.8683 6.3787 23.3917 4.17321 22.5097 2.44841C21.6278 0.723603 19.6745 0.132643 18.1469 1.12846C17.1005 1.81057 15.4871 3.73705 14.8579 5.43746ZM12.5048 5.24711C11.8578 4.18784 11.0054 3.31389 10.5896 3.04286C10.0993 2.72324 9.34596 2.85933 8.96869 3.59714C8.59142 4.33496 8.86371 5.13963 9.35401 5.45926C9.76977 5.73029 10.8663 6.12686 12.0023 6.22987C12.4096 6.2668 12.7443 6.25768 12.9946 6.2216C12.8971 5.95878 12.7368 5.62694 12.5048 5.24711ZM14.8576 7.65188C14.8351 7.6844 14.8113 7.71584 14.7862 7.74622H14.929C14.9039 7.71584 14.8801 7.6844 14.8576 7.65188ZM19.126 3.04329C18.7102 3.31432 17.8578 4.18827 17.2108 5.24754C16.9788 5.62737 16.8185 5.9592 16.721 6.22203C16.9713 6.25811 17.306 6.26723 17.7133 6.23029C18.8493 6.12729 19.9458 5.73071 20.3616 5.45969C20.8519 5.14006 21.1242 4.33539 20.7469 3.59757C20.3696 2.85976 19.6163 2.72367 19.126 3.04329Z" fill="#F3B233"/>
<path d="M1.73149 27.721V17.692L13.542 17.6917L13.542 30.0759H4.08637C2.78581 30.0759 1.73149 29.0216 1.73149 27.721Z" fill="#F3B233"/>
<path d="M15.8933 30.0664L15.8933 17.6917L27.6837 17.6913L27.7038 15.8688V27.7256C27.7038 29.0266 26.6489 30.0811 25.3479 30.0805L15.0298 30.076L15.8933 30.0664Z" fill="#F3B233"/>
</svg>
