<svg width="14" height="8" viewBox="0 0 14 8" fill="none" xmlns="http://www.w3.org/2000/svg">
  <path d="M7.75448 2.04021C8.31089 2.04021 8.76196 1.58362 8.76196 1.0204C8.76196 0.457167 8.31089 0.000579834 7.75448 0.000579834C7.19806 0.000579834 6.74699 0.457167 6.74699 1.0204C6.74699 1.58362 7.19806 2.04021 7.75448 2.04021Z" fill="white"/>
  <path d="M13.9996 1.02099C14.0034 1.43431 13.7604 1.80907 13.3842 1.9699C13.0081 2.13074 12.5732 2.04585 12.2831 1.75494C11.993 1.46404 11.9051 1.02466 12.0605 0.64242C12.2159 0.260176 12.5838 0.0106685 12.9921 0.0106506C13.5449 0.0106265 13.9945 0.461464 13.9996 1.02099Z" fill="white"/>
  <path d="M7.75387 7.00139C8.31028 7.00139 8.76135 6.54481 8.76135 5.98158C8.76135 5.41835 8.31028 4.96176 7.75387 4.96176C7.19745 4.96176 6.74638 5.41835 6.74638 5.98158C6.74638 6.54481 7.19745 7.00139 7.75387 7.00139Z" fill="white"/>
  <path d="M13.9996 5.98158C13.9996 6.54481 13.5486 7.00139 12.9921 7.00139C12.4357 7.00139 11.9847 6.54481 11.9847 5.98158C11.9847 5.41835 12.4357 4.96176 12.9921 4.96176C13.5486 4.96176 13.9996 5.41835 13.9996 5.98158Z" fill="white"/>
  <path d="M11.3795 3.49777C11.378 3.91076 11.1306 4.28204 10.7528 4.43812C10.3751 4.5942 9.94164 4.50426 9.65503 4.21034C9.36842 3.91641 9.28523 3.47653 9.44434 3.09623C9.60345 2.71594 9.97344 2.47033 10.3814 2.47417C10.9356 2.47938 11.3816 2.93675 11.3795 3.49777Z" fill="white"/>
  <path d="M6.12917 6.75012L4.54491 4.03187C5.35951 3.85748 5.92505 3.28502 5.92505 2.04342C5.92879 0.388591 4.84079 0 3.46627 0H0.131085C0.0963192 0 0.0629772 0.0139798 0.038394 0.0388639C0.0138107 0.0637481 0 0.0974982 0 0.13269V6.78803C0 6.86131 0.0586888 6.92072 0.131085 6.92072H1.30711C1.3795 6.92072 1.43819 6.86131 1.43819 6.78803V4.18352H3.10672L4.57487 6.82404C4.61189 6.8932 4.68449 6.93509 4.76214 6.93209H6.04303C6.10363 6.93108 6.15251 6.88159 6.15351 6.82025C6.1526 6.79492 6.14411 6.77046 6.12917 6.75012ZM3.47563 2.97794H1.43819V1.23591H3.47563C4.23967 1.23591 4.47188 1.61502 4.47188 2.09271C4.47188 2.57039 4.23967 2.97794 3.47563 2.97794Z" fill="white"/>
</svg>
