<svg width="120" height="120" viewBox="0 0 120 120" fill="none" xmlns="http://www.w3.org/2000/svg">
<path d="M83.705 59.3776H102.019V81.1099C99.3791 83.0418 96.573 84.4493 93.592 85.3147C90.611 86.1889 87.4989 86.626 84.2469 86.626C80.0071 86.626 76.1432 85.9616 72.6727 84.6329C69.1935 83.3041 66.2212 81.4683 63.7473 79.1167C61.2733 76.7739 59.3676 73.994 58.0214 70.777C56.6751 67.56 56.0107 64.0633 56.0107 60.2955C56.0107 56.4578 56.6489 52.9261 57.9165 49.7091C59.1928 46.4921 61.0111 43.7209 63.3801 41.3869C65.7492 39.0528 68.6078 37.2432 71.9646 35.9407C75.3215 34.6469 79.0718 34 83.2241 34C85.3659 34 87.3853 34.1748 89.2648 34.5333C91.153 34.8829 92.8839 35.3725 94.4749 35.9844C96.0659 36.5963 97.5171 37.3306 98.8371 38.1786C100.157 39.0266 101.337 39.9445 102.369 40.9323L98.907 46.1949C98.3651 47.0166 97.6657 47.5237 96.8003 47.716C95.9436 47.9083 95.0169 47.6898 94.0291 47.0778C93.085 46.5096 92.1933 46.0201 91.3628 45.6092C90.5236 45.1983 89.6756 44.8661 88.8015 44.6039C87.9273 44.3416 87.0094 44.158 86.0478 44.0357C85.0774 43.9133 84.0022 43.8608 82.7958 43.8608C80.5579 43.8608 78.5385 44.2542 76.7552 45.041C74.9631 45.8277 73.442 46.9467 72.1744 48.3804C70.9156 49.814 69.9453 51.5449 69.2547 53.5555C68.5728 55.5662 68.2319 57.8128 68.2319 60.2868C68.2319 63.023 68.6078 65.4445 69.3596 67.5687C70.1114 69.693 71.1779 71.4764 72.5591 72.945C73.9403 74.4136 75.5838 75.5151 77.507 76.2844C79.4302 77.0537 81.5545 77.4296 83.8885 77.4296C85.3222 77.4296 86.6247 77.2897 87.7961 77.0012C88.9588 76.7215 90.0952 76.3456 91.2055 75.8735V68.067H86.109C85.3572 68.067 84.7627 67.866 84.3431 67.4638C83.9148 67.0617 83.705 66.5547 83.705 65.9428V59.3776Z" fill="#EC1C24"/>
<path d="M33.8676 35.2063C37.4168 35.2063 40.4415 35.5385 42.9416 36.1941C45.4331 36.8498 47.4699 37.7851 49.0435 38.9828C50.617 40.1804 51.7709 41.6403 52.4878 43.3625C53.2046 45.0846 53.563 46.9991 53.563 49.1146C53.563 50.2685 53.3969 51.3787 53.0647 52.454C52.7325 53.5292 52.2168 54.5258 51.5087 55.4524C50.8006 56.3791 49.9002 57.2358 48.7899 58.0138C47.6797 58.7918 46.351 59.465 44.8037 60.0244C48.1955 60.8462 50.6957 62.1749 52.3217 64.0107C53.9476 65.8465 54.7606 68.2243 54.7606 71.1441C54.7606 73.3296 54.341 75.3664 53.4931 77.2459C52.6451 79.1254 51.4038 80.7689 49.769 82.1676C48.1343 83.5663 46.1149 84.659 43.7197 85.4458C41.3157 86.2325 38.5794 86.6259 35.4936 86.6259H14.9502V35.2063H33.8676ZM26.8828 44.1317V56.8337H33.0983C34.4183 56.8337 35.6072 56.7375 36.665 56.5539C37.7227 56.3703 38.6232 56.0382 39.3662 55.5661C40.1093 55.094 40.6688 54.4471 41.0621 53.6254C41.4468 52.8037 41.6478 51.7634 41.6478 50.522C41.6478 49.2982 41.4905 48.2841 41.1933 47.4711C40.8873 46.6581 40.4152 46.0025 39.7771 45.513C39.1389 45.0234 38.3347 44.665 37.3556 44.4552C36.3765 44.2454 35.2226 44.1405 33.8763 44.1405H26.8828V44.1317ZM35.2838 77.6305C36.8573 77.6305 38.1511 77.4295 39.1477 77.0274C40.1442 76.6252 40.931 76.1095 41.4905 75.4713C42.0587 74.8332 42.4434 74.1163 42.6532 73.3208C42.863 72.5253 42.9679 71.7123 42.9679 70.8818C42.9679 69.9377 42.8455 69.0898 42.6007 68.338C42.3559 67.5862 41.9276 66.948 41.3331 66.4322C40.7299 65.9165 39.9432 65.5143 38.9466 65.2346C37.9588 64.9549 36.7087 64.815 35.2051 64.815H26.8741V77.6305H35.2838V77.6305Z" fill="#EC1C24"/>
</svg>
