<?xml version="1.0" encoding="UTF-8"?>
<svg width="80px" height="80px" viewBox="0 0 80 80" version="1.1" xmlns="http://www.w3.org/2000/svg" xmlns:xlink="http://www.w3.org/1999/xlink">
    <!-- Generator: Sketch 52.4 (67378) - http://www.bohemiancoding.com/sketch -->
    <title>Booongo color</title>
    <desc>Created with Sketch.</desc>
    <defs>
        <polygon id="path-1" points="6.63843542e-05 0.0387096774 49.8123656 0.0387096774 49.8123656 56.4515853 6.63843542e-05 56.4515853"></polygon>
    </defs>
    <g id="Booongo-color" stroke="none" stroke-width="1" fill="none" fill-rule="evenodd">
        <g id="Group-8" transform="translate(15.000000, 11.505376)">
            <g id="Group-3" transform="translate(0.000000, 0.498925)">
                <mask id="mask-2" fill="white">
                    <use xlink:href="#path-1"></use>
                </mask>
                <g id="Clip-2"></g>
                <path d="M49.1146774,21.8053763 C47.4426344,14.1655914 42.1845699,7.62258065 35.5555376,3.62258065 C30.3512366,0.633333333 24.2222043,-0.382795699 18.2920968,0.192473118 C11.7759677,0.810752688 5.63080645,3.97741935 1.10930108,8.66021505 C0.270591398,9.44516129 -0.288548387,10.6602151 0.157688172,11.8 C0.663064516,13.6709677 3.4533871,14.4129032 4.65768817,12.783871 C8.21682796,8.96666667 13.0125269,6.29462366 18.216828,5.64946237 C24.1845699,4.92903226 30.4533871,6.21935484 35.2437097,9.96666667 C41.5394086,14.7139785 45.232957,22.6978495 44.2920968,30.5903226 C43.8189785,36.9290323 40.2060753,42.6709677 35.2598387,46.5258065 C30.4856452,50.2354839 24.2222043,51.6709677 18.2759677,50.8752688 C13.5716667,50.3 9.13080645,48.1010753 5.75983871,44.783871 C4.81897849,44.0096774 4.02327957,42.611828 2.59854839,42.9236559 C0.437258065,43.0473118 -0.648763441,45.955914 0.824354839,47.4935484 C4.70607527,51.7086022 9.905,54.8376344 15.5716667,55.9021505 C22.3351075,57.1333333 29.6093011,56.3698925 35.6146774,52.8537634 C40.2974731,49.9612903 44.3082258,45.8967742 46.8619892,40.9989247 C49.8673656,35.1333333 50.4963978,28.2032258 49.1146774,21.8053763" id="Fill-1" fill="#5BF495" mask="url(#mask-2)"></path>
            </g>
            <path d="M18.8404839,13.9063978 C18.5824194,11.2612366 14.1845699,10.9386559 13.6684409,13.5999462 C13.3996237,17.2773656 13.593172,20.987043 13.5662903,24.6805914 C13.5017742,26.0838172 14.6200538,27.5246774 16.0716667,27.5461828 C18.8404839,27.5784409 21.6254301,27.3203763 24.3834946,27.6375806 C26.5716667,28.1698387 28.3028495,30.1160753 28.749086,32.3042473 C29.3458602,35.0198387 27.8028495,38.003172 25.249086,39.0784409 C22.1254301,39.5515591 18.9318817,39.2558602 15.7920968,39.5897312 C14.9318817,39.6913441 14.1146774,40.2504839 13.7974731,41.0730645 C12.9318817,42.6859677 14.3673656,44.9063978 16.1738172,44.8316667 C18.8243548,44.8961828 21.4802688,44.9816667 24.1361828,44.9225269 C28.0877957,44.7881183 31.6630645,42.1967204 33.5017742,38.7719892 C34.716828,36.4386559 34.8727419,33.6805914 34.4587634,31.1160753 C33.6039247,26.6752151 29.7437097,22.9117742 25.2222043,22.3687634 C23.0555376,22.0139247 20.8942473,22.5730645 18.8673656,23.3042473 C18.8781183,20.1752151 18.9963978,17.0354301 18.8404839,13.9063978" id="Fill-4" fill="#5BF495"></path>
            <path d="M16.7114516,36.0407527 C18.5071505,37.1590323 21.077043,35.3902151 20.8082258,33.3369892 C20.7114516,31.2235484 17.9641398,30.0251613 16.3189785,31.341828 C14.7006989,32.4708602 14.9372581,35.1912903 16.7114516,36.0407527" id="Fill-6" fill="#5BF495"></path>
        </g>
    </g>
</svg>