<svg width="21" height="15" viewBox="0 0 21 15" fill="none" xmlns="http://www.w3.org/2000/svg">
<path fill-rule="evenodd" clip-rule="evenodd" d="M7.27739 14.5548C11.2966 14.5548 14.5548 11.2966 14.5548 7.27739C14.5548 3.2582 11.2966 0 7.27739 0C3.2582 0 0 3.2582 0 7.27739C0 11.2966 3.2582 14.5548 7.27739 14.5548Z" fill="url(#paint0_linear)"/>
<path d="M20.5611 7.09294C20.535 6.89122 20.3453 6.75248 20.1451 6.7887L16.8055 7.39313C16.498 7.44878 16.4067 7.84554 16.6589 8.03002L17.3027 8.50089C16.6511 9.31814 15.8715 10.0088 14.984 10.6078C14.4672 11.9779 13.561 13.157 12.4004 14.0103C15.3877 13.4877 17.7225 12.4042 19.9131 10.4102L20.4343 10.7914C20.6865 10.9759 21.037 10.7686 20.9968 10.4587L20.5611 7.09294Z" fill="url(#paint1_linear)"/>
<path d="M9.75977 8.17447C9.75977 5.97872 6.47877 6.65957 6.47877 5.74894C6.47877 5.45106 6.72671 5.21277 7.41266 5.21277C7.91679 5.21277 8.46224 5.36596 9.01596 5.67234L9.5201 4.42128C9.05729 4.14043 8.45398 3.97021 7.84241 3.91915V3H6.85067V3.93617C5.51183 4.10638 4.85894 4.89787 4.85894 5.83404C4.85894 8.04681 8.1482 7.35745 8.1482 8.30213C8.1482 8.59149 7.88373 8.78723 7.20605 8.78723C6.53663 8.78723 5.80935 8.54894 5.29696 8.2L4.75977 9.44255C5.2391 9.78298 6.02423 10.0298 6.85067 10.0894V11H7.84241V10.0553C9.13167 9.85958 9.75977 9.0766 9.75977 8.17447Z" fill="#060E2A"/>
<defs>
<linearGradient id="paint0_linear" x1="10.5" y1="0" x2="10.5" y2="14.5548" gradientUnits="userSpaceOnUse">
<stop stop-color="#F3B133"/>
<stop offset="1" stop-color="#F37933"/>
</linearGradient>
<linearGradient id="paint1_linear" x1="10.5" y1="0" x2="10.5" y2="14.5548" gradientUnits="userSpaceOnUse">
<stop stop-color="#F3B133"/>
<stop offset="1" stop-color="#F37933"/>
</linearGradient>
</defs>
</svg>
