<svg width="39" height="26" viewBox="0 0 39 26" fill="none" xmlns="http://www.w3.org/2000/svg">
<path d="M1.89906 0.543213C0.850238 0.543213 2.81889e-06 1.39345 2.53358e-06 2.44227L0 11.9375C0 12.9864 0.850235 13.8366 1.89905 13.8366H3.7981V8.13943C3.7981 7.09061 4.64834 6.24037 5.69716 6.24037H33.2334C34.2822 6.24037 35.1325 7.09061 35.1325 8.13943V13.8366H37.0315C38.0804 13.8366 38.9306 12.9864 38.9306 11.9375V2.44227C38.9306 1.39345 38.0804 0.543213 37.0315 0.543213H1.89906Z" fill="#F3B233"/>
<path d="M28.4858 8.13943H10.4448V10.5093C10.9843 10.7239 11.4992 11.0175 11.9424 11.4439C12.3961 11.8806 12.693 12.377 12.8927 12.8871H26.0449C26.245 12.3708 26.5394 11.8683 26.9867 11.4279C27.4315 10.99 27.9469 10.693 28.4858 10.4823V8.13943Z" fill="#F3B233"/>
<path d="M30.3849 8.13943V11.1382C30.3849 11.6002 30.0485 11.9846 29.6038 12.1096C28.4664 12.4293 27.9534 12.9612 27.6894 13.9679C27.5686 14.4287 27.1802 14.7861 26.7039 14.7861H12.2349C11.755 14.7861 11.3665 14.4233 11.2458 13.9589C10.9961 12.9976 10.4905 12.4752 9.2994 12.1219C8.8667 11.9936 8.54574 11.6133 8.54574 11.162V8.13943H5.69716V15.7356C5.69716 16.7845 6.54739 17.6347 7.59621 17.6347H31.3344C32.3832 17.6347 33.2334 16.7845 33.2334 15.7356V8.13943H30.3849Z" fill="#F3B233"/>
<path d="M6.64668 19.5337H32.2839V20.4833C32.2839 21.0077 31.8588 21.4328 31.3344 21.4328H7.59621C7.0718 21.4328 6.64668 21.0077 6.64668 20.4833V19.5337Z" fill="#F3B233"/>
<path d="M7.59621 23.3319H31.3344V24.2814C31.3344 24.8058 30.9093 25.2309 30.3849 25.2309H8.54574C8.02133 25.2309 7.59621 24.8058 7.59621 24.2814V23.3319Z" fill="#F3B233"/>
</svg>
