<svg width="16" height="15" viewBox="0 0 16 15" fill="none" xmlns="http://www.w3.org/2000/svg">
<path fill-rule="evenodd" clip-rule="evenodd" d="M8.63372 0.0666291C7.56559 -0.214776 6.46428 0.421026 6.17385 1.48673L5.79883 2.86288H9.19688C10.3015 2.86288 11.1969 3.75831 11.1969 4.86288V11.7625C11.1969 11.9253 11.1774 12.0836 11.1407 12.2351L11.5914 12.3539C12.6596 12.6353 13.7609 11.9995 14.0513 10.9338L15.9256 4.05591C16.2161 2.99021 15.5856 1.89816 14.5175 1.61675L8.63372 0.0666291Z" fill="url(#paint0_linear)"/>
<path fill-rule="evenodd" clip-rule="evenodd" d="M2 3.88501C0.895431 3.88501 0 4.78044 0 5.88501V13.0009C0 14.1055 0.89543 15.0009 2 15.0009H8.09579C9.20036 15.0009 10.0958 14.1055 10.0958 13.0009V5.88501C10.0958 4.78044 9.20036 3.88501 8.09579 3.88501H2ZM2.97695 8.84685C2.70908 9.20078 2.70908 9.68744 2.97695 10.0414L4.24522 11.7171C4.64704 12.248 5.45067 12.248 5.85249 11.7171L7.12076 10.0414C7.38864 9.68744 7.38864 9.20078 7.12076 8.84685L5.85249 7.17114C5.45067 6.64024 4.64704 6.64024 4.24522 7.17114L2.97695 8.84685Z" fill="url(#paint1_linear)"/>
<defs>
<linearGradient id="paint0_linear" x1="10.8976" y1="0" x2="10.8976" y2="12.4205" gradientUnits="userSpaceOnUse">
<stop stop-color="#F3B133"/>
<stop offset="1" stop-color="#F37933"/>
</linearGradient>
<linearGradient id="paint1_linear" x1="5.04789" y1="3.88501" x2="5.04789" y2="15.0009" gradientUnits="userSpaceOnUse">
<stop stop-color="#F3B133"/>
<stop offset="1" stop-color="#F37933"/>
</linearGradient>
</defs>
</svg>
