<svg width="8" height="6" viewBox="0 0 8 6" fill="none" xmlns="http://www.w3.org/2000/svg">
<path d="M7.74329 1.66896C8.11275 1.25845 8.07947 0.626165 7.66896 0.256706C7.25845 -0.112753 6.62616 -0.0794747 6.25671 0.331035L7.74329 1.66896ZM3.4 5L2.70714 5.72107C2.90246 5.90875 3.16556 6.00916 3.43626 5.99934C3.70695 5.98952 3.96209 5.87031 4.14329 5.66897L3.4 5ZM1.69286 1.97281C1.29463 1.59015 0.661589 1.60278 0.278931 2.00101C-0.103727 2.39925 -0.0910989 3.03229 0.307136 3.41495L1.69286 1.97281ZM4.09286 4.27893L1.69286 1.97281L0.307136 3.41495L2.70714 5.72107L4.09286 4.27893ZM6.25671 0.331035L2.65671 4.33104L4.14329 5.66897L7.74329 1.66896L6.25671 0.331035Z" fill="#67B12D"/>
</svg>
