<svg width="14" height="14" viewBox="0 0 14 14" fill="none" xmlns="http://www.w3.org/2000/svg">
<path fill-rule="evenodd" clip-rule="evenodd" d="M7 14.001C10.866 14.001 14 10.867 14 7.00098C14 3.13498 10.866 0.000976562 7 0.000976562C3.13401 0.000976562 0 3.13498 0 7.00098C0 10.867 3.13401 14.001 7 14.001ZM8.47189 9.09555C8.73638 9.1749 9.01512 9.02481 9.09447 8.76032C9.17382 8.49582 9.02373 8.21708 8.75923 8.13773L6.96171 7.59847V5.38587C6.96171 5.10973 6.73786 4.88587 6.46171 4.88587C6.18557 4.88587 5.96171 5.10973 5.96171 5.38587V7.97049C5.96171 8.19129 6.10655 8.38595 6.31804 8.4494L8.47189 9.09555Z" fill="#F3B233"/>
</svg>
