<svg width="110" height="28" viewBox="0 0 110 28" fill="none" xmlns="http://www.w3.org/2000/svg">
<path d="M76.494 7.65383C77.3472 8.01252 78.075 8.61325 78.5867 9.38093C79.0689 10.1696 79.324 11.0748 79.324 11.9978C79.324 12.9207 79.0689 13.8259 78.5867 14.6146C78.0747 15.385 77.3473 15.9899 76.494 16.3548C75.4775 16.7758 74.3836 16.9808 73.2827 16.9566H70.0845V21.0258H67.4523V7.05196H73.2827C74.3836 7.02779 75.4775 7.2328 76.494 7.65383ZM75.7702 14.1959C76.0646 13.9392 76.2978 13.6204 76.4526 13.2628C76.6074 12.9051 76.68 12.5177 76.6651 12.1286C76.682 11.7374 76.6104 11.3473 76.4555 10.9873C76.3006 10.6272 76.0664 10.3063 75.7702 10.0482C75.0067 9.50483 74.0735 9.2497 73.1379 9.3286H70.0845V14.9286H73.1642C74.0998 14.9719 75.0213 14.6897 75.7702 14.1305V14.1959Z" fill="white"/>
<path d="M89.4928 11.4082C89.9448 11.8536 90.296 12.3898 90.523 12.981C90.7499 13.5721 90.8474 14.2046 90.809 14.8362V21.1427H88.2689V19.8343C87.9397 20.3073 87.4837 20.679 86.9527 20.9072C86.2915 21.1688 85.5848 21.2977 84.8733 21.2867C84.1496 21.3217 83.4269 21.2012 82.7543 20.9334C82.1834 20.6984 81.6939 20.3028 81.3461 19.7951C81.0138 19.3044 80.8394 18.7249 80.8459 18.1334C80.8048 17.6715 80.8809 17.2067 81.0671 16.7816C81.2534 16.3564 81.5438 15.9845 81.912 15.6997C82.917 15.0243 84.1257 14.7146 85.3339 14.8231H88.1767V14.6661C88.1955 14.3453 88.1454 14.0242 88.0296 13.7241C87.9139 13.4241 87.7352 13.152 87.5055 12.9259C86.9375 12.5173 86.2441 12.3184 85.5445 12.3633C84.9358 12.3587 84.3307 12.456 83.7546 12.6511C83.2102 12.8093 82.704 13.0764 82.2673 13.4362L81.2802 11.6044C81.889 11.1446 82.5818 10.8069 83.3202 10.61C84.1436 10.3854 84.9934 10.271 85.8472 10.2698C87.1629 10.182 88.4639 10.5882 89.4928 11.4082ZM87.1896 19.0231C87.6665 18.7363 88.0327 18.2985 88.2294 17.7801V16.4717H85.5445C84.0836 16.4717 83.3466 16.9427 83.3466 17.8979C83.3433 18.1099 83.3919 18.3195 83.4882 18.5086C83.5845 18.6978 83.7256 18.8609 83.8993 18.9839C84.3486 19.2735 84.8781 19.4154 85.4129 19.3895C86.0103 19.4249 86.6063 19.2982 87.137 19.0231H87.1896Z" fill="white"/>
<path d="M93.6829 8.18889C93.5334 8.05044 93.4151 7.8821 93.3357 7.69493C93.2563 7.50775 93.2176 7.30599 93.2223 7.10291C93.217 6.90167 93.2554 6.70165 93.3349 6.51649C93.4143 6.33134 93.5331 6.16541 93.6829 6.03001C93.8377 5.88549 94.0197 5.77292 94.2185 5.6988C94.4173 5.62469 94.6289 5.59051 94.8411 5.59824C95.2644 5.58631 95.677 5.73083 95.9993 6.00385C96.1507 6.13233 96.2708 6.29328 96.3506 6.47458C96.4304 6.65589 96.4678 6.85283 96.46 7.05057C96.4645 7.46551 96.3036 7.86536 96.0125 8.16272C95.8574 8.31234 95.6741 8.42986 95.473 8.50847C95.2719 8.58709 95.0571 8.62522 94.8411 8.62067C94.6289 8.6284 94.4173 8.59422 94.2185 8.5201C94.0197 8.44599 93.8377 8.33341 93.6829 8.18889ZM93.5645 10.387H96.0783V21.1422H93.5645V10.387Z" fill="white"/>
<path d="M109.996 6.2019V21.144H107.561V19.757C107.154 20.2822 106.62 20.6964 106.008 20.9608C105.364 21.2189 104.675 21.3478 103.981 21.3402C103.004 21.3511 102.04 21.1171 101.178 20.6598C100.356 20.2023 99.6772 19.5276 99.2169 18.7103C98.717 17.7871 98.4718 16.7489 98.5062 15.701C98.4947 14.6972 98.7392 13.7068 99.2169 12.8225C99.6741 12.0062 100.354 11.335 101.178 10.886C102.039 10.44 102.998 10.2151 103.968 10.2318C104.64 10.2214 105.307 10.346 105.929 10.5982C106.518 10.8261 107.039 11.1999 107.443 11.6841V6.2019H109.996ZM105.929 18.7234C106.414 18.4448 106.81 18.0369 107.074 17.5458C107.39 16.9836 107.541 16.3443 107.509 15.701C107.524 15.0843 107.374 14.4745 107.074 13.9346C106.814 13.441 106.417 13.0322 105.929 12.757C105.426 12.4798 104.86 12.3344 104.284 12.3344C103.708 12.3344 103.142 12.4798 102.639 12.757C102.151 13.0354 101.75 13.4431 101.481 13.9346C101.203 14.4826 101.059 15.0876 101.06 15.701C101.06 16.3185 101.204 16.9276 101.481 17.4804C101.753 17.9691 102.153 18.3759 102.639 18.658C103.146 18.9227 103.711 19.0611 104.284 19.0611C104.857 19.0611 105.422 18.9227 105.929 18.658V18.7234Z" fill="white"/>
<path d="M34.5897 8.43818C34.3824 8.25734 34.2173 8.03368 34.1059 7.78284C33.9945 7.53199 33.9395 7.26 33.9448 6.98585C33.9395 6.7117 33.9945 6.4397 34.1059 6.18886C34.2173 5.93801 34.3824 5.71436 34.5897 5.53351C35.0639 5.13836 35.6692 4.9331 36.2875 4.95781C36.9017 4.9307 37.5049 5.12595 37.9853 5.50734C38.1956 5.67788 38.3641 5.89372 38.4781 6.13852C38.5921 6.38333 38.6486 6.65071 38.6434 6.92043C38.6512 7.20383 38.5963 7.48548 38.4825 7.74547C38.3688 8.00547 38.1991 8.23748 37.9853 8.4251C37.5029 8.80724 36.9043 9.01534 36.2875 9.01534C35.6707 9.01534 35.0721 8.80724 34.5897 8.4251V8.43818ZM34.366 10.2307H38.1696V21.1428H34.366V10.2307Z" fill="white"/>
<path d="M51.1446 11.2524C51.6007 11.741 51.9525 12.3163 52.1787 12.9437C52.4049 13.5711 52.5008 14.2376 52.4608 14.9029V21.144H48.5124V15.5309C48.5124 14.0393 47.9201 13.2936 46.7093 13.2936C46.413 13.2797 46.1173 13.3299 45.8424 13.4405C45.5674 13.5512 45.3199 13.7198 45.1168 13.9347C44.6834 14.4842 44.4722 15.1748 44.5246 15.8711V21.1048H40.7999V10.2319H44.4587V11.4225C44.883 11.0057 45.3893 10.6805 45.946 10.4674C46.5662 10.2257 47.2277 10.1057 47.8938 10.1141C49.0854 10.0569 50.2522 10.4655 51.1446 11.2524Z" fill="white"/>
<path d="M56.079 20.9344C55.3392 20.7993 54.6246 20.5522 53.9601 20.2017L55.1051 17.5849C55.6628 17.9143 56.2657 18.1611 56.895 18.3176C57.5592 18.5013 58.2456 18.5937 58.935 18.5924C59.3827 18.619 59.831 18.5522 60.2511 18.3961C60.3628 18.3514 60.4592 18.2759 60.5292 18.1786C60.5991 18.0812 60.6397 17.966 60.646 17.8466C60.646 17.598 60.488 17.4279 60.1722 17.3232C59.6712 17.1835 59.1611 17.0786 58.6455 17.0092C57.8906 16.9227 57.1429 16.7828 56.4081 16.5905C55.8097 16.4336 55.2615 16.1274 54.8156 15.7008C54.3478 15.1514 54.112 14.4434 54.1575 13.7251C54.1286 13.0234 54.3474 12.3337 54.7761 11.7755C55.2476 11.1803 55.8765 10.7272 56.5923 10.4671C57.5139 10.1281 58.4924 9.96818 59.4746 9.9961C60.271 9.9939 61.0653 10.0772 61.8437 10.2447C62.5294 10.3669 63.1913 10.5965 63.8047 10.9251L62.6596 13.5419C61.6901 13.0064 60.5969 12.7313 59.4878 12.7438C59.0389 12.715 58.5892 12.7866 58.1717 12.9531C58.0542 12.9922 57.9512 13.0655 57.8761 13.1635C57.801 13.2615 57.7573 13.3796 57.7505 13.5026C57.7505 13.7643 57.8953 13.9344 58.2112 14.0391C58.7153 14.1839 59.2302 14.2889 59.751 14.3531C60.5109 14.4541 61.2629 14.6071 62.0016 14.811C62.5917 14.9948 63.1257 15.3233 63.5546 15.7662C64.0159 16.3089 64.2513 17.0062 64.2127 17.7157C64.2346 18.4044 64.016 19.0794 63.5941 19.626C63.1039 20.2188 62.4632 20.6705 61.7384 20.9344C60.7898 21.256 59.7922 21.411 58.7902 21.3924C57.8717 21.3449 56.9618 21.1912 56.079 20.9344Z" fill="white"/>
<path d="M21.4941 21.2224L21.3888 21.3402C19.9326 22.7869 18.0776 23.772 16.0584 24.1708C14.0391 24.5696 11.9462 24.3642 10.0444 23.5807C8.14247 22.7972 6.51697 21.4707 5.37334 19.7688C4.22971 18.067 3.61931 16.0663 3.61931 14.0196C3.61931 11.973 4.22971 9.97225 5.37334 8.27042C6.51697 6.5686 8.14247 5.24207 10.0444 4.45854C11.9462 3.67502 14.0391 3.46968 16.0584 3.86848C18.0776 4.26728 19.9326 5.25232 21.3888 6.69907L24.0211 4.08225C22.0495 2.12949 19.5402 0.801248 16.8099 0.265243C14.0796 -0.270762 11.2507 0.00950089 8.6805 1.07064C6.11029 2.13179 3.91397 3.92623 2.36886 6.2274C0.823758 8.52856 -0.000854492 11.2333 -0.000854492 14C-0.000854492 16.7667 0.823758 19.4714 2.36886 21.7726C3.91397 24.0738 6.11029 25.8682 8.6805 26.9294C11.2507 27.9905 14.0796 28.2708 16.8099 27.7348C19.5402 27.1988 22.0495 25.8705 24.0211 23.9178L24.2448 23.6692L21.4941 21.2224Z" fill="white"/>
<path d="M14.0303 17.5846C13.0808 17.6644 12.1384 17.366 11.4103 16.755C10.6821 16.144 10.228 15.2705 10.1477 14.3267C10.0674 13.3828 10.3676 12.4459 10.9822 11.722C11.5967 10.9982 12.4754 10.5467 13.4248 10.4668H14.0303C14.5006 10.4636 14.9668 10.5546 15.4009 10.7345C15.8351 10.9143 16.2283 11.1793 16.5572 11.5136L19.2684 8.76591C18.2285 7.7383 16.9058 7.03986 15.4671 6.7587C14.0285 6.47754 12.5382 6.62625 11.1845 7.18608C9.83069 7.74591 8.67401 8.69177 7.86033 9.90435C7.04665 11.1169 6.61243 12.5419 6.61243 13.9996C6.61243 15.4572 7.04665 16.8822 7.86033 18.0948C8.67401 19.3073 9.83069 20.2532 11.1845 20.813C12.5382 21.3729 14.0285 21.5216 15.4671 21.2404C16.9058 20.9593 18.2285 20.2608 19.2684 19.2332L16.5441 16.5248C15.8791 17.1932 14.9758 17.574 14.0303 17.5846Z" fill="white"/>
<path d="M23.202 20.608C22.2947 20.1494 21.5327 19.4501 21.0005 18.5876C20.4683 17.7251 20.1866 16.7329 20.1866 15.7211C20.1866 14.7092 20.4683 13.7171 21.0005 12.8545C21.5327 11.992 22.2947 11.2927 23.202 10.8342C24.1677 10.3466 25.2382 10.0997 26.3212 10.1145C27.4348 10.089 28.5377 10.3361 29.5325 10.8342C30.4582 11.2701 31.2391 11.9602 31.7831 12.8229C32.3111 13.7001 32.5844 14.7055 32.5728 15.7276C32.5957 16.7484 32.3272 17.7547 31.7984 18.63C31.2697 19.5053 30.5023 20.2138 29.5852 20.6734C28.588 21.165 27.4868 21.4118 26.3738 21.393C25.2682 21.3909 24.1796 21.1215 23.202 20.608ZM28.0453 17.5856C28.4896 17.0597 28.7196 16.3875 28.6902 15.7014C28.7333 15.0135 28.5015 14.3364 28.0453 13.8173C27.6086 13.3843 27.017 13.1411 26.4002 13.1411C25.7834 13.1411 25.1917 13.3843 24.755 13.8173C24.5221 14.0713 24.3417 14.3684 24.2243 14.6917C24.1069 15.015 24.0547 15.3581 24.0706 15.7014C24.0284 16.4012 24.2594 17.0902 24.7155 17.6248C24.9284 17.838 25.1816 18.0073 25.4606 18.1228C25.7396 18.2382 26.0388 18.2977 26.3409 18.2977C26.6431 18.2977 26.9423 18.2382 27.2213 18.1228C27.5003 18.0073 27.7535 17.838 27.9664 17.6248H28.0453V17.5856Z" fill="white"/>
</svg>
