<svg width="20" height="20" viewBox="0 0 20 20" fill="none" xmlns="http://www.w3.org/2000/svg">
<mask id="mask0" mask-type="alpha" maskUnits="userSpaceOnUse" x="0" y="0" width="20" height="20">
<circle cx="10" cy="10" r="10" fill="#C4C4C4"/>
</mask>
<g mask="url(#mask0)">
<path d="M17.2786 20H2.71978C-0.407133 20 -2.94199 18.0413 -2.94199 15.625V4.375C-2.94199 1.95875 -0.407133 0 2.71978 0H17.2786C20.4055 0 22.9404 1.95875 22.9404 4.375V15.625C22.9404 18.0413 20.4055 20 17.2786 20Z" fill="white"/>
<path d="M2.71978 0C-0.407133 0 -2.94199 1.95875 -2.94199 4.375V9.41177H22.9404V4.375C22.9404 1.95875 20.4055 0 17.2786 0H2.71978Z" fill="white"/>
<path d="M-2.94199 15.6252C-2.94199 18.0415 -0.407133 20.0002 2.71978 20.0002H17.2786C20.4055 20.0002 22.9404 18.0415 22.9404 15.6252V9.41199H-2.94199V15.6252Z" fill="#F23548"/>
<path d="M0.16147 0.470825L12.3521 9.41101L-0.796677 19.0539C-2.10373 18.2524 -2.94199 17.0143 -2.94199 15.6248V4.37477C-2.94199 2.66991 -1.68002 1.19281 0.16147 0.470825Z" fill="#170952"/>
</g>
</svg>
