<svg width="20" height="20" viewBox="0 0 20 20" fill="none" xmlns="http://www.w3.org/2000/svg">
<mask id="mask0" mask-type="alpha" maskUnits="userSpaceOnUse" x="0" y="0" width="20" height="20">
<circle cx="10" cy="10" r="10" fill="#C4C4C4"/>
</mask>
<g mask="url(#mask0)">
<path d="M17.28 20H2.72115C-0.40576 20 -2.94061 18.0413 -2.94061 15.625V4.375C-2.94061 1.95875 -0.40576 0 2.72115 0H17.28C20.4069 0 22.9417 1.95875 22.9417 4.375V15.625C22.9417 18.0413 20.4069 20 17.28 20Z" fill="white"/>
<path d="M2.72115 0C-0.40576 0 -2.94061 1.95875 -2.94061 4.375V7.05882H22.9417V4.375C22.9417 1.95875 20.4069 0 17.28 0H2.72115Z" fill="#0F001E"/>
<path d="M-2.94061 15.6254C-2.94061 18.0417 -0.40576 20.0004 2.72115 20.0004H17.28C20.4069 20.0004 22.9417 18.0417 22.9417 15.6254V12.9416H-2.94061V15.6254Z" fill="#FFAE33"/>
<path d="M22.9417 12.9407H-2.94061V7.25665C-2.94061 7.18988 -2.9341 7.12376 -2.92133 7.05838H22.9225C22.9352 7.12376 22.9417 7.18988 22.9417 7.25665V12.9407Z" fill="#F23548"/>
</g>
</svg>
