<svg width="16" height="17" viewBox="0 0 16 17" fill="none" xmlns="http://www.w3.org/2000/svg">
<path d="M10.8729 9.78001L6.23564 5.1535C5.88434 4.803 5.28712 4.803 4.90069 5.1535L0.263478 9.78001C-0.087826 10.1305 -0.087826 10.7263 0.263478 11.1119L4.90069 15.7384C5.25199 16.0889 5.84921 16.0889 6.23564 15.7384L10.8729 11.1119C11.2242 10.7263 11.2242 10.1305 10.8729 9.78001ZM3.49547 11.3572C3.21443 11.6376 2.79286 11.6376 2.51182 11.3572C2.23078 11.0768 2.23078 10.6562 2.51182 10.3758C2.79286 10.0955 3.21443 10.0955 3.49547 10.3758C3.77652 10.6562 3.77652 11.0768 3.49547 11.3572ZM3.9873 9.88516C3.70625 9.60476 3.70625 9.18417 3.9873 8.90377C4.26834 8.62338 4.6899 8.62338 4.97095 8.90377C5.25199 9.18417 5.25199 9.60476 4.97095 9.88516C4.6899 10.1656 4.26834 10.1656 3.9873 9.88516ZM5.67355 13.5303C5.39251 13.8107 4.97095 13.8107 4.6899 13.5303C4.40886 13.2499 4.40886 12.8293 4.6899 12.5489C4.97095 12.2685 5.39251 12.2685 5.67355 12.5489C5.9546 12.8293 5.9546 13.2499 5.67355 13.5303ZM5.42764 8.44813C5.1466 8.16774 5.1466 7.74715 5.42764 7.46675C5.70869 7.18636 6.13025 7.18636 6.4113 7.46675C6.69234 7.74715 6.69234 8.16774 6.4113 8.44813C6.13025 8.69348 5.70869 8.69348 5.42764 8.44813ZM7.14903 12.0582C6.86799 12.3386 6.44643 12.3386 6.16538 12.0582C5.88434 11.7778 5.88434 11.3572 6.16538 11.0768C6.44643 10.7964 6.86799 10.7964 7.14903 11.0768C7.39494 11.3572 7.39494 11.8129 7.14903 12.0582ZM8.58938 10.6212C8.30834 10.9016 7.88677 10.9016 7.60573 10.6212C7.32468 10.3408 7.32468 9.9202 7.60573 9.63981C7.88677 9.35942 8.30834 9.35942 8.58938 9.63981C8.87042 9.9202 8.87042 10.3408 8.58938 10.6212Z" fill="#F3B233"/>
<path d="M15.0501 0H8.48075C7.95379 0 7.53223 0.420592 7.53223 0.946332V5.1172L10.8696 8.44689H15.0501C15.5771 8.44689 15.9986 8.0263 15.9986 7.50056V0.946332C15.9986 0.420592 15.5771 0 15.0501 0ZM10.7291 3.15444C10.448 3.43483 10.0265 3.43483 9.74544 3.15444C9.4644 2.87405 9.4644 2.45345 9.74544 2.17306C10.0265 1.89266 10.448 1.89266 10.7291 2.17306C11.0101 2.45345 10.975 2.90909 10.7291 3.15444ZM12.1694 4.62651C11.8884 4.90691 11.4668 4.90691 11.1858 4.62651C10.9047 4.34612 10.9047 3.92553 11.1858 3.64513C11.4668 3.36474 11.8884 3.36474 12.1694 3.64513C12.4505 3.92553 12.4505 4.34612 12.1694 4.62651ZM13.6098 6.06353C13.3287 6.34393 12.9072 6.34393 12.6261 6.06353C12.3451 5.78314 12.3451 5.36255 12.6261 5.08215C12.9072 4.80176 13.3287 4.80176 13.6098 5.08215C13.8908 5.36255 13.8908 5.78314 13.6098 6.06353Z" fill="#F3B233"/>
</svg>
