<svg width="14" height="14" viewBox="0 0 14 14" fill="none" xmlns="http://www.w3.org/2000/svg">
  <path d="M13.7873 5.68876L10.5459 5.49285L12.5333 2.82547L9.43847 4.23451L10.1352 1.34861L8.36776 2.99877L8.19175 0.240967L6.57834 3.20975L4.94293 0.715671L5.19227 3.84269L2.50081 1.80824L3.70354 4.67907L1.18075 4.12148L3.47619 6.38951L0.264038 7.03752L3.03617 8.02461L0.711393 9.44872L3.83554 9.0569L1.87011 11.6715L4.84026 10.2098L4.31223 13.6005L6.11632 11.3475L6.86435 13.6608L7.65639 11.34L9.54848 13.7738L9.2478 10.1721L11.9246 11.9503L10.7072 8.82331L13.428 8.77057L10.8099 7.63279L13.7873 5.68876ZM7.10636 10.8276C5.11894 10.8276 3.50553 9.16992 3.50553 7.12794C3.50553 5.08596 5.11894 3.42827 7.10636 3.42827C9.09379 3.42827 10.7072 5.08596 10.7072 7.12794C10.7072 9.16992 9.09379 10.8276 7.10636 10.8276Z" fill="#EDD938"/>
  <path d="M9.61448 8.22684C9.3138 7.93286 9.23313 7.5635 9.23313 7.5635C9.21846 7.5032 9.18179 7.51827 9.18179 7.51827C9.14512 7.52581 9.15979 7.57104 9.15979 7.57104C9.22579 7.8424 9.26246 7.91024 9.26246 7.91024C6.93768 8.41528 4.84758 7.85748 4.84758 7.85748C4.94292 7.69918 5.00892 7.53335 5.00892 7.53335C5.02359 7.48059 4.99426 7.47305 4.99426 7.47305C4.95759 7.45797 4.94292 7.5032 4.94292 7.5032C4.72291 7.93286 4.4149 8.09115 4.4149 8.09115C4.4149 8.09115 4.35623 8.12884 4.37823 8.15899C4.37823 8.15899 4.39289 8.18161 4.46623 8.15899C4.61291 8.08362 4.75958 7.95547 4.75958 7.95547C4.99426 8.40021 5.37561 8.82233 5.37561 8.82233C5.79363 9.29721 6.24832 9.47058 6.24832 9.47058C6.549 9.62888 6.95235 9.63642 6.95235 9.63642C8.57309 9.71933 9.30646 8.03085 9.30646 8.03085C9.3798 8.15899 9.56314 8.28714 9.56314 8.28714C9.65114 8.31729 9.61448 8.22684 9.61448 8.22684ZM7.01102 9.51581C5.66162 9.50074 4.91359 7.99316 4.91359 7.99316L5.01626 8.01577C6.20431 8.29468 7.17236 8.25699 7.29703 8.24945C7.00369 8.25699 8.14041 8.25699 9.04245 8.06854L9.15979 8.04593C9.16712 8.03839 8.44842 9.53089 7.01102 9.51581Z" fill="#EDD938"/>
  <path d="M6.51224 7.09795C6.54157 7.09795 7.0036 7.10549 7.0036 7.10549C7.1356 7.08287 7.07693 7.24871 7.07693 7.24871C7.03293 7.30901 7.08427 7.32409 7.08427 7.32409C7.1576 7.32409 7.18694 7.16579 7.18694 7.16579C7.20894 6.99242 7.0696 7.02257 7.0696 7.02257L6.55624 7.00749C6.05755 6.96227 6.08688 6.44969 6.08688 6.44969C6.08688 6.11049 6.40223 5.81651 6.40223 5.81651C6.65158 5.58284 7.09893 5.44715 7.09893 5.44715C7.1576 5.417 7.14294 5.40193 7.14294 5.40193C7.12827 5.3567 6.88626 5.43962 6.88626 5.43962C6.88626 5.43962 6.03555 5.68837 5.98421 6.42708C5.96955 6.43462 5.92554 7.03765 6.51224 7.09795Z" fill="#EDD938"/>
  <path d="M4.29724 5.95501C4.29724 5.95501 4.59059 5.35198 5.08195 5.48012C5.5733 5.60827 5.5733 6.22637 5.5733 6.22637C5.5733 6.22637 5.66131 5.50274 5.11128 5.35198C4.48792 5.19369 4.29724 5.95501 4.29724 5.95501Z" fill="#EDD938"/>
  <path d="M8.80747 5.55307C9.51884 5.61337 9.51884 6.41992 9.51884 6.41992C9.51884 6.41992 9.40883 5.71136 8.80747 5.6586C8.38945 5.62091 8.16211 6.14856 8.16211 6.14856C8.16211 6.14856 8.29412 5.50784 8.80747 5.55307Z" fill="#EDD938"/>
  <path d="M4.90523 5.94399C4.56055 5.94399 4.39187 7.01437 4.80256 7.05206C5.20591 7.09729 5.33792 5.9063 4.90523 5.94399Z" fill="#EDD938"/>
  <path d="M4.81048 6.10321C4.81048 6.10321 4.71514 6.15598 4.69314 6.32181C4.67114 6.48764 4.67114 6.52533 4.67114 6.52533C4.67114 6.52533 4.70781 6.55548 4.75181 6.54041C4.79582 6.53287 4.83982 6.48764 4.83982 6.48764C4.83982 6.48764 4.82515 6.44242 4.84715 6.30673C4.87649 6.17859 4.90582 6.10321 4.90582 6.10321C4.90582 6.10321 4.88382 6.09567 4.86182 6.08813C4.83982 6.09567 4.81048 6.10321 4.81048 6.10321Z" fill="#EDD938"/>
  <path d="M9.05763 6.52624C9.0503 6.38302 9.01363 6.23226 8.94029 6.17196C8.94029 6.17196 8.89629 6.13427 8.87429 6.12673C8.85229 6.11919 8.80829 6.11165 8.80829 6.11165C8.44894 6.08904 8.2876 7.24987 8.64695 7.28756C8.89629 7.31771 9.07963 6.86544 9.05763 6.52624Z" fill="#EDD938"/>
  <path d="M8.71209 6.25458C8.71209 6.25458 8.61676 6.30734 8.59475 6.47318C8.57275 6.63901 8.57275 6.6767 8.57275 6.6767C8.57275 6.6767 8.60942 6.70685 8.65342 6.69177C8.69743 6.68424 8.74143 6.63901 8.74143 6.63901C8.74143 6.63901 8.72676 6.59378 8.74876 6.4581C8.7781 6.32996 8.80743 6.25458 8.80743 6.25458C8.80743 6.25458 8.78543 6.24704 8.76343 6.2395C8.74143 6.24704 8.71209 6.25458 8.71209 6.25458Z" fill="#EDD938"/>
</svg>
