<svg width="20" height="20" viewBox="0 0 20 20" fill="none" xmlns="http://www.w3.org/2000/svg">
<mask id="mask0" mask-type="alpha" maskUnits="userSpaceOnUse" x="0" y="0" width="20" height="20">
<circle cx="10" cy="10" r="10" fill="#C4C4C4"/>
</mask>
<g mask="url(#mask0)">
<path d="M16.1875 20H3.8125C1.15462 20 -1 18.0413 -1 15.625V4.375C-1 1.95875 1.15462 0 3.8125 0H16.1875C18.8454 0 21 1.95875 21 4.375V15.625C21 18.0413 18.8454 20 16.1875 20Z" fill="white"/>
<path d="M3.8125 0C1.15462 0 -1 1.95875 -1 4.375V7.05882H21V4.375C21 1.95875 18.8454 0 16.1875 0H3.8125Z" fill="#F5F5F5"/>
<path d="M21 8H-1V5.10112C-1 5.06707 -0.994464 5.03334 -0.983608 5H20.9836C20.9945 5.03334 21 5.06707 21 5.10112V8Z" fill="#398DF0"/>
<path d="M21 13H-1V10.1011C-1 10.0671 -0.994464 10.0333 -0.983608 10H20.9836C20.9945 10.0333 21 10.0671 21 10.1011V13Z" fill="#398DF0"/>
<path d="M21 18H-1V15.1011C-1 15.0671 -0.994464 15.0333 -0.983608 15H20.9836C20.9945 15.0333 21 15.0671 21 15.1011V18Z" fill="#398DF0"/>
<path d="M21 3H-1V0.101116C-1 0.0670661 -0.994464 0.0333425 -0.983608 0H20.9836C20.9945 0.0333425 21 0.0670661 21 0.101116V3Z" fill="#398DF0"/>
<path d="M10 10H-1V-0.62924C-1 -0.754091 -0.997232 -0.877744 -0.991804 -1H9.9918C9.99723 -0.877744 10 -0.754091 10 -0.62924V10Z" fill="#398DF0"/>
<path d="M10 8H-8V5.10112C-8 5.06707 -7.99547 5.03334 -7.98659 5H9.98659C9.99547 5.03334 10 5.06707 10 5.10112V8Z" fill="white"/>
<path d="M4 10L4 -8L6.89888 -8C6.93293 -8 6.96666 -7.99547 7 -7.98659L7 9.98659C6.96666 9.99547 6.93293 10 6.89888 10L4 10Z" fill="white"/>
</g>
</svg>
