<svg width="80" height="80" viewBox="0 0 80 80" fill="none" xmlns="http://www.w3.org/2000/svg">
<rect width="80" height="80" fill="white"/>
<path d="M75.8695 41.6599C75.7525 39.7408 75.5228 37.8302 75.1814 35.9376C74.9143 34.445 74.5645 32.9681 74.1336 31.5137C73.6503 29.8807 73.0379 28.2881 72.3019 26.7506C71.6965 25.4664 70.9899 24.2314 70.1888 23.0572C69.126 21.4836 67.8858 20.0351 66.4922 18.7398C65.1931 17.5307 63.7663 16.464 62.2365 15.558C60.8554 14.7316 59.4008 14.0323 57.891 13.4691C55.8287 12.6846 53.6944 12.1005 51.5183 11.7251C49.5599 11.372 47.5797 11.1499 45.5912 11.0604C42.056 10.9104 38.5144 11.04 35 11.448C35.9364 13.097 36.8942 14.7422 37.8384 16.3796C38.5011 17.5423 39.1735 18.6856 39.8323 19.8444C40.6514 21.2822 41.4842 22.7123 42.3091 24.1462C42.6714 24.7767 43.0337 25.4051 43.396 26.0317C41.9944 26.0317 40.5908 26.0317 39.1892 26.0317C40.0689 27.1808 40.9798 28.3047 41.8712 29.4441C42.9138 30.7683 43.9564 32.0898 44.9989 33.4088L45.5072 34.0541C44.5004 34.4843 43.4878 34.9048 42.4792 35.3311C43.5289 36.7941 44.5943 38.2474 45.6538 39.7047C46.4813 40.8441 47.3095 41.9828 48.1384 43.121C49.1158 44.4658 50.0932 45.8067 51.0706 47.1535C51.3325 47.5178 51.6043 47.8763 51.876 48.2348C53.9586 47.5742 56.1421 47.2817 58.3269 47.3705C60.5241 47.5062 62.6412 48.0972 64.4044 49.442C65.9116 50.5911 66.977 52.1646 67.667 53.8989C68.1347 55.1048 68.4626 56.3595 68.6445 57.6388C69.1938 61.3748 68.8223 65.2872 68.2222 69C69.6434 68.9864 71.0626 69 72.4818 69C74.028 63.7465 75.0796 58.3623 75.6232 52.9164C75.777 51.3662 75.8845 49.8115 75.9457 48.2522C76.038 46.055 76.0126 43.8544 75.8695 41.6599V41.6599ZM56.6712 33.4146C56.7621 33.083 56.9202 32.7731 57.1357 32.5039C57.3512 32.2347 57.6198 32.0117 57.9249 31.8486C58.2301 31.6855 58.5656 31.5856 58.9109 31.555C59.2562 31.5244 59.6042 31.5637 59.9338 31.6706C60.9425 32.0097 61.523 32.8527 61.6931 33.8681C61.6579 34.5773 61.4976 35.242 60.9894 35.771C60.225 36.5848 59.1108 36.7747 58.0708 36.3833C56.98 35.8136 56.3388 34.6374 56.6712 33.4146V33.4146Z" fill="url(#paint0_linear)"/>
<path d="M47.1938 44.2391C45.9443 42.9464 44.6941 41.653 43.4433 40.3589C42.4716 39.3854 41.5632 38.3503 40.6011 37.3669C39.8599 36.6119 39.1339 35.843 38.3927 35.0881C37.8953 34.5775 37.4037 34.0609 36.9082 33.5483C38.554 33.2285 40.2055 32.9265 41.8475 32.5887C40.7548 31.3748 39.6525 30.1669 38.554 28.955C37.1713 27.4351 35.8002 25.9053 34.4117 24.3854C33.9796 23.9166 33.5552 23.4358 33.1308 22.9589C35.0109 22.8715 36.8871 22.7205 38.7672 22.6192C37.2212 20.8987 35.6849 19.1682 34.1409 17.4338C33.2384 16.4285 32.3511 15.4113 31.4524 14.4099C30.7169 13.6053 30.039 12.7709 29.2709 12C24.3105 14.2013 19.6305 17.3801 15.9165 21.445C13.9434 23.6063 12.2449 26.0191 10.8621 28.6252C9.66447 30.8702 8.69894 33.2396 7.98148 35.694C7.1647 38.4895 6.62233 41.3629 6.36259 44.2709C6.13319 46.7694 6.07543 49.2817 6.18976 51.7887C6.23777 53.9046 6.59304 55.7364 6.27617 57.7311C5.90746 60.2086 4.7245 62.3722 3 64.1106C4.97992 63.2642 6.26465 61.1126 7.20372 59.2172C7.30358 59.6801 7.39576 60.143 7.52059 60.6079C7.85281 61.8795 8.26569 63.1311 8.69586 64.3709C9.23613 65.9205 9.80712 67.4583 10.4088 68.9841C15.6649 69.006 20.9229 68.9841 26.179 69V68.8848C26.2712 67.7801 26.3403 66.6715 26.4133 65.5669C26.0753 65.8371 25.7354 66.1053 25.3994 66.3775L25.5319 65.4397C25.7636 63.7351 25.9838 62.0291 26.1925 60.3219C25.7719 60.6397 25.3514 60.9576 24.9231 61.2675L24.9634 60.6358C25.1318 57.7647 25.5704 54.9174 26.2731 52.1344C26.3288 51.9258 26.3884 51.7212 26.4479 51.5146C26.4287 51.7987 26.4114 52.0828 26.3903 52.3689C26.227 54.4689 26.0542 56.5689 25.9044 58.6689C26.4344 58.196 26.9626 57.7212 27.4964 57.2543L27.4215 58.1503C27.2935 59.5411 27.1712 60.9318 27.0547 62.3225L26.9798 63.0795C27.4695 62.6821 27.9535 62.2848 28.4297 61.8695C28.3664 63.0815 28.3126 64.2914 28.2531 65.5033C28.1993 66.6596 28.1378 67.8159 28.0879 68.9722C34.0795 69.0079 40.073 68.9722 46.0646 68.994C45.5231 66.5603 45.1505 64.1205 45.1889 61.6172C45.2081 58.2536 45.9456 54.9417 47.6451 52.053C48.5194 50.5779 49.6582 49.2892 51 48.2563C50.4879 47.7265 49.9758 47.1967 49.4637 46.6669C48.7013 45.8682 47.9427 45.0616 47.1938 44.2391Z" fill="url(#paint1_linear)"/>
<defs>
<linearGradient id="paint0_linear" x1="58.4586" y1="15.176" x2="43.4515" y2="64.4784" gradientUnits="userSpaceOnUse">
<stop stop-color="#FAAC05"/>
<stop offset="0.0989035" stop-color="#FBA10D"/>
<stop offset="0.16571" stop-color="#FB9316"/>
<stop offset="0.273767" stop-color="#FB8222"/>
<stop offset="0.371693" stop-color="#FC732C"/>
<stop offset="0.427432" stop-color="#FC6834"/>
<stop offset="0.507097" stop-color="#FD5144"/>
<stop offset="0.581745" stop-color="#FD444D"/>
<stop offset="0.658748" stop-color="#FD3855"/>
<stop offset="0.746367" stop-color="#FD3855"/>
<stop offset="0.8125" stop-color="#FE2B5E"/>
<stop offset="0.90625" stop-color="#FE1B69"/>
<stop offset="1" stop-color="#FF007C"/>
</linearGradient>
<linearGradient id="paint1_linear" x1="11.6993" y1="25.3172" x2="36.8992" y2="73.7503" gradientUnits="userSpaceOnUse">
<stop offset="0.000125755" stop-color="#FAAC05"/>
<stop offset="0.105834" stop-color="#FBA10D"/>
<stop offset="0.170477" stop-color="#FB9316"/>
<stop offset="0.262825" stop-color="#FB8222"/>
<stop offset="0.339092" stop-color="#FC732C"/>
<stop offset="0.424379" stop-color="#FC6834"/>
<stop offset="0.513901" stop-color="#FD5144"/>
<stop offset="0.616384" stop-color="#FD444D"/>
<stop offset="0.689363" stop-color="#FD3855"/>
<stop offset="0.743248" stop-color="#FD3855"/>
<stop offset="0.815063" stop-color="#FE2B5E"/>
<stop offset="0.898719" stop-color="#FE1B69"/>
<stop offset="0.960971" stop-color="#FF007C"/>
</linearGradient>
</defs>
</svg>
