<svg width="20" height="20" viewBox="0 0 20 20" fill="none" xmlns="http://www.w3.org/2000/svg">
<mask id="mask0" mask-type="alpha" maskUnits="userSpaceOnUse" x="0" y="0" width="20" height="20">
<circle cx="10" cy="10" r="10" fill="#C4C4C4"/>
</mask>
<g mask="url(#mask0)">
<path d="M17.3826 20H2.61713C-0.554166 20 -3.125 18.0412 -3.125 15.625V4.375C-3.125 1.95875 -0.554166 0 2.61713 0H17.3826C20.5539 0 23.1247 1.95875 23.1247 4.375V15.625C23.1247 18.0412 20.5539 20 17.3826 20Z" fill="#06094C"/>
<path d="M23.1247 15.6267V14.6663L19.0529 12.6337H23.1247V11.5811H12.0721V20.0021H13.4537V13.6138L22.2172 17.9884C22.5276 17.6203 22.7672 17.2142 22.9222 16.7816" fill="#F5F5F5"/>
<path d="M-2.73889 17.2069C-2.59903 17.4819 -2.424 17.7436 -2.21759 17.9884L6.54593 13.6138V20.0021H7.92747V11.5811H-3.125V12.6337H0.946735L-3.125 14.6663V15.6271C-3.125 15.7953 -3.11208 15.9612 -3.08783 16.1245" fill="#F5F5F5"/>
<path d="M-3.125 4.52371V5.33586L0.946735 7.36843H-3.125V8.42105H7.92753V0H6.54598V6.38828L-2.21759 2.01367C-2.55817 2.41769 -2.81364 2.86726 -2.96535 3.34765" fill="#F5F5F5"/>
<path d="M22.731 2.78004C22.5924 2.51055 22.4199 2.25402 22.2172 2.01363L13.4537 6.38828V0H12.0721V8.42105H23.1247V7.36843H19.0529L23.1247 5.33586V4.375C23.1247 4.20078 23.1109 4.02898 23.0849 3.86008" fill="#F5F5F5"/>
<path d="M12.0722 0H7.92753V8.42105H-3.125V11.5789H7.92753V20H12.0722V11.5789H23.1247V8.42105H12.0722V0Z" fill="#FF4B55"/>
<path d="M3.96861 12.6304L-3.0896 16.1212C-3.03351 16.4987 -2.91457 16.8615 -2.74061 17.2036L6.50622 12.6304H3.96861V12.6304Z" fill="#FF4B55"/>
<path d="M14.5369 12.6304L22.9238 16.7783C23.0555 16.4104 23.1262 16.0235 23.1262 15.6238V15.6234L17.0745 12.6304L14.5369 12.6304Z" fill="#FF4B55"/>
<path d="M5.16438 7.36892L-2.96535 3.34814C-3.06948 3.67768 -3.125 4.02162 -3.125 4.37549V4.5242L2.62677 7.36892H5.16438Z" fill="#FF4B55"/>
<path d="M15.99 7.37107L23.0835 3.86271C23.0255 3.486 22.9051 3.12389 22.7297 2.78271L13.4524 7.37107H15.99Z" fill="#FF4B55"/>
</g>
</svg>
