<svg xmlns="http://www.w3.org/2000/svg" width="80" height="80" viewBox="0 0 80 80">
  <path d="M46.5,31.4 L47.1,35.2 L44.6,35.9 C44.5,39.5 45.2,57.9 49.2,67.7 L49.2,67.7 L43.9,68.9 L41.7,55.4 L35.5,56.4 L33,69.4 L28.5,67.9 C30.1,63.6 32.3,48.7 31.9,38.8 L31.9,38.8 L30.2,39.1 L29.3,34.3 C29.3,34.1 31.4,33.7 46.5,31.4 L46.5,31.4 Z M28.5,29 C28.2,31.6 27.5,34.1 26.6,36.5 C23,33.8 19.3,34.9 16.1,35.9 C15.5,38.3 14.9,43.7 15.8,45.9 C18,46.2 20.2,45.7 22,44.4 L22,44.4 L21.6,51.9 C19.9333333,49.7333333 18.3361111,50.0666667 16.6347222,50.4115741 L16.2930041,50.4799726 C16.0641975,50.5246914 15.8333333,50.5666667 15.6,50.6 L15.6,50.6 L15.6,51.7 C15.5,57.2 16.4,62.7 18.4,67.9 L18.4,67.9 L11.6,67.9 L11.7,66.3 C12.3,55.8 12.5,41.5 9.8,31.6 C10.3,31.7 10.9,31.7 11.4,31.7 C16.9,31.7 24.8,29 28.3,29 L28.3,29 Z M35.5,11.1 C37.4,10 40.7,10 43.3,10.5 C45.6,10.9 47.6,12.2 49,14 C50.6,15.6 52.4,16.8 54.5,17.5 C56.5,18.2 59.1,17 61.1,15.9 C62.5,15.1 64.2,14.7 65.8,14.8 C67.3,15.2 68.5,16.3 68.9,17.8 C69.5,20.3 69.8,23 69.7,25.6 C69.7,27.4 69.9,29 70.2,30.9 L70.1846122,30.8003838 L70.2,30.8 C70.1977821,30.8199613 70.1955714,30.8399244 70.193368,30.8598892 L70.2,30.9 L70.1882034,30.9068097 C68.9072956,42.5748409 70.1015213,54.8355977 70.6,66.5 L70.6,66.5 L66.9,66.5 C66.1878378,65.2013514 64.177027,61.8845325 62.0659006,58.431588 L61.2462542,57.0922083 C58.5828524,52.7434076 56.0054054,48.5635135 55.9,48.3 C55.6,55.5 54.8,58.2 55.4,65.1 L55.4,65.1 L49.4,63.6 C50.9,55.8 52.7,46.1 51.7,34.7 L51.7,34.7 L56.5,34.7 C57.7,40.8 63.1,51.8 66.3,55.5 C66.3,52.552 66.22256,49.0232 66.1358272,45.4417408 L66.0880064,43.4861696 C65.99216,39.57728 65.9,35.72 65.9,32.6 L65.9,32.6 L65.9,31.6 C65.8,30.5 65.6,26.1 65.5,24.9 C65.3,23.5 65.1,22.1 64.8,20.7 C64.775,20.575 64.75,20.45625 64.725,20.340625 L64.575,19.659375 L64.575,19.659375 L64.5,19.3 C64.5,19.3 65.1,19.4 65.5,20.6 C65.9,21.9 66.2,23.2 66.5,24.6 C66.6784392,25.5814153 67.4140876,28.9508705 67.5706259,31.1573672 C68.0814284,31.0588775 68.5974374,30.9722768 69.1233048,30.9053928 C69.019301,30.031089 68.87869,28.6868996 68.8,27.9 C68.5,25.5 68.2,22.4 67.8,19.5 C67.5,17.2 66.6,16.5 65.9,16.1 C64.3,15.6 62.5,15.9 61.2,16.9 C59.1,18.2 56.6,18.8 54.2,18.5 C52.3,18.4 49.4,16.4 48.1,15.1 C46.7,13.7 44.9,12.6 43,11.8 C40.6,11.2 38,11.3 35.6,12 C33.1,12.9 31.1,16.1 30.4,17.7 C29.7,19.3 29.3,23.3 28.9,25.6 C28.5,27.9 27,27.7 24.5,28 C21.4,28.4 17.8,28.5 14.1,29 C12.5,29.2 10.9,29.6 9.5,30.3 L9.5,30.3 L9.48002337,30.3121933 C9.31947874,30.4097394 8.26666667,31.0407407 9.1,30.3 C10.6,29.3 12.3,28.6 14,28.4 C15.6,28.1 22.4,27.5 23.9,27.1 C26.3,26.5 27.7,26.2 28.1,25 C28.7,23.2 28.5,20.4 29.8,17.2 C30.9,14.6 32.9,12.4 35.5,11.1 Z M40.6,38.7 C39.1,38.8 37.5,39 36,39.3 C35.9,39.3 35.7,39.3 35.6,39.4 L35.6,39.4 L35.7,50.3 C37.5,50.3 39.2,50.1 40.9,49.8 L40.9,49.8 L40.8,49.7 C40.8,46 40.6,42.5 40.6,38.7 Z M47.6,17.4 C49.2,16.4 49.1,19 48.7,20.1 C47.5,22.8 46.2,25.4 44.7,27.9 C44.3,28.4 43.6,31.2 39.8,30.7 C36,30.2 33,26.5 32.1,25.3 C31.1,24.1 31.5,22.8 33.4,22.9 C34.9,23 36.7,23.4 38.2,23.4 C39,23.4 39.8,23.1 40.5,22.6 C41.7,21.8 42.5,21.1 43.6,20.3 C44.9,19.4 46,18.4 47.6,17.4 Z M35.1,14.6 C37.2,14.3 38,16.3 38.1,18 C38.2,19.7 37.4,21.5 35.5,21.5 C33.8,21.5 33,19.6 33,18 C33,16.1 34.2,14.7 35.1,14.6 Z M42.9,14.1 C43.6,13.8 44.4,13.7 45.1,13.8 C46.2,13.9 46.8,14.3 47,15 C47.1,15.4 46.9,15.6 45.9,15.7 C44.7,15.6 43.6,15.8 42.5,16.2 C41.5,16.7 41.2,17.5 40.8,17.5 C40.4,17.5 40.5,16.8 40.8,16 C41.3,15.1 42,14.5 42.9,14.1 Z"/>
</svg>
