<svg width="14" height="13" viewBox="0 0 14 13" fill="none" xmlns="http://www.w3.org/2000/svg">
<path fill-rule="evenodd" clip-rule="evenodd" d="M6.68599 12.9979C6.63016 12.9993 6.57415 13 6.51798 13C6.46181 13 6.4058 12.9993 6.34997 12.9979H6.68599ZM7.42579 8.67966V12.9372C8.5456 12.7811 9.57425 12.3402 10.4362 11.6901L7.42579 8.67966ZM11.5228 10.6553C12.2816 9.74521 12.7969 8.6249 12.9685 7.39454H8.60505C8.57088 7.47294 8.53243 7.54904 8.48999 7.62254L11.5228 10.6553ZM8.63712 5.65492C8.66767 5.73279 8.69405 5.81276 8.716 5.89454H13.0047C12.8928 4.65297 12.4325 3.51186 11.7223 2.56974L8.63712 5.65492ZM7.65613 4.51459L10.6878 1.48295C9.77745 0.723527 8.6567 0.207855 7.42579 0.0362007V4.39818C7.50502 4.43271 7.5819 4.47161 7.65613 4.51459ZM10.9765 1.73856L11.2661 2.02823C11.1726 1.92868 11.076 1.83207 10.9765 1.73856ZM4.31849 5.89454C4.34068 5.81183 4.36741 5.73098 4.39841 5.65228L1.31461 2.56848C0.603867 3.51084 0.143197 4.65241 0.03125 5.89454H4.31849ZM1.77714 2.02046L2.05171 1.74589C1.95749 1.83468 1.86593 1.92625 1.77714 2.02046ZM5.38069 4.51324L2.34939 1.48194C3.33674 0.658658 4.5715 0.122057 5.92579 0V4.28723C5.73276 4.33903 5.54985 4.41557 5.38069 4.51324ZM0.0674522 7.39454H4.42944C4.46379 7.47338 4.50249 7.54991 4.54522 7.62381L1.51343 10.6556C0.754433 9.74544 0.23905 8.62503 0.0674522 7.39454ZM5.92579 8.68475C5.84358 8.66269 5.76321 8.63614 5.68496 8.60539L2.60003 11.6903C3.54233 12.4009 4.68379 12.8615 5.92579 12.9734V8.68475ZM6.51724 5.20964C5.81233 5.20964 5.24089 5.78108 5.24089 6.48599C5.24089 7.1909 5.81233 7.76234 6.51724 7.76234C7.22215 7.76234 7.79359 7.1909 7.79359 6.48599C7.79359 5.78108 7.22215 5.20964 6.51724 5.20964Z" fill="#F3B233"/>
</svg>
