<svg xmlns="http://www.w3.org/2000/svg" xmlns:xlink="http://www.w3.org/1999/xlink" viewBox="0 0 60 40"><style>.st4,.st7{fill-rule:evenodd;clip-rule:evenodd}.st4{clip-path:url(#SVGID_4_)}.st7{fill:#d80027}</style><g id="Слой_1"><g id="Symbols"><g id="fr"><path id="Fill-1" fill="#f0f0f0" d="M0 40h60V0H0z"/><path id="Fill-3" fill="#0057b4" d="M0 40h19.8V0H0z"/><path id="Fill-5" fill="#d70027" d="M40.2 40H60V0H40.2z"/></g></g></g><g id="Слой_2"><g opacity=".4"><defs><path id="SVGID_1_" d="M0 1h60v20H0z"/></defs><clipPath id="SVGID_2_"><use xlink:href="#SVGID_1_" overflow="visible"/></clipPath><defs><path id="SVGID_3_" d="M0 1h60v20H0z"/></defs><clipPath id="SVGID_4_"><use xlink:href="#SVGID_3_" overflow="visible"/></clipPath><path id="Rectangle-path-Copy_15_" class="st4" d="M17.6-12.9h24.9v49.8H17.6z"/><path id="Rectangle-path_15_" class="st4" d="M-7.3-12.9h24.9v49.8H-7.3z"/><path class="st4" d="M42.4-12.9h24.9v49.8H42.4z"/><path id="Shape_15_" class="st4" d="M35.6 15.7l5.6-3-2.8-1.5v-3l-5.6 3 2.8-6h-2.8L30 .8l-2.8 4.4h-2.8l2.8 6-5.6-3v3l-2.8 1.5 5.6 3-1.4 3h5.6v4.5h2.8v-4.5H37z"/><g><defs><path id="SVGID_5_" d="M0 1h60v20H0z"/></defs><clipPath id="SVGID_6_"><use xlink:href="#SVGID_5_" overflow="visible"/></clipPath></g></g><defs><path id="SVGID_7_" d="M0 0h60v20H0z"/></defs><clipPath id="SVGID_8_"><use xlink:href="#SVGID_7_" overflow="visible"/></clipPath><defs><path id="SVGID_9_" d="M0 0h60v20H0z"/></defs><clipPath id="SVGID_10_"><use xlink:href="#SVGID_9_" overflow="visible"/></clipPath><g id="Artboard_9_" clip-path="url(#SVGID_10_)"><path id="Rectangle-path-Copy_12_" fill-rule="evenodd" clip-rule="evenodd" fill="#fff" d="M17.6-13.9h24.9v49.8H17.6z"/><g id="en-CA_9_"><path id="Rectangle-path_12_" class="st7" d="M-7.3-13.9h24.9v49.8H-7.3z"/><path class="st7" d="M42.4-13.9h24.9v49.8H42.4z"/><path id="Shape_12_" class="st7" d="M35.6 14.7l5.6-3-2.8-1.5v-3l-5.6 3 2.8-6h-2.8L30-.2l-2.8 4.4h-2.8l2.8 6-5.6-3v3l-2.8 1.5 5.6 3-1.4 3h5.6v4.5h2.8v-4.5H37z"/></g></g><g><defs><path id="SVGID_11_" d="M0 0h60v20H0z"/></defs><clipPath id="SVGID_12_"><use xlink:href="#SVGID_11_" overflow="visible"/></clipPath></g></g></svg>
