<svg width="45" height="39" viewBox="0 0 45 39" fill="none" xmlns="http://www.w3.org/2000/svg">
<circle cx="16.002" cy="23" r="15.1" stroke="#52586F" stroke-width="1.8"/>
<circle cx="16.0021" cy="23.0001" r="7.63333" stroke="#52586F" stroke-width="1.8"/>
<path d="M40.9611 22.9606L40.9494 23.8605L40.9611 22.9606ZM21.1 9C21.1 9.49706 21.5029 9.9 22 9.9C22.4971 9.9 22.9 9.49706 22.9 9H21.1ZM25 1.9H41V0.1H25V1.9ZM43.1 4V19.9609H44.9V4H43.1ZM40.9728 22.0607L30.3858 21.9234L30.3625 23.7233L40.9494 23.8605L40.9728 22.0607ZM22.9 9V6H21.1V9H22.9ZM22.9 6V4H21.1V6H22.9ZM43.1 19.9609C43.1 21.1313 42.1431 22.0759 40.9728 22.0607L40.9494 23.8605C43.1229 23.8887 44.9 22.1345 44.9 19.9609H43.1ZM41 1.9C42.1598 1.9 43.1 2.8402 43.1 4H44.9C44.9 1.84609 43.1539 0.1 41 0.1V1.9ZM25 0.1C22.8461 0.1 21.1 1.84609 21.1 4H22.9C22.9 2.8402 23.8402 1.9 25 1.9V0.1Z" fill="#52586F"/>
<circle cx="38" cy="7" r="2" fill="#52586F"/>
<circle cx="38" cy="16" r="2" fill="#52586F"/>
<circle cx="28" cy="7" r="2" fill="#52586F"/>
<path d="M16.002 30.1053L16.002 38M16.002 8V15.8947" stroke="#52586F" stroke-width="1.8"/>
<path d="M8.89669 23L1.00195 23M31.002 23L23.1072 23" stroke="#52586F" stroke-width="1.8"/>
<path d="M21.0951 18.1755L26.7519 12.5186M5.25586 34.0146L10.9127 28.3578" stroke="#52586F" stroke-width="1.8"/>
<path d="M10.9128 18.1755L5.25591 12.5186M26.752 34.0146L21.0951 28.3578" stroke="#52586F" stroke-width="1.8"/>
</svg>
