<?xml version="1.0" encoding="UTF-8"?>
<svg width="80px" height="80px" viewBox="0 0 80 80" version="1.1" xmlns="http://www.w3.org/2000/svg" xmlns:xlink="http://www.w3.org/1999/xlink">
    <!-- Generator: Sketch 48.2 (47327) - http://www.bohemiancoding.com/sketch -->
    <title>gameart color</title>
    <desc>Created with Sketch.</desc>
    <defs></defs>
    <g id="Page-1" stroke="none" stroke-width="1" fill="none" fill-rule="evenodd">
        <g id="gameart-color" fill="#0486D1" fill-rule="nonzero">
            <g id="gameart" transform="translate(4.000000, 24.500000)">
                <path d="M50.9447993,0.407558395 L50.6900753,0 L0,0 L0,30.0064868 L36.6632739,30.0064868 L40.0595939,24.9120069 L59.5205072,24.9120069 L62.8319192,29.6328916 L63.0866432,29.9895052 L71.3227191,29.9895052 L70.4226943,28.681922 L50.9447993,0.407558395 Z M31.9763524,13.8909486 L31.9763524,22.3817485 L31.7555916,22.5685461 C29.0385356,24.8950253 24.9629517,26.0837373 19.8684717,26.0837373 C10.7833159,26.0837373 5.34920393,21.9572085 5.34920393,15.0287158 C5.24967566,11.7100895 6.82594402,8.56393447 9.54365907,6.65678711 C12.581955,4.72670173 16.1357783,3.76716944 19.7326189,3.90576795 C24.8270989,3.90576795 28.34229,4.90768234 30.9914196,7.04736391 L31.483886,7.4549223 L31.0763276,7.9473887 L29.3781676,10.1889599 L28.9706092,10.6984079 L28.4611612,10.2738679 C26.7630012,8.79646868 24.5384117,7.8115359 19.7326189,7.8115359 C13.3135742,7.8115359 10.0700887,10.1889599 10.0700887,14.9947526 C10.0700887,19.8005453 13.2286662,22.2119325 19.7326189,22.2119325 C22.4719368,22.3976297 25.2082606,21.809173 27.6290628,20.5137725 L27.6290628,17.2872686 L17.609919,17.2872686 L17.609919,13.2456478 L31.993334,13.2456478 L31.9763524,13.8909486 Z M44.4068834,18.5099438 L49.7051425,10.6474631 L55.1052913,18.5099438 L44.4068834,18.5099438 Z" id="Shape"></path>
            </g>
        </g>
    </g>
</svg>