<svg width="14" height="15" viewBox="0 0 14 15" fill="none" xmlns="http://www.w3.org/2000/svg">
  <path fill-rule="evenodd" clip-rule="evenodd" d="M4.22173 9.81857C4.32965 9.83152 4.39968 9.83991 4.48908 9.85067C4.45119 9.91099 4.42539 9.95572 4.39628 9.99813C3.86489 10.7724 3.33064 11.5447 2.804 12.3223C2.71966 12.4469 2.67096 12.4835 2.54022 12.3662C1.16654 11.1336 0.274086 9.62534 0.0540861 7.77487C-0.185832 5.75744 0.374716 3.95777 1.69014 2.41157C2.69454 1.23096 3.96764 0.486561 5.47039 0.153301C6.68247 -0.115487 7.88238 -0.0190514 9.06404 0.350549C9.63455 0.528965 10.1801 0.75927 10.683 1.09011C10.8115 1.1746 10.8126 1.22831 10.7252 1.34613C10.0799 2.21587 9.44031 3.08995 8.80267 3.96543C8.73508 4.05827 8.67012 4.12652 8.54668 4.10245C8.3858 4.07103 8.2892 4.14586 8.1959 4.27822C7.77772 4.87179 7.34772 5.45692 6.90822 6.06407C6.48361 5.46011 6.06779 4.8774 5.66346 4.28661C5.57301 4.15443 5.48257 4.09379 5.31748 4.09976C4.9337 4.11362 4.54906 4.10418 4.16094 4.10418C4.15618 4.20622 4.23033 4.25889 4.27506 4.32336C4.87476 5.18859 5.47397 6.05427 6.08259 6.91311C6.17376 7.04169 6.16814 7.11889 6.07747 7.24309C5.46156 8.08671 4.85502 8.93725 4.22173 9.81857Z" fill="#009344"/>
  <path fill-rule="evenodd" clip-rule="evenodd" d="M7.08529 7.93114C7.51728 8.54513 7.93523 9.12963 8.34074 9.72274C8.42914 9.85205 8.52271 9.89874 8.67427 9.895C9.05755 9.88542 9.44124 9.89185 9.87209 9.89185C9.65187 9.57337 9.45301 9.28356 9.25197 8.99539C8.80577 8.35568 8.36084 7.71506 7.90947 7.07909C7.82713 6.96305 7.82197 6.88408 7.91128 6.76229C8.47989 5.98693 9.03826 5.20405 9.59958 4.42332C9.65196 4.35045 9.70125 4.27536 9.75553 4.19611C9.68573 4.12708 9.6008 4.18084 9.53838 4.14158C9.51339 4.09908 9.54857 4.07227 9.56767 4.04437C10.1116 3.25118 10.6591 2.46046 11.1981 1.66395C11.2863 1.53359 11.3456 1.53012 11.4582 1.63153C12.6423 2.69806 13.4849 3.98359 13.8275 5.5535C14.219 7.34774 13.9477 9.0559 12.9925 10.6312C11.9573 12.3384 10.4552 13.4251 8.51864 13.8366C6.74447 14.2135 5.04531 13.9469 3.46819 13.0068C3.30685 12.9106 3.28997 12.8393 3.40069 12.6792C4.00379 11.8074 4.59557 10.9276 5.18668 10.0473C5.25616 9.94388 5.32583 9.86846 5.45769 9.89395C5.62464 9.92614 5.71563 9.83458 5.80548 9.70806C6.22158 9.12165 6.64515 8.54067 7.08529 7.93114Z" fill="#929497"/>
  <path fill-rule="evenodd" clip-rule="evenodd" d="M3.72874 7.16695C3.72874 7.8652 3.72444 8.5635 3.73232 9.26166C3.73391 9.40484 3.68981 9.44528 3.55446 9.44295C3.19287 9.43666 2.83077 9.43247 2.46958 9.44592C2.29883 9.4523 2.25289 9.39941 2.25379 9.22934C2.26036 7.94668 2.25737 6.66393 2.25737 5.38118C2.25732 4.82122 2.15801 4.71339 1.60846 4.70422C1.48669 4.70222 1.43395 4.67718 1.43649 4.54199C1.44568 4.05453 1.39575 4.14836 1.80795 4.1485C2.17634 4.14859 2.54586 4.1175 2.91334 4.18019C3.40056 4.26327 3.70118 4.57829 3.71059 5.07241C3.7239 5.77039 3.71399 6.46874 3.71399 7.16695H3.72874Z" fill="#FEFEFE"/>
  <path fill-rule="evenodd" clip-rule="evenodd" d="M10.0452 6.40052C10.0452 5.99577 10.0367 5.64641 10.0473 5.29769C10.0616 4.83266 10.3283 4.47373 10.7642 4.32272C11.3467 4.121 11.9353 4.14394 12.5142 4.32513C12.9728 4.46867 13.1397 4.7205 13.1593 5.22378C13.1673 5.42851 13.165 5.63387 13.1598 5.83878C13.1491 6.26793 12.8852 6.54351 12.5805 6.79374C12.2367 7.07607 11.8556 7.31111 11.5402 7.62969C11.2806 7.89187 11.1683 8.20539 11.1778 8.57458C11.1813 8.71465 11.224 8.75582 11.3608 8.75418C11.8809 8.74779 12.4012 8.76083 12.9211 8.74852C13.1148 8.74392 13.1633 8.81199 13.1614 8.99584C13.1569 9.43337 13.165 9.43347 12.7419 9.43347C11.9126 9.43347 11.0833 9.42863 10.2541 9.43743C10.0842 9.43926 10.0315 9.39247 10.0404 9.22126C10.0544 8.9486 10.0689 8.67192 10.0391 8.4019C9.97283 7.80259 10.2787 7.40965 10.7092 7.0721C11.0121 6.83468 11.3068 6.58619 11.6166 6.35839C12.079 6.01838 12.0878 5.54063 12.0145 5.04751C11.9784 4.80467 11.768 4.77393 11.5581 4.77402C11.3538 4.77407 11.2323 4.86763 11.1931 5.0693C11.1874 5.09899 11.1753 5.13127 11.1815 5.1589C11.2625 5.52221 11.0409 5.70427 10.7778 5.87521C10.5398 6.02978 10.3154 6.20542 10.0452 6.40052Z" fill="#FEFEFE"/>
</svg>
