<svg width="18" height="12" viewBox="0 0 18 12" fill="none" xmlns="http://www.w3.org/2000/svg">
<path d="M10.0771 1.08362C10.0008 1.00146 9.93512 1.00665 9.87134 1.00665C8.50738 1.00665 7.14342 1.0072 5.77947 1.00681C5.30286 1.00665 4.87204 1.16484 4.47126 1.41157C3.67071 1.90462 3.13055 2.5879 2.86267 3.5238C2.45448 4.94976 2.00142 6.36298 1.54358 7.77345C1.10728 9.11749 1.92258 10.1922 3.2097 10.0994C3.90106 10.0495 4.59883 10.0945 5.29359 10.0883C5.50989 10.0863 5.72425 10.0835 5.94055 10.0184C7.05601 9.68247 7.74691 8.90799 8.11826 7.8213C8.39147 7.02147 8.62908 6.20865 8.86847 5.39733C8.95951 5.08891 9.08878 4.78945 9.13256 4.46961C9.00044 4.38281 8.86878 4.42224 8.7446 4.42145C8.06266 4.41704 7.38065 4.41421 6.69871 4.42216C6.45708 4.42499 6.17291 4.3252 5.98433 4.47143C5.79908 4.61505 5.80294 4.916 5.72889 5.14943C5.57259 5.64233 5.42185 6.13711 5.26432 6.64544C5.64263 6.72563 6.00233 6.62253 6.35924 6.71863C6.25322 7.05838 6.15121 7.36657 6.06287 7.67885C6.03097 7.79139 5.99777 7.86789 5.86456 7.86718C5.18509 7.86395 4.50555 7.86576 3.78106 7.86576C3.92724 7.38719 4.05844 6.9537 4.19211 6.52109C4.49945 5.52648 4.80725 4.5321 5.11629 3.53804C5.21143 3.23198 5.21359 3.2319 5.54008 3.23072C5.83607 3.22962 6.13198 3.23048 6.42797 3.2304C7.3415 3.2304 8.2551 3.23245 9.1687 3.22757C9.26986 3.22702 9.39728 3.284 9.44994 3.10834C9.65466 2.42491 9.87111 1.74525 10.0771 1.08362ZM11.3423 10.0796C11.8436 10.086 12.3605 10.1684 12.8427 10.0472C14.0953 9.73245 14.9915 8.96693 15.3989 7.68821C15.8332 6.32513 16.25 4.95614 16.6695 3.58817C16.7761 3.24079 16.8664 2.89372 16.8832 2.52037C16.9297 1.48381 16.0744 0.836661 15.2719 0.85791C14.5265 0.877585 13.7802 0.8609 13.0343 0.863183C12.8938 0.863576 12.7542 0.863655 12.6139 0.901588C11.3409 1.24598 10.469 2.02944 10.0584 3.318C9.8847 3.86292 9.71805 4.41028 9.55156 4.95756C9.25249 5.9406 8.93426 6.91837 8.6636 7.90952C8.30962 9.2061 9.18299 10.1126 10.1855 10.0816C10.5708 10.0697 10.9567 10.0796 11.3423 10.0796ZM2.16675 2.50786C2.7561 1.33405 3.65364 0.531462 4.89366 0.127337C5.02023 0.0860979 5.18247 0.141739 5.27622 0H15.7011C15.7241 0.0580807 15.7763 0.0573724 15.8257 0.0688626C16.8287 0.300792 17.4673 0.922444 17.7497 1.93036C17.8026 2.11916 17.7683 2.32401 17.8623 2.50321C17.8153 3.00823 17.7362 3.50349 17.5713 3.98805C17.3629 4.60104 17.2061 5.23206 17.0061 5.84828C16.7024 6.78403 16.474 7.74511 16.1005 8.6574C15.5189 9.71002 14.6967 10.4781 13.5682 10.8855C13.1782 11.0263 12.7798 11.0996 12.3633 11.0991C9.23913 11.0947 6.11491 11.0843 2.99086 11.1034C1.89462 11.1102 0.647039 10.332 0.473909 8.92845C0.462789 8.83818 0.434372 8.75019 0.414062 8.6611C0.428271 8.04268 0.602173 7.46132 0.788894 6.8787C1.255 5.42401 1.66311 3.95027 2.16675 2.50786Z" fill="black"/>
<path d="M14.475 3.24804C13.8695 3.24804 13.3186 3.24678 12.7679 3.24851C12.413 3.24961 12.4145 3.25197 12.313 3.58369C12.085 4.32914 11.8538 5.07357 11.6266 5.81933C11.4226 6.48954 11.2221 7.16085 11.0083 7.87072C11.4646 7.87072 11.8867 7.876 12.3087 7.86868C12.5509 7.86451 12.8352 7.96099 13.0243 7.82531C13.2138 7.68924 13.2057 7.3816 13.2783 7.14818C13.6751 5.87166 14.0634 4.59255 14.475 3.24804ZM11.3429 10.084C10.9573 10.084 10.5713 10.074 10.1861 10.0859C9.1836 10.1169 8.31023 9.21052 8.66421 7.91393C8.93487 6.9227 9.25303 5.94501 9.55218 4.96189C9.71867 4.41461 9.88523 3.86733 10.0589 3.32241C10.4696 2.03385 11.3415 1.25039 12.6145 0.906003C12.7548 0.867991 12.8944 0.867991 13.0349 0.867518C13.7808 0.865315 14.5271 0.881999 15.2725 0.862324C16.075 0.841075 16.9303 1.48823 16.8838 2.52478C16.867 2.89814 16.7766 3.24521 16.67 3.59251C16.2506 4.96055 15.8338 6.32946 15.3994 7.69263C14.992 8.97134 14.0959 9.73686 12.8433 10.0517C12.3611 10.1729 11.8442 10.0904 11.3429 10.084Z" fill="#E62727"/>
<path d="M10.0779 1.08387C9.87189 1.7455 9.65543 2.42516 9.45072 3.10859C9.39806 3.28425 9.27064 3.22727 9.16948 3.22782C8.25588 3.2327 7.34228 3.23065 6.42875 3.23065C6.13276 3.23073 5.83685 3.22986 5.54086 3.23097C5.21437 3.23215 5.21221 3.23223 5.11707 3.53829C4.80803 4.53235 4.50023 5.52673 4.19289 6.52134C4.05922 6.95395 3.92802 7.38743 3.78184 7.86601C4.50633 7.86601 5.18587 7.8642 5.86534 7.86743C5.99855 7.86813 6.03176 7.79164 6.06365 7.6791C6.15199 7.36681 6.254 7.05862 6.36002 6.71888C6.00311 6.62278 5.64341 6.72588 5.2651 6.64569C5.42263 6.13736 5.57337 5.64257 5.72967 5.14967C5.80372 4.91625 5.79986 4.6153 5.98511 4.47167C6.17369 4.32545 6.45786 4.42524 6.69949 4.42241C7.38143 4.41446 8.06344 4.41729 8.74538 4.4217C8.86956 4.42249 9.00122 4.38306 9.13334 4.46986C9.08956 4.7897 8.96029 5.08915 8.86925 5.39758C8.62986 6.2089 8.39225 7.02171 8.11904 7.82154C7.74769 8.90823 7.05679 9.68272 5.94133 10.0186C5.72503 10.0838 5.51067 10.0865 5.29437 10.0885C4.59961 10.0947 3.90184 10.0498 3.21048 10.0997C1.92336 10.1925 1.10806 9.11773 1.54436 7.77369C2.0022 6.36323 2.45526 4.95001 2.86345 3.52405C3.13133 2.58814 3.67149 1.90487 4.47204 1.41181C4.87282 1.16509 5.30364 1.0069 5.78025 1.00706C7.1442 1.00745 8.50816 1.0069 9.87212 1.0069C9.9359 1.0069 10.0016 1.00171 10.0779 1.08387Z" fill="#E62727"/>
<path d="M14.4746 3.24409C14.063 4.58861 13.6746 5.86772 13.2779 7.14424C13.2053 7.37766 13.2133 7.6853 13.0238 7.82137C12.8348 7.95705 12.5505 7.86057 12.3082 7.86474C11.8863 7.87206 11.4642 7.86678 11.0078 7.86678C11.2216 7.15691 11.4221 6.4856 11.6262 5.81539C11.8534 5.06962 12.0845 4.3252 12.3125 3.57975C12.414 3.24803 12.4125 3.24567 12.7675 3.24457C13.3182 3.24284 13.869 3.24409 14.4746 3.24409Z" fill="black"/>
</svg>
