<svg width="113" height="38" viewBox="0 0 113 38" fill="none" xmlns="http://www.w3.org/2000/svg">
<path d="M53.361 6.15118L54.6138 5.23141C54.6396 5.21249 54.6595 5.18579 54.6692 5.15513C54.6794 5.12452 54.6794 5.09145 54.6697 5.06073C54.6595 5.03002 54.6402 5.00321 54.6144 4.98413C54.588 4.96505 54.5569 4.95465 54.5246 4.95443L52.9735 4.94398C52.9412 4.94435 52.9095 4.93444 52.8832 4.91562C52.8568 4.89686 52.8369 4.87016 52.8267 4.83945L52.3398 3.37066C52.3296 3.33989 52.3097 3.31308 52.2833 3.29411C52.257 3.27508 52.2253 3.26489 52.1925 3.26489C52.1602 3.26489 52.1285 3.27508 52.1022 3.29411C52.0759 3.31308 52.056 3.33989 52.0463 3.37066L51.5588 4.83945C51.5486 4.87016 51.5287 4.89686 51.5024 4.91562C51.476 4.93444 51.4443 4.94435 51.4121 4.94398L49.8609 4.95443C49.8286 4.95465 49.7975 4.96505 49.7711 4.98413C49.7453 5.00321 49.726 5.03002 49.7158 5.06073C49.7061 5.09145 49.7061 5.12452 49.7163 5.15513C49.726 5.18579 49.7459 5.21249 49.7722 5.23141L51.0245 6.15118C51.0493 6.17139 51.0681 6.1984 51.0783 6.22896C51.0885 6.25957 51.0901 6.29237 51.0821 6.32363L50.6101 7.79735C50.5999 7.82812 50.5994 7.86141 50.6096 7.89234C50.6193 7.92332 50.6386 7.95034 50.665 7.96959C50.6913 7.98878 50.723 7.99912 50.7553 7.99918C50.7881 7.99923 50.8198 7.98899 50.8461 7.96985L52.1092 7.06574C52.1355 7.04784 52.1667 7.0383 52.1984 7.0383C52.2301 7.0383 52.2613 7.04784 52.2876 7.06574L53.5507 7.96985C53.5765 7.98899 53.6088 7.99923 53.641 7.99918C53.6738 7.99912 53.7055 7.98878 53.7313 7.96959C53.7576 7.95034 53.777 7.92332 53.7872 7.89234C53.7969 7.86141 53.7969 7.82812 53.7861 7.79735L53.3148 6.32363C53.3024 6.29377 53.3002 6.26069 53.3083 6.2295C53.3169 6.1983 53.3357 6.1708 53.361 6.15118Z" fill="white"/>
<path d="M58.3973 5.92645L59.1068 5.40567C59.1213 5.39495 59.1326 5.37983 59.1379 5.36246C59.1439 5.34515 59.1439 5.32644 59.1379 5.30907C59.1326 5.2917 59.1218 5.27653 59.1068 5.26571C59.0923 5.25488 59.0745 5.24903 59.0562 5.24887L58.178 5.24298C58.1597 5.24319 58.1415 5.23762 58.1269 5.227C58.1119 5.21644 58.1006 5.20138 58.0947 5.18401L57.819 4.35253C57.8131 4.33511 57.8018 4.31989 57.7873 4.30917C57.7722 4.29839 57.7545 4.2926 57.7357 4.2926C57.7174 4.2926 57.6996 4.29839 57.6846 4.30917C57.6695 4.31989 57.6588 4.33511 57.6529 4.35253L57.3772 5.18401C57.3712 5.20138 57.36 5.21644 57.3449 5.227C57.3299 5.23762 57.3121 5.24319 57.2939 5.24298L56.4156 5.24887C56.3973 5.24898 56.3796 5.25488 56.3645 5.26565C56.35 5.27648 56.3393 5.29165 56.3334 5.30907C56.328 5.32644 56.328 5.34515 56.3339 5.36252C56.3393 5.37983 56.3506 5.39495 56.3651 5.40567L57.0746 5.92645C57.0885 5.93792 57.0993 5.9532 57.1052 5.97051C57.1106 5.98783 57.1116 6.00643 57.1068 6.02412L56.8397 6.85849C56.8338 6.87591 56.8338 6.89478 56.8391 6.91231C56.8451 6.92984 56.8558 6.94517 56.8709 6.95605C56.8859 6.96693 56.9036 6.97283 56.9219 6.97283C56.9407 6.97283 56.9585 6.96699 56.9735 6.95616L57.6884 6.44428C57.7029 6.43415 57.7206 6.42873 57.7389 6.42873C57.7566 6.42873 57.7744 6.43415 57.7889 6.44428L58.5037 6.95616C58.5188 6.96699 58.537 6.97278 58.5553 6.97272C58.5736 6.97272 58.5913 6.96683 58.6064 6.95595C58.6214 6.94506 58.6322 6.92979 58.6381 6.91226C58.6435 6.89473 58.6435 6.87591 58.6375 6.85849L58.3704 6.02412C58.3634 6.00713 58.3624 5.98836 58.3672 5.97067C58.372 5.95304 58.3828 5.93749 58.3973 5.92645Z" fill="white"/>
<path d="M47.3149 5.92645L48.0238 5.40567C48.0383 5.39495 48.0496 5.37983 48.055 5.36252C48.0609 5.34515 48.0609 5.32644 48.0555 5.30907C48.0496 5.29165 48.0389 5.27648 48.0244 5.26565C48.0093 5.25488 47.9916 5.24898 47.9733 5.24887L47.095 5.24298C47.0768 5.24319 47.059 5.23762 47.044 5.227C47.0289 5.21644 47.0177 5.20138 47.0123 5.18401L46.736 4.35253C46.7301 4.33511 46.7193 4.31989 46.7043 4.30917C46.6892 4.29839 46.6715 4.2926 46.6532 4.2926C46.6344 4.2926 46.6167 4.29839 46.6016 4.30917C46.5871 4.31989 46.5758 4.33511 46.5699 4.35253L46.2942 5.18401C46.2883 5.20138 46.277 5.21644 46.2619 5.227C46.2474 5.23762 46.2292 5.24319 46.2109 5.24298L45.3326 5.24887C45.3143 5.24903 45.2966 5.25488 45.2821 5.26571C45.267 5.27653 45.2563 5.2917 45.2509 5.30907C45.245 5.32644 45.245 5.34515 45.2509 5.36246C45.2563 5.37983 45.2676 5.39495 45.2826 5.40567L45.9916 5.92645C46.0056 5.93792 46.0163 5.9532 46.0222 5.97051C46.0281 5.98783 46.0287 6.00643 46.0244 6.02412L45.7572 6.85849C45.7513 6.87591 45.7508 6.89478 45.7567 6.91231C45.7621 6.92984 45.7734 6.94517 45.7879 6.95605C45.8029 6.96693 45.8207 6.97283 45.8395 6.97283C45.8577 6.97283 45.8755 6.96699 45.8905 6.95616L46.6054 6.44428C46.6204 6.43415 46.6376 6.42873 46.6559 6.42873C46.6737 6.42873 46.6914 6.43415 46.7064 6.44428L47.4213 6.95616C47.4364 6.96699 47.4541 6.97283 47.4724 6.97283C47.4912 6.97283 47.5089 6.96693 47.524 6.95605C47.5385 6.94517 47.5498 6.92984 47.5551 6.91231C47.5611 6.89478 47.5605 6.87591 47.5546 6.85849L47.288 6.02412C47.281 6.00718 47.2794 5.98842 47.2842 5.97073C47.2896 5.95304 47.2998 5.93749 47.3149 5.92645Z" fill="white"/>
<path d="M27.1986 14.6577C26.9376 14.7073 26.6953 14.7381 26.1671 14.7381C25.4028 14.7381 24.5267 14.329 24.5267 12.8231V12.6166C24.5267 11.0983 25.4028 10.7017 26.1671 10.7017C26.5171 10.7074 26.8662 10.7406 27.211 10.8008C27.2669 10.8069 27.3105 10.8256 27.3105 10.8812V11.1975C27.3105 11.2347 27.298 11.2656 27.2359 11.2656H27.2173C26.9935 11.247 26.5337 11.2098 26.1733 11.2098C25.5644 11.2098 25.0921 11.5631 25.0921 12.6167V12.8232C25.0921 13.8643 25.5644 14.2299 26.1733 14.2299C26.5275 14.2299 26.9749 14.1989 27.1986 14.1804H27.2235C27.237 14.1781 27.2509 14.1791 27.264 14.1833C27.2771 14.1875 27.2891 14.1947 27.2988 14.2044C27.3085 14.2141 27.3158 14.226 27.3199 14.2391C27.3241 14.2522 27.3251 14.2661 27.3228 14.2796V14.5336C27.3228 14.6082 27.2669 14.6453 27.1986 14.6577Z" fill="white"/>
<path d="M31.8263 14.6951H31.4598C31.4357 14.6953 31.4122 14.6875 31.3931 14.673C31.374 14.6584 31.3603 14.6379 31.3541 14.6147L30.9502 13.3843H29.3408L28.9431 14.6147C28.9347 14.6378 28.9195 14.6578 28.8996 14.6721C28.8796 14.6865 28.8558 14.6945 28.8312 14.6951H28.4646C28.452 14.6967 28.4392 14.6957 28.4269 14.6922C28.4147 14.6886 28.4033 14.6827 28.3934 14.6747C28.3836 14.6667 28.3754 14.6568 28.3695 14.6455C28.3636 14.6343 28.36 14.622 28.359 14.6093C28.358 14.5965 28.3601 14.5837 28.3652 14.5718L29.5147 11.0897C29.6204 10.7634 29.9125 10.6831 30.1486 10.6831C30.3785 10.6831 30.6705 10.7582 30.7762 11.0843L31.9257 14.5721C31.9308 14.5839 31.933 14.5968 31.9319 14.6096C31.932 14.6576 31.8947 14.6951 31.8263 14.6951ZM30.2667 11.202C30.2614 11.1747 30.2466 11.1501 30.225 11.1325C30.2034 11.1148 30.1763 11.1053 30.1484 11.1055C30.1196 11.1043 30.0913 11.1133 30.0685 11.131C30.0457 11.1487 30.03 11.1738 30.0242 11.202L29.4679 12.9335H30.824L30.2667 11.202Z" fill="white"/>
<path d="M36.7313 14.6955H36.3895C36.3582 14.6938 36.3289 14.6798 36.3079 14.6566C36.2869 14.6334 36.2761 14.6027 36.2777 14.5715V10.8635C36.277 10.8484 36.2793 10.8333 36.2846 10.819C36.2899 10.8048 36.298 10.7919 36.3085 10.7808C36.3189 10.7698 36.3315 10.761 36.3454 10.755C36.3593 10.7489 36.3743 10.7457 36.3895 10.7456H36.7313C36.7465 10.7457 36.7615 10.7489 36.7755 10.7549C36.7894 10.761 36.802 10.7698 36.8124 10.7808C36.8228 10.7918 36.8309 10.8048 36.8362 10.819C36.8415 10.8333 36.8439 10.8484 36.8431 10.8635V14.5715C36.8448 14.6028 36.8339 14.6334 36.8129 14.6566C36.792 14.6798 36.7626 14.6938 36.7313 14.6955Z" fill="white"/>
<path d="M41.1161 14.6955H40.7307C40.6313 14.6955 40.563 14.6583 40.5319 14.5963L38.612 11.6134C38.6058 11.601 38.5996 11.5948 38.5934 11.5948C38.5872 11.5948 38.5872 11.601 38.5872 11.6134V14.5778C38.5876 14.6082 38.5761 14.6374 38.5552 14.6594C38.5343 14.6814 38.5057 14.6945 38.4753 14.6958H38.1522C38.0901 14.6958 38.0404 14.6834 38.0404 14.6214V10.9193C38.0405 10.8961 38.0453 10.873 38.0545 10.8516C38.0637 10.8302 38.0771 10.8109 38.0939 10.7947C38.1106 10.7786 38.1305 10.7659 38.1523 10.7575C38.174 10.7491 38.1973 10.7451 38.2206 10.7458H38.5623C38.7363 10.7458 38.7673 10.7768 38.8173 10.8698L40.7248 13.8341L40.7372 13.8528C40.7431 13.8528 40.7436 13.8404 40.7436 13.8341V10.8635C40.7431 10.8333 40.7544 10.804 40.7754 10.782C40.7963 10.7599 40.8248 10.7469 40.8554 10.7456H41.1844C41.2 10.7457 41.215 10.7489 41.2284 10.7549C41.2424 10.761 41.2553 10.7698 41.2655 10.7808C41.2763 10.7918 41.2843 10.8048 41.2897 10.819C41.2946 10.8333 41.2972 10.8484 41.2962 10.8635V14.5157C41.2962 14.5634 41.2774 14.6091 41.2435 14.6428C41.2096 14.6765 41.1639 14.6954 41.1161 14.6955Z" fill="white"/>
<path d="M44.09 14.7387C43.1144 14.7387 42.406 14.1684 42.406 12.7928V12.648C42.406 11.2722 43.1144 10.7021 44.09 10.7021C45.0655 10.7021 45.768 11.2722 45.768 12.648V12.7928C45.768 14.1682 45.0655 14.7387 44.09 14.7387ZM45.1961 12.648C45.1961 11.6069 44.7737 11.2102 44.09 11.2102C43.4127 11.2102 42.9779 11.6069 42.9779 12.648V12.7928C42.9779 13.8339 43.4068 14.2305 44.09 14.2305C44.7672 14.2305 45.1961 13.8338 45.1961 12.7928V12.648Z" fill="white"/>
<path d="M34.3235 12.5728L33.757 12.2844C33.3457 12.048 33.1622 11.9021 33.1622 11.6626C33.1622 11.319 33.4101 11.1789 34.0179 11.1789C34.2594 11.1789 34.5787 11.1917 34.968 11.2169H34.9791C34.9929 11.2183 35.0068 11.2168 35.02 11.2124C35.0331 11.2081 35.0452 11.2011 35.0555 11.1918C35.0657 11.1825 35.0739 11.1711 35.0795 11.1584C35.085 11.1457 35.0878 11.1321 35.0877 11.1182V10.8927C35.0877 10.8546 35.0693 10.8057 34.9812 10.789C34.6619 10.7457 34.3402 10.7225 34.0179 10.7194C33.1194 10.7194 32.6246 11.0543 32.6246 11.6624C32.6246 12.1181 32.9323 12.3891 33.3948 12.6563L33.9884 12.9655C34.4721 13.2482 34.6441 13.395 34.6441 13.6557C34.6441 14.0623 34.3552 14.26 33.7609 14.26C33.5119 14.26 33.112 14.243 32.8493 14.2214H32.8328C32.819 14.2198 32.805 14.2212 32.7917 14.2255C32.7785 14.2297 32.7663 14.2367 32.756 14.2461C32.7457 14.2555 32.7376 14.2669 32.7321 14.2796C32.7266 14.2923 32.7239 14.3061 32.7242 14.32V14.5299C32.7242 14.5957 32.7419 14.6221 32.8416 14.6387L32.8459 14.6394C33.1482 14.6909 33.4542 14.7176 33.7609 14.7194C35.0946 14.7194 35.1983 13.9052 35.1983 13.6557C35.1979 13.2264 34.9611 12.933 34.3235 12.5728Z" fill="white"/>
<path d="M30.9202 15.3329H29.005C28.953 15.3331 28.9031 15.3537 28.8663 15.3904C28.8295 15.4271 28.8088 15.4769 28.8086 15.5288V19.8092C28.8086 20.583 28.3371 20.7495 27.8265 20.7495C27.3158 20.7495 26.8443 20.583 26.8443 19.8092V15.5288C26.8442 15.4769 26.8235 15.4271 26.7867 15.3904C26.7498 15.3537 26.7 15.3331 26.6479 15.3329H24.7329C24.6799 15.3327 24.6288 15.3529 24.5903 15.3894C24.5519 15.4259 24.5291 15.4759 24.5267 15.5288V19.8092C24.5267 22.3265 26.3043 22.7085 27.8269 22.7085C29.3494 22.7085 31.127 22.3265 31.127 19.8092V15.5288C31.1246 15.4758 31.1017 15.4258 31.0631 15.3892C31.0246 15.3527 30.9733 15.3325 30.9202 15.3329Z" fill="white"/>
<path d="M45.4769 15.3329H43.5619C43.5097 15.3331 43.4603 15.3537 43.4232 15.3904C43.3867 15.4271 43.3657 15.4769 43.3657 15.5288V19.8092C43.3657 20.583 42.8943 20.7495 42.3832 20.7495C41.8726 20.7495 41.4012 20.583 41.4012 19.8092V15.5288C41.4012 15.4769 41.3802 15.4271 41.3437 15.3904C41.3066 15.3537 41.2572 15.3331 41.205 15.3329H39.29C39.2368 15.3327 39.1857 15.3529 39.147 15.3894C39.1089 15.4259 39.0857 15.4759 39.0836 15.5288V19.8092C39.0836 22.3265 40.861 22.7085 42.3837 22.7085C43.9059 22.7085 45.6838 22.3265 45.6838 19.8092V15.5288C45.6812 15.4758 45.6586 15.4258 45.6199 15.3893C45.5817 15.3528 45.5301 15.3326 45.4769 15.3329Z" fill="white"/>
<path d="M37.1051 19.7698C37.6354 19.5347 38.2345 18.9175 38.2345 17.8695V17.6738C38.2345 15.8226 37.0069 15.2347 35.0328 15.2347C34.3552 15.2347 32.8886 15.3033 32.5546 15.3523C32.0243 15.4404 31.8671 15.5774 31.8671 16.1849V22.4146C31.8695 22.4676 31.8923 22.5175 31.9308 22.554C31.9692 22.5905 32.0204 22.6108 32.0735 22.6106H33.9885C34.0405 22.6104 34.0904 22.5897 34.1272 22.553C34.164 22.5163 34.1848 22.4665 34.1849 22.4146V20.1129H34.8266L35.9953 22.4147C36.0444 22.5126 36.0837 22.6106 36.2605 22.6106H38.3131C38.3363 22.6107 38.3593 22.6063 38.3808 22.5974C38.4023 22.5887 38.4219 22.5756 38.4383 22.5593C38.4548 22.5429 38.4678 22.5234 38.4766 22.5019C38.4855 22.4805 38.4899 22.4575 38.4898 22.4343C38.4881 22.3967 38.4781 22.3599 38.4604 22.3266L37.1051 19.7698ZM35.9266 17.8793C35.9266 18.1438 35.7399 18.3984 35.2489 18.3984H34.1847V17.1646H35.2489C35.7498 17.1646 35.9266 17.3506 35.9266 17.6837V17.8793Z" fill="white"/>
<path d="M21.3447 16.1657C22.0796 16.1828 23.0877 16.2367 23.4434 16.284C23.6094 16.3076 23.645 16.2485 23.645 16.0711V14.3327C23.645 14.179 23.6332 14.1435 23.396 14.0725C23.011 13.9591 22.1275 13.8135 21.1762 13.745C21.008 13.7347 20.8353 13.7289 20.6652 13.7289C20.2636 13.7289 19.9012 13.7582 19.6958 13.8072H19.6952C19.7014 13.8569 19.6978 13.9074 19.6845 13.9557C19.6337 14.1375 19.4636 14.2351 19.3667 14.2774C19.0625 14.4066 18.7501 14.5156 18.4315 14.6036C18.1408 14.7131 17.9167 14.7663 17.7466 14.7663C17.6729 14.7677 17.5995 14.7549 17.5306 14.7288C17.0568 15.1404 16.6203 15.7507 16.3477 16.6714C16.2923 17.0165 16.2653 17.3655 16.2671 17.7151V18.7203C16.2671 22.1261 18.5318 22.7292 20.0377 22.7292C21.1523 22.7292 22.6721 22.5518 23.3954 22.3981C23.6088 22.3508 23.6444 22.3391 23.6444 22.1379V17.9942C23.6442 17.9278 23.6177 17.8642 23.5706 17.8173C23.5236 17.7704 23.4599 17.744 23.3933 17.7438H20.4317C20.3709 17.742 20.3118 17.7643 20.2674 17.8058C20.223 17.8472 20.1968 17.9045 20.1945 17.9652V19.0003C20.1968 19.0609 20.223 19.1182 20.2673 19.1597C20.3118 19.2012 20.3708 19.2235 20.4317 19.2217H21.1403C21.1602 19.2217 21.1793 19.2296 21.1935 19.2437C21.2076 19.2578 21.2155 19.2769 21.2155 19.2967V20.2143C21.2156 20.2398 21.2059 20.2644 21.1885 20.2831C21.1711 20.3018 21.1471 20.3131 21.1216 20.3148C20.8497 20.3321 20.1299 20.3408 20.0385 20.3408C19.6828 20.3408 19.1018 20.2935 19.1018 18.7443V17.7149C19.1016 16.4143 19.827 16.1302 21.3447 16.1657Z" fill="white"/>
<path d="M17.278 14.2192C17.2792 14.1983 17.2803 14.1745 17.2796 14.1635C17.2759 14.1021 17.2762 14.008 17.2766 13.8658C17.2766 13.8365 17.2766 13.8046 17.2766 13.7715C15.79 15.0357 15.7221 16.0841 15.8102 16.5893C15.8226 16.6601 15.927 16.7038 16.0179 16.7038C16.0814 16.7038 16.1382 16.6823 16.1523 16.6341C16.4303 15.6833 16.8798 15.0453 17.3692 14.6104C17.266 14.4819 17.2729 14.3191 17.278 14.2192Z" fill="white"/>
<path d="M14.6776 10.2091C14.689 10.2091 14.7001 10.206 14.7099 10.2003C15.027 10.018 15.4901 9.78839 15.8182 9.63894C15.8744 9.45497 15.9341 9.27008 15.9974 9.08777C15.504 9.28756 14.9203 9.68606 14.6254 10.1098C14.6189 10.1194 14.6152 10.1305 14.6145 10.1419C14.6138 10.1534 14.6163 10.1649 14.6217 10.1751C14.627 10.1853 14.635 10.1938 14.6449 10.1998C14.6548 10.2058 14.6661 10.209 14.6776 10.2091Z" fill="white"/>
<path d="M17.6089 8.99313C17.828 8.96895 18.0482 8.95603 18.2687 8.95448C18.749 8.95368 19.2257 9.03784 19.6766 9.20316C19.6878 9.20707 19.6999 9.20777 19.7115 9.20514C19.8922 9.16172 20.0772 9.13894 20.2631 9.13722C20.4237 9.1391 20.5838 9.15545 20.7414 9.18606C20.7455 9.18681 20.7496 9.18713 20.7537 9.18713C20.7673 9.18681 20.7805 9.18214 20.7913 9.17383C20.8021 9.16553 20.8099 9.15395 20.8137 9.14087C20.8174 9.12779 20.8168 9.11385 20.812 9.10109C20.8072 9.08833 20.7985 9.07745 20.787 9.07005C20.183 8.6797 19.2629 8.56616 18.4468 8.56616C18.017 8.56616 17.5878 8.59618 17.1622 8.65611C17.3007 8.75737 17.4518 8.87182 17.6089 8.99313Z" fill="white"/>
<path d="M19.3176 9.26974C19.0418 9.14645 18.6686 9.11536 18.3286 9.11536C18.1291 9.11536 17.9421 9.12608 17.7923 9.13524C18.0156 9.31059 18.2459 9.49585 18.4673 9.67666C18.7389 9.55819 19.0191 9.46036 19.3054 9.38392C19.3719 9.36682 19.3801 9.29767 19.3176 9.26974Z" fill="white"/>
<path d="M18.7804 9.93331C19.2197 10.2976 19.5825 10.6093 19.7182 10.7336C20.5017 10.7386 21.4582 10.8198 22.2557 11.2921C22.2657 11.2981 22.2772 11.3013 22.2889 11.3013C22.3054 11.3014 22.3213 11.295 22.3332 11.2836C22.3451 11.2722 22.3521 11.2567 22.3527 11.2402C22.3785 10.6537 22.1948 10.0631 21.8109 9.81372C21.4217 9.54564 20.96 9.40186 20.4869 9.40149C20.0248 9.40133 19.4541 9.53325 18.7804 9.93331Z" fill="white"/>
<path d="M15.5539 13.1406C15.5491 13.1349 15.544 13.1294 15.5392 13.1236C15.404 12.9633 15.307 12.7744 15.2557 12.5713C15.2044 12.368 15.2001 12.1559 15.2432 11.9508L15.2596 11.8728C15.2631 11.8562 15.2668 11.8384 15.2708 11.8198L15.2521 11.835C15.2506 11.8363 15.2491 11.8377 15.2476 11.8391C13.0568 13.9613 13.6294 15.6046 14.3165 16.3508C14.3222 16.3572 14.3291 16.3624 14.337 16.3659C14.3448 16.3694 14.3533 16.3713 14.3619 16.3713C14.3713 16.3713 14.3807 16.3693 14.3893 16.3653C14.3979 16.3612 14.4055 16.3553 14.4115 16.348C14.4175 16.3408 14.4219 16.3322 14.4242 16.3231C14.4265 16.3139 14.4267 16.3043 14.4248 16.295C14.3264 15.799 14.3185 15.1064 14.6333 14.4538C14.8433 14.0185 15.1824 13.588 15.5539 13.1406Z" fill="white"/>
<path d="M22.2869 11.6735C21.5771 11.2299 20.7595 10.9876 19.922 10.9728C20.0292 11.1383 20.094 11.3277 20.1104 11.5241C20.1269 11.7205 20.0946 11.918 20.0163 12.099C19.9573 12.2415 19.8747 12.3731 19.772 12.4884C21.2393 12.6098 22.0279 13.4629 22.1358 13.6195C22.1391 13.6262 22.144 13.6322 22.1499 13.6369C22.1558 13.6416 22.1627 13.6449 22.1701 13.6466C22.3499 13.6703 22.4212 13.6801 22.6243 13.7123C22.6273 13.7128 22.6303 13.7131 22.6333 13.7131C22.6763 13.7131 22.7017 13.6617 22.6951 13.6166C22.6201 13.1091 22.0999 12.8652 21.804 12.6128C21.7942 12.6044 21.7872 12.5932 21.784 12.5808C21.7806 12.5684 21.7812 12.5552 21.7855 12.543C21.7898 12.5309 21.7977 12.5204 21.8081 12.5128C21.8185 12.5052 21.831 12.5009 21.8439 12.5005C21.8517 12.5005 21.8595 12.5019 21.8668 12.5047C22.3492 12.6822 22.5281 13.2091 22.7474 13.2644C22.7518 13.2655 22.7564 13.2661 22.7609 13.2661C22.7769 13.2654 22.7921 13.2587 22.8034 13.2474C22.8148 13.2361 22.8214 13.221 22.8221 13.205C22.8661 12.3468 22.6504 11.9056 22.2869 11.6735Z" fill="white"/>
<path d="M19.4934 12.8491C19.4299 12.8491 19.3684 12.8504 19.3094 12.8527H19.3066C19.2932 12.8528 19.2802 12.8486 19.2696 12.8406C19.197 12.869 19.122 12.8909 19.0455 12.9058C19.3264 13.2413 19.5421 13.5028 19.6054 13.5916C19.6126 13.6017 19.618 13.6115 19.6242 13.6214C19.6322 13.6196 19.641 13.6177 19.6485 13.616C19.8667 13.5639 20.2418 13.5323 20.6636 13.5323C20.9167 13.5323 21.1865 13.5437 21.4495 13.5688C21.4517 13.5688 21.454 13.5691 21.4562 13.5691C21.4692 13.5695 21.482 13.5659 21.4929 13.5589C21.5038 13.5519 21.5124 13.5418 21.5175 13.5299C21.5226 13.518 21.524 13.5049 21.5216 13.4922C21.5191 13.4795 21.5129 13.4678 21.5037 13.4586C20.9711 12.9782 20.1327 12.8491 19.4934 12.8491Z" fill="white"/>
<path d="M13.6112 12.2486C13.6201 12.2486 13.6288 12.2468 13.6368 12.2432C13.6449 12.2395 13.652 12.2343 13.6579 12.2277C14.1087 11.7298 14.8672 11.1438 15.5044 10.7936C15.5762 10.5009 15.661 10.1777 15.7579 9.84607C15.1581 10.1925 14.4876 10.6262 14.2852 10.8086C14.0253 11.043 13.5317 11.6459 13.5474 12.1876C13.5479 12.2041 13.5549 12.2197 13.5668 12.2312C13.5787 12.2426 13.5947 12.2488 13.6112 12.2486Z" fill="white"/>
<path d="M15.3594 11.4176C15.3833 11.3099 15.41 11.192 15.4397 11.0653C14.9412 11.3555 14.2136 11.8796 13.6546 12.5846C13.6536 12.5859 13.6527 12.5871 13.6517 12.5885C13.4851 12.8326 12.9347 13.5008 13.3529 14.2646C13.3593 14.2761 13.3691 14.2855 13.3809 14.2913C13.3929 14.2971 13.4063 14.2991 13.4193 14.2969C13.4324 14.2948 13.4445 14.2886 13.4539 14.2793C13.4633 14.27 13.4695 14.258 13.4718 14.245C13.56 13.6967 13.8705 12.6495 15.3594 11.4176Z" fill="white"/>
<path d="M16.886 13.6993C16.832 13.7066 16.7775 13.7103 16.723 13.7107C16.374 13.7032 16.038 13.5772 15.7705 13.3536C15.2694 13.8871 14.8668 14.6206 14.7801 15.1234C14.6184 16.06 14.8235 16.8441 15.5352 17.2847C15.5448 17.2908 15.556 17.2941 15.5674 17.2942C15.5773 17.2941 15.587 17.2916 15.5958 17.2871C15.6046 17.2827 15.6123 17.2762 15.6182 17.2683C15.6241 17.2604 15.628 17.2512 15.6298 17.2415C15.6315 17.2318 15.631 17.2218 15.6283 17.2124C15.0988 15.4062 16.1851 14.4059 16.886 13.6993Z" fill="white"/>
<path d="M18.8112 12.9313C18.8055 12.9313 18.7999 12.932 18.7942 12.932C18.4961 12.926 18.2061 12.8346 17.9587 12.6689C17.8566 13.0047 17.6895 13.2685 17.4726 13.4468C17.4757 13.8274 17.47 14.0521 17.4761 14.1519C17.4839 14.2816 17.398 14.57 17.7461 14.57C17.8801 14.57 18.0783 14.5271 18.3709 14.4163C18.6833 14.3307 18.9896 14.224 19.2876 14.0973C19.4131 14.0429 19.5932 13.9123 19.4459 13.7055C19.3783 13.6106 19.1014 13.2774 18.8112 12.9313Z" fill="white"/>
<path d="M16.7222 13.515C17.2139 13.515 17.6896 13.1838 17.8363 12.3344C18.17 12.6198 18.4995 12.7365 18.7943 12.7365C19.7188 12.7365 20.3032 11.5907 19.6206 10.9132C19.429 10.723 17.0287 8.69391 16.4613 8.43274C15.8938 9.73884 15.5286 11.5526 15.4355 11.9918C15.2605 12.8167 16.0084 13.515 16.7222 13.515Z" fill="white"/>
<path d="M58.3298 10.9948H61.7545V11.8921H59.3193V12.847H61.4654V13.7447H59.3193V15.4815H58.3298V10.9948Z" fill="white"/>
<path d="M63.3805 10.9625H64.2932L66.2211 15.4815H65.1865L64.7753 14.4752H62.8726L62.4614 15.4815H61.4526L63.3805 10.9625ZM64.4216 13.6032L63.824 12.1483L63.2263 13.6032H64.4216Z" fill="white"/>
<path d="M66.7685 10.9948H67.7585V15.4815H66.7685V10.9948Z" fill="white"/>
<path d="M68.6897 10.9948H70.7461C71.318 10.9948 71.7614 11.155 72.057 11.4499C72.3075 11.6998 72.4429 12.0523 72.4429 12.4754V12.4882C72.4429 13.2125 72.0506 13.6675 71.4787 13.8791L72.5778 15.4814H71.4207L70.4569 14.0457H69.6792V15.4815H68.6897V10.9948ZM70.6816 13.174C71.1637 13.174 71.44 12.9176 71.44 12.5394V12.5266C71.44 12.1036 71.1444 11.8857 70.6628 11.8857H69.6792V13.174H70.6816Z" fill="white"/>
<path d="M58.2575 19.8979V19.885C58.2575 18.6159 59.2088 17.5648 60.5069 17.5648C61.3105 17.5648 61.7921 17.8597 62.2548 18.2827L62.0173 18.5262C61.6249 18.148 61.175 17.866 60.5004 17.866C59.4206 17.866 58.6047 18.7442 58.6047 19.8722V19.885C58.6047 21.0195 59.4335 21.9041 60.5069 21.9041C61.1562 21.9041 61.5996 21.654 62.0554 21.2054L62.2806 21.4233C61.805 21.8912 61.2911 22.2053 60.494 22.2053C59.2088 22.2053 58.2575 21.1862 58.2575 19.8979Z" fill="white"/>
<path d="M64.9111 17.6095H65.2325L67.3271 22.1285H66.9611L66.3892 20.8722H63.7351L63.1627 22.1285H62.816L64.9111 17.6095ZM66.2478 20.5707L65.0654 17.9749L63.8764 20.5707H66.2478Z" fill="white"/>
<path d="M67.8909 21.4744L68.1097 21.2244C68.6042 21.6795 69.061 21.891 69.7227 21.891C70.3972 21.891 70.86 21.5128 70.86 21.0001V20.9872C70.86 20.5129 70.6095 20.2373 69.5878 20.0322C68.508 19.8143 68.071 19.449 68.071 18.7696V18.7566C68.071 18.09 68.6816 17.5773 69.5168 17.5773C70.1726 17.5773 70.6031 17.7567 71.0594 18.1221L70.8471 18.3848C70.423 18.0194 69.9989 17.8783 69.5039 17.8783C68.8423 17.8783 68.4053 18.2565 68.4053 18.7244V18.7373C68.4053 19.2116 68.6493 19.5 69.7162 19.7179C70.7573 19.9294 71.1943 20.3012 71.1943 20.9549V20.9678C71.1943 21.692 70.5708 22.1919 69.7033 22.1919C68.9836 22.1923 68.4306 21.9551 67.8909 21.4744Z" fill="white"/>
<path d="M72.3392 17.6418H72.6735V22.1286H72.3392V17.6418Z" fill="white"/>
<path d="M74.0538 17.6418H74.3688L77.4729 21.5452V17.6418H77.7943V22.1286H77.5433L74.3753 18.1419V22.1286H74.0538V17.6418Z" fill="white"/>
<path d="M78.9325 19.8979V19.885C78.9325 18.6608 79.8387 17.5648 81.2013 17.5648C82.5638 17.5648 83.4572 18.6479 83.4572 19.8722V19.885C83.4572 21.1092 82.5509 22.2053 81.1884 22.2053C79.8258 22.2053 78.9325 21.1221 78.9325 19.8979ZM83.1099 19.8979V19.885C83.1099 18.7762 82.3005 17.866 81.1884 17.866C80.0769 17.866 79.2798 18.7633 79.2798 19.8722V19.885C79.2798 20.9939 80.0898 21.9041 81.2013 21.9041C82.3134 21.9041 83.1099 21.0067 83.1099 19.8979Z" fill="white"/>
<path d="M52.1216 10.3462C52.0786 10.3462 52.0377 10.3631 52.0076 10.3933C51.9775 10.4234 51.9603 10.4643 51.9603 10.507V22.8095C51.9603 22.8522 51.9775 22.8931 52.0076 22.9232C52.0377 22.9534 52.0786 22.9703 52.1216 22.9703C52.1646 22.9703 52.2055 22.9534 52.2356 22.9232C52.2657 22.8931 52.2829 22.8522 52.2829 22.8095V10.507C52.2829 10.4643 52.2657 10.4234 52.2356 10.3933C52.2055 10.3631 52.1646 10.3462 52.1216 10.3462Z" fill="white"/>
<path d="M82.0656 30.9305H2.02163V1.60817H102.8V16.7049C103.332 16.3837 103.87 16.0777 104.413 15.7869V0H0.40918V32.5386H83.1362C82.7906 32.0039 82.4364 31.4681 82.0656 30.9305Z" fill="white"/>
<path d="M102.799 20.6518V30.9304H93.2343C92.8226 31.4597 92.4168 31.9958 92.0158 32.5386H104.412V19.2498C103.87 19.7078 103.333 20.1751 102.799 20.6518Z" fill="white"/>
<path d="M77.5794 26.8853C78.0417 25.5695 79.6149 24.0749 82.3475 24.4993C84.5081 24.9637 86.291 26.4219 87.7191 28.8123C95.6281 20.3605 102.435 14.5391 111.448 12.3262C112.252 12.1795 112.676 12.2117 112.091 12.7212C102.793 18.5071 94.3994 26.8769 87.8943 37.2645C87.7416 37.5072 87.1945 37.4915 87.0101 37.2287C84.9956 34.4668 83.56 31.7707 81.5461 29.0087C80.6469 27.5796 79.5106 26.5536 77.5805 26.884L77.5794 26.8853Z" fill="white"/>
</svg>
