<?xml version="1.0" encoding="UTF-8"?>
<svg width="80px" height="80px" viewBox="0 0 80 80" version="1.1" xmlns="http://www.w3.org/2000/svg" xmlns:xlink="http://www.w3.org/1999/xlink">
    <!-- Generator: Sketch 48.2 (47327) - http://www.bohemiancoding.com/sketch -->
    <title>habanero color</title>
    <desc>Created with Sketch.</desc>
    <defs>
        <linearGradient x1="-778.732394%" y1="49.9997341%" x2="704.15493%" y2="49.9997341%" id="linearGradient-1">
            <stop stop-color="#EF374E" offset="0%"></stop>
            <stop stop-color="#F89928" offset="100%"></stop>
        </linearGradient>
        <linearGradient x1="-110895%" y1="395429%" x2="-90023%" y2="395429%" id="linearGradient-2">
            <stop stop-color="#EF374E" offset="0%"></stop>
            <stop stop-color="#F89928" offset="100%"></stop>
        </linearGradient>
        <linearGradient x1="-111368%" y1="399143%" x2="-90410%" y2="399143%" id="linearGradient-3">
            <stop stop-color="#EF374E" offset="0%"></stop>
            <stop stop-color="#F89928" offset="100%"></stop>
        </linearGradient>
        <linearGradient x1="-111479%" y1="393850%" x2="-90711%" y2="393850%" id="linearGradient-4">
            <stop stop-color="#EF374E" offset="0%"></stop>
            <stop stop-color="#F89928" offset="100%"></stop>
        </linearGradient>
        <linearGradient x1="-111982%" y1="380936%" x2="-90668%" y2="380936%" id="linearGradient-5">
            <stop stop-color="#EF374E" offset="0%"></stop>
            <stop stop-color="#F89928" offset="100%"></stop>
        </linearGradient>
    </defs>
    <g id="Page-1" stroke="none" stroke-width="1" fill="none" fill-rule="evenodd">
        <g id="habanero-color" fill-rule="nonzero">
            <g id="Group-3" transform="translate(14.500000, 2.000000)">
                <path d="M28.375558,10.0165602 C29.2917359,10.0231029 30.0414958,9.28907224 30.0543767,8.3729615 C30.0543767,8.3729615 30.0543767,8.3729615 30.0543767,8.35887351 L30.0543767,3.52199727 C30.0543767,2.60129512 29.3080001,1.85491856 28.387298,1.85491856 C27.4665958,1.85491856 26.7202193,2.60129512 26.7202193,3.52199727 L26.7202193,8.34713352 C26.7201866,9.26365863 27.4590655,10.0088258 28.375558,10.0165602 Z" id="Shape" fill="url(#linearGradient-1)"></path>
                <path d="M21.7048951,14.4448848 C22.6255973,14.4448848 23.3719739,13.6985082 23.3719739,12.7778061 L23.3719739,7.95266983 C23.3719739,7.03196768 22.6255973,6.28559112 21.7048951,6.28559112 C20.784193,6.28559112 20.0378164,7.03196768 20.0378164,7.95266983 L20.0378164,12.7754581 C20.0378155,13.6965408 20.7838133,14.4435893 21.7048951,14.4448848 Z" id="Shape" fill="url(#linearGradient-2)"></path>
                <path d="M21.7072431,3.28719745 C22.6193732,3.28855743 23.3627443,2.55565632 23.3743219,1.64359872 L23.3743219,1.66707871 C23.3743219,0.74637656 22.6279453,-1.71998009e-15 21.7072431,-1.77635684e-15 C20.786541,-1.83273359e-15 20.0401644,0.74637656 20.0401644,1.66707871 L20.0401644,1.64359872 C20.053004,2.55511835 20.7956331,3.28728787 21.7072431,3.28719745 Z" id="Shape" fill="url(#linearGradient-3)"></path>
                <path d="M35.0485688,15.7315878 C35.490083,15.732211 35.9137614,15.5574175 36.2263994,15.2456602 C36.5390374,14.9339029 36.7150252,14.5107192 36.7156475,14.0692051 C36.7156475,14.0692051 36.7156475,14.0692051 36.7156475,14.0692051 L36.7156475,14.0879891 C36.7156475,13.4923992 36.3979041,12.9420514 35.8821082,12.6442565 C35.3663122,12.3464615 34.7308254,12.3464615 34.2150294,12.6442565 C33.6992334,12.9420514 33.38149,13.4923992 33.3814901,14.0879891 L33.3814901,14.0504211 C33.377733,14.4949937 33.5517111,14.9226499 33.8647572,15.2383414 C34.1778032,15.554033 34.6039803,15.7316037 35.0485688,15.7315878 Z" id="Shape" fill="url(#linearGradient-4)"></path>
                <path d="M48.3875464,28.0867542 C47.4668443,28.0867542 46.7204677,28.8331308 46.7204677,29.7538329 L46.7204677,30.5944162 C46.6537983,31.487009 45.8950422,32.1681926 45.000453,32.138583 C44.1058638,32.1089733 43.3938114,31.379108 43.3863103,30.4840603 L43.3863103,26.3257556 C43.3526521,25.4287455 42.6156989,24.7189262 41.7180576,24.7189262 C40.8204163,24.7189262 40.0834632,25.4287455 40.0498049,26.3257556 L40.0498049,26.4173275 C40.0498049,27.0129174 39.7320615,27.5632651 39.2162656,27.8610601 C38.7004696,28.158855 38.0649828,28.158855 37.5491868,27.8610601 C37.0333909,27.5632651 36.7156475,27.0129174 36.7156475,26.4173275 L36.7156475,19.4437729 C36.7156475,18.5243675 35.9703222,17.7790422 35.0509168,17.7790422 C34.1315114,17.7790422 33.3861861,18.5243675 33.3861861,19.4437729 L33.3861861,22.1017068 C33.3602849,23.014576 32.6250017,23.7477967 31.7120634,23.7711335 C31.2705492,23.7717567 30.8468708,23.5969633 30.5342328,23.285206 C30.2215948,22.9734487 30.045607,22.550265 30.0449847,22.1087508 C30.0449847,22.1087508 30.0449847,22.1087508 30.0449847,22.1087508 L30.0449847,14.5951567 C30.0449847,13.6738061 29.2980825,12.926904 28.376732,12.926904 C27.4553814,12.926904 26.7084793,13.6738061 26.7084793,14.5951567 L26.7084793,21.1319836 C26.7084793,22.0526857 25.9621027,22.7990623 25.0414006,22.7990623 C24.1206984,22.7990623 23.3743219,22.0526857 23.3743219,21.1319836 L23.3743219,18.7839854 C23.3743219,17.8626349 22.6274197,17.1157327 21.7060691,17.1157327 C20.7847186,17.1157327 20.0378164,17.8626349 20.0378164,18.7839854 L20.0378164,23.8087015 C20.0378164,24.7294037 19.2914399,25.4757802 18.3707377,25.4757802 C17.4500356,25.4757802 16.703659,24.7294037 16.703659,23.8087015 L16.703659,16.8257549 C16.703659,15.9050528 15.9572825,15.1586762 15.0365803,15.1586762 C14.1158782,15.1586762 13.3695016,15.9050528 13.3695016,16.8257549 L13.3695016,27.4927107 C13.3695016,28.4134128 12.623125,29.1597893 11.7024229,29.1597893 C10.7817208,29.1597893 10.0353442,28.4134128 10.0353442,27.4927107 L10.0353442,24.6751128 C10.0353442,23.7537623 9.28844203,23.0068601 8.3670915,23.0068601 C7.44574098,23.0068601 6.6988388,23.7537623 6.6988388,24.6751128 L6.6988388,32.5268187 C6.66518054,33.4238288 5.92822736,34.1336481 5.03058609,34.1336481 C4.13294483,34.1336481 3.39599165,33.4238288 3.36233339,32.5268187 L3.36233339,29.9440208 C3.36233339,29.0233186 2.61595683,28.276942 1.69525468,28.276942 C0.774552538,28.276942 0.0281759781,29.0233186 0.0281759781,29.9440208 L1.42108547e-14,32.5268187 L1.42108547e-14,61.4071963 L25.0226166,75.8638211 L50.0452331,61.4165883 L50.0452331,29.7561809 C50.0478323,28.8376876 49.3060352,28.090637 48.3875464,28.0867542 Z M36.8119154,56.4247442 L28.9508175,56.4247442 L28.9508175,50.4396968 L21.0920676,50.4396968 L21.0920676,56.4223962 L13.2333177,56.4223962 L13.2333177,37.6877187 L21.0920676,37.6877187 L21.0920676,43.9850499 L28.9508175,43.9850499 L28.9508175,37.6877187 L36.8119154,37.6877187 L36.8119154,56.4247442 Z" id="Shape" fill="url(#linearGradient-5)"></path>
            </g>
        </g>
    </g>
</svg>