<svg viewBox="0 0 104 13" fill="none" xmlns="http://www.w3.org/2000/svg">
<path fill-rule="evenodd" clip-rule="evenodd" d="M30.1699 0.609375C29.4706 4.47152 28.7931 8.2129 28.1038 12.0193H25.272C24.5293 9.95169 23.7923 7.89922 23.0553 5.84726C22.9763 5.85084 22.8972 5.85493 22.8182 5.85903C22.4365 7.89487 22.0545 9.93097 21.6615 12.0254H18.8984C19.5806 8.20318 20.2524 4.43595 20.9325 0.624726H23.7387C24.4508 2.58688 25.194 4.63476 26.0426 6.97404C26.8522 4.73582 26.8009 2.59942 27.4622 0.609375H30.1699Z" fill="white"/>
<path fill-rule="evenodd" clip-rule="evenodd" d="M82.2139 5.11262C83.1546 5.09599 83.9898 5.39508 84.5719 4.5853C84.8854 4.14906 84.7979 3.62251 84.5137 3.28811C83.8983 2.56404 83.0592 2.92351 82.2139 2.94961V5.11262ZM82.1046 8.41495C82.0805 9.65124 82.1059 9.68476 83.0697 9.70318C84.6019 9.73286 85.1199 9.41893 85.1168 8.46305C85.1142 7.59212 84.7171 7.27818 83.582 7.24953C82.1282 7.21243 82.1282 7.21243 82.1046 8.41495ZM79.2363 12.0798V0.565035H81.2319C82.384 0.564779 83.5378 0.606228 84.6879 0.553266C85.9405 0.495442 86.8432 1.00229 87.3773 2.09761C87.9551 3.28248 87.707 4.5175 86.7809 5.49103C86.6645 5.61333 86.5354 5.72411 86.3902 5.86074C86.4515 5.96615 86.4851 6.11634 86.5739 6.16342C87.9656 6.90642 88.1728 8.11048 87.994 9.5315C87.8211 10.9067 86.8155 12.0212 85.1217 12.0678C83.2064 12.1205 81.2886 12.0798 79.2363 12.0798Z" fill="white"/>
<path fill-rule="evenodd" clip-rule="evenodd" d="M61.8469 3.23275C61.8913 5.34228 61.7082 7.40065 61.9516 9.42063C64.0654 9.78855 64.5798 9.06473 64.7983 7.2195C64.8632 6.6735 64.8512 6.10985 64.8014 5.56079C64.6218 3.5843 63.8905 2.86509 61.8469 3.23275ZM58.9805 12.0892V0.564944H61.2431C61.927 0.564944 62.6145 0.609975 63.2946 0.557013C66.2159 0.328789 67.3911 2.58749 67.6186 4.46009C67.7754 5.75191 67.7582 7.08927 67.622 8.38595C67.3816 10.6692 65.679 12.0795 63.3551 12.0882C61.9452 12.0936 60.535 12.0892 58.9805 12.0892Z" fill="white"/>
<path fill-rule="evenodd" clip-rule="evenodd" d="M72.4032 9.52319H77.4733V12.0058H69.4688V0.65625H77.3161V2.9326H72.3901V4.87838H76.9697V7.17827H72.4032V9.52319Z" fill="white"/>
<path fill-rule="evenodd" clip-rule="evenodd" d="M30.5792 8.30889C31.4704 8.2265 32.2733 8.15179 33.1325 8.07197C33.2577 8.45268 33.3495 8.86307 33.5242 9.23483C33.8787 9.98884 34.7507 10.3325 35.4525 9.91131C35.816 9.69307 36.1911 9.24225 36.2488 8.85105C36.2924 8.55528 35.9105 8.08246 35.5949 7.87317C34.9613 7.45305 34.2335 7.17749 33.5624 6.80983C31.8932 5.89489 31.3691 4.85611 31.7013 3.18103C32.0268 1.53894 33.1207 0.472281 34.8507 0.354332C35.7676 0.291903 36.7406 0.398595 37.6231 0.653427C38.7749 0.986296 39.3677 1.95522 39.6589 3.08227C39.7843 3.5689 39.5147 3.81018 39.0435 3.8199C38.3657 3.83371 37.6874 3.82348 36.9925 3.82348C36.8783 3.5272 36.8045 3.19305 36.6328 2.92005C36.3137 2.41269 35.5867 2.23078 35.0449 2.46719C34.2735 2.8039 34.1589 3.59142 34.8671 4.03712C35.5493 4.46619 36.304 4.77859 37.0128 5.16749C37.9781 5.69737 38.6997 6.40379 38.9637 7.54797C39.4378 9.60224 38.2077 12.0221 35.5806 12.3084C34.7538 12.3982 33.8713 12.2857 33.0545 12.0956C31.2947 11.6857 30.3999 10.2803 30.5792 8.30889Z" fill="white"/>
<path fill-rule="evenodd" clip-rule="evenodd" d="M54.1539 4.59835C54.059 4.58044 53.9643 4.56228 53.8694 4.54437C53.353 5.57086 52.7484 6.56154 52.5203 7.86128C53.1704 7.81497 53.6927 7.77762 54.1539 7.74487V4.59835ZM52.8377 0.605469H56.8247V12.0243H54.3391C54.3145 11.5494 54.2871 11.017 54.2499 10.3004C53.382 10.3004 52.5016 10.254 51.6317 10.3311C51.3967 10.3518 51.0725 10.7123 50.9996 10.9748C50.7344 11.9284 50.1479 12.2528 49.2026 12.1282C48.7881 12.0734 48.3604 12.119 47.707 12.119C49.4679 8.16754 51.1507 4.39086 52.8377 0.605469Z" fill="white"/>
<path fill-rule="evenodd" clip-rule="evenodd" d="M40.7734 3.40827C40.9579 2.40506 41.1156 1.54666 41.2842 0.628906H50.329C50.183 1.56559 50.0496 2.42194 49.9016 3.3704H46.7622C46.2435 6.28025 45.7412 9.09671 45.2235 12.0007H42.2411C42.7446 9.15786 43.2418 6.34984 43.7625 3.40827H40.7734Z" fill="white"/>
<mask id="mask0" mask-type="alpha" maskUnits="userSpaceOnUse" x="94" y="0" width="10" height="13">
<path d="M94.3672 0.621094H103.251V12.0118H94.3672V0.621094Z" fill="white"/>
</mask>
<g mask="url(#mask0)">
<path fill-rule="evenodd" clip-rule="evenodd" d="M100.247 3.32856V12.0118H97.4181V3.41453H94.3672V0.621094H103.251V3.32856H100.247Z" fill="white"/>
</g>
<mask id="mask1" mask-type="alpha" maskUnits="userSpaceOnUse" x="0" y="0" width="104" height="13">
<path d="M0 12.3409H103.25V0.337891H0V12.3409Z" fill="white"/>
</mask>
<g mask="url(#mask1)">
<path fill-rule="evenodd" clip-rule="evenodd" d="M89.7969 12.0044H92.7172V0.605469H89.7969V12.0044Z" fill="white"/>
<path fill-rule="evenodd" clip-rule="evenodd" d="M15.7883 0.613281H18.7241C18.192 4.457 17.3894 8.19199 16.778 12.0204H13.7461C14.4341 8.1774 15.1088 4.4089 15.7883 0.613281Z" fill="white"/>
<path fill-rule="evenodd" clip-rule="evenodd" d="M13.5546 0.603516C13.2616 2.21438 12.9856 3.73238 12.6985 5.31203H7.86523C8.15383 3.69553 8.42575 2.17114 8.70563 0.603516H13.5546Z" fill="white"/>
<path fill-rule="evenodd" clip-rule="evenodd" d="M12.4313 7.33203C12.1383 8.9429 11.8623 10.4609 11.5752 12.0403H6.74219C7.03053 10.4238 7.30271 8.89966 7.58233 7.33203H12.4313Z" fill="white"/>
<path fill-rule="evenodd" clip-rule="evenodd" d="M0.84014 7.33203H5.6891C5.39614 8.9429 5.12011 10.4609 4.83305 12.0403H0" fill="white"/>
</g>
</svg>
