<svg fill="none" xmlns="http://www.w3.org/2000/svg" viewBox="0 0 128 128">
  <g clip-path="url(#interac_instant_square__clip0)">
    <path d="M12.486 2.203h103.027a10.282 10.282 0 0110.283 10.283v103.035a10.282 10.282 0 01-10.283 10.283H12.486a10.285 10.285 0 01-10.283-10.283V12.486A10.283 10.283 0 0112.486 2.203z" fill="#FDB913"/>
    <path d="M115.521 2.203a10.282 10.282 0 0110.283 10.283v103.035a10.284 10.284 0 01-10.283 10.283H12.486a10.285 10.285 0 01-10.283-10.283V12.486A10.283 10.283 0 0112.486 2.203h103.035zm0-2.203H12.486A12.486 12.486 0 000 12.486v103.035a12.484 12.484 0 0012.486 12.486h103.035a12.482 12.482 0 0012.486-12.486V12.486A12.485 12.485 0 00115.521 0" fill="#fff"/>
    <path d="M71.246 65.37V43.24l5.736-1.374v2.864s1.469-3.819 4.972-4.7a3.312 3.312 0 011.61-.11v5.618a8.125 8.125 0 00-3.034.632c-2.13.845-3.21 2.68-3.21 5.494v12.237l-6.074 1.469zm-30.489 7.161s-.94-1.403-.94-6.383V55.132l-2.974.735V51.29l2.981-.735v-4.92l6.14-1.47v4.973l4.342-1.036v4.54l-4.341 1.027v11.224c0 5.141 1.359 6.081 1.359 6.081l-6.567 1.557zm10.195-13.17c0-3.93.558-6.801 1.763-9.005 1.469-2.614 3.775-4.318 7.198-5.097 6.742-1.535 9.174 2.483 9.078 7.808-.037 1.91 0 2.842 0 2.842L57.121 58.7v.191c0 3.739.78 5.516 3.152 5.01 2.041-.434 2.614-1.712 2.776-3.298v-.904l5.567-1.337v.97c-.044 2.123-.66 7.389-8.395 9.218-7.337 1.74-9.27-2.733-9.27-9.189zm9.21-9.981c-1.968.448-3.004 2.38-3.048 5.574l5.972-1.425v-.962c0-2.409-.735-3.672-2.938-3.187m44.209-2.96c-.228-6.742 1.52-12.09 9.042-13.794 4.796-1.094 6.61.155 7.536 1.36.925 1.204 1.226 2.702 1.226 4.876v.397l-5.876 1.395v-.815c0-2.578-.734-3.555-2.585-3.085-2.204.558-3.122 2.666-3.122 6.868v1.96c0 4.268.58 6.222 3.151 5.686 2.204-.463 2.527-2.417 2.564-4.128v-1.131l5.875-1.388v.918c0 5.597-2.937 9.122-8.49 10.407-7.617 1.785-9.108-2.614-9.343-9.548m-20.324 9.46c0-5.142 3.004-6.75 7.529-8.623 4.061-1.682 4.15-2.512 4.172-3.974 0-1.234-.551-2.284-2.571-1.77a3.056 3.056 0 00-2.453 2.901 9.7 9.7 0 000 1.132l-5.7 1.351a11.1 11.1 0 01.39-3.371c.91-3.07 3.613-5.142 8.284-6.214 6.067-1.396 8.08 1.27 8.08 5.406V52.5c0 4.745.881 5.436.881 5.436l-5.597 1.329a12.263 12.263 0 01-.734-2.013s-1.227 3.085-5.45 4.084c-4.407 1.043-6.794-1.704-6.794-5.48h-.037zm11.693-7c-.93.659-1.913 1.24-2.938 1.74-1.865.912-2.71 2.035-2.71 3.769 0 1.469.933 2.483 2.622 2.071 1.807-.463 3.063-2.152 3.063-4.495l-.037-3.085zM8.63 88.051a3.556 3.556 0 01-2.938-5.487v-.051h.066l8.359-1.976v6.354h-.133c-1.895.455-4.157.97-4.627 1.072-.241.05-.488.075-.734.073m.007 8.139a3.548 3.548 0 01-2.975-5.48v-.058h.067l8.358-1.969v6.346h-.132c-1.895.456-4.157.984-4.627 1.073a3.49 3.49 0 01-.735.073m.044 8.138a3.549 3.549 0 01-3.547-3.548 3.4 3.4 0 01.573-1.924v-.066l8.424-1.983v6.346h-.132a259.39 259.39 0 01-4.627 1.072 3.486 3.486 0 01-.735.074m-.941-23.996l-.007-35.506 6.478-1.535v35.513l-6.47 1.528zm16.123-3.019a3.996 3.996 0 10-7.984 0v33.192a10.842 10.842 0 0010.812 10.819h11.311V91.973a5.244 5.244 0 00-2.328-4.355l-10.07-6.824v15.55a.86.86 0 01-1.719 0V77.29" fill="#231F20"/>
    <path d="M29.167 52.494a8.719 8.719 0 00-5.766 4.451v-2.497l-5.832 1.374V71.76a5.972 5.972 0 016.14 1.072V62.55c0-2.461 1.227-4.407 2.983-4.819 1.314-.294 2.416.184 2.416 2.527v15.02l6.14-1.469V57.952c0-3.85-1.468-6.545-6.096-5.458m89.227-22.733a3.797 3.797 0 113.797-3.797 3.797 3.797 0 01-3.797 3.79v.007zm0-7.117a3.32 3.32 0 100 6.642 3.32 3.32 0 000-6.642" fill="#231F20"/>
    <path d="M116.997 23.71h1.638a1.058 1.058 0 011.175.947 1.4 1.4 0 010 .242c0 .603-.264 1.058-.771 1.139.455.051.734.3.734.955v.94a.496.496 0 00.221.404h-.838a.822.822 0 01-.125-.412v-.874c0-.506-.169-.734-.675-.734h-.603v2.012h-.734l-.022-4.62zm1.329 2.063a.69.69 0 00.735-.756c0-.492-.213-.735-.735-.735h-.631v1.506l.631-.015z" fill="#231F20"/>
  </g>
  <defs>
    <clipPath id="interac_instant_square__clip0">
      <path fill="#fff" d="M0 0h128v128H0z"/>
    </clipPath>
  </defs>
</svg>
