<svg width="28" height="29" viewBox="0 0 28 29" fill="none" xmlns="http://www.w3.org/2000/svg">
<path d="M27.4263 26.0898C27.4263 27.3527 26.4021 28.375 25.1411 28.375H2.28614C1.02324 28.375 0 27.3527 0 26.0898V3.23397C0 1.97111 1.02324 0.94873 2.28614 0.94873H25.1411C26.4021 0.94873 27.4263 1.97111 27.4263 3.23397V26.0898ZM15.289 14.9766L16.6239 14.6595L16.6226 11.9405C16.6226 11.3158 16.8575 10.907 17.3235 10.7191C17.6981 10.5665 17.9845 10.5787 17.9845 10.5787V9.32209C17.9845 9.32209 17.867 9.28644 17.6333 9.34603C16.8752 9.54343 16.5489 10.3921 16.5489 10.3921V9.74712L15.2868 10.0516L15.289 14.9766ZM8.5052 16.5952L9.95263 16.249C9.95263 16.249 9.65422 16.0317 9.65422 14.8987C9.65288 14.4114 9.65422 12.4065 9.65422 12.4065L10.6108 12.1774V11.1708L9.65422 11.3993V10.3007L8.29981 10.6225V11.7212L7.6434 11.8777V12.8857L8.29893 12.7289V15.1764C8.29893 16.2823 8.5052 16.5952 8.5052 16.5952ZM10.7907 13.6717C10.7907 15.0979 11.2194 16.087 12.8254 15.7024C14.5209 15.299 14.6563 14.1335 14.6674 13.6637C14.6688 13.5514 14.6661 13.4505 14.6661 13.4505L13.4457 13.7453C13.4457 13.7453 13.4434 13.8885 13.4372 13.9459C13.402 14.2955 13.2774 14.5791 12.8285 14.6743C12.3094 14.7856 12.1371 14.3938 12.1371 13.5672V13.5246L14.7413 12.9079C14.7413 12.9079 14.7395 12.7015 14.7467 12.2788C14.7676 11.0968 14.2347 10.2149 12.7564 10.5537C12.0062 10.7256 11.491 11.1021 11.1776 11.6801C10.9136 12.1675 10.7907 12.8016 10.7907 13.6717ZM12.8103 11.4647C13.2894 11.3548 13.4532 11.6361 13.4554 12.1693C13.4554 12.2796 13.4554 12.3506 13.4532 12.3824L12.1429 12.697C12.1527 11.9898 12.3789 11.5634 12.8103 11.4647ZM22.6647 10.7798C22.7165 12.3243 23.0472 13.3086 24.7343 12.9092C25.9601 12.622 26.6134 11.8334 26.617 10.5829C26.617 10.4758 26.6157 10.3782 26.6157 10.3782L25.3134 10.6881C25.3134 10.6881 25.3107 10.8805 25.3098 10.9409C25.3017 11.3234 25.2342 11.7603 24.741 11.8629C24.1731 11.9831 24.0435 11.5462 24.0435 10.5924C24.0435 10.5474 24.0417 10.488 24.0417 10.1545C24.0417 9.21572 24.241 8.74382 24.7343 8.61903C25.1492 8.5142 25.3071 8.73295 25.3067 9.30915C25.3067 9.31464 25.3071 9.4925 25.3071 9.4925L26.6126 9.17991L26.6112 9.09003C26.6112 8.60454 26.5351 8.25786 26.3389 8.00058C26.1347 7.73154 25.7315 7.45293 24.6676 7.69661C23.0008 8.07681 22.6138 9.27286 22.6647 10.7798ZM18.0744 12.8983C18.0744 13.7386 18.598 14.3502 19.5854 14.1174C20.5254 13.896 20.7978 13.2089 20.7978 13.2089C20.8489 13.4159 20.9654 13.6569 20.9654 13.6569L22.2108 13.3617C22.2108 13.3617 22.0152 13.2076 22.0152 12.1516V9.96878C22.013 9.04671 21.5626 8.45458 20.2138 8.76556C19.1757 9.00603 18.5735 9.46525 18.3707 10.1478C18.2628 10.5067 18.2831 10.8981 18.2831 10.8981L19.5515 10.5985C19.5515 10.5985 19.5475 10.4741 19.5597 10.3453C19.5818 10.1058 19.6916 9.80519 20.1053 9.70035C20.5557 9.5855 20.6822 9.82014 20.6772 10.0936C20.6731 10.4195 20.6542 10.6053 19.7498 10.9795C18.7438 11.3959 18.0744 11.757 18.0744 12.8983ZM20.6691 11.3398V12.0264C20.6691 12.5489 20.389 12.9255 19.9856 13.0267C19.6103 13.1203 19.4029 12.9006 19.4029 12.5666C19.4029 12.1815 19.5913 11.931 20.0059 11.7276C20.4098 11.531 20.6691 11.3398 20.6691 11.3398ZM1.4061 20.0123C1.45989 20.0123 1.51459 20.0068 1.56571 19.9943C1.66842 19.9726 2.16405 19.8551 2.57886 19.7513L2.60775 19.7444V18.3037L0.777953 18.7514L0.763303 18.7551L0.754851 18.7661C0.672586 18.8985 0.629456 19.0493 0.629456 19.2055C0.629456 19.6509 0.977979 20.0123 1.4061 20.0123ZM1.4061 21.9006C1.45989 21.9006 1.51459 21.8956 1.56571 21.885C1.66842 21.8642 2.16405 21.7448 2.57886 21.6415L2.60775 21.6336V20.1921L0.777953 20.6404L0.763303 20.6436L0.754851 20.6579C0.672586 20.787 0.629456 20.9377 0.629456 21.096C0.629456 21.5405 0.977979 21.9006 1.4061 21.9006ZM1.4061 23.6991C1.45989 23.6991 1.51459 23.6931 1.56571 23.6829C1.65413 23.6622 2.14095 23.5483 2.57886 23.4386L2.60775 23.4313V21.9906L0.763303 22.4409L0.754851 22.4556C0.672586 22.5842 0.629456 22.7358 0.629456 22.8934C0.629456 23.3382 0.977979 23.6991 1.4061 23.6991ZM1.16946 18.3037L2.60775 17.9651V10.1208L1.16899 10.459L1.16946 18.3037ZM4.75304 17.6579C4.75304 17.1713 4.35279 16.7751 3.86094 16.7751C3.36632 16.7751 2.96744 17.1713 2.96744 17.6579L2.96833 24.995C2.96833 26.3119 4.05283 27.3859 5.3847 27.3859C6.06033 27.3859 7.91128 27.3827 7.91128 27.3827L7.91223 24.3219C7.9127 22.6496 7.91317 20.9472 7.91317 20.9086C7.91317 20.5212 7.71982 20.1622 7.39403 19.9463L5.14147 18.4334C5.14147 18.4334 5.14099 21.7187 5.14099 21.8691C5.14099 21.9745 5.05519 22.0607 4.94858 22.0607C4.84286 22.0607 4.75759 21.9745 4.75759 21.8691C4.75759 21.8323 4.75304 18.1116 4.75304 17.6579ZM6.01042 12.1526C5.0751 12.3673 4.72075 13.1443 4.72075 13.1443V12.5888L3.41705 12.8957L3.41841 16.4441C3.57015 16.384 3.73638 16.3511 3.91041 16.3511C4.2479 16.3511 4.55541 16.4757 4.7912 16.6828V14.3917C4.7912 13.843 5.06646 13.4046 5.45802 13.3187C5.75327 13.2541 5.99948 13.3594 5.99948 13.8819L6.00037 17.2247L7.37363 16.9038V13.368C7.37363 12.5106 7.04289 11.9122 6.01042 12.1526ZM25.7628 7.15337C26.2334 7.15337 26.617 6.76997 26.617 6.29974C26.617 5.82867 26.2334 5.44485 25.7628 5.44485C25.2922 5.44485 24.9085 5.82867 24.9085 6.29974C24.9085 6.76997 25.2922 7.15337 25.7628 7.15337Z" fill="white"/>
</svg>
