<?xml version="1.0" encoding="UTF-8"?>
<svg viewBox="0 0 475 125" version="1.1" xmlns="http://www.w3.org/2000/svg" xmlns:xlink="http://www.w3.org/1999/xlink">
    <!-- Generator: Sketch 55.2 (78181) - https://sketchapp.com -->
    <title>jeton-logo</title>
    <desc>Created with Sketch.</desc>
    <g id="JetonGo" stroke="none" stroke-width="1" fill="none" fill-rule="evenodd">
        <g id="jeton-logo" fill="#ffffff" fill-rule="nonzero">
            <path d="M117.170256,125 L117.170256,0 L123.5023,0 L123.5023,125 L117.170256,125 Z M183.66938,16.251875 L183.66938,15.625625 L209.00262,15.625625 L209.00262,78.125625 C209.00262,95.384375 194.824872,109.375625 177.336069,109.375625 C159.847267,109.375625 145.669519,95.384375 145.669519,78.125625 L171.002759,78.125625 C171.002759,81.5768745 173.837549,84.375625 177.336069,84.375625 C180.833323,84.375625 183.66938,81.5768745 183.66938,78.125625 L183.66938,16.251875 Z M275.145304,49.1778749 C277.947161,52.171625 280.109353,55.811625 281.571081,59.997875 C283.007476,64.1228745 283.735806,68.791625 283.735806,73.875375 C283.735806,75.094125 283.68894,76.202875 283.59774,77.170375 C283.466007,78.517875 283.341875,79.110375 283.091075,79.611625 L282.391878,81.000375 L238.576772,81.000375 C238.792104,81.990375 239.111303,82.926625 239.533102,83.794125 C240.320965,85.4241245 241.373562,86.8578745 242.66049,88.0578745 C243.943619,89.2541245 245.44588,90.1991245 247.12674,90.8691245 C248.796201,91.5366245 250.629061,91.8753745 252.574654,91.8753745 C256.407574,91.8753745 259.325963,91.0478745 261.246222,89.4166245 L262.273485,88.5453745 L280.845284,93.650375 L278.864225,96.529125 C277.111164,99.079125 274.914772,101.340375 272.334582,103.250375 C269.761991,105.154125 266.792935,106.666625 263.509747,107.746625 C260.225293,108.827875 256.546907,109.375375 252.574654,109.375375 C248.061537,109.375375 243.70422,108.581625 239.624301,107.016625 C235.516516,105.442875 231.859664,103.112875 228.756341,100.091625 C225.659352,97.081625 223.150095,93.361625 221.298235,89.0353745 C219.442575,84.706625 218.502712,79.731625 218.502712,74.2503752 C218.502712,69.110375 219.398242,64.3716245 221.165235,60.1666245 C222.929696,55.972875 225.346487,52.319125 228.349743,49.3078749 C231.354265,46.299125 234.862919,43.9303751 238.780704,42.2666251 C242.712423,40.5966252 246.843008,39.7503752 251.05466,39.7503752 C256.089641,39.7503752 260.692691,40.5678752 264.734609,42.1828751 C268.823395,43.8141251 272.324449,46.1678751 275.145304,49.1778749 Z M239.164503,65.375375 L263.467948,65.375375 C263.328615,64.8091245 263.151282,64.2528745 262.941016,63.7103745 C262.439418,62.4216245 261.673088,61.2641245 260.663558,60.2678745 C259.642628,59.259125 258.345567,58.434125 256.809105,57.812875 C255.265044,57.190375 253.371384,56.875375 251.181326,56.875375 C249.268666,56.875375 247.544739,57.202875 246.061478,57.849125 C244.555417,58.506625 243.268488,59.374125 242.234892,60.4266245 C241.172162,61.5103745 240.310832,62.7503745 239.674968,64.1103745 C239.477369,64.5328745 239.306369,64.9553745 239.164503,65.375375 Z M396.119129,49.6828749 C399.211051,52.780375 401.653175,56.482875 403.377102,60.6878745 C405.095963,64.8903745 405.967426,69.537875 405.967426,74.500375 C405.967426,79.461625 405.095963,84.126625 403.379635,88.3653745 C401.658242,92.6153745 399.213584,96.341625 396.119129,99.441625 C393.02594,102.537875 389.342487,104.992875 385.170103,106.739125 C380.988851,108.487875 376.351601,109.375375 371.387553,109.375375 C366.510904,109.375375 361.898988,108.489125 357.67847,106.742875 C353.452885,104.994125 349.761831,102.534125 346.706643,99.429125 C343.659054,96.332875 341.240996,92.6103745 339.522136,88.3653745 C337.805809,84.131625 336.934346,79.466625 336.934346,74.500375 C336.934346,69.531625 337.807076,64.8853745 339.525936,60.6878745 C341.246063,56.487875 343.661588,52.789125 346.70791,49.6953749 C349.761831,46.591625 353.452885,44.1303751 357.67847,42.3816251 C361.898988,40.6353752 366.510904,39.7503752 371.387553,39.7503752 C376.351601,39.7503752 380.988851,40.6366252 385.168836,42.3853751 C389.343754,44.1316251 393.027207,46.587875 396.119129,49.6828749 Z M384.85217,81.987875 C385.669167,79.865375 386.082099,77.346625 386.082099,74.500375 C386.082099,71.657875 385.669167,69.164125 384.857237,67.087875 C384.05544,65.0403745 382.96231,63.3066245 381.605716,61.9316245 C380.265587,60.5741245 378.713925,59.551625 376.995065,58.892875 C375.225539,58.217875 373.340745,57.875375 371.387553,57.875375 C369.43436,57.875375 367.547034,58.217875 365.78004,58.892875 C364.071313,59.547875 362.550052,60.5616245 361.255523,61.9078745 C359.919195,63.2966245 358.813399,65.0503745 357.967269,67.121625 C357.122405,69.187875 356.69554,71.669125 356.69554,74.500375 C356.69554,77.335375 357.123672,79.844125 357.972335,81.952875 C358.818465,84.061625 359.921728,85.8316245 361.255523,87.2153745 C362.562719,88.5766245 364.097913,89.6178745 365.820573,90.3091245 C367.573634,91.0166245 369.447026,91.375375 371.387553,91.375375 C373.326812,91.375375 375.200205,91.0166245 376.955799,90.3103745 C378.687325,89.6128745 380.25292,88.5641245 381.605716,87.1928745 C382.959777,85.8216245 384.050373,84.070375 384.85217,81.987875 Z M473.491406,56.376375 C474.493335,59.526375 475,62.931375 475,66.500125 L475,107.500125 L455.241339,107.500125 L455.241339,69.000125 C455.241339,65.798875 454.440809,63.070125 452.863815,60.890125 C451.455287,58.946375 448.918162,58.000125 445.108043,58.000125 C441.691855,58.000125 439.221865,59.047625 437.560004,61.201375 C435.734744,63.568875 434.84808,66.405125 434.84808,69.8751248 L434.84808,107.500125 L415.089419,107.500125 L415.089419,41.6251248 L434.466815,41.6251248 L434.466815,45.2588747 C435.81581,44.1138747 437.301605,43.1651248 438.902666,42.4238748 C442.563319,40.7326248 446.354438,39.8751248 450.174691,39.8751248 C454.320476,39.8751248 457.997596,40.5813748 461.103451,41.9738748 C464.233373,43.3788748 466.86423,45.3588747 468.925089,47.8613747 C470.931481,50.3051252 472.467943,53.168875 473.491406,56.3751248 L473.491406,56.376375 Z M324.714223,90.206875 C325.988485,90.049375 326.354551,89.971875 326.436884,89.950625 L329.588339,89.166875 L329.588339,106.065624 L327.998678,106.694374 C327.640213,106.836874 326.965082,107.069374 324.91689,107.604374 C323.251229,108.039374 321.009237,108.250624 318.061714,108.250624 C311.661271,108.250624 306.505957,106.413124 302.740171,102.789374 C298.954118,99.150625 297.035125,94.049375 297.035125,87.625625 L297.035125,59.500625 L289.435152,59.500625 L289.435152,41.6256249 L297.032591,41.6256249 L297.035125,22.9993749 L316.668386,22.9993749 L316.668386,41.6256249 L329.461673,41.6256249 L329.461673,59.500625 L316.668386,59.500625 L316.668386,85.249375 C316.668386,87.173125 317.058518,88.561875 317.794448,89.264375 C318.555713,89.990625 320.006041,90.375625 321.988367,90.375625 C322.891497,90.375625 323.807294,90.318125 324.714223,90.206875 Z M6.5160547,40.9906249 C5.97392337,41.1331249 5.53059167,40.5656249 5.79912399,40.0793749 C11.8043687,29.2093752 22.1301975,20.689375 35.2072164,17.2318749 C48.2829684,13.7756249 61.5436532,16.059375 72.2520141,22.5106249 C72.7308125,22.7993749 72.6345462,23.509375 72.0924146,23.653125 L6.5160547,40.9906249 Z M86.914514,36.3446248 C89.7657704,40.5258747 91.9824289,45.2308752 93.37829,50.3708751 C94.7741516,55.510875 95.23775,60.678375 94.8881511,65.7058745 C94.8691516,65.9733745 94.6778853,66.1996245 94.4156863,66.2683745 L8.77919977,88.909625 C8.51700071,88.978375 8.23706843,88.877125 8.08506896,88.655875 C5.2350794,84.473375 3.01842085,79.769625 1.62129263,74.629625 C0.226697739,69.4896245 -0.238167226,64.322125 0.111431494,59.293375 C0.130431425,59.027125 0.321697391,58.800875 0.583896433,58.730875 L86.2203834,36.0896248 C86.4825824,36.0208748 86.7637813,36.1221248 86.914514,36.3446248 Z M88.4842882,84.009375 C89.025153,83.866875 89.4684846,84.434375 89.199952,84.920625 C83.1959739,95.790625 72.8688783,104.310624 59.7931263,107.768124 C46.7161076,111.224375 33.4566894,108.940624 22.7483286,102.489374 C22.2695304,102.200624 22.3657967,101.490624 22.9066614,101.346874 L88.4842882,84.009375 Z" id="Logo"></path>
        </g>
    </g>
</svg>
