<svg width="124" height="90" viewBox="0 0 124 90" fill="none" xmlns="http://www.w3.org/2000/svg">
<path fill-rule="evenodd" clip-rule="evenodd" d="M35.8857 7.40588C37.294 8.24272 40.1814 10.9412 42.3728 14.2118C43.1586 15.3845 43.7018 16.4091 44.032 17.2206C43.1841 17.332 42.0504 17.3602 40.6707 17.2462C36.823 16.9281 33.1088 15.7036 31.7005 14.8668C30.0398 13.8799 29.1175 11.3954 30.3954 9.1173C31.6733 6.83921 34.225 6.41901 35.8857 7.40588ZM44.4088 18.5214C44.408 18.5209 44.4066 18.5065 44.407 18.4797C44.4099 18.5085 44.4096 18.5219 44.4088 18.5214ZM45.279 16.9254C45.3013 16.9116 45.3141 16.9057 45.3149 16.9061C45.3157 16.9066 45.3046 16.9135 45.279 16.9254ZM50.3342 14.7773C48.1969 9.53223 42.7417 3.59691 39.2022 1.4936C34.028 -1.58111 27.4117 0.243559 24.4244 5.5691C21.437 10.8946 23.2098 17.7044 28.3841 20.7791C28.5299 20.8658 28.6828 20.9521 28.8424 21.0379H5.86489C2.6258 21.0379 0 23.5388 0 26.6239V39.2845C0 42.3271 2.55408 46.0935 5.73161 46.1965L5.72389 45.6089L48.3513 45.6092V22.6927L52.5962 22.7484V45.6092L94.0655 45.6094L94.0682 45.8154C97.2007 45.6572 99.7031 42.2962 99.7031 39.2845V26.6239C99.7031 23.5388 97.0773 21.0379 93.8382 21.0379H71.8331C71.9894 20.9537 72.1393 20.869 72.2824 20.784C77.4566 17.7093 79.2294 10.8996 76.2421 5.57403C73.2547 0.248491 66.6385 -1.57617 61.4642 1.49853C57.9258 3.60119 52.4729 9.53344 50.3342 14.7773ZM93.8382 49.852L52.5962 49.8517L52.5962 89.9846L91.3447 90C92.7217 90.0005 93.8382 88.8811 93.8382 87.4999V49.852ZM48.3513 49.8517L5.86489 49.8514V87.4834C5.86489 88.8641 6.98083 89.9834 8.35742 89.9834H48.3513V49.8517ZM58.2936 14.2167C60.485 10.9461 63.3724 8.24765 64.7807 7.41081C66.4415 6.42394 68.9931 6.84414 70.271 9.12223C71.5489 11.4003 70.6266 13.8849 68.9659 14.8717C67.5576 15.7086 63.8434 16.933 59.9957 17.2511C58.616 17.3651 57.4823 17.337 56.6344 17.2256C56.9646 16.4141 57.5078 15.3895 58.2936 14.2167Z" fill="#F3B233"/>
<path d="M124 55.9348C124 70.5677 112.371 82.4301 98.0268 82.4301C83.6823 82.4301 72.0537 70.5677 72.0537 55.9348C72.0537 41.3018 83.6823 29.4395 98.0268 29.4395C112.371 29.4395 124 41.3018 124 55.9348Z" fill="#F3B233"/>
<path fill-rule="evenodd" clip-rule="evenodd" d="M98.0268 78.0142C109.981 78.0142 119.671 68.1289 119.671 55.9348C119.671 43.7406 109.981 33.8553 98.0268 33.8553C86.073 33.8553 76.3826 43.7406 76.3826 55.9348C76.3826 68.1289 86.073 78.0142 98.0268 78.0142ZM98.0268 82.4301C112.371 82.4301 124 70.5677 124 55.9348C124 41.3018 112.371 29.4395 98.0268 29.4395C83.6823 29.4395 72.0537 41.3018 72.0537 55.9348C72.0537 70.5677 83.6823 82.4301 98.0268 82.4301Z" fill="#0E152F"/>
<path d="M95 64.5C95 63.1193 96.1193 62 97.5 62C98.8807 62 100 63.1193 100 64.5C100 65.8807 98.8807 67 97.5 67C96.1193 67 95 65.8807 95 64.5Z" fill="#0E152F"/>
<path fill-rule="evenodd" clip-rule="evenodd" d="M97.5 60C96.3954 60 95.5 59.1046 95.5 58L95.5 48C95.5 46.8954 96.3954 46 97.5 46C98.6046 46 99.5 46.8954 99.5 48L99.5 58C99.5 59.1046 98.6046 60 97.5 60Z" fill="#0E152F"/>
</svg>
