<svg width="172" height="20" viewBox="0 0 172 20" fill="none" xmlns="http://www.w3.org/2000/svg">
<path d="M9.80792 12.5728L14.2129 18.8638H10.5994L6.57303 13.0323H2.85634V18.8638H0V1.58134H6.2633C8.80992 1.58134 10.6339 2.02901 11.7351 2.92435C12.8593 3.79613 13.4214 5.2216 13.4214 7.20078C13.4214 10.0517 12.2169 11.8424 9.80792 12.5728ZM6.36654 10.4169C7.94958 10.4169 9.03934 10.1695 9.63585 9.67475C10.2324 9.17995 10.5306 8.34352 10.5306 7.16544C10.5306 6.03448 10.2324 5.26873 9.63585 4.86818C9.03934 4.44407 7.97252 4.23202 6.43537 4.23202H2.85634V10.4169H6.36654Z" fill="white"/>
<path d="M56.1001 18.8638H53.2438V1.58134H57.6832L62.742 12.4315L67.8352 1.58134H72.2402V18.8638H69.4182V5.36297L63.5335 17.344H61.9505L56.1001 5.36297V18.8638Z" fill="white"/>
<path d="M89.334 14.0925L91.1579 16.001C89.4143 18.0509 87.2577 19.0758 84.6881 19.0758C82.1415 19.0758 80.0193 18.2394 78.3216 16.5665C76.6468 14.8701 75.8094 12.7378 75.8094 10.1695C75.8094 7.57776 76.6697 5.43366 78.3904 3.73722C80.1111 2.01723 82.2792 1.15723 84.8946 1.15723C87.4642 1.15723 89.6322 2.14681 91.3988 4.12599L89.6093 6.14051C88.8063 5.33941 88.0492 4.78571 87.338 4.47941C86.6268 4.17311 85.7894 4.01996 84.8258 4.01996C83.1051 4.01996 81.6597 4.58544 80.4897 5.7164C79.3425 6.84735 78.769 8.28461 78.769 10.0282C78.769 11.7482 79.3425 13.209 80.4897 14.4106C81.6368 15.6123 83.0019 16.2131 84.5849 16.2131C85.5485 16.2131 86.3744 16.0482 87.0627 15.7183C87.7739 15.3884 88.531 14.8465 89.334 14.0925Z" fill="white"/>
<path d="M97.019 14.9408L95.3327 18.8638H92.3043L99.7377 1.58134H102.766L110.165 18.8638H107.137L105.45 14.9408H97.019ZM104.315 12.2194L101.252 5.11558L98.1891 12.2194H104.315Z" fill="white"/>
<path d="M114.78 5.92845C114.78 6.65886 115.044 7.189 115.572 7.51886C116.099 7.91941 117.223 8.33173 118.944 8.75584C120.757 9.20351 122.076 9.81612 122.902 10.5936C123.751 11.3712 124.175 12.4904 124.175 13.9512C124.175 15.4827 123.613 16.7197 122.489 17.6621C121.387 18.6046 119.942 19.0758 118.153 19.0758C115.56 19.0758 113.22 18.1334 111.132 16.2484L112.922 14.0572C114.665 15.5887 116.432 16.3545 118.221 16.3545C119.116 16.3545 119.839 16.1542 120.389 15.7536C120.94 15.3295 121.215 14.7876 121.215 14.1279C121.215 13.4682 120.963 12.9498 120.458 12.5728C119.976 12.1958 119.105 11.8542 117.843 11.5479C115.663 11.0295 114.149 10.4169 113.3 9.71009C112.314 8.93256 111.82 7.74269 111.82 6.14051C111.82 4.58544 112.371 3.37202 113.472 2.50024C114.574 1.6049 115.984 1.15723 117.705 1.15723C120.022 1.15723 122.007 1.85229 123.659 3.24243L122.145 5.43366C121.64 4.96243 120.963 4.58544 120.114 4.3027C119.265 3.9964 118.428 3.84325 117.602 3.84325C116.753 3.84325 116.065 4.03174 115.537 4.40873C115.032 4.76215 114.78 5.26873 114.78 5.92845Z" fill="white"/>
<path d="M127.7 1.58134H130.556V18.8638H127.7V1.58134Z" fill="white"/>
<path d="M147.827 1.58134H150.649V18.8638H147.587L138.054 6.24653V18.8638H135.198V1.58134H138.054L147.827 14.4813V1.58134Z" fill="white"/>
<path d="M163.121 3.80791C161.446 3.80791 160.036 4.42051 158.888 5.64571C157.741 6.87092 157.168 8.3553 157.168 10.0989C157.168 11.8424 157.741 13.3268 158.888 14.552C160.036 15.7536 161.446 16.3545 163.121 16.3545C164.796 16.3545 166.207 15.7536 167.354 14.552C168.501 13.3268 169.075 11.8424 169.075 10.0989C169.075 8.3553 168.501 6.87092 167.354 5.64571C166.207 4.42051 164.796 3.80791 163.121 3.80791ZM163.121 19.0405C160.598 19.0405 158.487 18.1923 156.789 16.4958C155.091 14.7758 154.242 12.6435 154.242 10.0989C154.242 7.5542 155.091 5.43366 156.789 3.73722C158.487 2.01723 160.598 1.15723 163.121 1.15723C165.645 1.15723 167.756 2.01723 169.453 3.73722C171.151 5.43366 172 7.5542 172 10.0989C172 12.6435 171.14 14.7641 169.419 16.4605C167.698 18.1805 165.599 19.0405 163.121 19.0405Z" fill="white"/>
<path d="M37 10.1582C37 15.1288 32.9706 19.1582 28 19.1582C23.0294 19.1582 19 15.1288 19 10.1582C19 5.18764 23.0294 1.1582 28 1.1582M37 10.1582C37 5.18764 32.9706 1.1582 28 1.1582M37 10.1582H33.7857M28 1.1582V5.01535M28 15.5582C30.9823 15.5582 33.4 13.1405 33.4 10.1582C33.4 7.17587 30.9823 4.7582 28 4.7582C25.0177 4.7582 22.6 7.17587 22.6 10.1582C22.6 13.1405 25.0177 15.5582 28 15.5582ZM28 15.5582V18.8368M22.8571 10.1582H21.0571H19.2571M31.9293 6.45409L34.4303 3.95312M22.0199 16.3633L24.2958 14.0874M22.0199 3.95312L24.2958 6.22897M31.6 13.7582L34.3 16.4582" stroke="#F3B233" stroke-width="1.2"/>
<path d="M49 10.1582C49 14.5765 45.447 18.1582 41.0643 18.1582C39.5788 18.1582 38.1888 17.7468 37 17.0308M49 10.1582C49 5.73992 45.447 2.1582 41.0643 2.1582M49 10.1582H46.1658M41.0643 2.1582V5.3582M41.0643 2.1582C39.6903 2.1582 38.3978 2.51021 37.2709 3.12965M41.0643 14.9582C43.6939 14.9582 45.8257 12.8092 45.8257 10.1582C45.8257 7.50724 43.6939 5.3582 41.0643 5.3582M41.0643 14.9582V17.8725M41.0643 14.9582C40.4074 14.9582 39.7816 14.8241 39.2123 14.5816M41.0643 5.3582C40.4074 5.3582 39.7816 5.4923 39.2123 5.73482M44.5289 6.86566L46.7342 4.64258M44.442 13.5413L46.6193 15.7582" stroke="#F3B233" stroke-width="1.2" stroke-linecap="round"/>
</svg>
