<svg width="110" height="41" viewBox="0 0 110 41" fill="none" xmlns="http://www.w3.org/2000/svg">
<path opacity="0.9" d="M34.02 12C33.9533 12 33.8967 11.9767 33.85 11.93C33.8033 11.8833 33.78 11.8267 33.78 11.76V5.25C33.78 5.17667 33.8 5.11667 33.84 5.07C33.8867 5.02333 33.9467 5 34.02 5H34.83C34.9567 5 35.0567 5.06333 35.13 5.19L37.06 8.77L38.99 5.19C39.0633 5.06333 39.1633 5 39.29 5H40.09C40.1633 5 40.2233 5.02333 40.27 5.07C40.3167 5.11667 40.34 5.17667 40.34 5.25V11.76C40.34 11.8333 40.3167 11.8933 40.27 11.94C40.2233 11.98 40.1633 12 40.09 12H39.23C39.1633 12 39.1067 11.9767 39.06 11.93C39.0133 11.8833 38.99 11.8267 38.99 11.76V7.46L37.6 10.1C37.5267 10.2467 37.4167 10.32 37.27 10.32H36.85C36.71 10.32 36.5967 10.2467 36.51 10.1L35.12 7.46V11.76C35.12 11.8267 35.0967 11.8833 35.05 11.93C35.01 11.9767 34.9533 12 34.88 12H34.02ZM41.4652 12C41.4052 12 41.3552 11.98 41.3152 11.94C41.2752 11.9 41.2552 11.85 41.2552 11.79L41.2752 11.7L43.6752 5.25C43.7419 5.08333 43.8619 5 44.0352 5H45.1352C45.3086 5 45.4286 5.08333 45.4952 5.25L47.8952 11.7L47.9152 11.79C47.9152 11.85 47.8919 11.9 47.8452 11.94C47.8052 11.98 47.7586 12 47.7052 12H46.8152C46.6752 12 46.5786 11.9367 46.5252 11.81L46.0652 10.6H43.1052L42.6452 11.81C42.5919 11.9367 42.4952 12 42.3552 12H41.4652ZM43.4552 9.44H45.7152L44.5852 6.36L43.4552 9.44ZM49.0786 12C49.0119 12 48.9553 11.9767 48.9086 11.93C48.8619 11.8833 48.8386 11.8267 48.8386 11.76V5.25C48.8386 5.17667 48.8586 5.11667 48.8986 5.07C48.9453 5.02333 49.0053 5 49.0786 5H51.5186C53.4853 5 54.4886 5.90667 54.5286 7.72C54.5419 8.10667 54.5486 8.36667 54.5486 8.5C54.5486 8.62667 54.5419 8.88333 54.5286 9.27C54.5019 10.2033 54.2486 10.8933 53.7686 11.34C53.2953 11.78 52.5619 12 51.5686 12H49.0786ZM51.5186 10.84C52.0719 10.84 52.4719 10.7167 52.7186 10.47C52.9653 10.2233 53.0953 9.81333 53.1086 9.24C53.1219 8.84 53.1286 8.59 53.1286 8.49C53.1286 8.38333 53.1219 8.13667 53.1086 7.75C53.0953 7.20333 52.9586 6.80333 52.6986 6.55C52.4386 6.29 52.0286 6.16 51.4686 6.16H50.2486V10.84H51.5186ZM56.1098 12C56.0432 12 55.9865 11.9767 55.9398 11.93C55.8932 11.8833 55.8698 11.8267 55.8698 11.76V5.25C55.8698 5.17667 55.8898 5.11667 55.9298 5.07C55.9765 5.02333 56.0365 5 56.1098 5H60.5198C60.5932 5 60.6532 5.02333 60.6998 5.07C60.7465 5.11667 60.7698 5.17667 60.7698 5.25V5.92C60.7698 5.99333 60.7465 6.05333 60.6998 6.1C60.6532 6.14 60.5932 6.16 60.5198 6.16H57.2398V7.91H60.2998C60.3732 7.91 60.4332 7.93333 60.4798 7.98C60.5265 8.02667 60.5498 8.08667 60.5498 8.16V8.79C60.5498 8.86333 60.5265 8.92333 60.4798 8.97C60.4332 9.01 60.3732 9.03 60.2998 9.03H57.2398V10.84H60.5998C60.6732 10.84 60.7332 10.8633 60.7798 10.91C60.8265 10.95 60.8498 11.0067 60.8498 11.08V11.76C60.8498 11.8333 60.8265 11.8933 60.7798 11.94C60.7332 11.98 60.6732 12 60.5998 12H56.1098ZM64.6157 12C64.549 12 64.4924 11.9767 64.4457 11.93C64.399 11.8833 64.3757 11.8267 64.3757 11.76V5.25C64.3757 5.17667 64.3957 5.11667 64.4357 5.07C64.4824 5.02333 64.5424 5 64.6157 5H67.5157C68.2957 5 68.879 5.17333 69.2657 5.52C69.6524 5.86 69.8457 6.32667 69.8457 6.92C69.8457 7.26667 69.759 7.56333 69.5857 7.81C69.419 8.05 69.2224 8.22333 68.9957 8.33C69.2757 8.45667 69.5124 8.66333 69.7057 8.95C69.899 9.23667 69.9957 9.56333 69.9957 9.93C69.9957 10.55 69.7857 11.05 69.3657 11.43C68.9457 11.81 68.359 12 67.6057 12H64.6157ZM67.3357 7.87C67.6757 7.87 67.9357 7.78667 68.1157 7.62C68.3024 7.45333 68.3957 7.23 68.3957 6.95C68.3957 6.67 68.3057 6.45333 68.1257 6.3C67.9457 6.14667 67.6824 6.07 67.3357 6.07H65.7857V7.87H67.3357ZM67.4357 10.93C67.7824 10.93 68.0524 10.8367 68.2457 10.65C68.439 10.4567 68.5357 10.2133 68.5357 9.92C68.5357 9.62667 68.4357 9.38667 68.2357 9.2C68.0424 9.00667 67.7757 8.91 67.4357 8.91H65.7857V10.93H67.4357ZM73.0866 12C73.0199 12 72.9632 11.9767 72.9166 11.93C72.8699 11.8833 72.8466 11.8267 72.8466 11.76V9.51L70.4766 5.32C70.4566 5.26 70.4466 5.22333 70.4466 5.21C70.4466 5.15 70.4666 5.1 70.5066 5.06C70.5532 5.02 70.6032 5 70.6566 5H71.5566C71.6832 5 71.7866 5.06333 71.8666 5.19L73.5466 8.09L75.2366 5.19C75.2632 5.14333 75.2999 5.1 75.3466 5.06C75.3999 5.02 75.4632 5 75.5366 5H76.4366C76.4966 5 76.5466 5.02 76.5866 5.06C76.6266 5.1 76.6466 5.15 76.6466 5.21C76.6466 5.25 76.6366 5.28667 76.6166 5.32L74.2566 9.51V11.76C74.2566 11.8333 74.2332 11.8933 74.1866 11.94C74.1399 11.98 74.0799 12 74.0066 12H73.0866Z" fill="white"/>
<g clip-path="url(#clip0)">
<path d="M26.4982 17.5713L22.7051 35.3066C22.38 36.9487 22.9218 37.5509 24.0598 37.5509C25.1977 37.5509 26.0105 36.9487 26.3898 35.3066L30.1287 17.5713H33.4883L29.8036 35.0876C29.045 38.7551 26.7691 40.8899 23.247 40.8899C19.7248 40.8899 18.3701 38.8098 19.1287 35.0876L22.8677 17.5713H26.4982Z" fill="white"/>
<path d="M48.6055 17.5713L42.5907 28.7379L44.1622 40.5615H40.3691L39.3395 31.4749L34.5168 40.5615H31.1572L37.6055 28.7379L36.1966 17.5713H39.8814L40.8026 26.0558L45.3001 17.5713H48.6055Z" fill="white"/>
<path d="M59.1178 23.2096L58.7926 24.7422H58.0882L58.4133 23.2096C58.9552 20.4179 58.4133 18.0642 55.433 18.0642C52.4527 18.0642 50.9355 20.4179 50.3394 23.2096L47.9552 34.9784C47.3591 37.77 47.9552 40.069 50.9897 40.069C53.97 40.069 55.4872 37.77 56.0291 34.9784L57.1128 29.7782H53.5907L53.699 29.1213H57.9256L56.7335 34.9784C56.0833 38.1532 54.2409 40.7806 50.7729 40.7806C47.3049 40.7806 46.5463 38.1532 47.1966 34.9784L49.5808 23.2643C50.2311 20.0895 52.0734 17.462 55.4872 17.462C59.0094 17.4073 59.768 20.0347 59.1178 23.2096Z" fill="white"/>
<path d="M67.9506 17.5713C71.3102 17.5713 72.1772 19.5966 71.5812 22.7167L71.1477 24.7968C70.6058 27.6432 69.1969 29.1759 66.596 29.6138C69.0344 29.9969 69.793 31.6938 69.3053 34.2118L68.6009 37.8246C68.4383 38.7004 68.2758 39.8499 68.6551 40.5615H67.8964C67.5713 39.8499 67.6797 38.8098 67.8964 37.8246L68.6009 34.2118C69.2511 30.818 67.4629 29.9422 64.4827 29.9422H61.7191L59.6058 40.5615H58.9014L63.5073 17.5713H67.9506ZM64.6452 29.2306C67.7881 29.2306 69.7388 28.4095 70.4432 24.8515L70.8767 22.7714C71.4186 19.9798 70.7142 18.2281 67.7881 18.2281H64.0492L61.8275 29.2306H64.6452Z" fill="white"/>
<path d="M74.9409 23.2093C75.5912 19.9797 77.4335 17.407 80.8473 17.407C84.3153 17.407 85.1823 19.9797 84.532 23.2093L82.2562 34.9233C81.6059 38.1529 79.7636 40.7256 76.2414 40.7256C72.7734 40.7256 71.9606 38.1529 72.5567 34.9233L74.9409 23.2093ZM73.3695 34.9233C72.8276 37.7697 73.4237 40.0688 76.4582 40.0688C79.4926 40.0688 81.0641 37.7697 81.6059 34.9233L83.8818 23.1545C84.4237 20.3081 83.7734 18.0091 80.7389 18.0091C77.7586 18.0091 76.2414 20.3081 75.6453 23.1545L73.3695 34.9233Z" fill="white"/>
<path d="M86.2655 34.869C85.7237 37.6059 86.2655 40.0144 89.2458 40.0144C92.2803 40.0144 93.6892 37.6059 94.2311 34.869L97.5365 17.5168H98.2409L94.9355 34.8142C94.3394 37.9891 92.6054 40.6713 89.1375 40.6713C85.6695 40.6713 84.965 37.9891 85.5611 34.8142L88.9207 17.5168H89.6251L86.2655 34.869Z" fill="white"/>
<path d="M105.99 17.5716C109.458 17.5716 110.216 19.9253 109.62 23.1002L109.187 25.3992C108.482 29.0667 106.586 30.7636 102.955 30.7636H99.704L97.8617 40.507H97.1572L101.492 17.5168H105.99V17.5716ZM103.118 30.1067C106.315 30.1067 107.886 28.6835 108.482 25.4539L108.916 23.1002C109.458 20.2538 108.862 18.2832 105.827 18.2832H102.088L99.8666 30.1614H103.118V30.1067Z" fill="white"/>
<path d="M14.8489 17.5713H10.7848H7.31684C7.20846 17.5713 7.15428 17.4071 7.26265 17.3523L7.96708 16.8597C8.07546 16.7502 8.02127 16.586 7.85871 16.6408L0.43507 19.3229C0.272508 19.3777 0.326691 19.5966 0.489252 19.5966H5.69122C5.85378 19.5966 5.85378 19.7609 5.74541 19.8703L4.1198 20.6914C4.01143 20.7461 4.06561 20.9651 4.17398 20.9651H8.50896L4.22817 40.671H9.86364C13.44 40.671 15.6075 38.6457 16.4203 34.9782L18.9129 23.3736C19.7257 19.5419 18.4252 17.5713 14.8489 17.5713ZM15.3907 23.0452L12.7897 34.9782C12.4104 36.6203 11.6518 37.2225 10.5139 37.2225H8.50896L12.0853 20.8009H14.0902C15.2282 20.8556 15.77 21.403 15.3907 23.0452Z" fill="white"/>
</g>
<defs>
<clipPath id="clip0">
<rect width="110" height="24.6324" fill="white" transform="translate(0 16.3672)"/>
</clipPath>
</defs>
</svg>
