<svg width="172" height="23" viewBox="0 0 172 23" fill="none" xmlns="http://www.w3.org/2000/svg">
<path d="M14.0196 2.44238V17.7949H11.0968L3.46774 8.47373V17.7949H0V2.44238H2.92281L10.5023 11.7636V2.44238H14.0196Z" fill="white"/>
<path d="M17.6357 2.44238H21.153V17.7949H17.6357V2.44238Z" fill="white"/>
<path d="M38.7396 2.44238V17.7949H35.8168L28.2373 8.47373V17.7949H24.7695V2.44238H27.6923L35.2718 11.7636V2.44238H38.7396Z" fill="white"/>
<path d="M54.1963 14.9537V17.7949H42.3564V2.44238H53.8991V5.2836H45.8737V8.62327H52.9578V11.3648H45.8737V14.9537H54.1963Z" fill="white"/>
<path d="M73.0707 13.9069L66.5315 7.32721C66.0361 6.82875 65.1939 6.82875 64.649 7.32721L58.1098 13.9069C57.6144 14.4053 57.6144 15.2527 58.1098 15.801L64.649 22.3807C65.1444 22.8791 65.9866 22.8791 66.5315 22.3807L73.0707 15.801C73.5661 15.2527 73.5661 14.4053 73.0707 13.9069ZM62.6674 16.1499C62.2711 16.5487 61.6766 16.5487 61.2803 16.1499C60.884 15.7512 60.884 15.153 61.2803 14.7542C61.6766 14.3555 62.2711 14.3555 62.6674 14.7542C63.0637 15.153 63.0637 15.7512 62.6674 16.1499ZM63.361 14.0564C62.9647 13.6576 62.9647 13.0595 63.361 12.6607C63.7573 12.262 64.3518 12.262 64.7481 12.6607C65.1444 13.0595 65.1444 13.6576 64.7481 14.0564C64.3518 14.4552 63.7573 14.4552 63.361 14.0564ZM65.7389 19.2404C65.3425 19.6391 64.7481 19.6391 64.3518 19.2404C63.9554 18.8416 63.9554 18.2435 64.3518 17.8447C64.7481 17.4459 65.3425 17.4459 65.7389 17.8447C66.1352 18.2435 66.1352 18.8416 65.7389 19.2404ZM65.3921 12.0127C64.9958 11.614 64.9958 11.0158 65.3921 10.617C65.7884 10.2183 66.3829 10.2183 66.7792 10.617C67.1755 11.0158 67.1755 11.614 66.7792 12.0127C66.3829 12.3616 65.7884 12.3616 65.3921 12.0127ZM67.8195 17.1469C67.4232 17.5456 66.8287 17.5456 66.4324 17.1469C66.0361 16.7481 66.0361 16.1499 66.4324 15.7512C66.8287 15.3524 67.4232 15.3524 67.8195 15.7512C68.1663 16.1499 68.1663 16.7979 67.8195 17.1469ZM69.8506 15.1032C69.4543 15.5019 68.8598 15.5019 68.4635 15.1032C68.0672 14.7044 68.0672 14.1063 68.4635 13.7075C68.8598 13.3087 69.4543 13.3087 69.8506 13.7075C70.2469 14.1063 70.2469 14.7044 69.8506 15.1032Z" fill="#E45809"/>
<path d="M78.9656 0H69.7018C68.9587 0 68.3643 0.598151 68.3643 1.34584V7.2775L73.0705 12.0129H78.9656C79.7087 12.0129 80.3032 11.4147 80.3032 10.667V1.34584C80.3032 0.598151 79.7087 0 78.9656 0ZM72.8723 4.48613C72.476 4.8849 71.8815 4.8849 71.4852 4.48613C71.0889 4.08736 71.0889 3.48921 71.4852 3.09044C71.8815 2.69168 72.476 2.69168 72.8723 3.09044C73.2686 3.48921 73.2191 4.13721 72.8723 4.48613ZM74.9034 6.57966C74.5071 6.97842 73.9126 6.97842 73.5163 6.57966C73.12 6.18089 73.12 5.58274 73.5163 5.18397C73.9126 4.7852 74.5071 4.7852 74.9034 5.18397C75.2997 5.58274 75.2997 6.18089 74.9034 6.57966ZM76.9345 8.62334C76.5382 9.0221 75.9438 9.0221 75.5474 8.62334C75.1511 8.22457 75.1511 7.62642 75.5474 7.22765C75.9438 6.82889 76.5382 6.82889 76.9345 7.22765C77.3309 7.62642 77.3309 8.22457 76.9345 8.62334Z" fill="#E45809"/>
<path d="M84.2168 10.5678C84.2168 5.93216 87.7341 2.64233 92.4898 2.64233C95.1154 2.64233 97.3447 3.58941 98.7813 5.38386L96.5025 7.47738C95.4622 6.28108 94.1742 5.68293 92.688 5.68293C89.8147 5.68293 87.7836 7.67677 87.7836 10.6177C87.7836 13.5586 89.8147 15.5524 92.688 15.5524C94.2237 15.5524 95.5117 14.9543 96.5025 13.7081L98.7813 15.8016C97.3447 17.5961 95.1649 18.5432 92.4898 18.5432C87.7341 18.4933 84.2168 15.1536 84.2168 10.5678Z" fill="white"/>
<path d="M110.869 14.9538H103.785L102.447 18.2436H98.8311L105.618 2.89111H109.086L115.922 18.2436H112.207L110.869 14.9538ZM109.779 12.2123L107.352 6.33048L104.924 12.2123H109.779Z" fill="white"/>
<path d="M116.318 16.6984L117.507 14.0067C118.795 14.9538 120.727 15.6018 122.56 15.6018C124.641 15.6018 125.483 14.904 125.483 13.9569C125.483 11.0658 116.616 13.0597 116.616 7.37724C116.616 4.78526 118.696 2.59204 123.056 2.59204C124.988 2.59204 126.92 3.04065 128.356 3.93788L127.267 6.62956C125.83 5.83202 124.393 5.43325 123.056 5.43325C120.975 5.43325 120.133 6.23079 120.133 7.17786C120.133 10.0191 129 8.07509 129 13.7077C129 16.2498 126.87 18.443 122.511 18.443C120.133 18.4929 117.656 17.7452 116.318 16.6984Z" fill="white"/>
<path d="M131.428 2.89111H134.945V18.2436H131.428V2.89111Z" fill="white"/>
<path d="M152.581 2.89111V18.2436H149.658L142.029 8.92246V18.2436H138.562V2.89111H141.484L149.064 12.2123V2.89111H152.581Z" fill="white"/>
<path d="M155.256 10.5678C155.256 5.98201 158.773 2.64233 163.628 2.64233C168.433 2.64233 172 5.98201 172 10.5678C172 15.1536 168.433 18.4933 163.628 18.4933C158.773 18.4933 155.256 15.1038 155.256 10.5678ZM168.334 10.5678C168.334 7.62692 166.303 5.63309 163.578 5.63309C160.854 5.63309 158.823 7.62692 158.823 10.5678C158.823 13.5087 160.854 15.5026 163.578 15.5026C166.303 15.4527 168.334 13.4589 168.334 10.5678Z" fill="white"/>
</svg>
