<svg width="192" height="25" viewBox="0 0 192 25" fill="none" xmlns="http://www.w3.org/2000/svg">
<path d="M15.5727 2.68053V19.5295H12.3261L3.85192 9.29978V19.5295H0V2.68053H3.24661L11.6658 12.9103V2.68053H15.5727Z" fill="white"/>
<path d="M19.5897 2.68053H23.4967V19.5295H19.5897V2.68053Z" fill="white"/>
<path d="M43.0314 2.68053V19.5295H39.7848L31.3656 9.29978V19.5295H27.5137V2.68053H30.7603L39.1795 12.9103V2.68053H43.0314Z" fill="white"/>
<path d="M60.1999 16.4114V19.5295H47.0484V2.68053H59.8698V5.79869H50.9553V9.4639H58.8243V12.4726H50.9553V16.4114H60.1999Z" fill="white"/>
<path d="M81.1654 15.2626L73.9018 8.04157C73.3515 7.49453 72.416 7.49453 71.8107 8.04157L64.5471 15.2626C63.9968 15.8096 63.9968 16.7396 64.5471 17.3414L71.8107 24.5624C72.361 25.1094 73.2965 25.1094 73.9018 24.5624L81.1654 17.3414C81.7156 16.7396 81.7156 15.8096 81.1654 15.2626ZM69.6096 17.7243C69.1694 18.1619 68.5091 18.1619 68.0688 17.7243C67.6286 17.2867 67.6286 16.6302 68.0688 16.1926C68.5091 15.7549 69.1694 15.7549 69.6096 16.1926C70.0498 16.6302 70.0498 17.2867 69.6096 17.7243ZM70.38 15.4267C69.9398 14.9891 69.9398 14.3326 70.38 13.895C70.8202 13.4573 71.4805 13.4573 71.9208 13.895C72.361 14.3326 72.361 14.9891 71.9208 15.4267C71.4805 15.8643 70.8202 15.8643 70.38 15.4267ZM73.0213 21.116C72.5811 21.5536 71.9208 21.5536 71.4805 21.116C71.0403 20.6783 71.0403 20.0219 71.4805 19.5842C71.9208 19.1466 72.5811 19.1466 73.0213 19.5842C73.4615 20.0219 73.4615 20.6783 73.0213 21.116ZM72.6361 13.1838C72.1959 12.7462 72.1959 12.0897 72.6361 11.6521C73.0763 11.2144 73.7367 11.2144 74.1769 11.6521C74.6171 12.0897 74.6171 12.7462 74.1769 13.1838C73.7367 13.5667 73.0763 13.5667 72.6361 13.1838ZM75.3325 18.8184C74.8922 19.256 74.2319 19.256 73.7917 18.8184C73.3515 18.3807 73.3515 17.7243 73.7917 17.2867C74.2319 16.849 74.8922 16.849 75.3325 17.2867C75.7177 17.7243 75.7177 18.4354 75.3325 18.8184ZM77.5886 16.5755C77.1484 17.0131 76.488 17.0131 76.0478 16.5755C75.6076 16.1379 75.6076 15.4814 76.0478 15.0438C76.488 14.6061 77.1484 14.6061 77.5886 15.0438C78.0288 15.4814 78.0288 16.1379 77.5886 16.5755Z" fill="#F3B233"/>
<path d="M87.7136 0H77.4235C76.5981 0 75.9378 0.656455 75.9378 1.47702V7.98687L81.1654 13.1838H87.7136C88.539 13.1838 89.1994 12.5274 89.1994 11.7068V1.47702C89.1994 0.656455 88.539 0 87.7136 0ZM80.9453 4.92341C80.505 5.36105 79.8447 5.36105 79.4045 4.92341C78.9643 4.48578 78.9643 3.82932 79.4045 3.39169C79.8447 2.95405 80.505 2.95405 80.9453 3.39169C81.3855 3.82932 81.3305 4.54048 80.9453 4.92341ZM83.2014 7.22101C82.7612 7.65864 82.1008 7.65864 81.6606 7.22101C81.2204 6.78337 81.2204 6.12692 81.6606 5.68928C82.1008 5.25164 82.7612 5.25164 83.2014 5.68928C83.6416 6.12692 83.6416 6.78337 83.2014 7.22101ZM85.4575 9.4639C85.0173 9.90153 84.357 9.90153 83.9167 9.4639C83.4765 9.02626 83.4765 8.3698 83.9167 7.93217C84.357 7.49453 85.0173 7.49453 85.4575 7.93217C85.8977 8.3698 85.8977 9.02626 85.4575 9.4639Z" fill="#F3B233"/>
<path d="M93.5465 11.5974C93.5465 6.50985 97.4535 2.89934 102.736 2.89934C105.653 2.89934 108.129 3.93873 109.725 5.9081L107.193 8.20569C106.038 6.89278 104.607 6.23632 102.956 6.23632C99.7646 6.23632 97.5085 8.42451 97.5085 11.6521C97.5085 14.8796 99.7646 17.0678 102.956 17.0678C104.662 17.0678 106.093 16.4114 107.193 15.0438L109.725 17.3414C108.129 19.3107 105.708 20.3501 102.736 20.3501C97.4535 20.2954 93.5465 16.6302 93.5465 11.5974Z" fill="white"/>
<path d="M123.151 16.4114H115.282L113.797 20.0219H109.78L117.318 3.17286H121.17L128.764 20.0219H124.637L123.151 16.4114ZM121.941 13.4026L119.244 6.94748L116.548 13.4026H121.941Z" fill="white"/>
<path d="M129.204 18.326L130.525 15.372C131.956 16.4114 134.102 17.1225 136.138 17.1225C138.449 17.1225 139.384 16.3567 139.384 15.3173C139.384 12.1444 129.534 14.3326 129.534 8.09628C129.534 5.25164 131.846 2.84464 136.688 2.84464C138.834 2.84464 140.98 3.33698 142.576 4.32166L141.365 7.27571C139.77 6.40044 138.174 5.9628 136.688 5.9628C134.377 5.9628 133.441 6.83807 133.441 7.87746C133.441 10.9956 143.291 8.86214 143.291 15.0438C143.291 17.8337 140.925 20.2407 136.083 20.2407C133.441 20.2954 130.69 19.4748 129.204 18.326Z" fill="white"/>
<path d="M145.988 3.17286H149.895V20.0219H145.988V3.17286Z" fill="white"/>
<path d="M169.484 3.17286V20.0219H166.238L157.763 9.79212V20.0219H153.912V3.17286H157.158L165.577 13.4026V3.17286H169.484Z" fill="white"/>
<path d="M172.456 11.5974C172.456 6.56455 176.363 2.89934 181.755 2.89934C187.093 2.89934 191.055 6.56455 191.055 11.5974C191.055 16.6302 187.093 20.2954 181.755 20.2954C176.363 20.2954 172.456 16.5755 172.456 11.5974ZM186.983 11.5974C186.983 8.3698 184.727 6.18162 181.7 6.18162C178.674 6.18162 176.418 8.3698 176.418 11.5974C176.418 14.8249 178.674 17.0131 181.7 17.0131C184.727 16.9584 186.983 14.7702 186.983 11.5974Z" fill="white"/>
</svg>
