<svg width="50" height="30" viewBox="0 0 50 30" fill="none" xmlns="http://www.w3.org/2000/svg">
<path d="M48.9059 23.0603C48.8641 22.9818 48.8039 22.9229 48.7255 22.8805C48.65 22.8381 48.5726 22.8164 48.4921 22.8164C48.4105 22.8164 48.3331 22.8381 48.2577 22.8805C48.1822 22.9229 48.1201 22.9818 48.0783 23.0603C48.0365 23.1357 48.0151 23.2164 48.0151 23.3001C48.0151 23.3838 48.0365 23.4644 48.0783 23.5398C48.1221 23.6163 48.1812 23.6783 48.2556 23.7207C48.331 23.7631 48.4105 23.7848 48.4941 23.7848C48.5746 23.7848 48.6541 23.7631 48.7295 23.7207C48.8039 23.6783 48.8631 23.6163 48.9059 23.5398C48.9476 23.4644 48.9691 23.3828 48.9691 23.3001C48.9691 23.2164 48.9487 23.1357 48.9059 23.0603ZM48.6551 23.4799H48.5512L48.488 23.3207H48.4258V23.4799H48.3423V23.0748H48.5094C48.5298 23.0748 48.5716 23.0758 48.6134 23.0975C48.6348 23.1182 48.6551 23.1585 48.6551 23.1988C48.6551 23.2432 48.6348 23.2856 48.593 23.3042L48.6551 23.4799Z" fill="white"/>
<path d="M48.5305 23.1569C48.5305 23.1487 48.4884 23.1487 48.4669 23.1487H48.4248V23.2524H48.4884C48.4884 23.2524 48.51 23.2524 48.5305 23.2442C48.552 23.235 48.552 23.2155 48.552 23.197C48.552 23.1816 48.552 23.1651 48.5305 23.1569Z" fill="white"/>
<path d="M35.1998 -0.00012207C31.3851 0.000911403 27.9097 1.46741 25.2904 3.87333C22.6691 1.46844 19.1958 0.00297862 15.3861 0.00297862C15.3545 0.00297862 15.3229 0.00297862 15.2913 0.00297862C7.18077 0.0567192 0.614258 6.74742 0.614258 14.9832C0.614258 23.253 7.23275 29.9623 15.3861 29.9623C19.1958 29.9623 22.6681 28.4969 25.2894 26.092C24.7421 25.5907 24.2468 25.0358 23.779 24.4549H26.8304C26.3697 25.0275 25.8673 25.5628 25.3302 26.0589H25.3271C25.3281 26.061 25.3281 26.061 25.3281 26.061C25.3159 26.0723 25.3026 26.0806 25.2904 26.093C27.9107 28.502 31.3901 29.9685 35.2059 29.9675C43.3654 29.9654 49.9747 23.2561 49.9727 14.9842C49.9727 14.9811 49.9727 14.979 49.9727 14.977C49.9706 6.70505 43.3552 -0.00012207 35.1998 -0.00012207ZM23.9471 5.42148H26.7539C27.1698 5.92891 27.554 6.46528 27.9005 7.02543H22.8933C23.2133 6.48905 23.568 5.94028 23.9471 5.42148ZM22.0189 8.59941H28.7505C28.992 9.11924 29.204 9.65458 29.3875 10.2044H21.2209C21.3014 10.0494 21.5867 9.42515 22.0189 8.59941ZM14.5749 18.5755H12.8219L13.8655 13.0258L11.4654 18.5755H9.87954L9.58703 13.063L8.5434 18.5755H6.95656L8.31409 11.3598H11.0485L11.1739 15.8285L13.1154 11.3598H15.9548L14.5749 18.5755ZM20.7755 15.4575L20.3994 17.542L20.3372 17.9151L20.2955 18.2128L20.2741 18.4133L20.2537 18.5724H18.7932L18.835 17.9658C18.3978 18.4494 17.7914 18.6737 16.9984 18.6737C16.0588 18.6737 15.4116 18.0195 15.4116 17.0728C15.4116 15.6446 16.5388 14.8095 18.4793 14.8095C18.6668 14.8095 18.9175 14.8271 19.1886 14.855C19.2304 14.6618 19.2518 14.5811 19.2518 14.4737C19.2518 14.0861 18.9379 13.9414 18.1246 13.9414C17.6232 13.9414 17.0596 14.0024 16.6845 14.1037L16.4338 14.1678L16.2881 14.206L16.5174 12.8842C17.3939 12.6589 17.9575 12.5752 18.6047 12.5752C20.1069 12.5752 20.9008 13.1715 20.9008 14.2959C20.9008 14.5873 20.8805 14.8054 20.7755 15.4575ZM24.2631 12.5617C25.7022 12.5617 26.6214 13.3916 26.6214 14.6928C26.6214 15.1279 26.5583 15.5485 26.4105 16.1438H22.9473C22.9259 16.2337 22.9259 16.274 22.9259 16.3298C22.9259 17.0088 23.4478 17.355 24.4496 17.355C25.0764 17.355 25.64 17.2413 26.2658 16.9829L25.9743 18.4525C25.3893 18.6117 24.8053 18.6892 24.1999 18.6892C22.238 18.6892 21.2147 17.787 21.2147 16.058C21.2147 14.0458 22.5091 12.5638 24.2631 12.5617ZM27.9189 22.914H22.6773C22.3593 22.3973 22.0607 21.8671 21.8048 21.3101H28.779C28.5232 21.8651 28.2368 22.3983 27.9189 22.914ZM31.1303 14.0541C30.6706 14.0003 30.212 13.9683 29.8563 13.9683C29.2917 13.9683 29.0002 14.1295 29.0002 14.4447C29.0002 14.7196 29.0838 14.7858 29.8145 15.0834C30.7104 15.44 31.0671 15.9123 31.0671 16.7173C31.0671 18.0567 30.211 18.6758 28.3316 18.6758C28.1033 18.6758 27.7904 18.6582 27.3726 18.6272C27.1636 18.6117 26.9975 18.5952 26.8915 18.5735L26.5786 18.5156L26.4951 18.499L26.7458 17.1452C27.3094 17.3064 27.7915 17.3767 28.3326 17.3767C29.0216 17.3767 29.3345 17.2134 29.3345 16.8476C29.3345 16.5788 29.2295 16.492 28.5202 16.1996C27.5815 15.8161 27.1636 15.3035 27.1636 14.5636C27.1636 13.4795 27.8526 12.5772 29.8155 12.5772C30.2334 12.5772 30.9223 12.6289 31.38 12.693L31.1303 14.0541ZM33.8667 17.262C34.0532 17.262 34.199 17.2434 34.3243 17.2051L34.095 18.5073C33.615 18.6406 33.2399 18.6995 32.8425 18.6995C31.9446 18.6995 31.4645 18.2417 31.4645 17.4098C31.4645 17.2444 31.4849 17.0687 31.5063 16.8827L31.6113 16.305L31.6939 15.841L32.5082 11.3598H34.2397L33.9901 12.7075H34.8869L34.6362 14.1357H33.7383L33.2797 16.584C33.2583 16.6905 33.2583 16.7711 33.2583 16.8258C33.2583 17.1307 33.4468 17.2599 33.8667 17.262ZM38.136 14.3589C37.3013 14.3589 37.0313 14.9894 36.4045 18.5786H34.6505L35.7155 12.7085H37.3024L37.1352 13.5993C37.6784 12.9059 38.0942 12.6455 38.6589 12.6455C38.7221 12.6455 38.7852 12.6517 38.8474 12.6599C38.8474 12.663 38.9116 12.6744 38.9962 12.6951C39.0166 12.7013 39.037 12.7013 39.1837 12.7591L38.56 14.4179L38.3511 14.3745C38.2675 14.3641 38.2053 14.3589 38.136 14.3589ZM41.2333 18.7326C39.2459 18.7326 38.455 17.5152 38.455 16.0259C38.455 13.9476 39.8116 12.5369 41.8988 12.5369C43.717 12.5369 44.6771 13.6965 44.6771 15.1847C44.6771 15.5495 44.6771 15.5743 44.6353 15.9154C44.3632 17.8676 43.027 18.7347 41.2333 18.7326ZM44.8228 18.5755C44.5721 18.5755 44.3632 18.3699 44.3632 18.1156C44.3632 17.8655 44.5721 17.6599 44.8228 17.6599C45.0735 17.6599 45.2825 17.8655 45.2825 18.1156C45.2825 18.3709 45.0735 18.5755 44.8228 18.5755Z" fill="white"/>
<path d="M44.8235 17.7682C44.636 17.7682 44.4689 17.9242 44.4689 18.1154C44.4689 18.3118 44.636 18.4668 44.8235 18.4668C45.0121 18.4668 45.1578 18.3097 45.1578 18.1154C45.1578 17.9253 45.0121 17.7682 44.8235 17.7682ZM44.9897 18.3201H44.8847L44.8215 18.1619H44.7583V18.3201H44.6747V17.9139H44.8419C44.8643 17.9139 44.9061 17.916 44.9479 17.9377C44.9683 17.9573 44.9897 17.9976 44.9897 18.039C44.9897 18.0824 44.9683 18.1258 44.9265 18.1444L44.9897 18.3201Z" fill="white"/>
<path d="M44.8637 17.9973C44.8647 17.988 44.8227 17.988 44.8022 17.988H44.7581V18.0918H44.8217C44.8217 18.0918 44.8432 18.0918 44.8637 18.0836C44.8853 18.0743 44.8853 18.0548 44.8853 18.0374C44.8853 18.0219 44.8853 18.0055 44.8637 17.9973Z" fill="white"/>
<path d="M24.2393 13.9055C23.6757 13.9055 23.2793 14.2786 23.1121 14.9586L25.0536 14.9628C25.0536 14.8346 25.0536 14.7354 25.0536 14.6589C25.0536 14.1825 24.7611 13.9055 24.2393 13.9055Z" fill="white"/>
<path d="M18.5815 15.9386C17.6021 15.9376 17.1007 16.2383 17.1007 16.8315C17.1007 17.1963 17.331 17.4299 17.7264 17.4299C18.4368 17.4299 18.9372 16.8284 18.979 15.9603C18.7905 15.9407 18.7069 15.9386 18.5815 15.9386Z" fill="white"/>
<path d="M41.8583 13.974C40.9604 13.974 40.4182 15.0436 40.4182 15.9862C40.4182 16.784 40.7933 17.3194 41.4201 17.307C41.7971 17.307 42.6094 16.7809 42.7562 15.8684C42.797 15.6544 42.8184 15.4198 42.8184 15.1646C42.8184 14.5527 42.5687 13.9719 41.8583 13.974Z" fill="white"/>
</svg>
