<?xml version="1.0" encoding="UTF-8"?>
<svg xmlns="http://www.w3.org/2000/svg" xmlns:xlink="http://www.w3.org/1999/xlink" width="80px" height="80px" viewBox="0 0 80 80" version="1.1">
    <title>Maxwingaming Logo black </title>
    <g id="Maxwingaming-Logo-black-" stroke="none" stroke-width="1" fill="none" fill-rule="evenodd">
        <g id="mawin-bet" transform="translate(0.000000, 10.000000)" fill="#000000" fill-rule="nonzero">
            <path d="M68.9030709,30.7180304 C74.8461348,30.7180304 79.6639404,35.5358357 79.6639404,41.4789 L79.6639404,48.8560943 C79.6639404,54.7991587 74.8461348,59.6169639 68.9030709,59.6169639 L68.848683,59.6169639 C62.9056187,59.6169639 58.0878135,54.7991587 58.0878135,48.8560943 L58.0878135,41.4789 C58.0878135,35.5358357 62.9056187,30.7180304 68.848683,30.7180304 L68.9030709,30.7180304 Z M29.4678313,0.74807913 L29.5207609,0.768396957 C35.304473,2.98855565 38.1933035,9.47697522 35.9731443,15.2606874 L22.0817422,51.4490274 C19.861583,57.2327391 13.3731635,60.1215696 7.58945174,57.9014109 L7.53652217,57.881093 C1.75281,55.6609339 -1.13602043,49.1725143 1.0841387,43.3888026 L14.9755409,7.20046261 C17.1957,1.41675043 23.6841196,-1.47208 29.4678313,0.74807913 Z M56.8659135,0.74807913 L56.918843,0.768396957 C62.7025552,2.98855565 65.5913857,9.47697522 63.3712265,15.2606874 L49.4798243,51.4490274 C47.2596652,57.2327391 40.7712457,60.1215696 34.9875339,57.9014109 L34.9346043,57.881093 C29.1508922,55.6609339 26.2620617,49.1725143 28.4822209,43.3888026 L42.373623,7.20046261 C44.5937822,1.41675043 51.0822017,-1.47208 56.8659135,0.74807913 Z" id="Combined-Shape"/>
        </g>
    </g>
</svg>
