<svg width="13" height="12" viewBox="0 0 13 12" fill="none" xmlns="http://www.w3.org/2000/svg">
<path fill-rule="evenodd" clip-rule="evenodd" d="M6.53898 0C9.81253 0 12.4473 2.63481 12.4473 5.9882C12.4473 9.26175 9.81253 11.8966 6.53898 11.8966C4.38323 11.8966 2.62669 10.8586 1.50889 9.1819C2.54685 7.74474 3.50496 6.14788 4.38323 4.47119C4.38323 4.47119 4.1437 9.7408 5.98008 9.82064C7.41725 10.14 9.25363 5.66883 9.25363 5.66883C9.09394 5.66883 10.611 8.30363 11.0102 8.06411C11.1699 7.98426 10.7706 7.42536 10.4513 6.70678C10.1319 5.9882 9.97221 5.03009 9.89237 4.63087C9.81253 3.99213 9.89237 3.7526 9.41331 3.67276C9.0141 3.59292 8.85441 3.91229 8.61489 4.47119C7.8963 6.06804 6.53898 8.86253 6.05992 8.78269C5.34134 8.623 5.50102 2.63481 5.50102 2.15575C5.58087 1.6767 5.50102 1.43717 5.18165 1.27748C4.62276 1.27748 4.38323 1.91622 4.22354 2.31544C3.0259 4.39135 1.90811 6.30757 0.790309 7.74474C0.630624 7.18584 0.550781 6.5471 0.550781 5.9882C0.550781 2.63481 3.18559 0 6.53898 0Z" fill="#F29201"/>
</svg>
