<?xml version="1.0" encoding="UTF-8"?>
<svg width="531px" height="235px" viewBox="0 0 531 235" version="1.1" xmlns="http://www.w3.org/2000/svg" xmlns:xlink="http://www.w3.org/1999/xlink">
    <!-- Generator: Sketch 45.2 (43514) - http://www.bohemiancoding.com/sketch -->
    <title>Group 30</title>
    <desc>Created with Sketch.</desc>
    <defs></defs>
    <g id="Page-1" stroke="none" stroke-width="1" fill="none" fill-rule="evenodd">
        <g id="170518_NL" transform="translate(-155.000000, -162.000000)">
            <g id="Group-30" transform="translate(155.000000, 162.276000)">
                <path d="M127.8775,185.6816 L127.8775,185.6816 C123.1005,183.5546 120.9325,177.9066 123.0595,173.1296 L197.4055,6.2456 C199.5335,1.4676 205.1825,-0.7004 209.9585,1.4266 C214.7365,3.5526 216.9045,9.2016 214.7785,13.9786 L140.4315,180.8636 C138.3045,185.6406 132.6555,187.8096 127.8775,185.6816" id="Fill-6" fill="#BBDC00"></path>
                <path d="M159.1318,185.6816 L159.1318,185.6816 C154.3548,183.5546 152.1868,177.9066 154.3138,173.1296 L210.1208,47.8136 C212.2478,43.0366 217.8958,40.8686 222.6738,42.9956 C227.4508,45.1246 229.6188,50.7726 227.4918,55.5496 L171.6858,180.8636 C169.5588,185.6406 163.9098,187.8096 159.1318,185.6816" id="Fill-8" fill="#BBDC00"></path>
                <path d="M190.3861,185.6816 L190.3861,185.6816 C185.6091,183.5546 183.4411,177.9066 185.5681,173.1296 L221.9361,90.5026 C224.0631,85.7256 229.7121,83.5576 234.4901,85.6846 C239.2661,87.8126 241.4341,93.4616 239.3071,98.2386 L202.9401,180.8636 C200.8131,185.6406 195.1641,187.8096 190.3861,185.6816" id="Fill-9" fill="#8FCF69"></path>
                <path d="M221.2592,185.6816 L221.2592,185.6816 C216.4822,183.5546 214.3142,177.9066 216.4412,173.1296 L233.7522,134.3346 C235.8782,129.5576 241.5272,127.3896 246.3052,129.5166 C251.0822,131.6456 253.2502,137.2936 251.1232,142.0706 L233.8132,180.8636 C231.6862,185.6406 226.0372,187.8096 221.2592,185.6816" id="Fill-10" fill="#4DC0A1"></path>
                <path d="M315.2766,185.6816 L315.2766,185.6816 C310.4996,183.5546 308.3306,177.9066 310.4586,173.1296 L327.7676,134.3346 C329.8956,129.5576 335.5446,127.3896 340.3216,129.5166 C345.0996,131.6456 347.2656,137.2936 345.1406,142.0706 L327.8286,180.8636 C325.7036,185.6406 320.0546,187.8096 315.2766,185.6816" id="Fill-11" fill="#66CCCC"></path>
                <path d="M346.5309,185.6816 L346.5309,185.6816 C341.7539,183.5546 339.5849,177.9066 341.7129,173.1296 L359.0219,134.3346 C361.1499,129.5576 366.7989,127.3896 371.5759,129.5166 C376.3539,131.6456 378.5199,137.2936 376.3949,142.0706 L359.0829,180.8636 C356.9579,185.6406 351.3089,187.8096 346.5309,185.6816" id="Fill-12" fill="#EE88D0"></path>
                <path d="M377.4041,185.6816 L377.4041,185.6816 C372.6271,183.5546 370.4581,177.9066 372.5861,173.1296 L389.8951,134.3346 C392.0231,129.5576 397.6721,127.3896 402.4491,129.5166 C407.2271,131.6456 409.3931,137.2936 407.2681,142.0706 L389.9561,180.8636 C387.8311,185.6406 382.1821,187.8096 377.4041,185.6816" id="Fill-13" fill="#EE88D0"></path>
                <path d="M252.1324,185.6816 L252.1324,185.6816 C247.3554,183.5546 245.1874,177.9066 247.3144,173.1296 L321.6604,6.2456 C323.7884,1.4676 329.4374,-0.7004 334.2134,1.4266 C338.9914,3.5526 341.1594,9.2016 339.0334,13.9786 L264.6864,180.8636 C262.5594,185.6406 256.9104,187.8096 252.1324,185.6816" id="Fill-14" fill="#4DC0A1"></path>
                <path d="M283.6411,185.6816 L283.6411,185.6816 C278.8641,183.5546 276.6951,177.9066 278.8231,173.1296 L353.1691,6.2456 C355.2961,1.4676 360.9441,-0.7004 365.7221,1.4266 C370.4991,3.5526 372.6681,9.2016 370.5401,13.9786 L296.1931,180.8636 C294.0681,185.6406 288.4191,187.8096 283.6411,185.6816" id="Fill-15" fill="#66CCCC"></path>
                <polygon id="Fill-16" fill="#FFFFFF" points="449.568 233.8584 449.568 224.7654 431.047 224.7654 431.047 233.8584 425.24 233.8584 425.24 211.0844 431.047 211.0844 431.047 220.2944 449.568 220.2944 449.568 211.0844 455.375 211.0844 455.375 233.8584"></polygon>
                <polygon id="Fill-17" fill="#FFFFFF" points="206.3929 233.8584 206.3929 211.0844 232.1189 211.0844 232.1189 215.5644 212.1989 215.5544 212.1989 220.2894 230.6189 220.2844 230.6189 224.7644 212.1989 224.7614 212.1989 229.3704 232.1189 229.3794 232.1189 233.8584"></polygon>
                <polygon id="Fill-18" fill="#FFFFFF" points="187.9219 233.8584 187.9219 224.7654 169.4029 224.7654 169.4029 233.8584 163.5939 233.8584 163.5939 211.0844 169.4029 211.0844 169.4029 220.2944 187.9219 220.2944 187.9219 211.0844 193.7289 211.0844 193.7289 233.8584"></polygon>
                <path d="M5.9674,212.904 L5.9674,233.858 L0.1604,233.858 L0.1604,211.085 L11.8564,211.085 L26.3284,232.269 L26.3284,230.567 L26.3284,211.085 L32.1354,211.085 L32.1354,233.858 L26.3194,233.858 C26.2564,233.86 20.3944,233.858 20.3944,233.858 L5.9674,212.904 Z" id="Fill-19" fill="#FFFFFF"></path>
                <path d="M291.3937,212.904 L291.3937,233.858 L285.5877,233.858 L285.5877,211.085 L297.2837,211.085 L311.7547,232.269 L311.7547,230.567 L311.7547,211.085 L317.5617,211.085 L317.5617,233.858 L311.7457,233.858 C311.6827,233.86 305.8207,233.858 305.8207,233.858 L291.3937,212.904 Z" id="Fill-20" fill="#FFFFFF"></path>
                <polygon id="Fill-21" fill="#FFFFFF" points="136.9386 233.8628 136.9386 215.7858 125.9436 215.7838 125.9436 211.0788 154.1806 211.0788 154.1806 215.7738 143.1846 215.7858 143.1846 233.8628"></polygon>
                <polygon id="Fill-22" fill="#FFFFFF" points="476.585 233.8628 476.585 215.7858 465.591 215.7838 465.591 211.0788 493.828 211.0788 493.828 215.7738 482.833 215.7858 482.833 233.8628"></polygon>
                <polygon id="Fill-23" fill="#FFFFFF" points="330.2978 233.8703 330.2978 211.0713 336.5438 211.0713 336.5748 229.2873 354.2268 229.2813 354.2238 233.8703"></polygon>
                <polygon id="Fill-24" fill="#FFFFFF" points="363.134 211.048 369.38 211.048 369.38 233.909 363.134 233.909"></polygon>
                <path d="M94.3213,215.5439 L94.3213,223.1909 L107.1863,223.1849 C108.9083,223.1849 110.3123,221.7809 110.3123,220.0569 L110.3123,218.7029 C110.3123,216.9769 108.9083,215.5749 107.1863,215.5749 L94.3213,215.5439 Z M109.3523,233.8769 L105.0403,227.8309 L94.3073,227.8229 L94.3033,233.8849 L88.0303,233.8849 L88.0303,211.0479 L110.0113,211.0569 C113.3633,211.0569 116.0943,213.7879 116.0943,217.1419 L116.0943,221.7489 C116.0943,225.9829 111.6333,227.8029 111.6333,227.8029 L116.0083,233.8799 L109.3523,233.8769 Z" id="Fill-25" fill="#FFFFFF"></path>
                <path d="M251.1362,215.5439 L251.1362,223.1909 L263.9992,223.1849 C265.7222,223.1849 267.1262,221.7809 267.1262,220.0569 L267.1262,218.7029 C267.1262,216.9769 265.7222,215.5749 263.9992,215.5749 L251.1362,215.5439 Z M266.1672,233.8769 L261.8542,227.8309 L251.1222,227.8229 L251.1182,233.8849 L244.8442,233.8849 L244.8442,211.0479 L266.8242,211.0569 C270.1782,211.0569 272.9072,213.7879 272.9072,217.1419 L272.9072,221.7489 C272.9072,225.9829 268.4482,227.8029 268.4482,227.8029 L272.8222,233.8799 L266.1672,233.8769 Z" id="Fill-26" fill="#FFFFFF"></path>
                <path d="M54.1815,215.6673 C51.9785,215.6673 50.1855,217.4603 50.1855,219.6653 L50.1855,225.2843 C50.1855,227.4893 51.9785,229.2823 54.1815,229.2823 L66.0355,229.2823 C68.2415,229.2823 70.0345,227.4893 70.0345,225.2843 L70.0345,219.6653 C70.0345,217.4603 68.2415,215.6673 66.0355,215.6673 L54.1815,215.6673 Z M51.2585,233.9813 C47.7125,233.9813 44.8265,231.0933 44.8265,227.5453 L44.8265,217.4343 C44.8265,213.8863 47.7125,211.0003 51.2585,211.0003 L69.0385,211.0003 C72.5845,211.0003 75.4725,213.8863 75.4725,217.4343 L75.4725,227.5453 C75.4725,231.0933 72.5845,233.9813 69.0385,233.9813 L51.2585,233.9813 Z" id="Fill-27" fill="#FFFFFF"></path>
                <path d="M388.4232,233.9745 C384.8772,233.9745 381.9912,231.0885 381.9912,227.5425 L381.9912,217.4285 C381.9912,213.8815 384.8772,210.9975 388.4232,210.9975 L406.2032,210.9975 C409.2122,210.9975 411.8352,213.1425 412.4772,216.0545 L406.7962,217.9475 C406.1362,216.5625 404.7502,215.6625 403.1992,215.6625 L391.3462,215.6625 C389.1432,215.6625 387.3502,217.4565 387.3502,219.6605 L387.3502,225.2795 C387.3502,227.4845 389.1432,229.2785 391.3462,229.2785 L403.1992,229.2785 C405.4062,229.2785 407.1982,227.4845 407.1982,225.2795 L407.1982,225.1395 C407.1982,224.8525 406.9652,224.6185 406.6792,224.6185 L397.2842,224.6185 L397.3222,221.4435 L412.6142,221.4435 L412.6372,227.5425 C412.6372,231.0885 409.7492,233.9745 406.2032,233.9745 L388.4232,233.9745 Z" id="Fill-28" fill="#FFFFFF"></path>
                <path d="M530.2183,218.0763 L530.2183,217.6843 C530.2183,214.0043 527.2053,210.9933 523.5253,210.9933 L510.4873,210.9933 C506.8063,210.9933 503.7943,214.0043 503.7943,217.6843 L503.7943,218.1963 C503.7943,221.8773 506.8063,224.8883 510.4873,224.8883 L522.7953,224.9053 C524.1613,224.9053 525.2803,225.8563 525.2803,227.2223 C525.2803,228.5903 524.1613,229.7073 522.7953,229.7073 L511.7733,229.7073 C510.4073,229.7073 509.2883,228.7563 509.2883,227.3883 C509.2883,227.2303 509.3083,227.0733 509.3373,226.9233 L503.7483,226.9373 L503.7493,227.3303 C503.7603,231.0113 506.7793,234.0143 510.4593,234.0033 L523.7203,233.9673 C527.4023,233.9563 530.4053,230.9363 530.3953,227.2563 L530.3933,226.7453 C530.3833,223.0633 527.9943,220.5213 524.3133,220.5293 L511.3693,220.4243 C511.1613,220.4243 510.9623,220.3923 510.7693,220.3423 C509.6913,220.0723 508.8843,219.0993 508.8843,217.9393 C508.8843,217.2443 509.1743,216.6153 509.6393,216.1633 C510.0923,215.6983 510.7203,215.4063 511.4173,215.4063 L522.2143,215.4063 C523.5803,215.4063 524.6993,216.5243 524.6993,217.8923 C524.6993,217.9563 524.6853,218.0153 524.6813,218.0763 L530.2183,218.0763 Z" id="Fill-29" fill="#FFFFFF"></path>
            </g>
        </g>
    </g>
</svg>