<svg width="20" height="20" viewBox="0 0 20 20" fill="none" xmlns="http://www.w3.org/2000/svg">
<mask id="mask0" mask-type="alpha" maskUnits="userSpaceOnUse" x="0" y="0" width="20" height="20">
<circle cx="10" cy="10" r="10" fill="#C4C4C4"/>
</mask>
<g mask="url(#mask0)">
<path d="M-2.94043 15.625C-2.94043 18.0413 -0.405577 20 2.72134 20H17.2802C20.4071 20 22.9419 18.0413 22.9419 15.625V4.375C22.9419 1.95875 20.4071 0 17.2802 0H2.72134C-0.405577 0 -2.94043 1.95875 -2.94043 4.375V15.625Z" fill="#170952"/>
<path d="M-2.94043 9.4736C-2.94043 9.76426 -2.7407 9.99994 -2.49416 9.99994H-1.719L2.41459 6.80578V9.99994H4.64583V6.80578L8.77937 9.99994H9.55453C9.80097 9.99994 10.0008 9.76426 10.0008 9.4736V9.05614L6.45436 6.31575H10.0007V3.68419H6.45431L10.0007 0.943807V0.526338C10.0007 0.235624 9.80092 0 9.55448 0H8.77932L4.64573 3.19416V0H2.72133C2.61839 0 2.51608 0.00212313 2.41449 0.00631582V3.19416L-0.624889 0.845513C-1.09154 1.11013 -1.50377 1.42867 -1.84622 1.78926L0.606059 3.68419H-2.87025C-2.91644 3.90921 -2.94043 4.13994 -2.94043 4.375V6.31575H0.606009L-2.94043 9.05614V9.4736Z" fill="#F5F5F5"/>
<path d="M10.0007 4.21052H4.19951V0H2.86081V4.21052H-2.94043V5.78942H2.86081V9.99994H4.19951V5.78942H10.0007V4.21052Z" fill="#F23548"/>
<path fill-rule="evenodd" clip-rule="evenodd" d="M-1.61719 1.5649L1.15076 3.68403H1.9704L-1.22435 1.23816C-1.3623 1.34183 -1.49344 1.45089 -1.61719 1.5649Z" fill="#FF4B55"/>
<path d="M5.4671 3.68418L9.93454 0.263944C9.85689 0.108988 9.7199 0 9.55616 0H9.45961L4.64746 3.68418H5.4671Z" fill="#FF4B55"/>
<path d="M1.58194 6.31506L-2.87695 9.72875C-2.80006 9.88746 -2.66095 9.99925 -2.49483 9.99925H-2.41067L2.40163 6.31506H1.58194Z" fill="#FF4B55"/>
<path d="M9.99267 9.51423L5.81378 6.31506H4.99414L9.73961 9.94809C9.88176 9.87029 9.97927 9.70722 9.99267 9.51423Z" fill="#FF4B55"/>
<path d="M3.61268 14.1812L3.90517 15.1704L4.84253 14.788C4.92251 14.7553 4.9952 14.8488 4.94639 14.9213L4.37378 15.7723L5.25007 16.2846C5.32483 16.3283 5.29889 16.4448 5.21302 16.4509L4.20649 16.5229L4.36193 17.5441C4.37519 17.6313 4.2701 17.6831 4.21189 17.6182L3.52936 16.8569L2.84684 17.6182C2.78863 17.6831 2.68354 17.6312 2.6968 17.5441L2.85224 16.5229L1.8457 16.4509C1.75984 16.4448 1.73385 16.3283 1.80865 16.2846L2.68494 15.7723L2.11234 14.9213C2.06353 14.8488 2.13622 14.7553 2.2162 14.788L3.15355 15.1704L3.44605 14.1812C3.47111 14.0968 3.58775 14.0968 3.61268 14.1812Z" fill="#F23548"/>
<path d="M17.114 3.57204L17.309 4.23145L17.9338 3.97652C17.987 3.9548 18.0356 4.01703 18.003 4.06545L17.6213 4.63281L18.2055 4.97433C18.2553 5.00342 18.238 5.08111 18.1807 5.08516L17.5098 5.13315L17.6133 5.81392C17.6222 5.87204 17.5521 5.90659 17.5133 5.86327L17.0583 5.3558L16.6033 5.86327C16.5645 5.90653 16.4945 5.87198 16.5033 5.81392L16.6069 5.13315L15.9359 5.08516C15.8786 5.08105 15.8613 5.00342 15.9112 4.97433L16.4953 4.63281L16.1136 4.06545C16.0811 4.01703 16.1296 3.9548 16.1828 3.97652L16.8077 4.23145L17.0027 3.57204C17.0195 3.5157 17.0974 3.5157 17.114 3.57204Z" fill="#F23548"/>
<path d="M13.5845 8.27793L13.7796 8.93735L14.4045 8.68242C14.4577 8.66069 14.5063 8.72292 14.4737 8.77135L14.092 9.33872L14.6762 9.68024C14.726 9.70933 14.7087 9.78703 14.6514 9.79108L13.9804 9.83907L14.0841 10.5199C14.0929 10.578 14.0228 10.6125 13.984 10.5692L13.529 10.0617L13.074 10.5692C13.0352 10.6125 12.9651 10.5779 12.9739 10.5199L13.0776 9.83907L12.4066 9.79108C12.3493 9.78697 12.332 9.70933 12.3819 9.68024L12.966 9.33872L12.5844 8.77135C12.5518 8.72292 12.6003 8.66069 12.6535 8.68242L13.2785 8.93735L13.4735 8.27793C13.4901 8.22165 13.5679 8.22165 13.5845 8.27793Z" fill="#F23548"/>
<path d="M20.6441 5.92436L20.8391 6.5838L21.464 6.32887C21.5173 6.30714 21.5658 6.36937 21.5332 6.41779L21.1515 6.98518L21.7357 7.32671C21.7856 7.3558 21.7683 7.4335 21.711 7.43755L21.04 7.48554L21.1436 8.16634C21.1525 8.22446 21.0824 8.25901 21.0436 8.21568L20.5885 7.7082L20.1335 8.21568C20.0947 8.25895 20.0247 8.2244 20.0335 8.16634L20.1372 7.48554L19.4662 7.43755C19.4089 7.43344 19.3916 7.3558 19.4414 7.32671L20.0256 6.98518L19.6439 6.41779C19.6113 6.36937 19.6599 6.30714 19.7131 6.32887L20.3381 6.5838L20.5331 5.92436C20.5497 5.86815 20.6274 5.86815 20.6441 5.92436Z" fill="#F23548"/>
<path d="M17.114 14.1601L17.309 14.8195L17.9338 14.5645C17.987 14.5428 18.0356 14.605 18.003 14.6535L17.6213 15.2209L18.2055 15.5624C18.2553 15.5915 18.238 15.6692 18.1807 15.6732L17.5098 15.7212L17.6133 16.4021C17.6222 16.4602 17.5521 16.4947 17.5133 16.4514L17.0583 15.9439L16.6033 16.4514C16.5645 16.4947 16.4945 16.4601 16.5033 16.4021L16.6069 15.7212L15.9359 15.6732C15.8786 15.6692 15.8613 15.5915 15.9112 15.5624L16.4953 15.2209L16.1136 14.6535C16.0811 14.605 16.1296 14.5428 16.1828 14.5645L16.8077 14.8195L17.0027 14.1601C17.0195 14.1039 17.0974 14.1039 17.114 14.1601Z" fill="#F23548"/>
<path d="M18.1407 9.48384L17.9048 10.2242L17.1594 10.2302C17.0629 10.2311 17.0229 10.36 17.1006 10.42L17.7002 10.8836L17.4753 11.6276C17.4463 11.724 17.551 11.8036 17.6295 11.7448L18.236 11.2911L18.8425 11.7448C18.921 11.8035 19.0257 11.7239 18.9967 11.6276L18.7718 10.8836L19.3715 10.42C19.4492 10.3599 19.4091 10.2311 19.3127 10.2302L18.5672 10.2242L18.3314 9.48384C18.3007 9.38804 18.1712 9.38804 18.1407 9.48384Z" fill="#F23548"/>
</g>
</svg>
