<svg width="86" height="98" viewBox="0 0 86 98" fill="none" xmlns="http://www.w3.org/2000/svg">
<mask id="mask0" style="mask-type:alpha" maskUnits="userSpaceOnUse" x="0" y="0" width="86" height="98">
<path d="M41.5205 2.39739C42.436 1.86754 43.564 1.86754 44.4795 2.39739L82.5205 24.4143C83.436 24.9442 84 25.9234 84 26.9831V71.0169C84 72.0766 83.436 73.0558 82.5205 73.5857L44.4795 95.6026C43.564 96.1325 42.436 96.1325 41.5205 95.6026L3.47946 73.5857C2.56397 73.0558 2 72.0766 2 71.0169V26.9831C2 25.9234 2.56397 24.9442 3.47946 24.4143L41.5205 2.39739Z" fill="#900CB8" stroke="url(#paint0_linear)" stroke-width="4"/>
</mask>
<g mask="url(#mask0)">
<path d="M40.5 49.9996C41.4602 49.4923 42.6431 49.4923 43.6033 49.9996L83.4484 71.4607C84.4085 71.968 85 72.9056 85 73.9202V116.08C85 117.095 84.4085 118.032 83.4484 118.54L43.5516 139.62C42.5915 140.127 41.4085 140.127 40.4484 139.62L0.55163 118.54C-0.408521 118.032 -1 117.095 -1 116.08V73.9202C-1 72.9056 -0.408522 71.968 0.551629 71.4607L40.5 49.9996Z" fill="url(#paint1_linear)" fill-opacity="0.3"/>
</g>
<path fill-rule="evenodd" clip-rule="evenodd" d="M41.9591 24.881C40.8922 24.5951 39.7955 25.2283 39.5097 26.2952L37.5901 33.4592H50.1892C51.2938 33.4592 52.1892 34.3547 52.1892 35.4592V59.2474L56.5387 60.4129C57.6057 60.6988 58.7023 60.0656 58.9882 58.9987L65.8592 33.3556C66.1451 32.2887 65.5119 31.192 64.445 30.9061L41.9591 24.881Z" fill="#E4590B"/>
<path d="M21.9296 38.265C21.9296 37.1604 22.825 36.265 23.9296 36.265H47.2086C48.3132 36.265 49.2086 37.1604 49.2086 38.265V64.8126C49.2086 65.9172 48.3132 66.8126 47.2086 66.8126H23.9296C22.825 66.8126 21.9296 65.9172 21.9296 64.8126V38.265Z" fill="#E4590B"/>
<path d="M29.2057 52.1413C28.9401 51.7843 28.9401 51.2935 29.2058 50.9366L34.7804 43.4455C35.1788 42.9101 35.9757 42.9101 36.3742 43.4455L41.9488 50.9366C42.2144 51.2935 42.2144 51.7843 41.9488 52.1413L36.3742 59.6324C35.9757 60.1678 35.1788 60.1678 34.7804 59.6324L29.2057 52.1413Z" fill="#0E152F"/>
<path d="M41.5205 2.39739C42.436 1.86754 43.564 1.86754 44.4795 2.39739L82.5205 24.4143C83.436 24.9442 84 25.9234 84 26.9831V71.0169C84 72.0766 83.436 73.0558 82.5205 73.5857L44.4795 95.6026C43.564 96.1325 42.436 96.1325 41.5205 95.6026L3.47946 73.5857C2.56397 73.0558 2 72.0766 2 71.0169V26.9831C2 25.9234 2.56397 24.9442 3.47946 24.4143L41.5205 2.39739Z" stroke="url(#paint2_linear)" stroke-width="4"/>
<defs>
<linearGradient id="paint0_linear" x1="43" y1="2" x2="43" y2="96" gradientUnits="userSpaceOnUse">
<stop stop-color="#E283F6"/>
<stop offset="1" stop-color="#691DB4"/>
</linearGradient>
<linearGradient id="paint1_linear" x1="42" y1="50" x2="42" y2="140" gradientUnits="userSpaceOnUse">
<stop stop-color="#E86216"/>
<stop offset="1" stop-color="#0E152F"/>
</linearGradient>
<linearGradient id="paint2_linear" x1="43" y1="2" x2="43" y2="96" gradientUnits="userSpaceOnUse">
<stop stop-color="#E4590A"/>
<stop offset="1" stop-color="#F37833"/>
</linearGradient>
</defs>
</svg>
