<svg width="86" height="98" viewBox="0 0 86 98" fill="none" xmlns="http://www.w3.org/2000/svg">
<mask id="mask0" style="mask-type:alpha" maskUnits="userSpaceOnUse" x="0" y="0" width="86" height="98">
<path d="M41.5205 2.39739C42.436 1.86754 43.564 1.86754 44.4795 2.39739L82.5205 24.4143C83.436 24.9442 84 25.9234 84 26.9831V71.0169C84 72.0766 83.436 73.0558 82.5205 73.5857L44.4795 95.6026C43.564 96.1325 42.436 96.1325 41.5205 95.6026L3.47946 73.5857C2.56397 73.0558 2 72.0766 2 71.0169V26.9831C2 25.9234 2.56397 24.9442 3.47946 24.4143L41.5205 2.39739Z" fill="#900CB8" stroke="url(#paint0_linear)" stroke-width="4"/>
</mask>
<g mask="url(#mask0)">
<path d="M40.5 49.9996C41.4602 49.4923 42.6431 49.4923 43.6033 49.9996L83.4484 71.4607C84.4085 71.968 85 72.9056 85 73.9202V116.08C85 117.095 84.4085 118.032 83.4484 118.54L43.5516 139.62C42.5915 140.127 41.4085 140.127 40.4484 139.62L0.55163 118.54C-0.408521 118.032 -1 117.095 -1 116.08V73.9202C-1 72.9056 -0.408522 71.968 0.551629 71.4607L40.5 49.9996Z" fill="url(#paint1_linear)" fill-opacity="0.3"/>
</g>
<path fill-rule="evenodd" clip-rule="evenodd" d="M23 33C22.4477 33 22 33.4477 22 34V61.1429C22 61.6951 22.4477 62.1429 23 62.1429H27.6756H30.6217L35.4704 67L40.6513 62.1429H63C63.5523 62.1429 64 61.6951 64 61.1429V46.6V34C64 33.4477 63.5523 33 63 33H23ZM33 50C34.6569 50 36 48.6569 36 47C36 45.3431 34.6569 44 33 44C31.3431 44 30 45.3431 30 47C30 48.6569 31.3431 50 33 50ZM46 47C46 48.6569 44.6569 50 43 50C41.3431 50 40 48.6569 40 47C40 45.3431 41.3431 44 43 44C44.6569 44 46 45.3431 46 47ZM53 50C54.6569 50 56 48.6569 56 47C56 45.3431 54.6569 44 53 44C51.3431 44 50 45.3431 50 47C50 48.6569 51.3431 50 53 50Z" fill="#E4590B"/>
<path d="M41.5205 2.39739C42.436 1.86754 43.564 1.86754 44.4795 2.39739L82.5205 24.4143C83.436 24.9442 84 25.9234 84 26.9831V71.0169C84 72.0766 83.436 73.0558 82.5205 73.5857L44.4795 95.6026C43.564 96.1325 42.436 96.1325 41.5205 95.6026L3.47946 73.5857C2.56397 73.0558 2 72.0766 2 71.0169V26.9831C2 25.9234 2.56397 24.9442 3.47946 24.4143L41.5205 2.39739Z" stroke="url(#paint2_linear)" stroke-width="4"/>
<defs>
<linearGradient id="paint0_linear" x1="43" y1="2" x2="43" y2="96" gradientUnits="userSpaceOnUse">
<stop stop-color="#E283F6"/>
<stop offset="1" stop-color="#691DB4"/>
</linearGradient>
<linearGradient id="paint1_linear" x1="42" y1="50" x2="42" y2="140" gradientUnits="userSpaceOnUse">
<stop stop-color="#E86216"/>
<stop offset="1" stop-color="#0E152F"/>
</linearGradient>
<linearGradient id="paint2_linear" x1="43" y1="2" x2="43" y2="96" gradientUnits="userSpaceOnUse">
<stop stop-color="#E4590A"/>
<stop offset="1" stop-color="#F37833"/>
</linearGradient>
</defs>
</svg>
