<svg width="86" height="98" viewBox="0 0 86 98" fill="none" xmlns="http://www.w3.org/2000/svg">
<mask id="mask0" style="mask-type:alpha" maskUnits="userSpaceOnUse" x="0" y="0" width="86" height="98">
<path d="M41.5205 2.39739C42.436 1.86754 43.564 1.86754 44.4795 2.39739L82.5205 24.4143C83.436 24.9442 84 25.9234 84 26.9831V71.0169C84 72.0766 83.436 73.0558 82.5205 73.5857L44.4795 95.6026C43.564 96.1325 42.436 96.1325 41.5205 95.6026L3.47946 73.5857C2.56397 73.0558 2 72.0766 2 71.0169V26.9831C2 25.9234 2.56397 24.9442 3.47946 24.4143L41.5205 2.39739Z" fill="#900CB8" stroke="url(#paint0_linear)" stroke-width="4"/>
</mask>
<g mask="url(#mask0)">
<path d="M40.5 49.9996C41.4602 49.4923 42.6431 49.4923 43.6033 49.9996L83.4484 71.4607C84.4085 71.968 85 72.9056 85 73.9202V116.08C85 117.095 84.4085 118.032 83.4484 118.54L43.5516 139.62C42.5915 140.127 41.4085 140.127 40.4484 139.62L0.55163 118.54C-0.408521 118.032 -1 117.095 -1 116.08V73.9202C-1 72.9056 -0.408522 71.968 0.551629 71.4607L40.5 49.9996Z" fill="url(#paint1_linear)" fill-opacity="0.3"/>
</g>
<path fill-rule="evenodd" clip-rule="evenodd" d="M62 54.4552V40.3642L67.2752 34.815C67.8975 34.1604 69 34.6008 69 35.504V58.6965C69 59.5713 67.956 60.0244 67.317 59.4269L62 54.4552Z" fill="#E4590B"/>
<rect x="25" y="33" width="35" height="28" rx="2" fill="#E4590B"/>
<path d="M48.3752 46.6206C49.0739 46.9987 49.0739 48.0013 48.3752 48.3794L39.476 53.1963C38.8097 53.5569 38 53.0745 38 52.3168L38 42.6832C38 41.9255 38.8097 41.4431 39.476 41.8037L48.3752 46.6206Z" fill="#0E152F"/>
<path d="M41.5205 2.39739C42.436 1.86754 43.564 1.86754 44.4795 2.39739L82.5205 24.4143C83.436 24.9442 84 25.9234 84 26.9831V71.0169C84 72.0766 83.436 73.0558 82.5205 73.5857L44.4795 95.6026C43.564 96.1325 42.436 96.1325 41.5205 95.6026L3.47946 73.5857C2.56397 73.0558 2 72.0766 2 71.0169V26.9831C2 25.9234 2.56397 24.9442 3.47946 24.4143L41.5205 2.39739Z" stroke="url(#paint2_linear)" stroke-width="4"/>
<defs>
<linearGradient id="paint0_linear" x1="43" y1="2" x2="43" y2="96" gradientUnits="userSpaceOnUse">
<stop stop-color="#E283F6"/>
<stop offset="1" stop-color="#691DB4"/>
</linearGradient>
<linearGradient id="paint1_linear" x1="42" y1="50" x2="42" y2="140" gradientUnits="userSpaceOnUse">
<stop stop-color="#E86216"/>
<stop offset="1" stop-color="#0E152F"/>
</linearGradient>
<linearGradient id="paint2_linear" x1="43" y1="2" x2="43" y2="96" gradientUnits="userSpaceOnUse">
<stop stop-color="#E4590A"/>
<stop offset="1" stop-color="#F37833"/>
</linearGradient>
</defs>
</svg>
