<svg width="54" height="62" viewBox="0 0 54 62" fill="none" xmlns="http://www.w3.org/2000/svg">
<mask id="mask0" mask-type="alpha" maskUnits="userSpaceOnUse" x="0" y="0" width="54" height="62">
<path d="M26.0979 2.2452C26.6561 1.91827 27.3439 1.91827 27.9021 2.2452L51.0979 15.8301C51.6561 16.157 52 16.7612 52 17.4151V44.5849C52 45.2388 51.6561 45.843 51.0979 46.1699L27.9021 59.7548C27.3439 60.0817 26.6561 60.0817 26.0979 59.7548L2.90211 46.1699C2.34388 45.843 2 45.2388 2 44.5849V17.4151C2 16.7612 2.34388 16.157 2.90211 15.8301L26.0979 2.2452Z" fill="#900CB8" stroke="url(#paint0_linear)" stroke-width="4"/>
</mask>
<g mask="url(#mask0)">
<path d="M25.4755 31.6168C26.061 31.3038 26.7823 31.3038 27.3678 31.6168L51.6636 44.8588C52.249 45.1718 52.6097 45.7503 52.6097 46.3763V72.39C52.6097 73.0161 52.249 73.5945 51.6636 73.9076L27.3363 86.9144C26.7508 87.2274 26.0295 87.2274 25.4441 86.9144L1.11677 73.9076C0.531312 73.5945 0.170654 73.0161 0.170654 72.39V46.3763C0.170654 45.7503 0.531311 45.1718 1.11677 44.8588L25.4755 31.6168Z" fill="url(#paint1_linear)" fill-opacity="0.3"/>
</g>
<path d="M32.546 25.8295H39.8048C39.7468 25.5139 39.6386 25.2044 39.4788 24.9133L36.8954 20.2071C36.3709 19.2517 35.3789 18.6595 34.3027 18.6595H30.7831L32.546 25.8295Z" fill="#F3B233"/>
<path d="M29.2528 18.6595L31.0158 25.8295H23.453L25.2159 18.6595H29.2528Z" fill="#F3B233"/>
<path d="M19.6971 18.6595H23.6857L21.9227 25.8295H14.1951C14.2531 25.5139 14.3613 25.2044 14.5211 24.9133L17.1045 20.2071C17.629 19.2517 18.6209 18.6595 19.6971 18.6595Z" fill="#F3B233"/>
<path d="M27.185 40.8665C27.0163 40.8771 26.8469 40.8732 26.6787 40.8547L23.269 27.339H31.1751L27.185 40.8665Z" fill="#F3B233"/>
<path d="M28.9483 40.1321C29.0479 40.0437 29.143 39.9474 29.2328 39.8432L39.119 28.3745C39.3853 28.0656 39.5808 27.7127 39.7031 27.339H32.7218L28.9483 40.1321Z" fill="#F3B233"/>
<path d="M21.7415 27.339L24.9436 40.0314C24.8828 39.9718 24.8238 39.9091 24.767 39.8432L14.8809 28.3745C14.6146 28.0656 14.4191 27.7127 14.2967 27.339H21.7415Z" fill="#F3B233"/>
<path d="M26.0979 2.2452C26.6561 1.91827 27.3439 1.91827 27.9021 2.2452L51.0979 15.8301C51.6561 16.157 52 16.7612 52 17.4151V44.5849C52 45.2388 51.6561 45.843 51.0979 46.1699L27.9021 59.7548C27.3439 60.0817 26.6561 60.0817 26.0979 59.7548L2.90211 46.1699C2.34388 45.843 2 45.2388 2 44.5849V17.4151C2 16.7612 2.34388 16.157 2.90211 15.8301L26.0979 2.2452Z" stroke="url(#paint2_linear)" stroke-width="4"/>
<defs>
<linearGradient id="paint0_linear" x1="27" y1="2" x2="27" y2="60" gradientUnits="userSpaceOnUse">
<stop stop-color="#E283F6"/>
<stop offset="1" stop-color="#691DB4"/>
</linearGradient>
<linearGradient id="paint1_linear" x1="26.3902" y1="31.6171" x2="26.3902" y2="87.149" gradientUnits="userSpaceOnUse">
<stop stop-color="#F37A33"/>
<stop offset="1" stop-color="#0E152F"/>
</linearGradient>
<linearGradient id="paint2_linear" x1="27" y1="2" x2="27" y2="60" gradientUnits="userSpaceOnUse">
<stop stop-color="#F3B233"/>
<stop offset="1" stop-color="#F37833"/>
</linearGradient>
</defs>
</svg>
