<svg width="86" height="98" viewBox="0 0 86 98" fill="none" xmlns="http://www.w3.org/2000/svg">
<mask id="mask0" style="mask-type:alpha" maskUnits="userSpaceOnUse" x="0" y="0" width="86" height="98">
<path d="M41.5205 2.39739C42.436 1.86754 43.564 1.86754 44.4795 2.39739L82.5205 24.4143C83.436 24.9442 84 25.9234 84 26.9831V71.0169C84 72.0766 83.436 73.0558 82.5205 73.5857L44.4795 95.6026C43.564 96.1325 42.436 96.1325 41.5205 95.6026L3.47946 73.5857C2.56397 73.0558 2 72.0766 2 71.0169V26.9831C2 25.9234 2.56397 24.9442 3.47946 24.4143L41.5205 2.39739Z" fill="#900CB8" stroke="url(#paint0_linear)" stroke-width="4"/>
</mask>
<g mask="url(#mask0)">
<path d="M40.5 49.9996C41.4602 49.4923 42.6431 49.4923 43.6033 49.9996L83.4484 71.4607C84.4085 71.968 85 72.9056 85 73.9202V116.08C85 117.095 84.4085 118.032 83.4484 118.54L43.5516 139.62C42.5915 140.127 41.4085 140.127 40.4484 139.62L0.55163 118.54C-0.408521 118.032 -1 117.095 -1 116.08V73.9202C-1 72.9056 -0.408522 71.968 0.551629 71.4607L40.5 49.9996Z" fill="url(#paint1_linear)" fill-opacity="0.3"/>
</g>
<path d="M52.0956 40.6203H64C63.9049 40.1088 63.7273 39.6071 63.4653 39.1354L59.2285 31.5082C58.3684 29.9596 56.7416 29 54.9766 29H49.2044L52.0956 40.6203Z" fill="#E4590B"/>
<path d="M46.6947 29L49.586 40.6203H37.183L40.0742 29H46.6947Z" fill="#E4590B"/>
<path d="M31.0234 29H37.5646L34.6734 40.6203H22C22.0951 40.1088 22.2727 39.6071 22.5347 39.1354L26.7715 31.5082C27.6316 29.9596 29.2584 29 31.0234 29Z" fill="#E4590B"/>
<path d="M43.3035 64.9906C43.0268 65.0078 42.749 65.0014 42.4732 64.9715L36.8812 43.0666H49.8473L43.3035 64.9906Z" fill="#E4590B"/>
<path d="M46.1954 63.8003C46.3587 63.6571 46.5147 63.5011 46.662 63.3322L62.8753 44.7449C63.3119 44.2443 63.6326 43.6724 63.8333 43.0666H52.3839L46.1954 63.8003Z" fill="#E4590B"/>
<path d="M34.3762 43.0666L39.6276 63.6372C39.5278 63.5406 39.4312 63.439 39.338 63.3322L23.1247 44.7449C22.6881 44.2443 22.3674 43.6724 22.1667 43.0666H34.3762Z" fill="#E4590B"/>
<path d="M41.5205 2.39739C42.436 1.86754 43.564 1.86754 44.4795 2.39739L82.5205 24.4143C83.436 24.9442 84 25.9234 84 26.9831V71.0169C84 72.0766 83.436 73.0558 82.5205 73.5857L44.4795 95.6026C43.564 96.1325 42.436 96.1325 41.5205 95.6026L3.47946 73.5857C2.56397 73.0558 2 72.0766 2 71.0169V26.9831C2 25.9234 2.56397 24.9442 3.47946 24.4143L41.5205 2.39739Z" stroke="url(#paint2_linear)" stroke-width="4"/>
<defs>
<linearGradient id="paint0_linear" x1="43" y1="2" x2="43" y2="96" gradientUnits="userSpaceOnUse">
<stop stop-color="#E283F6"/>
<stop offset="1" stop-color="#691DB4"/>
</linearGradient>
<linearGradient id="paint1_linear" x1="42" y1="50" x2="42" y2="140" gradientUnits="userSpaceOnUse">
<stop stop-color="#E86216"/>
<stop offset="1" stop-color="#0E152F"/>
</linearGradient>
<linearGradient id="paint2_linear" x1="43" y1="2" x2="43" y2="96" gradientUnits="userSpaceOnUse">
<stop stop-color="#E4590A"/>
<stop offset="1" stop-color="#F37833"/>
</linearGradient>
</defs>
</svg>
