<svg width="86" height="98" viewBox="0 0 86 98" fill="none" xmlns="http://www.w3.org/2000/svg">
<mask id="mask0" style="mask-type:alpha" maskUnits="userSpaceOnUse" x="0" y="0" width="86" height="98">
<path d="M41.5205 2.39739C42.436 1.86754 43.564 1.86754 44.4795 2.39739L82.5205 24.4143C83.436 24.9442 84 25.9234 84 26.9831V71.0169C84 72.0766 83.436 73.0558 82.5205 73.5857L44.4795 95.6026C43.564 96.1325 42.436 96.1325 41.5205 95.6026L3.47946 73.5857C2.56397 73.0558 2 72.0766 2 71.0169V26.9831C2 25.9234 2.56397 24.9442 3.47946 24.4143L41.5205 2.39739Z" fill="#900CB8" stroke="url(#paint0_linear)" stroke-width="4"/>
</mask>
<g mask="url(#mask0)">
<path d="M40.5 49.9996C41.4602 49.4923 42.6431 49.4923 43.6033 49.9996L83.4484 71.4607C84.4085 71.968 85 72.9056 85 73.9202V116.08C85 117.095 84.4085 118.032 83.4484 118.54L43.5516 139.62C42.5915 140.127 41.4085 140.127 40.4484 139.62L0.55163 118.54C-0.408521 118.032 -1 117.095 -1 116.08V73.9202C-1 72.9056 -0.408522 71.968 0.551629 71.4607L40.5 49.9996Z" fill="url(#paint1_linear)" fill-opacity="0.3"/>
</g>
<path fill-rule="evenodd" clip-rule="evenodd" d="M36.2 67H49.8C55.9856 67 61 61.9856 61 55.8C61 51.4326 59.616 47.1776 57.0466 43.6459L50.9 35.1971L35.1002 35.1968L28.9534 43.6459C26.384 47.1776 25 51.4326 25 55.8C25 61.9856 30.0144 67 36.2 67ZM35.3959 32.8001L32.8562 27.9239C32.1627 26.5924 33.1288 25 34.63 25H51.37C52.8712 25 53.8373 26.5924 53.1438 27.9239L50.604 32.8003L35.3959 32.8001Z" fill="#E4590B"/>
<path d="M42.0835 60C41.9475 60 41.8251 59.9533 41.7163 59.86C41.6211 59.7667 41.5735 59.6467 41.5735 59.5V58.1C40.5537 57.98 39.6834 57.7333 38.9627 57.36C38.2556 56.9733 37.7184 56.5 37.3513 55.94C36.9977 55.38 36.8073 54.7867 36.7802 54.16C36.7802 54.04 36.8209 53.94 36.9025 53.86C36.9977 53.78 37.1065 53.74 37.2289 53.74H39.9417C40.1185 53.74 40.2545 53.7667 40.3497 53.82C40.4449 53.8733 40.5537 53.9667 40.676 54.1C41.0976 54.8333 41.8727 55.2 43.0013 55.2C43.7357 55.2 44.3 55.0933 44.6943 54.88C45.1023 54.6533 45.3063 54.3467 45.3063 53.96C45.3063 53.68 45.1975 53.4533 44.9799 53.28C44.7759 53.0933 44.4496 52.9333 44.0008 52.8C43.5657 52.6533 42.9198 52.4933 42.0631 52.32C40.4177 52 39.187 51.5133 38.3711 50.86C37.5553 50.2067 37.1473 49.2733 37.1473 48.06C37.1473 46.98 37.5417 46.0667 38.3304 45.32C39.119 44.56 40.2001 44.0867 41.5735 43.9V42.5C41.5735 42.3533 41.6211 42.2333 41.7163 42.14C41.8251 42.0467 41.9475 42 42.0835 42H43.858C44.0076 42 44.13 42.0467 44.2252 42.14C44.3204 42.2333 44.368 42.3533 44.368 42.5V43.94C45.2655 44.1 46.0406 44.3867 46.6933 44.8C47.346 45.2 47.8423 45.6667 48.1823 46.2C48.5358 46.72 48.7262 47.2267 48.7534 47.72C48.7534 47.84 48.7126 47.9467 48.631 48.04C48.5494 48.12 48.4474 48.16 48.3251 48.16H45.4694C45.1567 48.16 44.9255 48.04 44.7759 47.8C44.6943 47.52 44.4768 47.2867 44.1232 47.1C43.7832 46.9 43.3685 46.8 42.879 46.8C42.3078 46.8 41.8659 46.9 41.5531 47.1C41.2404 47.3 41.084 47.5933 41.084 47.98C41.084 48.3667 41.288 48.6733 41.6959 48.9C42.1039 49.1133 42.8586 49.3333 43.96 49.56C45.2383 49.7867 46.2581 50.0733 47.0196 50.42C47.7811 50.7533 48.3387 51.1933 48.6922 51.74C49.0458 52.2733 49.2225 52.9533 49.2225 53.78C49.2225 54.9533 48.7806 55.92 47.8967 56.68C47.0264 57.44 45.8502 57.9133 44.368 58.1V59.5C44.368 59.6467 44.3204 59.7667 44.2252 59.86C44.13 59.9533 44.0076 60 43.858 60H42.0835Z" fill="#0E152F"/>
<path d="M41.5205 2.39739C42.436 1.86754 43.564 1.86754 44.4795 2.39739L82.5205 24.4143C83.436 24.9442 84 25.9234 84 26.9831V71.0169C84 72.0766 83.436 73.0558 82.5205 73.5857L44.4795 95.6026C43.564 96.1325 42.436 96.1325 41.5205 95.6026L3.47946 73.5857C2.56397 73.0558 2 72.0766 2 71.0169V26.9831C2 25.9234 2.56397 24.9442 3.47946 24.4143L41.5205 2.39739Z" stroke="url(#paint2_linear)" stroke-width="4"/>
<defs>
<linearGradient id="paint0_linear" x1="43" y1="2" x2="43" y2="96" gradientUnits="userSpaceOnUse">
<stop stop-color="#E283F6"/>
<stop offset="1" stop-color="#691DB4"/>
</linearGradient>
<linearGradient id="paint1_linear" x1="42" y1="50" x2="42" y2="140" gradientUnits="userSpaceOnUse">
<stop stop-color="#E86216"/>
<stop offset="1" stop-color="#0E152F"/>
</linearGradient>
<linearGradient id="paint2_linear" x1="43" y1="2" x2="43" y2="96" gradientUnits="userSpaceOnUse">
<stop stop-color="#E4590A"/>
<stop offset="1" stop-color="#F37833"/>
</linearGradient>
</defs>
</svg>
