<svg width="54" height="62" viewBox="0 0 54 62" fill="none" xmlns="http://www.w3.org/2000/svg">
<mask id="mask0" mask-type="alpha" maskUnits="userSpaceOnUse" x="0" y="0" width="54" height="62">
<path d="M26.0979 2.2452C26.6561 1.91827 27.3439 1.91827 27.9021 2.2452L51.0979 15.8301C51.6561 16.157 52 16.7612 52 17.4151V44.5849C52 45.2388 51.6561 45.843 51.0979 46.1699L27.9021 59.7548C27.3439 60.0817 26.6561 60.0817 26.0979 59.7548L2.90211 46.1699C2.34388 45.843 2 45.2388 2 44.5849V17.4151C2 16.7612 2.34388 16.157 2.90211 15.8301L26.0979 2.2452Z" fill="#900CB8" stroke="url(#paint0_linear)" stroke-width="4"/>
</mask>
<g mask="url(#mask0)">
<path d="M25.4758 31.6168C26.0612 31.3038 26.7826 31.3038 27.368 31.6168L51.6638 44.8588C52.2493 45.1718 52.6099 45.7503 52.6099 46.3763V72.39C52.6099 73.0161 52.2493 73.5945 51.6638 73.9076L27.3365 86.9144C26.7511 87.2274 26.0298 87.2274 25.4443 86.9144L1.11701 73.9076C0.531556 73.5945 0.170898 73.0161 0.170898 72.39V46.3763C0.170898 45.7503 0.531556 45.1718 1.11701 44.8588L25.4758 31.6168Z" fill="url(#paint1_linear)" fill-opacity="0.3"/>
</g>
<path fill-rule="evenodd" clip-rule="evenodd" d="M38.5854 34.3661V25.6716L41.1249 22.9684C41.7452 22.3081 42.8537 22.7471 42.8537 23.6531V36.0818C42.8537 36.9595 41.8039 37.4114 41.1664 36.8082L38.5854 34.3661Z" fill="#F3B233"/>
<rect x="16.0244" y="21.1277" width="21.3415" height="17.2766" rx="2" fill="#F3B233"/>
<path d="M29.6672 29.1975C30.3601 29.577 30.3601 30.5721 29.6672 30.9516L25.4319 33.2714C24.7654 33.6364 23.9515 33.1542 23.9515 32.3943L23.9515 27.7548C23.9515 26.9949 24.7654 26.5127 25.4319 26.8777L29.6672 29.1975Z" fill="#0E152F"/>
<path d="M26.0979 2.2452C26.6561 1.91827 27.3439 1.91827 27.9021 2.2452L51.0979 15.8301C51.6561 16.157 52 16.7612 52 17.4151V44.5849C52 45.2388 51.6561 45.843 51.0979 46.1699L27.9021 59.7548C27.3439 60.0817 26.6561 60.0817 26.0979 59.7548L2.90211 46.1699C2.34388 45.843 2 45.2388 2 44.5849V17.4151C2 16.7612 2.34388 16.157 2.90211 15.8301L26.0979 2.2452Z" stroke="url(#paint2_linear)" stroke-width="4"/>
<defs>
<linearGradient id="paint0_linear" x1="27" y1="2" x2="27" y2="60" gradientUnits="userSpaceOnUse">
<stop stop-color="#E283F6"/>
<stop offset="1" stop-color="#691DB4"/>
</linearGradient>
<linearGradient id="paint1_linear" x1="26.3904" y1="31.6171" x2="26.3904" y2="87.149" gradientUnits="userSpaceOnUse">
<stop stop-color="#F37A33"/>
<stop offset="1" stop-color="#0E152F"/>
</linearGradient>
<linearGradient id="paint2_linear" x1="27" y1="2" x2="27" y2="60" gradientUnits="userSpaceOnUse">
<stop stop-color="#F3B233"/>
<stop offset="1" stop-color="#F37833"/>
</linearGradient>
</defs>
</svg>
