<svg width="66" height="76" viewBox="0 0 66 76" fill="none" xmlns="http://www.w3.org/2000/svg">
<mask id="mask0" mask-type="alpha" maskUnits="userSpaceOnUse" x="0" y="0" width="66" height="76">
<path d="M31.8814 2.30439C32.5736 1.89854 33.4264 1.89854 34.1186 2.30439L62.8814 19.1684C63.5736 19.5743 64 20.3243 64 21.136V54.864C64 55.6757 63.5736 56.4258 62.8814 56.8316L34.1186 73.6956C33.4264 74.1015 32.5736 74.1015 31.8814 73.6956L3.11862 56.8316C2.42641 56.4258 2 55.6757 2 54.864V21.136C2 20.3243 2.42641 19.5743 3.11862 19.1684L31.8814 2.30439Z" fill="#900CB8" stroke="url(#paint0_linear)" stroke-width="4"/>
</mask>
<g mask="url(#mask0)">
<path d="M31.1097 38.7657C31.8357 38.3771 32.7301 38.3771 33.4561 38.7657L63.5829 55.204C64.3089 55.5925 64.7561 56.3107 64.7561 57.0878V89.3806C64.7561 90.1578 64.3089 90.8759 63.5829 91.2645L33.4171 107.411C32.6911 107.799 31.7967 107.799 31.0707 107.411L0.904873 91.2645C0.178905 90.8759 -0.268311 90.1578 -0.268311 89.3806V57.0878C-0.268311 56.3107 0.178904 55.5925 0.904872 55.204L31.1097 38.7657Z" fill="url(#paint1_linear)" fill-opacity="0.3"/>
</g>
<path fill-rule="evenodd" clip-rule="evenodd" d="M30.503 24.6475C29.7717 23.4898 28.8083 22.5347 28.3384 22.2385C27.7842 21.8892 26.9328 22.0379 26.5064 22.8443C26.08 23.6506 26.3878 24.5301 26.9419 24.8794C27.4118 25.1756 28.6511 25.609 29.935 25.7216C30.3954 25.7619 30.7737 25.752 31.0566 25.7125C30.9464 25.4253 30.7652 25.0626 30.503 24.6475ZM31.1823 26.173C31.182 26.1728 31.1816 26.1677 31.1817 26.1582C31.1827 26.1684 31.1826 26.1731 31.1823 26.173ZM31.4727 25.608C31.4801 25.6031 31.4844 25.601 31.4846 25.6012C31.4849 25.6014 31.4812 25.6038 31.4727 25.608ZM33.1616 24.8532C32.4499 22.9953 30.6272 20.891 29.445 20.1457C27.7185 19.0574 25.5108 19.7033 24.514 21.5883C23.5172 23.4734 24.1088 25.8838 25.8353 26.9721C26.0566 27.1116 26.3268 27.2485 26.632 27.3772H18.3228C17.242 27.3772 16.3658 28.2624 16.3658 29.3544V33.8358C16.3658 34.9278 17.242 36.1967 18.3228 36.1967V37.5373L18.3274 35.7632L31.8029 35.7629V28.0699L34.202 28.0637V35.7628L47.6771 35.7625L47.6708 38.1633L34.202 38.1637V51.7819L45.6763 51.7868C46.7812 51.7872 47.6772 50.8917 47.6772 49.7868V36.1863C48.758 36.1863 49.6341 34.9278 49.6341 33.8358V29.3544C49.6341 28.2624 48.758 27.3772 47.6772 27.3772H39.7C40.0008 27.2498 40.2674 27.1145 40.4861 26.9766C42.2126 25.8882 42.8042 23.4778 41.8074 21.5928C40.8106 19.7078 38.6029 19.0619 36.8764 20.1502C35.6951 20.8949 33.8745 22.9964 33.1616 24.8532ZM33.1591 27.28C33.135 27.3135 33.1096 27.3458 33.0828 27.3772H33.2348C33.2083 27.3458 33.183 27.3135 33.1591 27.28ZM18.3228 49.7814V38.1641L31.8029 38.1637V51.7814H20.3228C19.2182 51.7814 18.3228 50.886 18.3228 49.7814ZM37.983 22.243C37.5131 22.5392 36.5497 23.4943 35.8185 24.652C35.5562 25.0671 35.375 25.4298 35.2648 25.717C35.5478 25.7564 35.926 25.7664 36.3864 25.726C37.6703 25.6135 38.9096 25.1801 39.3795 24.8838C39.9337 24.5345 40.2414 23.6551 39.815 22.8487C39.3886 22.0424 38.5372 21.8936 37.983 22.243Z" fill="#F3B233"/>
<path d="M31.8814 2.30439C32.5736 1.89854 33.4264 1.89854 34.1186 2.30439L62.8814 19.1684C63.5736 19.5743 64 20.3243 64 21.136V54.864C64 55.6757 63.5736 56.4258 62.8814 56.8316L34.1186 73.6956C33.4264 74.1015 32.5736 74.1015 31.8814 73.6956L3.11862 56.8316C2.42641 56.4258 2 55.6757 2 54.864V21.136C2 20.3243 2.42641 19.5743 3.11862 19.1684L31.8814 2.30439Z" stroke="url(#paint2_linear)" stroke-width="4"/>
<defs>
<linearGradient id="paint0_linear" x1="33" y1="2" x2="33" y2="74" gradientUnits="userSpaceOnUse">
<stop stop-color="#E283F6"/>
<stop offset="1" stop-color="#691DB4"/>
</linearGradient>
<linearGradient id="paint1_linear" x1="32.2439" y1="38.766" x2="32.2439" y2="107.702" gradientUnits="userSpaceOnUse">
<stop stop-color="#F37A33"/>
<stop offset="1" stop-color="#0E152F"/>
</linearGradient>
<linearGradient id="paint2_linear" x1="33" y1="2" x2="33" y2="74" gradientUnits="userSpaceOnUse">
<stop stop-color="#F3B233"/>
<stop offset="1" stop-color="#F37833"/>
</linearGradient>
</defs>
</svg>
