<svg width="54" height="62" viewBox="0 0 54 62" fill="none" xmlns="http://www.w3.org/2000/svg">
<mask id="mask0" mask-type="alpha" maskUnits="userSpaceOnUse" x="0" y="0" width="54" height="62">
<path d="M26.0979 2.2452C26.6561 1.91827 27.3439 1.91827 27.9021 2.2452L51.0979 15.8301C51.6561 16.157 52 16.7612 52 17.4151V44.5849C52 45.2388 51.6561 45.843 51.0979 46.1699L27.9021 59.7548C27.3439 60.0817 26.6561 60.0817 26.0979 59.7548L2.90211 46.1699C2.34388 45.843 2 45.2388 2 44.5849V17.4151C2 16.7612 2.34388 16.157 2.90211 15.8301L26.0979 2.2452Z" fill="#900CB8" stroke="url(#paint0_linear)" stroke-width="4"/>
</mask>
<g mask="url(#mask0)">
<path d="M25.4758 31.6168C26.0612 31.3038 26.7825 31.3038 27.368 31.6168L51.6638 44.8588C52.2493 45.1718 52.6099 45.7503 52.6099 46.3763V72.39C52.6099 73.0161 52.2493 73.5945 51.6638 73.9076L27.3365 86.9144C26.7511 87.2274 26.0298 87.2274 25.4443 86.9144L1.11701 73.9076C0.531556 73.5945 0.170898 73.0161 0.170898 72.39V46.3763C0.170898 45.7503 0.531556 45.1718 1.11701 44.8588L25.4758 31.6168Z" fill="url(#paint1_linear)" fill-opacity="0.3"/>
</g>
<path fill-rule="evenodd" clip-rule="evenodd" d="M27.1178 16.322C26.0518 16.033 24.9583 16.6643 24.6756 17.732L23.7014 21.411H30.6036C31.7082 21.411 32.6036 22.3064 32.6036 23.411V37.3229L34.5031 37.838C35.5692 38.127 36.6626 37.4958 36.9454 36.428L40.7424 22.0884C41.0251 21.0207 40.3901 19.9207 39.324 19.6317L27.1178 16.322Z" fill="#F3B233"/>
<path d="M14.1523 25.1422C14.1523 24.0376 15.0478 23.1422 16.1523 23.1422H28.7859C29.8905 23.1422 30.7859 24.0376 30.7859 25.1422V39.9908C30.7859 41.0953 29.8905 41.9908 28.7859 41.9908H16.1523C15.0478 41.9908 14.1523 41.0953 14.1523 39.9908V25.1422Z" fill="#F3B233"/>
<path d="M18.7614 33.1724C18.4973 32.8134 18.4973 32.3197 18.7614 31.9607L21.6821 27.9891C22.0782 27.4505 22.8703 27.4505 23.2663 27.9891L26.1871 31.9607C26.4511 32.3197 26.4511 32.8134 26.1871 33.1724L23.2663 37.144C22.8703 37.6825 22.0782 37.6825 21.6821 37.144L18.7614 33.1724Z" fill="#0E152F"/>
<path d="M26.0979 2.2452C26.6561 1.91827 27.3439 1.91827 27.9021 2.2452L51.0979 15.8301C51.6561 16.157 52 16.7612 52 17.4151V44.5849C52 45.2388 51.6561 45.843 51.0979 46.1699L27.9021 59.7548C27.3439 60.0817 26.6561 60.0817 26.0979 59.7548L2.90211 46.1699C2.34388 45.843 2 45.2388 2 44.5849V17.4151C2 16.7612 2.34388 16.157 2.90211 15.8301L26.0979 2.2452Z" stroke="url(#paint2_linear)" stroke-width="4"/>
<defs>
<linearGradient id="paint0_linear" x1="27" y1="2" x2="27" y2="60" gradientUnits="userSpaceOnUse">
<stop stop-color="#E283F6"/>
<stop offset="1" stop-color="#691DB4"/>
</linearGradient>
<linearGradient id="paint1_linear" x1="26.3904" y1="31.6171" x2="26.3904" y2="87.149" gradientUnits="userSpaceOnUse">
<stop stop-color="#F37A33"/>
<stop offset="1" stop-color="#0E152F"/>
</linearGradient>
<linearGradient id="paint2_linear" x1="27" y1="2" x2="27" y2="60" gradientUnits="userSpaceOnUse">
<stop stop-color="#F3B233"/>
<stop offset="1" stop-color="#F37833"/>
</linearGradient>
</defs>
</svg>
