<svg width="54" height="62" viewBox="0 0 54 62" fill="none" xmlns="http://www.w3.org/2000/svg">
<mask id="mask0" mask-type="alpha" maskUnits="userSpaceOnUse" x="0" y="0" width="54" height="62">
<path d="M26.0979 2.2452C26.6561 1.91827 27.3439 1.91827 27.9021 2.2452L51.0979 15.8301C51.6561 16.157 52 16.7612 52 17.4151V44.5849C52 45.2388 51.6561 45.843 51.0979 46.1699L27.9021 59.7548C27.3439 60.0817 26.6561 60.0817 26.0979 59.7548L2.90211 46.1699C2.34388 45.843 2 45.2388 2 44.5849V17.4151C2 16.7612 2.34388 16.157 2.90211 15.8301L26.0979 2.2452Z" fill="#900CB8" stroke="url(#paint0_linear)" stroke-width="4"/>
</mask>
<g mask="url(#mask0)">
<path d="M25.4758 31.6168C26.0612 31.3038 26.7826 31.3038 27.368 31.6168L51.6638 44.8588C52.2493 45.1718 52.6099 45.7503 52.6099 46.3763V72.39C52.6099 73.0161 52.2493 73.5945 51.6638 73.9076L27.3365 86.9144C26.7511 87.2274 26.0298 87.2274 25.4443 86.9144L1.11701 73.9076C0.531556 73.5945 0.170898 73.0161 0.170898 72.39V46.3763C0.170898 45.7503 0.531556 45.1718 1.11701 44.8588L25.4758 31.6168Z" fill="url(#paint1_linear)" fill-opacity="0.3"/>
</g>
<path fill-rule="evenodd" clip-rule="evenodd" d="M22.9351 42.1064H31.065C34.8816 42.1064 37.9756 39.0124 37.9756 35.1958C37.9756 32.4998 37.129 29.8718 35.5552 27.6828L32.0666 22.8303L32.0673 22.9428L21.9513 22.9426L21.9504 22.8069L18.4448 27.6828C16.871 29.8718 16.0244 32.4998 16.0244 35.1958C16.0244 39.0124 19.1184 42.1064 22.9351 42.1064ZM22.1269 20.5449L21.3867 19.1068C20.7016 17.7758 21.668 16.1915 23.165 16.1915H30.8351C32.3321 16.1915 33.2984 17.7758 32.6133 19.1068L31.8731 20.545L22.1269 20.5449Z" fill="#F3B233"/>
<path d="M26.4412 37.7873C26.3583 37.7873 26.2837 37.7585 26.2174 37.7009C26.1593 37.6433 26.1303 37.5693 26.1303 37.4788V36.615C25.5084 36.5409 24.9778 36.3887 24.5383 36.1584C24.1072 35.9198 23.7796 35.6277 23.5558 35.2822C23.3402 34.9367 23.2241 34.5706 23.2075 34.1839C23.2075 34.1098 23.2324 34.0481 23.2821 33.9988C23.3402 33.9494 23.4065 33.9247 23.4811 33.9247H25.1353C25.2431 33.9247 25.326 33.9412 25.3841 33.9741C25.4421 34.007 25.5084 34.0646 25.5831 34.1469C25.8401 34.5993 26.3127 34.8256 27.0009 34.8256C27.4487 34.8256 27.7928 34.7598 28.0332 34.6281C28.282 34.4883 28.4064 34.2991 28.4064 34.0605C28.4064 33.8877 28.34 33.7479 28.2074 33.6409C28.083 33.5257 27.884 33.427 27.6104 33.3447C27.345 33.2542 26.9512 33.1555 26.4288 33.0486C25.4255 32.8511 24.6751 32.5508 24.1776 32.1477C23.6801 31.7446 23.4314 31.1687 23.4314 30.4201C23.4314 29.7537 23.6718 29.1901 24.1528 28.7294C24.6337 28.2605 25.2929 27.9684 26.1303 27.8532V26.9894C26.1303 26.8989 26.1593 26.8249 26.2174 26.7673C26.2837 26.7097 26.3583 26.6809 26.4412 26.6809H27.5233C27.6145 26.6809 27.6891 26.7097 27.7472 26.7673C27.8052 26.8249 27.8342 26.8989 27.8342 26.9894V27.8779C28.3815 27.9767 28.8541 28.1535 29.2521 28.4086C29.6501 28.6554 29.9527 28.9433 30.16 29.2724C30.3756 29.5932 30.4917 29.9059 30.5083 30.2103C30.5083 30.2843 30.4834 30.3501 30.4337 30.4077C30.3839 30.4571 30.3217 30.4818 30.2471 30.4818H28.5059C28.3152 30.4818 28.1742 30.4077 28.083 30.2596C28.0332 30.0869 27.9006 29.9429 27.685 29.8277C27.4777 29.7043 27.2248 29.6426 26.9263 29.6426C26.5781 29.6426 26.3086 29.7043 26.1179 29.8277C25.9272 29.9511 25.8318 30.1321 25.8318 30.3707C25.8318 30.6093 25.9562 30.7985 26.2049 30.9384C26.4537 31.07 26.9139 31.2057 27.5855 31.3456C28.3649 31.4854 28.9868 31.6623 29.4511 31.8762C29.9154 32.0819 30.2554 32.3534 30.471 32.6907C30.6866 33.0198 30.7943 33.4393 30.7943 33.9494C30.7943 34.6734 30.5249 35.2698 29.9859 35.7388C29.4553 36.2077 28.738 36.4998 27.8342 36.615V37.4788C27.8342 37.5693 27.8052 37.6433 27.7472 37.7009C27.6891 37.7585 27.6145 37.7873 27.5233 37.7873H26.4412Z" fill="#0E152F"/>
<path d="M26.0979 2.2452C26.6561 1.91827 27.3439 1.91827 27.9021 2.2452L51.0979 15.8301C51.6561 16.157 52 16.7612 52 17.4151V44.5849C52 45.2388 51.6561 45.843 51.0979 46.1699L27.9021 59.7548C27.3439 60.0817 26.6561 60.0817 26.0979 59.7548L2.90211 46.1699C2.34388 45.843 2 45.2388 2 44.5849V17.4151C2 16.7612 2.34388 16.157 2.90211 15.8301L26.0979 2.2452Z" stroke="url(#paint2_linear)" stroke-width="4"/>
<defs>
<linearGradient id="paint0_linear" x1="27" y1="2" x2="27" y2="60" gradientUnits="userSpaceOnUse">
<stop stop-color="#E283F6"/>
<stop offset="1" stop-color="#691DB4"/>
</linearGradient>
<linearGradient id="paint1_linear" x1="26.3904" y1="31.6171" x2="26.3904" y2="87.149" gradientUnits="userSpaceOnUse">
<stop stop-color="#F37A33"/>
<stop offset="1" stop-color="#0E152F"/>
</linearGradient>
<linearGradient id="paint2_linear" x1="27" y1="2" x2="27" y2="60" gradientUnits="userSpaceOnUse">
<stop stop-color="#F3B233"/>
<stop offset="1" stop-color="#F37833"/>
</linearGradient>
</defs>
</svg>
