<svg width="86" height="98" viewBox="0 0 86 98" fill="none" xmlns="http://www.w3.org/2000/svg">
<mask id="mask0" style="mask-type:alpha" maskUnits="userSpaceOnUse" x="0" y="0" width="86" height="98">
<path d="M41.5205 2.39739C42.436 1.86754 43.564 1.86754 44.4795 2.39739L82.5205 24.4143C83.436 24.9442 84 25.9234 84 26.9831V71.0169C84 72.0766 83.436 73.0558 82.5205 73.5857L44.4795 95.6026C43.564 96.1325 42.436 96.1325 41.5205 95.6026L3.47946 73.5857C2.56397 73.0558 2 72.0766 2 71.0169V26.9831C2 25.9234 2.56397 24.9442 3.47946 24.4143L41.5205 2.39739Z" fill="#900CB8" stroke="url(#paint0_linear)" stroke-width="4"/>
</mask>
<g mask="url(#mask0)">
<path d="M40.5 49.9996C41.4602 49.4923 42.6431 49.4923 43.6033 49.9996L83.4484 71.4607C84.4085 71.968 85 72.9056 85 73.9202V116.08C85 117.095 84.4085 118.032 83.4484 118.54L43.5516 139.62C42.5915 140.127 41.4085 140.127 40.4484 139.62L0.55163 118.54C-0.408521 118.032 -1 117.095 -1 116.08V73.9202C-1 72.9056 -0.408522 71.968 0.551629 71.4607L40.5 49.9996Z" fill="url(#paint1_linear)" fill-opacity="0.3"/>
</g>
<path fill-rule="evenodd" clip-rule="evenodd" d="M39.6975 31.5675C38.7304 30.0561 37.4561 28.8091 36.8347 28.4224C36.1018 27.9663 34.9757 28.1605 34.4117 29.2133C33.8478 30.266 34.2548 31.4142 34.9877 31.8702C35.6092 32.2569 37.2483 32.8228 38.9463 32.9698C39.5552 33.0225 40.0555 33.0095 40.4297 32.958C40.284 32.583 40.0443 32.1095 39.6975 31.5675ZM40.596 33.5591C40.5956 33.5588 40.595 33.5522 40.5952 33.5398C40.5964 33.5531 40.5963 33.5593 40.596 33.5591ZM40.98 32.8215C40.9898 32.8152 40.9955 32.8124 40.9958 32.8126C40.9962 32.8129 40.9913 32.816 40.98 32.8215ZM43.2137 31.8361C42.2725 29.4104 39.8618 26.6632 38.2983 25.6902C36.0148 24.2693 33.095 25.1126 31.7766 27.5736C30.4583 30.0346 31.2407 33.1815 33.5241 34.6024C33.8168 34.7845 34.1742 34.9633 34.5779 35.1313H23.5882C22.1588 35.1313 21 36.287 21 37.7127V43.5634C21 44.9891 22.1588 46.6457 23.5882 46.6457V64.9923C23.5882 66.0969 24.4837 66.9923 25.5882 66.9923H41.8031V48.8464L23.5911 48.8469L23.5894 46.4471L41.8031 46.4466V36.0308L44.2033 36.0324V46.4466L62.4067 46.4461L62.4084 48.8459L44.2033 48.8463V66.9929L60.4109 66.9996C61.5158 67.0001 62.4118 66.1045 62.4118 64.9996V46.632C63.8412 46.632 65 44.9891 65 43.5634V37.7127C65 36.287 63.8412 35.1313 62.4118 35.1313H51.8614C52.2592 34.965 52.6118 34.7883 52.9011 34.6083C55.1845 33.1874 55.9669 30.0405 54.6485 27.5794C53.3302 25.1184 50.4103 24.2752 48.1269 25.6961C46.5646 26.6682 44.1566 29.4119 43.2137 31.8361ZM43.2105 35.0044C43.1786 35.0481 43.1449 35.0904 43.1095 35.1313H43.3106C43.2755 35.0904 43.2421 35.0481 43.2105 35.0044ZM49.5905 28.4283C48.969 28.815 47.6948 30.062 46.7277 31.5734C46.3809 32.1153 46.1412 32.5888 45.9955 32.9638C46.3697 33.0153 46.87 33.0283 47.4788 32.9756C49.1769 32.8287 50.816 32.2628 51.4375 31.8761C52.1704 31.42 52.5774 30.2719 52.0134 29.2191C51.4495 28.1664 50.3234 27.9722 49.5905 28.4283Z" fill="#E4590B"/>
<path d="M41.5205 2.39739C42.436 1.86754 43.564 1.86754 44.4795 2.39739L82.5205 24.4143C83.436 24.9442 84 25.9234 84 26.9831V71.0169C84 72.0766 83.436 73.0558 82.5205 73.5857L44.4795 95.6026C43.564 96.1325 42.436 96.1325 41.5205 95.6026L3.47946 73.5857C2.56397 73.0558 2 72.0766 2 71.0169V26.9831C2 25.9234 2.56397 24.9442 3.47946 24.4143L41.5205 2.39739Z" stroke="url(#paint2_linear)" stroke-width="4"/>
<defs>
<linearGradient id="paint0_linear" x1="43" y1="2" x2="43" y2="96" gradientUnits="userSpaceOnUse">
<stop stop-color="#E283F6"/>
<stop offset="1" stop-color="#691DB4"/>
</linearGradient>
<linearGradient id="paint1_linear" x1="42" y1="50" x2="42" y2="140" gradientUnits="userSpaceOnUse">
<stop stop-color="#E86216"/>
<stop offset="1" stop-color="#0E152F"/>
</linearGradient>
<linearGradient id="paint2_linear" x1="43" y1="2" x2="43" y2="96" gradientUnits="userSpaceOnUse">
<stop stop-color="#E4590A"/>
<stop offset="1" stop-color="#F37833"/>
</linearGradient>
</defs>
</svg>
