<svg width="54" height="62" viewBox="0 0 54 62" fill="none" xmlns="http://www.w3.org/2000/svg">
<mask id="mask0" mask-type="alpha" maskUnits="userSpaceOnUse" x="0" y="0" width="54" height="62">
<path d="M26.0979 2.2452C26.6561 1.91827 27.3439 1.91827 27.9021 2.2452L51.0979 15.8301C51.6561 16.157 52 16.7612 52 17.4151V44.5849C52 45.2388 51.6561 45.843 51.0979 46.1699L27.9021 59.7548C27.3439 60.0817 26.6561 60.0817 26.0979 59.7548L2.90211 46.1699C2.34388 45.843 2 45.2388 2 44.5849V17.4151C2 16.7612 2.34388 16.157 2.90211 15.8301L26.0979 2.2452Z" fill="#900CB8" stroke="url(#paint0_linear)" stroke-width="4"/>
</mask>
<g mask="url(#mask0)">
<path d="M25.4755 31.6168C26.061 31.3038 26.7823 31.3038 27.3678 31.6168L51.6636 44.8588C52.249 45.1718 52.6097 45.7503 52.6097 46.3763V72.39C52.6097 73.0161 52.249 73.5945 51.6636 73.9076L27.3363 86.9144C26.7508 87.2274 26.0295 87.2274 25.4441 86.9144L1.11677 73.9076C0.531312 73.5945 0.170654 73.0161 0.170654 72.39V46.3763C0.170654 45.7503 0.531311 45.1718 1.11677 44.8588L25.4755 31.6168Z" fill="url(#paint1_linear)" fill-opacity="0.3"/>
</g>
<path fill-rule="evenodd" clip-rule="evenodd" d="M15.1953 21.1277C14.643 21.1277 14.1953 21.5754 14.1953 22.1277V38.1095C14.1953 38.6617 14.643 39.1095 15.1953 39.1095H17.6561H19.4525L22.409 42.1064L25.5681 39.1095H38.8051C39.3574 39.1095 39.8051 38.6617 39.8051 38.1094V29.5192V22.1277C39.8051 21.5754 39.3574 21.1277 38.8051 21.1277H15.1953ZM20.9025 31.617C21.9128 31.617 22.7318 30.7883 22.7318 29.766C22.7318 28.7437 21.9128 27.9149 20.9025 27.9149C19.8922 27.9149 19.0732 28.7437 19.0732 29.766C19.0732 30.7883 19.8922 31.617 20.9025 31.617ZM28.8294 29.766C28.8294 30.7883 28.0104 31.617 27.0002 31.617C25.9899 31.617 25.1709 30.7883 25.1709 29.766C25.1709 28.7437 25.9899 27.9149 27.0002 27.9149C28.0104 27.9149 28.8294 28.7437 28.8294 29.766ZM33.0978 31.617C34.1081 31.617 34.9271 30.7883 34.9271 29.766C34.9271 28.7437 34.1081 27.9149 33.0978 27.9149C32.0875 27.9149 31.2686 28.7437 31.2686 29.766C31.2686 30.7883 32.0875 31.617 33.0978 31.617Z" fill="#F3B233"/>
<path d="M26.0979 2.2452C26.6561 1.91827 27.3439 1.91827 27.9021 2.2452L51.0979 15.8301C51.6561 16.157 52 16.7612 52 17.4151V44.5849C52 45.2388 51.6561 45.843 51.0979 46.1699L27.9021 59.7548C27.3439 60.0817 26.6561 60.0817 26.0979 59.7548L2.90211 46.1699C2.34388 45.843 2 45.2388 2 44.5849V17.4151C2 16.7612 2.34388 16.157 2.90211 15.8301L26.0979 2.2452Z" stroke="url(#paint2_linear)" stroke-width="4"/>
<defs>
<linearGradient id="paint0_linear" x1="27" y1="2" x2="27" y2="60" gradientUnits="userSpaceOnUse">
<stop stop-color="#E283F6"/>
<stop offset="1" stop-color="#691DB4"/>
</linearGradient>
<linearGradient id="paint1_linear" x1="26.3902" y1="31.6171" x2="26.3902" y2="87.149" gradientUnits="userSpaceOnUse">
<stop stop-color="#F37A33"/>
<stop offset="1" stop-color="#0E152F"/>
</linearGradient>
<linearGradient id="paint2_linear" x1="27" y1="2" x2="27" y2="60" gradientUnits="userSpaceOnUse">
<stop stop-color="#F3B233"/>
<stop offset="1" stop-color="#F37833"/>
</linearGradient>
</defs>
</svg>
