<svg viewBox="0 0 184 30" fill="none" xmlns="http://www.w3.org/2000/svg">
<path d="M33.6094 13.3707C33.5889 12.7579 33.2908 12.4417 32.7121 12.4209H29.6209C28.8893 12.4643 28.5113 12.8533 28.4937 13.585V18.9733C28.5113 19.7286 28.9292 20.1138 29.7417 20.1356H32.5748C32.869 20.1356 33.1135 20.0298 33.3083 19.8136C33.512 19.6512 33.6094 19.4425 33.6094 19.1838V13.3707ZM24.5248 12.6059C24.5452 11.2577 24.855 10.2333 25.4561 9.53272C25.7708 9.23909 26.1644 8.99361 26.6437 8.79062C27.1415 8.57441 27.6238 8.4696 28.0914 8.4696H33.7652C36.268 8.49038 37.5404 9.81691 37.5803 12.452V20.5623C37.5618 21.498 37.1838 22.3099 36.4531 22.9888C35.7293 23.7026 34.8651 24.0661 33.8588 24.0878H28.4937V29.9349H24.5248V12.6059Z" fill="white"/>
<path d="M44.7438 19.3528C44.7438 19.5785 44.851 19.7569 45.0604 19.891C45.2475 20.0515 45.4832 20.1356 45.7814 20.1356H48.8297C49.5185 20.1356 49.876 19.8769 49.8965 19.3528V18.2501C49.8965 17.6477 49.5331 17.3437 48.8005 17.3437H45.7814C45.3839 17.3437 45.1091 17.4079 44.9562 17.5287C44.8149 17.6713 44.7438 17.9536 44.7438 18.3719V19.3528ZM49.8965 13.2753C49.9169 12.6843 49.5613 12.402 48.8287 12.4209H40.8352V8.4696H49.8351C52.4567 8.51115 53.7875 9.73855 53.8323 12.1622V20.4282C53.8099 21.4734 53.4797 22.3354 52.8386 23.0209C52.1684 23.7309 51.3042 24.0878 50.2452 24.0878H44.8052C42.1573 24.0661 40.8148 22.8944 40.7739 20.5651V17.3758C40.7943 14.9418 42.0774 13.7049 44.6172 13.6624H49.8965V13.2753Z" fill="white"/>
<path d="M64.9805 25.9827C65.2952 25.9638 65.568 25.8543 65.7891 25.6579C66.0015 25.4747 66.1086 25.2642 66.1086 25.0253V24.0878H61.0271C60.3646 24.0878 59.8347 24.0056 59.4391 23.8423C59.0212 23.6941 58.6052 23.4174 58.1863 23.0247C57.7898 22.6083 57.5043 22.173 57.3309 21.718C57.1507 21.3016 57.0591 20.7719 57.0591 20.1356V8.4696H61.0271V18.8836C61.0271 19.7182 61.3788 20.1356 62.091 20.1356H64.8928C65.226 20.1356 65.5153 20.0298 65.7579 19.8136C65.9917 19.6304 66.1086 19.4133 66.1086 19.1584V8.4696H70.0445V25.6796C70.0221 26.9533 69.685 27.973 69.0352 28.7462C68.3757 29.5195 67.4735 29.9151 66.323 29.9349H57.0591V25.9827H64.9805Z" fill="white"/>
<path d="M73.1602 20.1356H80.232C80.8789 20.1138 81.215 19.8627 81.2355 19.3812V19.0262C81.2355 18.9233 81.2033 18.809 81.141 18.6863C80.9831 18.3879 80.7893 18.2397 80.5584 18.2397H77.0522C76.0117 18.2199 75.1242 17.8724 74.3779 17.2021C73.6229 16.5827 73.2361 15.8208 73.2137 14.9267V11.98C73.2547 9.68095 74.5435 8.51115 77.0824 8.4696H85.2843V12.4209H78.3352C77.5198 12.4209 77.1087 12.6635 77.1087 13.1469V13.5293C77.1087 14.0307 77.5286 14.2818 78.3654 14.2818H81.8609C82.7923 14.3026 83.5863 14.6481 84.2478 15.3223C84.9161 16.0011 85.2629 16.8084 85.2843 17.7459V20.6284C85.2629 21.4385 84.8761 22.2467 84.1328 23.053C83.7704 23.4486 83.3992 23.7205 83.028 23.8744C82.6442 24.016 82.123 24.0878 81.4576 24.0878H73.1602V20.1356Z" fill="white"/>
<path d="M92.0756 19.3528C92.0756 19.5785 92.1828 19.7569 92.3971 19.891C92.5822 20.0515 92.8189 20.1356 93.1131 20.1356H96.1673C96.8561 20.1356 97.2117 19.8769 97.2321 19.3528V18.2501C97.2321 17.6477 96.8639 17.3437 96.1342 17.3437H93.1131C92.7166 17.3437 92.4429 17.4079 92.2909 17.5287C92.1496 17.6713 92.0756 17.9536 92.0756 18.3719V19.3528ZM97.2321 13.2753C97.2497 12.6843 96.8941 12.402 96.1605 12.4209H88.169V8.4696H97.1717C99.7904 8.51115 101.122 9.73855 101.163 12.1622V20.4282C101.142 21.4734 100.808 22.3354 100.171 23.0209C99.506 23.7309 98.6409 24.0878 97.5809 24.0878H92.136C89.49 24.0661 88.1466 22.8944 88.1095 20.5651V17.3758C88.1271 14.9418 89.4092 13.7049 91.9509 13.6624H97.2321V13.2753Z" fill="white"/>
<path d="M104.39 6.22871C104.414 5.16182 104.819 4.30547 105.614 3.66345C106.386 3.01104 107.399 2.67586 108.652 2.65698H111.172V6.47419H109.646C108.807 6.49307 108.379 6.88207 108.361 7.63361V8.47013H111.172V12.4252H108.361V24.0893H104.39V6.22871Z" fill="white"/>
<path d="M122.46 13.2017V13.1101C122.46 12.9071 122.375 12.7343 122.204 12.6059C122.019 12.4813 121.793 12.4209 121.521 12.4209H118.759C118.404 12.4209 118.118 12.5172 117.897 12.7145C117.623 12.8967 117.483 13.1365 117.483 13.4321V15.0182L122.46 13.2017ZM117.547 18.7873V19.0337C117.547 19.35 117.631 19.6012 117.804 19.7834C117.928 20.0166 118.096 20.1356 118.319 20.1356H126.472V24.0878H117.804C117.013 24.0878 116.396 24.016 115.961 23.8725C115.484 23.7205 115.056 23.4722 114.683 23.1266C114.247 22.7084 113.95 22.2826 113.801 21.8445C113.637 21.3875 113.556 20.7814 113.556 20.026L113.522 12.1169C113.566 9.72722 114.854 8.51115 117.385 8.4696H122.735C125.207 8.51115 126.459 9.7697 126.499 12.2519V15.3761L117.547 18.7873Z" fill="white"/>
<path d="M134.901 24.0873C134.299 24.0873 133.751 24.0335 133.253 23.9353C132.732 23.8532 132.213 23.619 131.682 23.2234C131.137 22.7636 130.76 22.2481 130.554 21.6788C130.335 21.1189 130.23 20.4844 130.23 19.7707V12.3959C130.208 11.7945 130.27 11.2667 130.415 10.8088C130.549 10.3518 130.829 9.90427 131.253 9.46618C131.736 9.00638 132.229 8.70047 132.749 8.55035C133.25 8.42856 133.814 8.36719 134.447 8.36719H140.53V9.29151H134.588C133.539 9.29151 132.714 9.50017 132.111 9.91843C131.495 10.3745 131.18 11.1609 131.18 12.2694V19.6489C131.18 20.1681 131.262 20.6733 131.425 21.1605C131.591 21.6391 131.869 22.0593 132.267 22.4266C132.7 22.7447 133.13 22.943 133.55 23.0242C133.988 23.1177 134.457 23.1621 134.955 23.1621H140.625V24.0873H134.901Z" fill="white"/>
<path d="M156.175 14.5193H148.2C147.245 14.5401 146.497 14.8261 145.958 15.3775C145.401 15.9374 145.125 16.705 145.125 17.6803V20.0341C145.125 20.4901 145.174 20.9074 145.275 21.2832C145.376 21.6788 145.626 22.0319 146.022 22.335C146.71 22.8882 147.473 23.1621 148.307 23.1621H153.139C155.159 23.1413 156.175 22.1103 156.175 20.0633V14.5193ZM157.123 19.833C157.123 20.4268 157.076 20.948 156.997 21.4069C156.869 21.9054 156.605 22.386 156.204 22.8429C155.371 23.6936 154.339 24.1081 153.106 24.0873H148.365C147.132 24.0873 146.134 23.7304 145.36 23.0204C144.57 22.3189 144.17 21.3436 144.17 20.0926V17.7152C144.21 15.0329 145.588 13.6592 148.304 13.5968H156.204V12.5564C156.204 11.6991 155.948 10.9485 155.439 10.3027C155.115 9.8835 154.732 9.60308 154.298 9.45863C153.858 9.34722 153.365 9.29151 152.816 9.29151H144.198V8.36719H152.368C153.115 8.36719 153.79 8.41817 154.402 8.51825C154.717 8.57868 155.002 8.69764 155.266 8.86948C155.546 9.03281 155.807 9.27169 156.048 9.58514C156.781 10.501 157.139 11.5575 157.123 12.7471V19.833Z" fill="white"/>
<path d="M166.04 9.29151C163.829 9.33117 162.739 10.501 162.78 12.8028V24.0873H161.83V12.8066C161.785 9.84573 163.239 8.36719 166.193 8.36719H167.249V9.29151H166.04Z" fill="white"/>
<path d="M182.105 9.29597H174.588C174.047 9.29597 173.561 9.35451 173.124 9.46592C172.666 9.566 172.224 9.83508 171.81 10.2732C171.413 10.6725 171.164 11.0681 171.06 11.4637C170.92 11.8631 170.857 12.3418 170.879 12.8998V20.0942C170.879 21.2905 171.237 22.1043 171.962 22.5415C172.319 22.7445 172.712 22.8965 173.152 22.9985C173.591 23.1118 174.08 23.1675 174.618 23.1675H177.905C179.133 23.1675 180.137 22.8937 180.909 22.3413C181.684 21.823 182.079 20.9289 182.105 19.6543V9.29597ZM183.054 19.7175C182.97 22.6954 181.344 24.155 178.177 24.0937H174.653C173.909 24.0937 173.244 24.0304 172.655 23.9105C172.049 23.7585 171.47 23.4007 170.911 22.8427C170.492 22.3413 170.222 21.8343 170.114 21.315C169.968 20.7967 169.905 20.2198 169.928 19.5901V12.8762C169.968 9.85208 171.54 8.34899 174.646 8.37165H182.105V3.27417H183.054V19.7175Z" fill="white"/>
<path d="M2.47761 7.87505C2.78936 7.74193 3.10111 7.63807 3.41286 7.57292C3.9857 4.92174 6.40859 2.93336 9.31274 2.93336C12.2188 2.93336 14.6427 4.92458 15.2146 7.57481C16.106 7.7391 16.8435 8.08843 17.4183 8.60866C17.4416 8.09976 17.4202 7.60975 17.3579 7.14806C16.9906 3.14296 13.5253 -0.00012207 9.30008 -0.00012207C4.95018 -0.00012207 1.40889 3.34123 1.22476 7.51816C1.19943 7.87883 1.19164 8.2546 1.20528 8.64737C1.57061 8.34902 1.98758 8.08088 2.47761 7.87505Z" fill="white"/>
<path d="M14.0345 8.4696H4.34103C3.87438 8.4696 3.39117 8.5744 2.89334 8.79062C2.41305 8.99361 2.01947 9.23909 1.70382 9.53272C1.10272 10.2333 0.79487 11.2577 0.773438 12.6059V19.9496C0.79487 21.3006 1.10272 22.3241 1.70382 23.0209C2.01947 23.3192 2.41305 23.5647 2.89334 23.7696C3.39117 23.9811 3.87438 24.0878 4.34103 24.0878H14.0345C16.5383 24.0661 17.8116 22.7348 17.8515 20.1035V12.452C17.8116 9.81691 16.5383 8.49038 14.0345 8.4696Z" fill="white"/>
</svg>
