<svg width="20" height="20" viewBox="0 0 20 20" fill="none" xmlns="http://www.w3.org/2000/svg">
<mask id="mask0" mask-type="alpha" maskUnits="userSpaceOnUse" x="0" y="0" width="20" height="20">
<circle cx="10" cy="10" r="10" fill="#C4C4C4"/>
</mask>
<g mask="url(#mask0)">
<path d="M16.1875 19.9995H3.8125C1.15462 19.9995 -1 18.0408 -1 15.6246V4.37489C-1 1.9587 1.15462 0 3.8125 0H16.1875C18.8454 0 21 1.9587 21 4.37489V15.6246C21 18.0408 18.8454 19.9995 16.1875 19.9995Z" fill="white"/>
<path d="M3.8125 0C1.15462 0 -1 1.9587 -1 4.37489V9.41152H21V4.37489C21 1.9587 18.8454 0 16.1875 0H3.8125Z" fill="#F5F5F5"/>
<path d="M-1 15.6249C-1 18.0411 1.15462 19.9998 3.8125 19.9998H16.1875C18.8454 19.9998 21 18.0411 21 15.6249V9.41187H-1V15.6249Z" fill="#F23548"/>
</g>
</svg>
