<?xml version="1.0" encoding="UTF-8"?>
<svg width="120px" height="120px" viewBox="0 0 120 120" version="1.1" xmlns="http://www.w3.org/2000/svg" xmlns:xlink="http://www.w3.org/1999/xlink">
    <!-- Generator: Sketch 52.4 (67378) - http://www.bohemiancoding.com/sketch -->
    <title>platipus color</title>
    <desc>Created with Sketch.</desc>
    <g id="platipus-color" stroke="none" stroke-width="1" fill="none" fill-rule="evenodd">
        <g id="platipus" transform="translate(25.000000, 20.000000)">
            <path d="M7.96419676,9.6 L58.850057,9.6 L70.0000062,0 L70.0000032,72 C70.0037463,76.4142328 66.4381759,79.9958336 62.0358097,80 L7.96419676,80 C5.85006459,79.9980992 3.82327492,79.1541766 2.32969871,77.6538853 C0.836122509,76.153594 -0.00189407668,74.1198306 3.21462587e-06,72 L3.21462587e-06,17.6 C-0.00189407668,15.4801694 0.836122509,13.4464058 2.32969871,11.9461146 C3.82327492,10.4458234 5.85006459,9.60190072 7.96419676,9.6 Z" id="Rounded_Rectangle_1" fill="#002E5B"></path>
            <path d="M37.9798925,52.8559542 C38.755255,52.3968545 39.412596,51.7620383 39.8992473,51.0023692 C40.4087939,50.1869168 40.7604208,49.282436 40.9356989,48.3363315 C41.1382959,47.3162877 41.2399005,46.2786704 41.2390323,45.2385957 C41.2396754,44.1972409 41.1295361,43.1587877 40.9104839,42.1408598 C40.7120779,41.1776372 40.3440277,40.2575874 39.8236022,39.4238787 C39.3295896,38.6405576 38.6638873,37.9805462 37.8771505,37.4940674 C36.9962251,36.9801637 35.9889143,36.725042 34.9702688,36.7578409 C33.9352018,36.7208379 32.9105615,36.9759234 32.012957,37.4940674 C31.2350405,37.9717255 30.5780767,38.6236145 30.0936022,39.3985957 C29.5864263,40.224373 29.2350946,41.1366647 29.0571505,42.0899164 C28.852879,43.1267723 28.7512744,44.1813285 28.7538172,45.2382183 C28.7526678,46.2795998 28.8628127,47.318107 29.0823656,48.3359542 C29.2731208,49.2815266 29.6327938,50.1847308 30.1440323,51.0019919 C31.9252188,53.4991391 35.2732775,54.2912885 37.9798925,52.8559542 Z M28.6525806,32.0355768 L28.6525806,35.3872749 L28.7538172,35.3872749 C29.5392086,34.0491065 30.6995084,32.9718931 32.0904839,32.2895391 C33.4822787,31.6368686 35.0028628,31.3070646 36.5392473,31.3246334 C38.3765855,31.2764409 40.1979554,31.6779632 41.8456989,32.4944447 C43.2890846,33.2408011 44.5494745,34.2987688 45.536129,35.5921806 C46.5411028,36.9367301 47.2790684,38.4623734 47.7098925,40.0861428 C48.1863245,41.8320047 48.4243369,43.6346062 48.4174194,45.4446334 C48.4233472,47.1624436 48.1851101,48.8723357 47.7098925,50.5227466 C47.2698326,52.0839119 46.5409922,53.54821 45.5613441,54.8393504 C44.6009516,56.0921406 43.3750326,57.1153976 41.9721505,57.8351994 C40.410014,58.6095236 38.6840635,58.9929081 36.9419355,58.9525579 C35.3948853,58.9682368 33.8646826,58.62957 32.467957,57.9623692 C31.1078547,57.3068028 29.9471863,56.2986911 29.1060753,55.0423692 L29.0063441,55.0423692 L29.0063441,67.4838787 L21.827957,67.4838787 L21.827957,32.0355768 L28.6525806,32.0355768 Z" fill="#FDE428" fill-rule="nonzero"></path>
        </g>
    </g>
</svg>