<?xml version="1.0" encoding="utf-8"?>
<!-- Generator: Adobe Illustrator 22.0.0, SVG Export Plug-In . SVG Version: 6.00 Build 0)  -->
<svg version="1.1" id="Layer_1" xmlns="http://www.w3.org/2000/svg" xmlns:xlink="http://www.w3.org/1999/xlink" x="0px" y="0px"
	 width="80px" height="80px" viewBox="0 0 80 80" style="enable-background:new 0 0 80 80;" xml:space="preserve">
<style type="text/css">
	.st0{fill:#F79520;}
	.st1{fill:#FFFFFF;}
</style>
<title>pragmatic color</title>
<desc>Created with Sketch.</desc>
<g id="Page-1">
	<g id="pragmatic-color">
		<path id="_1" class="st0" d="M40.2,77.9C29.5,78,19.8,71.6,15.6,61.8s-2-21.3,5.6-28.9s19-9.9,28.9-5.8s16.4,13.7,16.4,24.5
			C66.5,66,54.8,77.9,40.2,77.9z M40.2,27.8c-13,0.1-23.5,10.7-23.5,23.7S27.2,75,40.2,75.2l0,0l0,0c13.1,0,23.7-10.6,23.7-23.7
			S53.3,27.8,40.2,27.8L40.2,27.8z M48.2,42.3c-9,0.6-12.7-10.1-4.5-10.6C52.3,31.1,57,41.7,48.2,42.3L48.2,42.3z M38.5,22.2
			c-4.5,0.2-9,1.5-12.8,3.9c-0.6-1.8-3.1-8.6-9.6-12.3c4.6,0.3,8.8,2.9,11,7c0,0-2.5-10.7-1.8-18.8c5.1,6.3,9,16.5,9,16.5
			c-0.5-4.6,1.5-9.2,5.1-12C36.1,13.4,38,20.5,38.5,22.2z"/>
	</g>
</g>
<rect x="0.1" y="45.5" width="79.9" height="26.7"/>
<g>
	<path class="st1" d="M20.1,65.1l-0.9,5.1H2.4L6,47.3h6L9.2,65.1H20.1z"/>
	<path class="st1" d="M22.3,70.1l3.7-22.9h6l-3.7,22.9H22.3z"/>
	<path class="st1" d="M39.6,70.1l-5.5-22.9h6.5L44,63.1l8.5-15.9H59L46,70.1H39.6z"/>
	<path class="st1" d="M65.8,52.3l-0.6,3.9h9.8l-0.7,4.6h-9.8l-0.6,4.3h11.3l-0.9,5.1H56.9l3.7-22.9h17.1l-0.9,5.1h-11V52.3z"/>
</g>
</svg>
