<?xml version="1.0" encoding="UTF-8"?>
<svg width="80px" height="80px" viewBox="0 0 80 80" version="1.1" xmlns="http://www.w3.org/2000/svg" xmlns:xlink="http://www.w3.org/1999/xlink">
    <!-- Generator: Sketch 48.2 (47327) - http://www.bohemiancoding.com/sketch -->
    <title>pragmatic color</title>
    <desc>Created with Sketch.</desc>
    <defs></defs>
    <g id="Page-1" stroke="none" stroke-width="1" fill="none" fill-rule="evenodd">
        <g id="pragmatic-color" fill="#F79520">
            <path d="M40.2222988,77.9480552 C29.4967774,78.038032 19.7772397,71.646347 15.6103395,61.7629343 C11.4434393,51.8795217 13.6530241,40.458454 21.2054833,32.8423354 C28.7579426,25.2262168 40.160062,22.9208479 50.078101,27.0046456 C59.9961401,31.0884433 66.4691803,40.7539905 66.4692306,51.4798892 C66.5300044,66.0366312 54.7790381,77.8866459 40.2222988,77.9480552 Z M40.2222988,27.7932989 C27.2213136,27.9006653 16.7385203,38.4703865 16.7385203,51.4718149 C16.7385203,64.4732434 27.2213136,75.0429646 40.2222988,75.150331 L40.2222988,75.1584052 L40.230373,75.1584052 C53.3103319,75.1561756 63.9119261,64.5509664 63.9096965,51.4710075 C63.9074669,38.3910486 53.3022576,27.7894544 40.2222988,27.791684 L40.2222988,27.7932989 Z M48.17704,42.260722 C39.1718401,42.8259188 35.5150169,32.1283583 43.6627324,31.6188738 C52.3393106,31.0754774 56.9819986,41.6769545 48.17704,42.2599146 L48.17704,42.260722 Z M38.4984485,22.2277253 C33.9530888,22.3828522 29.5283418,23.7299623 25.6676738,26.1340426 C25.0984399,24.3221831 22.5881587,17.561622 16.1166554,13.8095227 C20.7468589,14.0694306 24.9084014,16.7194088 27.1024663,20.8050442 C27.1024663,20.8050442 24.5929925,10.1381658 25.2825326,2.05100707 C30.3693037,8.31823212 34.2796582,18.5644426 34.2796582,18.5644426 C33.8058405,13.9345428 35.7519628,9.38738555 39.428601,6.53382509 C36.1407705,13.4211518 37.9849269,20.5402091 38.4984485,22.2277253 Z" id="_1"></path>
        </g>
    </g>
</svg>