<svg width="16" height="16" viewBox="0 0 16 16" fill="none" xmlns="http://www.w3.org/2000/svg">
<path fill-rule="evenodd" clip-rule="evenodd" d="M6.79796 2.50193C6.44629 1.92615 5.98292 1.4511 5.75693 1.30378C5.49042 1.13004 5.08094 1.20402 4.87587 1.60507C4.6708 2.00612 4.8188 2.44351 5.08531 2.61725C5.3113 2.76457 5.90735 2.98013 6.52481 3.03612C6.74622 3.0562 6.92815 3.05124 7.06422 3.03163C7.01123 2.88877 6.92406 2.70839 6.79796 2.50193ZM7.12469 3.26062C7.12456 3.26053 7.12433 3.258 7.1244 3.25329C7.12486 3.25835 7.12482 3.26071 7.12469 3.26062ZM7.26433 2.97965C7.2679 2.97722 7.26996 2.97618 7.27009 2.97626C7.27022 2.97635 7.26843 2.97756 7.26433 2.97965ZM8.07633 2.60353C7.73387 1.67965 6.85758 0.633497 6.28915 0.262943C5.45881 -0.278348 4.39705 0.0428767 3.91766 0.980418C3.43826 1.91796 3.72276 3.11679 4.5531 3.65808C4.6599 3.7277 4.79042 3.79603 4.93783 3.86024H0.941176C0.421379 3.86024 0 4.30052 0 4.84363V7.07249C0 7.6156 0.421379 8.13378 0.941176 8.13378V8.5115L0.945458 8.12481L7.50076 8.12464L7.50076 4.20481L8.49924 4.19366L8.49924 8.12461L15.0608 8.12444L15.0607 8.13378C15.5797 8.13251 16 7.61494 16 7.07249V4.84363C16 4.30052 15.5786 3.86024 15.0588 3.86024H11.2153C11.3625 3.7961 11.4928 3.72785 11.5995 3.65831C12.4298 3.11702 12.7143 1.9182 12.2349 0.980654C11.7555 0.0431134 10.6938 -0.278112 9.86342 0.263178C9.29504 0.6337 8.41884 1.67971 8.07633 2.60353ZM8.07621 3.81007C8.06421 3.82735 8.05152 3.84407 8.03815 3.86024H8.11423C8.10087 3.84407 8.08819 3.82735 8.07621 3.81007ZM0.941176 13.9978V9.12633L7.50076 9.12615L7.50076 15.9978H2.94118C1.83661 15.9978 0.941176 15.1024 0.941176 13.9978ZM8.49924 15.9944L8.49924 9.12613L15.0497 9.12595L15.0588 8.30643V14.0001C15.0588 15.105 14.1629 16.0005 13.058 16.0001L8.18062 15.9979L8.49924 15.9944ZM10.3956 1.30401C10.1696 1.45133 9.70628 1.92638 9.35461 2.50216C9.22851 2.70863 9.14134 2.889 9.08835 3.03186C9.22442 3.05147 9.40635 3.05643 9.62776 3.03635C10.2452 2.98036 10.8413 2.7648 11.0673 2.61748C11.3338 2.44374 11.4818 2.00635 11.2767 1.6053C11.0716 1.20425 10.6621 1.13028 10.3956 1.30401Z" fill="url(#paint0_linear)"/>
<defs>
<linearGradient id="paint0_linear" x1="8" y1="0" x2="8" y2="16.0009" gradientUnits="userSpaceOnUse">
<stop stop-color="#F3B133"/>
<stop offset="1" stop-color="#F37933"/>
</linearGradient>
</defs>
</svg>
