<?xml version="1.0" encoding="utf-8"?>
<!-- Generator: Adobe Illustrator 23.0.2, SVG Export Plug-In . SVG Version: 6.00 Build 0)  -->
<svg version="1.1" id="Layer_1" xmlns="http://www.w3.org/2000/svg" xmlns:xlink="http://www.w3.org/1999/xlink" x="0px" y="0px"
	 viewBox="0 0 80 80" style="enable-background:new 0 0 80 80;" xml:space="preserve">
<style type="text/css">
	.st0{fill:url(#SVGID_1_);}
	.st1{fill:url(#SVGID_2_);}
</style>
<title>habanero color</title>
<desc>Created with Sketch.</desc>
<g>
	
		<linearGradient id="SVGID_1_" gradientUnits="userSpaceOnUse" x1="13958.7246" y1="11058.6338" x2="13958.7246" y2="10280.1104" gradientTransform="matrix(5.000000e-02 0 0 5.000000e-02 -677.68 -492.76)">
		<stop  offset="0" style="stop-color:#DFDCDC"/>
		<stop  offset="1" style="stop-color:#FFFFFF"/>
	</linearGradient>
	<path class="st0" d="M9.3,22.3h7.5c3-0.1,5.9,0.2,8.7,1.1c1.8,0.7,3.2,2,4.2,3.6c1.1,1.8,1.6,3.9,1.5,6c0.1,2.3-0.6,4.6-2,6.4
		c-1.4,1.7-3.3,3-5.5,3.6c-2.4,0.5-4.9,0.7-7.4,0.6v15.5h-7V22.3z M16.4,36.7h2.2c1.2,0.1,2.5-0.1,3.7-0.4c0.7-0.2,1.2-0.7,1.6-1.2
		c0.4-0.6,0.6-1.4,0.6-2.1c0.1-1.3-0.5-2.5-1.7-3.1c-1.4-0.6-3-0.9-4.5-0.7h-2L16.4,36.7z"/>
	<path d="M16.8,22.3c3-0.1,5.9,0.2,8.7,1.1c1.8,0.7,3.2,2,4.2,3.6c1.1,1.8,1.6,3.9,1.5,6c0.1,2.3-0.6,4.6-2,6.4
		c-1.4,1.7-3.3,3-5.5,3.6c-2.4,0.5-4.9,0.7-7.4,0.6v15.5h-7V22.3H16.8 M16.4,36.7h2.2c1.2,0.1,2.5-0.1,3.7-0.4
		c0.7-0.2,1.2-0.7,1.6-1.2c0.4-0.6,0.6-1.4,0.6-2.1c0.1-1.3-0.5-2.5-1.7-3.1c-1.4-0.6-3-0.9-4.5-0.7h-2L16.4,36.7 M16.7,21.3H8.3
		v39.1h9.1V44.8c2.2,0.1,4.5-0.2,6.7-0.6c2.4-0.6,4.5-2,6-3.9c1.5-2,2.3-4.5,2.3-7.1c0.1-2.3-0.5-4.6-1.7-6.6
		c-1.1-1.8-2.7-3.2-4.7-4c-2.9-1-6-1.4-9.1-1.2L16.7,21.3z M17.3,30.2h1c1.3-0.1,2.7,0.1,3.9,0.6c0.8,0.5,1.3,1.3,1.2,2.3
		c0,0.5-0.1,1.1-0.4,1.5s-0.7,0.7-1.1,0.9c-1.1,0.3-2.2,0.4-3.3,0.3h-1.2L17.3,30.2L17.3,30.2z"/>
	
		<linearGradient id="SVGID_2_" gradientUnits="userSpaceOnUse" x1="14616.6436" y1="11058.6338" x2="14616.6436" y2="10280.1104" gradientTransform="matrix(5.000000e-02 0 0 5.000000e-02 -677.68 -492.76)">
		<stop  offset="0" style="stop-color:#D02627"/>
		<stop  offset="0.99" style="stop-color:#ED2A24"/>
	</linearGradient>
	<path class="st1" d="M69.8,28.3l-5.2,5.2c-2.7-3.2-6.8-5.1-11-5.2c-3.4-0.1-6.7,1.2-9.1,3.6c-2.4,2.3-3.6,5.6-3.5,8.9
		c-0.1,3.4,1.3,6.7,3.8,9.1c2.5,2.5,5.9,3.8,9.4,3.7c2.2,0.1,4.3-0.5,6.1-1.5c1.8-1.2,3.2-2.8,4-4.8H53.7v-6.7h18.6V42
		c0.1,3.2-0.7,6.3-2.2,9c-1.5,2.8-3.8,5.1-6.5,6.7c-2.9,1.6-6.1,2.4-9.4,2.3c-3.6,0.1-7.2-0.8-10.3-2.5c-3-1.6-5.6-4-7.3-7
		S34,44.1,34,40.7c-0.1-4.7,1.7-9.3,4.9-12.8c3.8-4.3,9.3-6.6,15-6.4c3.1,0,6.2,0.6,9,1.8C65.5,24.5,67.8,26.2,69.8,28.3z"/>
	<path d="M53.8,21.3c3.1,0,6.2,0.6,9,1.8c2.7,1.2,5,3,7,5.2l-5.2,5.2c-2.7-3.2-6.8-5.1-11-5.2c-3.4-0.1-6.7,1.2-9.1,3.6
		c-2.4,2.3-3.6,5.6-3.5,8.9c-0.1,3.4,1.3,6.7,3.8,9.1c2.5,2.5,5.9,3.8,9.4,3.7c2.2,0.1,4.3-0.5,6.1-1.5c1.8-1.2,3.2-2.8,4-4.8H53.7
		v-6.7h18.6V42c0.1,3.2-0.7,6.3-2.2,9c-1.5,2.8-3.8,5.1-6.5,6.7c-2.9,1.6-6.1,2.4-9.4,2.3c-3.6,0.1-7.2-0.8-10.3-2.5
		c-3-1.6-5.6-4-7.3-7S34,44.1,34,40.7c-0.1-4.7,1.7-9.3,4.9-12.8c3.8-4.3,9.3-6.6,15-6.4 M53.8,20.5c-6-0.2-11.8,2.3-15.7,6.8
		c-3.4,3.7-5.2,8.5-5.2,13.5c0,3.6,1,7.2,2.8,10.3c1.8,3.2,4.4,5.8,7.5,7.5c3.3,1.8,7,2.7,10.8,2.6c3.5,0.1,6.9-0.8,9.9-2.4
		c2.9-1.7,5.3-4.1,6.9-7c1.7-2.9,2.6-6.3,2.6-9.7l0,0v-2.6H52.8v8.7h10c-0.8,1.2-1.8,2.2-3,2.9c-1.7,1-3.7,1.5-5.6,1.4
		c-3.2,0.1-6.4-1.1-8.7-3.4c-2.3-2.2-3.5-5.2-3.5-8.3c-0.1-3,1.2-6,3.4-8c2.2-2.2,5.3-3.4,8.4-3.3c4,0,7.7,1.7,10.3,4.6l0.7,0.8
		l0.8-0.7l5.2-5.2l0.7-0.7l-0.7-0.7c-2-2.3-4.5-4.1-7.3-5.4c-3.1-1.3-6.4-2-9.8-2L53.8,20.5z"/>
</g>
</svg>
