<?xml version="1.0" encoding="utf-8"?>
<!-- Generator: Adobe Illustrator 23.0.2, SVG Export Plug-In . SVG Version: 6.00 Build 0)  -->
<svg version="1.1" id="Layer_1" xmlns="http://www.w3.org/2000/svg" xmlns:xlink="http://www.w3.org/1999/xlink" x="0px" y="0px"
	 viewBox="0 0 80 80" style="enable-background:new 0 0 80 80;" xml:space="preserve">
<style type="text/css">
	.st0{fill:#F26922;}
</style>
<title>habanero color</title>
<desc>Created with Sketch.</desc>
<g>
	<path id="quickspin" class="st0" d="M11.2,24.7c0.1-6.8,5.7-12.3,12.5-12.2c0.2,0,0.5,0,0.7,0h0.2c6.8-0.5,12.7,4.6,13.2,11.4
		c0,0.3,0,0.5,0,0.8c0,2.1-1.7,3.8-3.8,3.8c-2.1,0-3.8-1.7-3.8-3.8c0-3.2-2.9-4.7-5.7-4.7h-0.2c-2.7,0-5.7,1.4-5.7,4.7
		c0,2.1-1.7,3.7-3.7,3.7C12.9,28.5,11.3,26.8,11.2,24.7C11.2,24.8,11.2,24.7,11.2,24.7z M37.9,51.8c0-2.1-1.7-3.8-3.8-3.8
		s-3.8,1.7-3.8,3.8l0,0c0,3.2-2.9,4.7-5.7,4.7h-0.2c-2.7,0-5.7-1.4-5.7-4.7c0-2.1-1.7-3.8-3.8-3.8s-3.8,1.7-3.8,3.8l0,0
		c0.1,6.8,5.7,12.3,12.5,12.2c0.2,0,0.5,0,0.7,0h0.2c1,0,2-0.1,3-0.2l3.3,6.5c1.1,1.4,3.1,1.6,4.6,0.6l0,0c1.8-0.9,2.9-2.7,2.2-4
		l-3.3-6.5C36.6,58.1,37.9,55.1,37.9,51.8L37.9,51.8z M18.7,48.2V28.5c-1,1-2.3,1.6-3.7,1.6c-1.4,0-2.8-0.5-3.7-1.6v19.8
		c1-1,2.3-1.6,3.7-1.6C16.4,46.7,17.8,47.2,18.7,48.2L18.7,48.2z M30.2,28.3v19.8c2-2.1,5.3-2.1,7.4-0.1c0,0,0.1,0.1,0.1,0.1V28.5
		c-1,1-2.3,1.6-3.7,1.6c-1.4,0-2.8-0.6-3.7-1.7L30.2,28.3z M45.9,28.5c2.1,0,3.7-1.7,3.7-3.7c0-3.2,2.9-4.7,5.7-4.7h0.2
		c2.7,0,5.7,1.4,5.7,4.7c0,2.1,1.7,3.8,3.8,3.8c2.1,0,3.8-1.7,3.8-3.8c-0.1-6.8-5.7-12.3-12.5-12.2c-0.2,0-0.5,0-0.7,0h-0.3
		c-6.8-0.5-12.7,4.6-13.2,11.4c0,0.2,0,0.4,0,0.7c0,2.1,1.6,3.8,3.7,3.8C45.8,28.5,45.8,28.5,45.9,28.5z M48.8,30
		c-1.3,0.8-2.8,1-4.3,0.5l14.9,20.4c0.2-1.5,1-2.8,2.3-3.7c1.3-0.8,2.8-1,4.3-0.5L51.1,26.6c-0.2,1.4-1,2.7-2.2,3.4H48.8z
		 M64.9,48.2c-2.1,0-3.7,1.7-3.7,3.7c0,3.2-2.9,4.7-5.7,4.7h-0.2c-2.7,0-5.7-1.4-5.7-4.7c0-2.1-1.7-3.8-3.8-3.8
		c-2.1,0-3.8,1.7-3.8,3.8c0.1,6.8,5.7,12.3,12.5,12.2c0.2,0,0.5,0,0.7,0h0.2c6.8,0.5,12.7-4.7,13.2-11.5c0-0.2,0-0.5,0-0.7
		C68.6,49.9,67,48.2,64.9,48.2z"/>
</g>
</svg>
