<?xml version="1.0" encoding="UTF-8"?>
<svg width="80px" height="80px" viewBox="0 0 80 80" version="1.1" xmlns="http://www.w3.org/2000/svg" xmlns:xlink="http://www.w3.org/1999/xlink">
    <!-- Generator: Sketch 53.2 (72643) - https://sketchapp.com -->
    <title>RelaxGaming black</title>
    <desc>Created with Sketch.</desc>
    <g id="RelaxGaming-black" stroke="none" stroke-width="1" fill="none" fill-rule="evenodd">
        <g id="Group-2" transform="translate(5.000000, 23.000000)" fill="#1A1719" fill-rule="nonzero">
            <g id="Group" transform="translate(33.947467, 0.000000)">
                <ellipse id="Oval" cx="5.09306667" cy="5.08918919" rx="5.09306667" ry="5.08918919"></ellipse>
                <path d="M36.6644,5.08918919 C36.6835844,7.15176993 35.4549359,9.02193968 33.5533868,9.82457361 C31.6518376,10.6272075 29.4535008,10.2035503 27.9870634,8.75184746 C26.5206259,7.30014464 26.0761387,5.10753292 26.8615947,3.20002019 C27.6470506,1.29250746 29.507092,0.0473863782 31.5713333,0.0472972973 C34.3657748,0.0471767052 36.6384294,2.29699582 36.6644,5.08918919 L36.6644,5.08918919 Z" id="Path"></path>
                <ellipse id="Oval" cx="5.09306667" cy="29.8351351" rx="5.09306667" ry="5.08918919"></ellipse>
                <path d="M36.6644,29.8351351 C36.6644,32.6458167 34.3841564,34.9243243 31.5713333,34.9243243 C28.7585103,34.9243243 26.4782667,32.6458167 26.4782667,29.8351351 C26.4782667,27.0244536 28.7585103,24.7459459 31.5713333,24.7459459 C34.3841564,24.7459459 36.6644,27.0244536 36.6644,29.8351351 L36.6644,29.8351351 Z" id="Path"></path>
                <path d="M23.4205333,17.4527027 C23.4127771,19.5136326 22.1618621,21.3664265 20.2523135,22.1453144 C18.342765,22.9242024 16.1516164,22.4753957 14.7027435,21.008612 C13.2538706,19.5418283 12.8333481,17.3466787 13.637677,15.4489085 C14.4420059,13.5511383 16.3123743,12.3254554 18.3748,12.3445946 C21.1765172,12.3705944 23.4310699,14.6530176 23.4205333,17.4527027 L23.4205333,17.4527027 Z" id="Path"></path>
            </g>
            <path d="M30.9844,33.6851351 L30.9844,33.6851351 L22.9756,20.1202703 L22.9756,20.1202703 C27.0936,19.25 29.9525333,16.3932432 29.9525333,10.1972973 C29.9714667,1.93918919 24.4713333,-1.0658141e-13 17.5228,-1.0658141e-13 L0.662666667,-1.0658141e-13 C0.486916539,-1.0658141e-13 0.31836468,0.0697633132 0.194090573,0.193942807 C0.0698164662,0.318122301 -1.66977543e-13,0.486545838 -1.66977543e-13,0.662162162 L-1.66977543e-13,0.662162162 L-1.66977543e-13,33.8743243 L-1.66977543e-13,33.8743243 C-1.66977543e-13,34.2400264 0.296685972,34.5364865 0.662666667,34.5364865 L6.60773333,34.5364865 C6.97371403,34.5364865 7.2704,34.2400264 7.2704,33.8743243 L7.2704,20.877027 L15.7052,20.877027 L23.1270667,34.0540541 L23.1270667,34.0540541 C23.314185,34.3991911 23.6811908,34.6082252 24.0737333,34.5932432 L30.5489333,34.5932432 C30.8552804,34.5881825 31.102402,34.341249 31.1074667,34.0351351 C31.1028814,33.9087035 31.0599641,33.7866472 30.9844,33.6851351 Z M17.5701333,14.8608108 L7.2704,14.8608108 L7.2704,6.16756757 L17.5701333,6.16756757 C21.4325333,6.16756757 22.6064,8.05945946 22.6064,10.4432432 C22.6064,12.827027 21.4325333,14.8608108 17.5701333,14.8608108 Z" id="Shape"></path>
        </g>
    </g>
</svg>