<svg viewBox="0 0 49 17" fill="none" xmlns="http://www.w3.org/2000/svg">
<path fill-rule="evenodd" clip-rule="evenodd" d="M0 6.1074C0 10.9853 5.78743 10.7414 6.68408 11.0666C7.82526 11.4731 7.74375 13.5056 5.13533 13.5056C3.7496 13.5056 2.60842 13.343 1.30421 12.9365C0.978158 12.8552 0.652105 12.6926 0.326053 12.6113V16.2697C1.30421 16.7575 4.64625 16.8388 6.03197 16.8388C9.61855 16.8388 12.8791 14.3998 11.9824 10.7414C11.0858 6.75779 5.86895 7.16428 5.13533 6.75779C4.23868 6.3513 4.23868 5.21312 5.21684 4.80663C6.52105 4.23754 9.12947 4.80663 10.4337 5.21312C10.8412 5.37572 11.2488 5.53831 11.5749 5.61961V2.12378C11.0043 1.96118 10.6782 1.79858 9.53704 1.55469C7.90678 1.22949 7.25467 1.22949 5.62441 1.22949C2.68993 1.22949 0 3.18066 0 6.1074Z" fill="white"/>
<path fill-rule="evenodd" clip-rule="evenodd" d="M13.123 2.04443V16.6782H17.3617V12.288C17.4432 12.4506 17.3617 12.3693 17.4432 12.5319L17.8508 13.2636C18.0138 13.5888 18.1769 13.914 18.3399 14.3205C18.5029 14.727 18.992 16.1904 18.992 16.6782H24.1273C24.0458 16.5156 23.9643 16.1904 23.8828 15.9465L22.9046 13.7514C20.8668 9.60519 21.2744 11.8003 23.0677 8.30441C23.3937 7.81662 24.2903 5.94676 24.3719 5.29637H19.5626C19.3996 6.10936 17.8508 8.79221 17.3617 9.1987V1.23145C16.5466 1.23145 13.7752 2.04443 13.123 2.04443Z" fill="white"/>
<path fill-rule="evenodd" clip-rule="evenodd" d="M38.4746 1.96313V16.6782H42.5503V1.23145C41.8982 1.23145 39.3713 1.88183 38.4746 1.96313Z" fill="white"/>
<path fill-rule="evenodd" clip-rule="evenodd" d="M44.3438 1.96313V16.6782H48.4194V1.23145C47.9303 1.23145 44.8328 1.96313 44.3438 1.96313Z" fill="white"/>
<path fill-rule="evenodd" clip-rule="evenodd" d="M24.8613 10.175V16.6789H28.937V11.801C28.937 9.52464 29.263 8.63036 31.5454 8.63036V5.21582C30.8118 5.21582 31.4639 5.13452 30.2412 5.21582C29.0185 5.37842 28.1219 5.37842 26.8176 6.1914C25.6765 6.92309 24.8613 8.30516 24.8613 10.175Z" fill="white"/>
<path fill-rule="evenodd" clip-rule="evenodd" d="M32.7676 16.6774H36.8432V5.37695H32.7676V16.6774Z" fill="white"/>
<path fill-rule="evenodd" clip-rule="evenodd" d="M32.8496 2.20628C32.8496 2.85667 32.9311 3.26316 33.4202 3.75095C35.2135 5.53952 38.0665 2.85667 36.1916 0.905508C34.969 -0.395268 32.8496 0.742911 32.8496 2.20628Z" fill="white"/>
</svg>
