<svg width="130" height="24" viewBox="0 0 130 24" fill="none" xmlns="http://www.w3.org/2000/svg">
<path d="M24.1479 9.62921C23.369 9.30847 22.5901 9.03355 21.7653 8.80445C20.9405 8.57535 19.9783 8.25461 20.1158 7.24657C20.2532 6.19271 21.1696 5.87197 22.1777 5.91779C24.4687 5.96361 26.7597 5.91779 29.0507 5.91779C29.738 5.91779 30.4253 6.05525 30.9293 5.36795C32.2123 3.58097 33.816 2.06891 35.4655 0.281932C30.8377 0.281932 26.2557 0.0986522 21.6278 0.327752C16.1294 0.602672 13.8843 2.66457 12.3722 8.11715C11.6849 10.5914 12.418 12.2868 14.7548 13.3406C15.5338 13.7072 16.3127 13.9363 17.1375 14.1654C18.0081 14.4403 19.1077 14.6236 18.9703 15.8149C18.8328 17.0521 17.6873 17.1895 16.6793 17.1895C13.4719 17.1895 10.2645 17.1895 7.05708 17.1895C2.01688 17.1895 2.01688 17.1895 0.642275 22.0006C0.596455 22.1381 0.504815 22.2755 0.458995 22.413C0.184075 23.1919 0.550635 23.3294 1.23794 23.3294C7.01126 23.1461 12.8304 23.7876 18.6037 22.917C23.0483 22.2297 26.2098 18.7016 26.7597 14.2112C26.9888 12.0577 26.1182 10.4998 24.1479 9.62921Z" fill="white"/>
<path d="M102.5 0.465844C99.8423 0.282564 97.1389 0.374204 94.4813 0.236744C93.1526 0.145104 92.6485 0.740764 92.2362 1.88626C90.3117 7.43049 88.2498 12.9289 86.2796 18.4273C85.7297 20.031 84.8591 21.543 84.7217 23.3758C86.6461 23.3758 88.3873 23.2842 90.1284 23.4217C91.3656 23.5133 91.9154 22.9176 92.282 21.9096C92.9235 20.1226 93.6108 18.3815 94.3439 16.457C95.3061 17.0527 95.1686 17.7858 95.3061 18.2898C96.7723 23.6966 96.7723 23.6508 102.5 23.4217C103.783 23.3758 104.149 22.9635 103.783 21.818C103.096 19.6186 102.546 17.4192 101.721 15.2657C101.263 14.0286 101.125 13.3871 102.546 12.7456C104.608 11.8292 106.165 10.2255 107.082 8.11779C108.915 3.81071 107.173 0.786584 102.5 0.465844ZM100.53 8.30107C99.6132 10.1797 97.9637 10.7753 95.6268 10.5004C96.1309 9.12583 96.6349 7.93451 96.9556 6.69737C97.4596 4.77293 98.8342 4.86456 100.163 5.41441C101.767 6.05589 101.034 7.29303 100.53 8.30107Z" fill="white"/>
<path d="M80.6899 0.00715326C78.5822 -0.0844867 76.2912 0.694453 74.2293 2.06905C69.6015 5.23063 67.173 9.76681 66.0733 15.0819C65.0195 20.3054 67.7687 23.6503 73.038 23.6045C76.3828 23.5586 79.3611 22.5048 81.698 20.0763C85.0886 16.594 87.1964 12.3786 87.792 7.56745C88.4335 2.71053 86.005 0.0529733 80.6899 0.00715326ZM77.116 17.1897C76.2454 18.2435 74.9624 18.7475 73.6336 18.1061C72.2132 17.4188 72.534 16.09 72.8547 14.8987C73.542 12.0578 74.4584 9.35443 76.2912 7.01761C77.0701 6.00957 78.0324 5.32227 79.3611 5.32227C80.5525 5.32227 81.1939 5.91793 81.1939 7.42999C80.415 10.729 79.4986 14.2572 77.116 17.1897Z" fill="white"/>
<path d="M44.355 0.0523071C41.8349 -0.130973 39.4522 0.235587 37.2987 1.51855C31.5712 5.00087 28.9136 10.316 28.1347 15.7227C28.0889 20.992 29.9675 23.1456 34.1371 23.558C37.0696 23.8329 39.8188 23.283 42.1556 21.4961C47.1958 17.6472 49.6701 12.3779 50.0825 6.14637C50.3116 2.61823 47.8831 0.327227 44.355 0.0523071ZM43.1178 8.71229C42.4305 11.3698 41.5141 13.9358 40.0479 16.2726C39.3148 17.4181 38.3526 18.197 36.9321 18.2887C35.4659 18.3345 34.687 17.6014 34.8702 16.2268C35.3284 12.5612 36.5198 9.12467 39.0857 6.37547C40.0479 5.36743 41.3309 4.90923 42.6138 5.59653C43.8968 6.32965 43.3928 7.65843 43.1178 8.71229Z" fill="white"/>
<path d="M60.9419 9.44558C60.4837 9.44558 60.0255 9.44558 59.5673 9.39976C58.9716 9.35394 58.7883 8.98738 58.9258 8.48336C59.3382 7.06294 59.7047 5.68834 61.7666 5.91744C63.3703 6.10072 64.974 5.96326 66.5777 5.96326C67.1734 5.96326 67.8607 6.14654 68.3189 5.5967C69.831 3.62644 71.7554 2.11438 73.8631 0.46486C68.8687 0.46486 64.2409 0.37322 59.6131 0.51068C56.589 0.5565 54.3438 2.20602 53.2441 4.95522C50.8615 10.9576 48.7538 17.0059 46.4169 23.3749C47.1959 23.3749 47.5624 23.3749 47.929 23.3749C53.4732 23.4665 53.4732 23.4665 55.3977 18.1514C56.8181 14.3025 56.8181 14.3025 61.0335 14.2567C61.9957 14.2567 62.958 14.4858 63.4162 13.1112C64.974 8.48336 64.974 9.4914 60.9419 9.44558Z" fill="white"/>
<path d="M128.618 0.236572C121.699 0.236572 114.734 0.236572 107.449 0.236572C108.273 1.56535 109.327 2.43593 109.282 3.71889C109.19 5.68915 110.106 6.23899 111.847 5.91825C113.36 5.68915 113.451 6.33063 112.947 7.56777C111.481 11.4625 110.106 15.4488 108.64 19.3435C107.174 23.3299 107.174 23.2382 111.481 23.3757C113.085 23.4215 113.864 23.0091 114.413 21.4054C115.696 17.5107 117.208 13.7077 118.583 9.81295C120.003 5.91825 119.958 5.91825 124.036 5.91825C128.388 5.91825 128.388 5.91825 129.626 1.88609C129.626 1.79445 129.671 1.74863 129.717 1.65699C130.267 0.557312 129.717 0.236572 128.618 0.236572Z" fill="white"/>
</svg>
