<svg width="16" height="16" viewBox="0 0 16 16" fill="none" xmlns="http://www.w3.org/2000/svg">
  <path fill-rule="evenodd" clip-rule="evenodd" d="M11.7258 8.14843C11.7258 9.18307 11.3752 10.0692 10.6737 10.7969C9.97236 11.5246 9.12872 11.8959 8.13822 11.8959C7.14771 11.8959 6.29937 11.5295 5.598 10.7969C5.03879 10.2127 4.70227 9.52463 4.58851 8.74245C4.55967 8.54427 4.54544 8.34396 4.54589 8.14346C4.54589 7.23256 4.81603 6.43884 5.35631 5.76235C5.43216 5.66827 5.5127 5.57916 5.59324 5.49006C6.29467 4.75737 7.14143 4.39106 8.13351 4.39106C9.12401 4.39106 9.97236 4.75737 10.669 5.49006C11.3752 6.22765 11.7258 7.10882 11.7258 8.14843ZM12.0102 8.61373L15.0007 6.64843L11.7021 6.49994L13.7921 3.62865L10.5505 5.13854L11.2377 2.22273L9.46993 3.8762L9.30409 1L7.64531 4.10888L5.84915 1.44055L6.05768 4.60888L3.32317 2.62872L4.6122 5.67318L1.92031 5.04944L4.40373 7.35139L1.00565 7.97022L3.99138 9.04938L1.42271 10.5197L4.63589 10.2227L2.6312 12.9206L5.74015 11.3266L5.27095 14.7969L7.02449 12.4602L7.85391 14.8265L8.69273 12.5097L10.6643 14.9998L10.2994 11.2127L13.1049 13.2375L11.7875 9.92564L14.6357 9.82167L12.0102 8.6138" fill="#FEE379"/>
  <path fill-rule="evenodd" clip-rule="evenodd" d="M8.0859 9.27025C7.32622 9.26899 6.56922 9.17597 5.82999 8.99305C6.33236 9.88908 7.00374 10.4072 7.84415 10.5475C8.82049 10.5672 9.62615 10.0607 10.2612 9.02768C9.67353 9.21578 8.94841 9.29997 8.0859 9.27025ZM9.74461 7.196C9.70726 7.22446 9.67519 7.25963 9.64984 7.29997C9.57908 7.40666 9.53805 7.53172 9.53138 7.66137C9.52662 7.69249 9.52662 7.72427 9.53138 7.75538C9.55615 7.76374 9.5815 7.77038 9.60716 7.77522H9.66877C9.66407 7.74072 9.66407 7.70569 9.66877 7.67125C9.67766 7.54214 9.71851 7.4176 9.7873 7.30985C9.80241 7.28657 9.81994 7.265 9.83938 7.2455C9.81512 7.2169 9.78113 7.19912 9.74461 7.196ZM5.86315 7.10689C5.87833 7.08361 5.89586 7.06204 5.9153 7.04254C5.88983 7.0156 5.85648 6.99815 5.82053 6.99304C5.78331 7.01958 5.7511 7.05315 5.72576 7.09203C5.655 7.19872 5.61397 7.32385 5.6073 7.45343V7.54751C5.63207 7.55587 5.65741 7.56244 5.68307 7.56729H5.74469V7.46829C5.74824 7.33805 5.78959 7.21206 5.86315 7.10689ZM6.97217 7.63662C6.91526 7.38907 6.97217 7.15639 7.13326 6.93857C7.42709 6.62176 7.73992 6.44852 8.06214 6.4188C7.49347 6.62176 7.16171 6.91382 7.07171 7.29499C7.00063 7.5574 7.06218 7.77025 7.26601 7.92371C7.37761 7.99994 7.50712 8.04274 7.64038 8.04745H8.0859C8.12382 8.04745 8.14275 8.06231 8.14751 8.09701V8.29008H8.0859V8.18612C8.0859 8.14153 8.05744 8.1069 8.0006 8.09701H7.56931C7.55387 8.10106 7.53787 8.10272 7.52192 8.10192C7.44703 8.09894 7.37323 8.08215 7.30387 8.05242C7.12385 7.93857 7.01009 7.79997 6.97217 7.63662ZM5.78261 6.3346C6.00537 6.28019 6.1902 6.32969 6.33236 6.48806C6.46505 6.62673 6.53142 6.82969 6.53142 7.09701C6.46505 6.63662 6.24705 6.4188 5.87268 6.44354C5.59777 6.48315 5.3987 6.62673 5.28501 6.8693C5.37031 6.58712 5.53616 6.40891 5.78261 6.3346ZM10.266 6.71086C10.3987 6.84946 10.465 7.05242 10.465 7.31981C10.3987 6.85942 10.1807 6.64153 9.80622 6.66628C9.53138 6.70595 9.33232 6.84449 9.21379 7.09203C9.29916 6.80985 9.465 6.63164 9.71145 6.5574C9.93891 6.49802 10.1238 6.55249 10.266 6.71086ZM6.07644 7.10689C6.12999 7.22917 6.14968 7.36466 6.13329 7.49802C6.12446 7.63105 6.08546 7.75996 6.01959 7.87421C5.99101 7.92895 5.94604 7.97241 5.8916 7.99795C5.87357 8.01122 5.85203 8.01812 5.82999 8.01779C5.82618 8.02157 5.82097 8.02343 5.81576 8.0227C5.80757 8.0235 5.79938 8.02177 5.79207 8.01779C5.71153 8.00791 5.64515 7.95343 5.59777 7.84449C5.577 7.79347 5.56112 7.74039 5.55039 7.68612C5.5399 7.60902 5.53679 7.53113 5.54092 7.45343C5.54912 7.31954 5.58989 7.19003 5.65938 7.07717C5.68473 7.03683 5.71687 7.00167 5.75421 6.9732C5.79233 6.94753 5.83672 6.93379 5.88214 6.93366C5.8916 6.93857 5.89637 6.93857 5.90583 6.94354C5.92889 6.94879 5.95118 6.95708 5.97221 6.96829C5.98421 6.97692 5.99533 6.98687 6.00537 6.99795C6.03452 7.03006 6.05853 7.06689 6.07644 7.10689ZM9.46977 7.65148C9.47872 7.51772 9.51944 7.38841 9.58823 7.27522C9.61224 7.23515 9.6447 7.20131 9.683 7.17616C9.72016 7.14836 9.76525 7.13443 9.81099 7.13662C9.81823 7.1406 9.82649 7.14232 9.83468 7.14159C9.85774 7.14677 9.88003 7.15513 9.90099 7.16634C9.91052 7.17616 9.92468 7.18611 9.93421 7.196C9.96527 7.22831 9.98954 7.26713 10.0053 7.30985C10.0588 7.43213 10.0785 7.56762 10.0621 7.70098C10.0525 7.83387 10.0135 7.96266 9.94844 8.07717C9.91598 8.12733 9.87196 8.1682 9.82045 8.196C9.80241 8.20921 9.78088 8.21617 9.75884 8.21577C9.75503 8.21962 9.74982 8.22141 9.74461 8.22075C9.73794 8.22148 9.73121 8.21976 9.72568 8.21577C9.64508 8.21087 9.57877 8.15142 9.52662 8.04254C9.50585 7.99152 9.48997 7.93844 9.47923 7.8841C9.46888 7.80707 9.4657 7.72911 9.46977 7.65148ZM10.375 8.93857C10.3795 8.94952 10.386 8.95961 10.3939 8.9683C10.4644 9.08952 10.5453 9.2039 10.6356 9.30986C10.5209 9.2447 10.4233 9.15122 10.3513 9.03757C9.60716 10.2009 8.76357 10.7488 7.82046 10.6811C6.99587 10.5772 6.28974 10.0029 5.70677 8.94846C5.59694 9.05349 5.468 9.1343 5.32763 9.18605C5.45231 9.09589 5.56817 8.99305 5.67361 8.87913L5.68784 8.86433C5.78718 8.74888 5.87458 8.62276 5.94852 8.48807C5.91879 8.63145 5.85711 8.76547 5.76838 8.87913C6.62619 9.03756 7.36078 9.12667 7.9769 9.14153C8.65934 9.18605 9.43655 9.12176 10.3038 8.94846C10.2442 8.81676 10.2119 8.67331 10.2091 8.52768C10.2463 8.67185 10.3021 8.81006 10.375 8.93857ZM10.6735 10.7949C11.3749 10.0623 11.7256 9.17948 11.7256 8.14651C11.7256 7.11353 11.3749 6.22904 10.6735 5.49304C9.97213 4.76042 9.12696 4.39404 8.13798 4.39404C7.14907 4.39404 6.30231 4.76042 5.59777 5.49304C5.51246 5.58221 5.43192 5.67622 5.36085 5.76533C4.82056 6.44354 4.55042 7.23727 4.55042 8.14651C4.5501 8.34701 4.56439 8.54725 4.59304 8.7455C4.70204 9.52768 5.03856 10.2125 5.60253 10.7999C6.3039 11.5326 7.15066 11.8989 8.14275 11.8989C9.12855 11.8939 9.97213 11.526 10.6735 10.7949Z" fill="white"/>
  <path fill-rule="evenodd" clip-rule="evenodd" d="M5.82941 8.99464C6.56857 9.17783 7.32564 9.27091 8.08532 9.27184C8.94783 9.29659 9.67295 9.21737 10.2653 9.02927C9.63027 10.059 8.82461 10.5689 7.84833 10.549C7.00475 10.4104 6.33654 9.89067 5.82941 8.99464ZM10.3885 8.96989C10.3838 8.96 10.3744 8.95005 10.3696 8.94017C10.2996 8.81198 10.244 8.6757 10.2038 8.53425C10.2066 8.67988 10.2388 8.82333 10.2985 8.95503C9.43127 9.13324 8.654 9.1976 7.97156 9.1481C7.35543 9.13324 6.61614 9.04413 5.7631 8.88569C5.85177 8.77204 5.91351 8.63802 5.94317 8.49464C5.86879 8.62899 5.78145 8.75505 5.68249 8.87083L5.66826 8.88569C5.56168 8.99829 5.44589 9.10099 5.32234 9.19262C5.46272 9.14087 5.59166 9.06006 5.70148 8.95503C6.28439 10.0045 6.98893 10.5821 7.81518 10.6877C8.75829 10.757 9.60188 10.2091 10.3459 9.04413C10.418 9.15779 10.5156 9.25127 10.6303 9.31643C10.5402 9.1976 10.4596 9.08374 10.3885 8.96989ZM9.64926 7.30156C9.67327 7.26016 9.7056 7.22466 9.74403 7.19766C9.7817 7.20164 9.81682 7.21909 9.84356 7.24715C9.82934 7.26195 9.81041 7.2867 9.79142 7.31145C9.72066 7.41813 9.67962 7.54327 9.67295 7.67285C9.66825 7.70735 9.66825 7.74231 9.67295 7.77681H9.61134C9.58555 7.77257 9.56021 7.76593 9.5355 7.75704C9.53074 7.72586 9.53074 7.69408 9.5355 7.66296C9.53842 7.53345 9.57799 7.40765 9.64926 7.30156ZM9.58765 7.2719C9.52089 7.38609 9.48037 7.5148 9.46919 7.6481C9.46499 7.72745 9.46817 7.80707 9.47865 7.88576C9.48723 7.94063 9.50317 7.99391 9.52604 8.04413C9.57818 8.15301 9.6398 8.21246 9.7251 8.21743C9.73063 8.22135 9.73736 8.22314 9.74403 8.22234C9.74924 8.22301 9.75445 8.22122 9.75826 8.21743C9.78017 8.2171 9.80158 8.2102 9.81987 8.1976C9.87138 8.1698 9.9154 8.12899 9.9478 8.07877C10.0172 7.96624 10.0564 7.83633 10.0616 7.70257C10.0779 7.56921 10.0583 7.43373 10.0047 7.31145C9.98781 7.26938 9.96368 7.23077 9.93363 7.19766C9.92156 7.18897 9.91045 7.17901 9.90041 7.16793C9.88034 7.1546 9.85766 7.14617 9.8341 7.14319C9.82629 7.14106 9.81835 7.1394 9.81041 7.13821C9.76442 7.13363 9.71856 7.14783 9.68242 7.17782C9.64526 7.20244 9.61306 7.23435 9.58765 7.2719ZM5.91001 7.03922C5.89579 7.05401 5.87679 7.07883 5.85787 7.10358C5.78704 7.2102 5.74607 7.33533 5.7394 7.46491V7.56397H5.67779C5.652 7.55972 5.6266 7.55309 5.60195 7.54413V7.45011C5.61084 7.32093 5.65162 7.1964 5.72041 7.08871C5.74449 7.04864 5.77688 7.0148 5.81518 6.98972C5.8505 6.99695 5.88327 7.01407 5.91001 7.03922ZM6.12801 7.49463C6.14433 7.36127 6.12464 7.22579 6.07116 7.10358C6.0542 7.06145 6.03013 7.02283 6.00002 6.98972C5.99056 6.97977 5.97633 6.96988 5.96686 6.96C5.94679 6.94666 5.92412 6.93824 5.90055 6.93525C5.89579 6.93027 5.88632 6.93027 5.87679 6.92536C5.83112 6.92318 5.78603 6.93711 5.74887 6.96497C5.71152 6.99337 5.67944 7.0286 5.6541 7.06894C5.58728 7.18306 5.54675 7.31184 5.53557 7.44514C5.53145 7.52283 5.53462 7.60079 5.54504 7.67782C5.55584 7.7321 5.57172 7.78517 5.59249 7.83626C5.63987 7.94514 5.70618 8.00452 5.78679 8.0095C5.79384 8.01401 5.80222 8.01573 5.81048 8.01447C5.81569 8.01507 5.8209 8.01328 5.82471 8.0095C5.84662 8.00917 5.86797 8.00227 5.88632 7.98973C5.93898 7.96139 5.98319 7.9186 6.01425 7.86592C6.08564 7.75618 6.12509 7.62726 6.12801 7.49463ZM10.4597 7.3214C10.4597 7.05401 10.3933 6.85105 10.2606 6.71252C10.1185 6.55408 9.93363 6.50458 9.71087 6.55906C9.46442 6.6333 9.29858 6.81151 9.21321 7.09369C9.33173 6.85105 9.52604 6.70754 9.80564 6.66793C10.1753 6.64319 10.3981 6.86101 10.4597 7.3214ZM6.33177 6.48972C6.18962 6.33128 6.00478 6.28179 5.78202 6.33626C5.52929 6.4105 5.36338 6.58871 5.28442 6.87089C5.39812 6.62832 5.59719 6.48475 5.87209 6.44514C6.24177 6.42039 6.46453 6.63821 6.53084 7.0986C6.53084 6.83128 6.46453 6.62832 6.33177 6.48972ZM7.13274 6.94023C6.97159 7.15798 6.91468 7.39067 6.97159 7.63821C7.00951 7.80156 7.12327 7.94016 7.31281 8.04911C7.38141 8.08115 7.45566 8.09801 7.53081 8.0986C7.54675 8.0994 7.56275 8.09774 7.57819 8.09363H8.00948C8.05381 8.10006 8.08862 8.13642 8.09478 8.18273V8.2867H8.1564V8.09363C8.1517 8.06397 8.1327 8.04911 8.09478 8.04413H7.64927C7.51588 8.04015 7.38617 7.99729 7.27489 7.92039C7.07113 7.76693 7.00475 7.55408 7.08059 7.29167C7.17066 6.9105 7.49765 6.61844 8.07109 6.41541C7.73934 6.45509 7.43127 6.62832 7.13274 6.94023Z" fill="black"/>
  <path fill-rule="evenodd" clip-rule="evenodd" d="M4.60656 5.67348L1.91466 5.04974L4.39803 7.3517L1 7.97053L3.98573 9.04968L1.41706 10.52L4.63025 10.2229L2.63032 12.9209L5.73927 11.3269L5.27007 14.7971L7.02361 12.4605L7.85296 14.8268L8.69178 12.51L10.6633 15.0001L10.2984 11.213L13.1041 13.2377L11.7866 9.92588L14.6348 9.82191L12.0093 8.60415L14.9998 6.64874L11.7012 6.50018L13.7913 3.62896L10.5496 5.13885L11.2368 2.22304L9.46905 3.8765L9.30314 1.00031L7.64443 4.10912L5.84827 1.44086L6.0568 4.60912L3.32222 2.62896L4.60656 5.67348ZM11.7249 8.14874C11.7249 9.18331 11.3742 10.0695 10.6728 10.7972C9.97135 11.5249 9.12783 11.8962 8.13727 11.8962C7.14683 11.8962 6.29849 11.5298 5.59706 10.7972C5.03784 10.213 4.70132 9.52494 4.58763 8.74276C4.55873 8.54451 4.5445 8.34427 4.54494 8.14376C4.54494 7.23287 4.81509 6.43914 5.35537 5.76259C5.43121 5.66851 5.51175 5.57947 5.59236 5.4903C6.29372 4.75768 7.14048 4.3913 8.13257 4.3913C9.12307 4.3913 9.97142 4.75768 10.6681 5.4903C11.3742 6.22796 11.7249 7.10913 11.7249 8.14874Z" stroke="black" stroke-width="0.2" stroke-linecap="round" stroke-linejoin="round"/>
</svg>
