<?xml version="1.0" encoding="UTF-8"?>
<svg width="80px" height="80px" viewBox="0 0 80 80" version="1.1" xmlns="http://www.w3.org/2000/svg" xmlns:xlink="http://www.w3.org/1999/xlink">
    <!-- Generator: Sketch 48.2 (47327) - http://www.bohemiancoding.com/sketch -->
    <title>spinomenal color</title>
    <desc>Created with Sketch.</desc>
    <defs>
        <linearGradient x1="100.010419%" y1="62.8637632%" x2="-0.00762075549%" y2="37.1398449%" id="linearGradient-1">
            <stop stop-color="#34BCD5" offset="0%"></stop>
            <stop stop-color="#A1509E" offset="100%"></stop>
        </linearGradient>
    </defs>
    <g id="Page-1" stroke="none" stroke-width="1" fill="none" fill-rule="evenodd">
        <g id="spinomenal-color" fill="url(#linearGradient-1)">
            <g id="spinomenal" transform="translate(9.500000, 8.000000)">
                <path d="M2.52522269,0.50073819 L31.0958416,0.50073819 C32.7117053,0.491928916 34.3207354,0.711073917 35.8753876,1.15169784 L35.9004246,1.15920891 C46.7664433,4.31936763 54.5459118,11.1569476 59.5292583,21.2938915 C59.786137,21.8156607 60.3449608,22.5006706 59.7686111,23.0024102 C59.1922615,23.5041499 58.6339384,22.8181386 58.1226847,22.5227031 C54.9535127,20.6920042 51.6195978,19.3370067 47.9411751,19.0430734 C38.6670031,18.3014801 29.3758059,18.8863423 20.0941228,18.709081 C18.9809818,18.68805 18.5954134,19.2338546 18.5248094,20.3189543 C18.4046322,22.1671789 19.4947392,22.321907 20.8968062,22.321907 C30.3731095,22.2982054 39.8494128,22.2943664 49.3257162,22.3103901 C50.5088942,22.2865235 51.6916518,22.3755573 52.8579234,22.576282 C57.0849829,23.3412585 60.1388827,27.050927 60.0775666,31.3462107 C60.0839093,41.0605316 60.0839093,50.7760209 60.0775666,60.4926786 C60.0775666,63.0684758 60.0570363,63.0850002 57.4436837,63.0870031 C48.964517,63.0923443 40.4853503,63.0923443 32.0061837,63.0870031 C19.1297011,63.0804935 5.55168432,53.9099743 0.691018703,41.933819 C0.487718997,41.4330808 -0.0245361713,40.8286898 0.440649607,40.375021 C1.02851624,39.8016758 1.58333416,40.491693 2.07305611,40.7861271 C5.72293678,42.981864 9.62368728,44.4184819 13.9054995,44.4550358 C22.5682702,44.5291451 31.2360483,44.5051096 39.9018234,44.5246384 C41.0389999,44.5276428 41.8226551,44.2457272 41.8421839,42.8551773 C41.8632149,41.3629775 41.0169674,41.1151121 39.8091869,41.0680427 C31.9561098,40.7600887 24.1005291,40.9754061 16.2469513,40.9433589 C13.5695042,40.9323426 10.8945608,41.193728 8.21410927,40.9038006 C3.8076132,40.4291007 0.071104823,36.7021064 0.0370546261,32.2730771 C-0.0380561025,22.5046765 0.0370546261,12.7347737 0.0635937502,2.96537156 C0.0652447433,1.60604886 1.16590301,0.504047229 2.52522269,0.50073819 Z" id="Shape"></path>
            </g>
        </g>
    </g>
</svg>