<svg width="44" height="44" viewBox="0 0 44 44" fill="none" xmlns="http://www.w3.org/2000/svg">
<circle cx="22" cy="22" r="20.5" stroke="#F3B233" stroke-width="3"/>
<path d="M22.8641 12.4836C22.4784 11.8213 21.5216 11.8213 21.1359 12.4836L18.6657 16.7247C18.5244 16.9673 18.2876 17.1393 18.0132 17.1987L13.2164 18.2374C12.4673 18.3997 12.1717 19.3096 12.6823 19.8811L15.9525 23.541C16.1396 23.7503 16.23 24.0287 16.2017 24.308L15.7073 29.191C15.6301 29.9535 16.4041 30.5159 17.1055 30.2069L21.5968 28.2277C21.8537 28.1145 22.1463 28.1145 22.4032 28.2277L26.8945 30.2069C27.5959 30.5159 28.3699 29.9535 28.2927 29.191L27.7983 24.308C27.77 24.0287 27.8604 23.7503 28.0475 23.541L31.3177 19.8811C31.8283 19.3096 31.5327 18.3997 30.7836 18.2374L25.9868 17.1987C25.7124 17.1393 25.4756 16.9673 25.3343 16.7247L22.8641 12.4836Z" fill="#F3B233"/>
</svg>
