<svg width="86" height="98" viewBox="0 0 86 98" fill="none" xmlns="http://www.w3.org/2000/svg">
<path d="M53.7173 58.456V64H31.4993V59.59L42.8393 48.88C44.0433 47.732 44.8553 46.752 45.2753 45.94C45.6953 45.1 45.9053 44.274 45.9053 43.462C45.9053 42.286 45.4993 41.39 44.6873 40.774C43.9033 40.13 42.7413 39.808 41.2013 39.808C39.9133 39.808 38.7513 40.06 37.7153 40.564C36.6793 41.04 35.8113 41.768 35.1113 42.748L30.1553 39.556C31.3033 37.848 32.8853 36.518 34.9013 35.566C36.9173 34.586 39.2273 34.096 41.8313 34.096C44.0153 34.096 45.9193 34.46 47.5433 35.188C49.1953 35.888 50.4693 36.896 51.3653 38.212C52.2893 39.5 52.7513 41.026 52.7513 42.79C52.7513 44.386 52.4153 45.884 51.7433 47.284C51.0713 48.684 49.7693 50.28 47.8373 52.072L41.0753 58.456H53.7173Z" fill="#E4590B"/>
<path d="M41.5205 2.39739C42.436 1.86754 43.564 1.86754 44.4795 2.39739L82.5205 24.4143C83.436 24.9442 84 25.9234 84 26.9831V71.0169C84 72.0766 83.436 73.0558 82.5205 73.5857L44.4795 95.6026C43.564 96.1325 42.436 96.1325 41.5205 95.6026L3.47946 73.5857C2.56397 73.0558 2 72.0766 2 71.0169V26.9831C2 25.9234 2.56397 24.9442 3.47946 24.4143L41.5205 2.39739Z" stroke="url(#paint0_linear)" stroke-width="4"/>
<defs>
<linearGradient id="paint0_linear" x1="43" y1="2" x2="43" y2="96" gradientUnits="userSpaceOnUse">
<stop stop-color="#E4590A"/>
<stop offset="1" stop-color="#F37833"/>
</linearGradient>
</defs>
</svg>
