<svg width="86" height="98" viewBox="0 0 86 98" fill="none" xmlns="http://www.w3.org/2000/svg">
<path d="M45.4443 46.57C48.0203 46.99 49.9943 47.956 51.3663 49.468C52.7383 50.952 53.4243 52.8 53.4243 55.012C53.4243 56.72 52.9763 58.302 52.0803 59.758C51.1843 61.186 49.8123 62.334 47.9643 63.202C46.1443 64.07 43.9043 64.504 41.2443 64.504C39.1723 64.504 37.1283 64.238 35.1123 63.706C33.1243 63.146 31.4303 62.362 30.0303 61.354L32.6763 56.146C33.7963 56.986 35.0843 57.644 36.5403 58.12C38.0243 58.568 39.5363 58.792 41.0763 58.792C42.7843 58.792 44.1283 58.47 45.1083 57.826C46.0883 57.154 46.5783 56.216 46.5783 55.012C46.5783 52.604 44.7443 51.4 41.0763 51.4H37.9683V46.906L44.0163 40.06H31.5003V34.6H52.0803V39.01L45.4443 46.57Z" fill="#F3B233"/>
<path d="M41.5205 2.39739C42.436 1.86754 43.564 1.86754 44.4795 2.39739L82.5205 24.4143C83.436 24.9442 84 25.9234 84 26.9831V71.0169C84 72.0766 83.436 73.0558 82.5205 73.5857L44.4795 95.6026C43.564 96.1325 42.436 96.1325 41.5205 95.6026L3.47946 73.5857C2.56397 73.0558 2 72.0766 2 71.0169V26.9831C2 25.9234 2.56397 24.9442 3.47946 24.4143L41.5205 2.39739Z" stroke="url(#paint0_linear)" stroke-width="4"/>
<defs>
<linearGradient id="paint0_linear" x1="43" y1="2" x2="43" y2="96" gradientUnits="userSpaceOnUse">
<stop stop-color="#F3B233"/>
<stop offset="1" stop-color="#F37833"/>
</linearGradient>
</defs>
</svg>
