<?xml version="1.0" encoding="utf-8"?>
<!-- Generator: Adobe Illustrator 19.2.0, SVG Export Plug-In . SVG Version: 6.00 Build 0)  -->
<svg version="1.1" id="Layer_1" xmlns="http://www.w3.org/2000/svg" xmlns:xlink="http://www.w3.org/1999/xlink" x="0px" y="0px"
	 viewBox="0 0 662 86.7" style="enable-background:new 0 0 662 86.7;" xml:space="preserve">
<style type="text/css">
	.st0{fill:#212121;}
	.st1{fill:#737373;}
</style>
<g>
	<path class="st0" d="M240.9,24.8c-0.1,0.2-0.1,0.4-0.1,0.6c-0.1,3.9,0,7.8,0,11.7c0,4,0,7.9,0,11.9c0,7.9,0,15.9,0,23.8
		c0,1.1-0.9,2-2,2c-1.8,0-3.6,0-5.4,0c-0.9,0-1.9-1-2-1.9c-0.2-3.9,0-7.8,0-11.7c0-3.9,0-7.8,0-11.8c0-7.8,0-15.6,0-23.3
		c0-4.5,0-8.9,0-13.4c0-1.2,0.9-2,2-2.1c1.6-0.1,3.2,0,4.8,0c1.5,0,3.1,0,4.6,0c0.6,0,1.6-0.2,2.2,0c0.5,0.2,0.6,0.5,0.8,1
		c4.9,11.4,9.4,22.9,14.1,34.4c1.9,4.7,3.7,9.5,5.8,14.1c0.1,0.2,0.3,0.4,0.5,0.6c0.1-0.2,0.3-0.4,0.4-0.6
		c5.4-12.6,10.4-25.3,15.7-38c1.5-3.7,3-7.3,4.5-11c0.4-0.9,2.6-0.5,3.4-0.5c1.5,0,3,0,4.5,0c1.4,0,2.9-0.1,4.3,0
		c1.1,0,2.2,0.8,2.2,2c0,19.8,0,39.5,0,59.3c0,0.2,0,0.3,0,0.5c0.1,0.8-0.2,1.4-0.8,1.9c-0.4,0.3-0.8,0.5-1.3,0.5
		c-1.8,0-3.6,0-5.5,0c-1.1,0-2.1-1-2.1-2.1c0-7.9,0-15.9,0-23.8c0-4,0-7.9,0-11.9c0-3.9,0.2-7.9,0-11.9c0-0.2-0.2-0.3-0.3-0.5
		c-0.1,0.1-0.3,0.3-0.3,0.4c-5.3,12.7-10.5,25.4-15.6,38.1c-1.5,3.6-3.1,7.2-4.5,10.9c-0.2,0.5-0.5,0.8-1.1,0.8c-2.5,0-4.9,0-7.4,0
		c-0.4,0-0.7-0.2-0.8-0.5c-5.5-12.8-10.6-25.7-16.1-38.5c-1.6-3.7-3.1-7.4-4.6-11.1C241,24.8,240.9,24.8,240.9,24.8
		C240.8,25,240.9,24.8,240.9,24.8z"/>
	<path class="st1" d="M440.5,24.8c0,0.3-0.1,0.5-0.1,0.8c0,15.7,0,31.4,0,47.1c0,1.4-0.9,2.2-2.2,2.2c-1.7,0-3.5,0-5.2,0
		c-0.8,0-1.9-1-1.9-1.8c-0.2-3.8,0-7.7,0-11.5c0-3.9,0-7.8,0-11.8c0-7.9,0-15.8,0-23.7c0-4.5,0-8.9,0-13.4c0-1.1,0.9-1.9,2-2
		c1.4-0.2,3,0,4.4,0c1.4,0,2.9,0,4.3,0c0.8,0,3.2-0.5,3.6,0.5c5.6,13.3,11,26.7,16.5,40.1c0.4,1,0.8,2,1.2,3
		c0.8,1.9,1.5,3.9,2.4,5.8c0.1,0.2,0.3,0.4,0.5,0.6c0.1-0.2,0.3-0.4,0.4-0.6c5.2-12.3,10.2-24.6,15.3-36.9c1.5-3.6,3-7.2,4.5-10.9
		c0.2-0.4,0.3-0.8,0.5-1.2c0.4-0.9,2.7-0.4,3.5-0.4c1.5,0,2.9,0,4.4,0c1.4,0,2.8,0,4.2,0c1.1,0,2.3,0.6,2.3,1.9
		c0.2,7.8,0,15.7,0,23.5c0,7.8,0,15.6,0,23.4c0,4.5,0,8.9,0,13.4c0,1.1-0.9,2.1-2.1,2.1c-1.7,0-3.4,0-5.1,0c-1.2,0-2.5-0.7-2.5-2.1
		c0-7.9,0-15.9,0-23.8c0-3.9,0-7.9,0-11.8c0-4,0.2-8,0-11.9c0-0.2-0.2-0.4-0.3-0.6c-0.1,0.2-0.3,0.3-0.4,0.5
		C485.5,38,480.4,50.9,475,63.7c-1.5,3.6-2.9,7.2-4.4,10.7c-0.1,0.2-0.5,0.5-0.8,0.5c-2.5,0-5.1,0-7.6,0c-0.2,0-0.5-0.2-0.6-0.4
		c-0.3-0.6-0.6-1.2-0.9-1.8c-4.9-11.8-9.8-23.6-14.8-35.4c-1.5-3.4-2.9-6.8-4.3-10.3c-0.2-0.6-0.4-1.1-0.7-1.7
		c-0.1-0.2-0.1-0.3-0.2-0.5C440.6,24.8,440.6,24.8,440.5,24.8C440.5,25.1,440.6,24.8,440.5,24.8z"/>
	<path class="st1" d="M579.4,63c0-0.2,0.1-0.3,0.1-0.5c0-16.6,0-33.1,0-49.7c0-2.4,2.7-2.1,4.4-2.1c1.5,0,4.9-0.6,4.9,1.9
		c0.1,7.7,0,15.5,0,23.2c0,7.9,0,15.8,0,23.8c0,4.5,0,8.9,0,13.4c0,1.1-0.9,2-2,2c-2.2,0-4.4,0-6.5,0c-1.1,0-2.1,0-3.2,0
		c-0.8,0-1.5,0.1-2-0.7c-8-13.3-16.5-26.4-24.7-39.6c-2.3-3.7-4.5-7.4-6.8-11c-0.1-0.1-0.3-0.2-0.4-0.3c-0.1,0.1-0.2,0.3-0.2,0.4
		c-0.1,2.1,0,4.2,0,6.3c0,2,0,4,0,6c0,4.1,0,8.2,0,12.3c0,8.2,0,16.4,0,24.6c0,1-1,2-2,2c-1.8,0-3.6,0-5.4,0c-1,0-2-1-2-2.1
		c0-19.8,0-39.7,0-59.5c0-0.7,0-1.3,0.6-1.8c0.8-0.8,1.6-0.8,2.7-0.7c1.2,0,2.5,0,3.7,0c1.2,0,2.5,0,3.7,0c0.9,0,2.4-0.4,3,0.6
		c8.2,13.2,16.3,26.5,24.5,39.7c2.3,3.8,4.6,7.6,7,11.3c0.1,0.2,0.4,0.4,0.5,0.7C579.3,63,579.4,63,579.4,63
		C579.5,62.8,579.4,63,579.4,63z"/>
	<path class="st1" d="M637.8,41.7c4.3,0,8.6,0,13,0c0.8,0,0.7,0.1,1,0.8c0.6,1.3,0.3,2.6,0.4,3.8c0.1,2,0,4,0,6c0,2.4,0,4.8-0.4,7.2
		c-0.4,2.5-0.9,4.9-1.6,7.3c-0.9,2.9-2.7,5-5.5,6.3c-2.7,1.3-5.5,1.7-8.4,1.9c-0.8,0-9.3,0.8-15.9,0.2c-0.8-0.1-1.5-0.1-2.3-0.2
		c-2.5-0.2-4.9-0.6-7.3-1.3c-2-0.6-3.9-1.4-5.6-2.5c-1.4-1-2.5-2.2-3.4-3.7c-2-3.5-2.6-7.3-3-11.2c-0.4-3.9-0.3-7.8-0.3-11.7
		c0-4.3,0-8.5,0.2-12.8c0.1-3,0.4-5.9,1.2-8.7c0.8-2.9,2.1-5.6,4.3-7.8c1.6-1.5,3.5-2.6,5.7-3.3c2.5-0.8,5-1.1,7.6-1.5
		c4-0.5,8-0.4,12-0.3c3.1,0.1,6.3,0,9.3,0.5c2.2,0.3,4.3,0.8,6.3,1.9c2.1,1.2,3.6,2.9,4.7,5c0.8,1.6,1.3,3.3,1.7,5.1
		c0.2,0.9,0.6,5.3,0.7,5.6c0.2,1.2-0.5,2-1.3,2.7c-0.2,0.2-0.5,0.2-0.7,0.2c-1.7,0-3.4,0-5.1,0c-1,0-2.4-0.4-2.5-1.7
		c-0.1-1.6-0.2-3.1-0.4-4.7c-0.2-1.2-0.6-2.6-1.3-3.6c-0.7-0.9-1.8-1.3-2.8-1.6c-2-0.6-4.1-0.5-6.1-0.6c-2.3-0.1-4.5-0.1-6.8-0.1
		c-4.2,0-8.6-0.3-12.6,1.3c-1.2,0.5-2.1,1.4-2.6,2.6c-1,2.7-1.3,5.5-1.4,8.3c-0.2,5.3-0.3,10.6-0.2,15.9c0,3.1,0.1,6.1,0.4,9.2
		c0.1,1.7,0.5,3.4,0.9,5.1c0.4,1.6,1.5,2.8,3,3.5c2.3,1.1,4.7,1.4,7.2,1.5c3.6,0.1,7.2,0.2,10.8,0.2c2.4,0,4.7-0.1,7-0.8
		c0.9-0.2,1.7-0.6,2.5-1.1c0.9-0.6,1.4-1.6,1.6-2.6c0.4-1.5,0.7-3,0.8-4.5c0.2-2.2,0.1-4.4,0.2-6.5c0-1.1-2.5-0.7-3.2-0.7
		c-1.6,0-3.2,0-4.8,0c-3.2,0-6.4,0-9.5,0c-1.1,0-2.1-0.9-2.1-2.1c0-1.5,0-3,0-4.6c0-1.1,0.9-2,2-2C629.1,41.7,633.4,41.7,637.8,41.7
		z"/>
	<path class="st1" d="M350.3,41.7c4.3,0,8.6,0,13,0c0.8,0,0.9,0,1,0.9c0.1,1,0.2,2.1,0.2,3.1c0,3.4,0.1,6.8,0,10.2
		c-0.1,2.1-0.4,4.2-0.8,6.3c-0.8,4.1-1.9,8.1-5.6,10.4c-1.9,1.2-4,1.8-6.2,2.1c-1.7,0.2-3.5,0.3-5.3,0.4c-2.3,0.1-13.9,0.1-14.4,0
		c-0.9-0.1-1.8-0.1-2.8-0.2c-2.1-0.3-4.3-0.6-6.4-1.2c-1.9-0.6-3.8-1.4-5.5-2.5c-1.4-1-2.5-2.2-3.4-3.7c-1.3-2.3-2.1-4.7-2.5-7.3
		c-0.3-2-0.5-4-0.6-6c-0.1-3.2-0.2-6.4-0.2-9.7c0-4.2,0-8.4,0.2-12.6c0.1-3,0.4-6,1.2-8.9c0.8-2.7,1.9-5.3,3.9-7.3
		c1.3-1.4,2.8-2.4,4.6-3.1c1.2-0.5,2.4-0.9,3.6-1.2c1.6-0.4,3.3-0.5,5-0.8c4.2-0.7,8.5-0.2,12.8-0.3c3.3,0.1,6.1,0.1,9.1,0.5
		c2.2,0.3,4.3,0.8,6.3,1.9c2.1,1.2,3.6,2.9,4.7,5c1.3,2.6,1.9,5.4,2,8.3c0,1.1,0.1,2.3,0.1,3.4c0,2.4-2.9,2-4.4,2
		c-1.6,0-4.9,0.6-5-1.8c-0.1-1.6-0.2-3.2-0.5-4.8c-0.2-1-0.5-2-1-2.9c-0.6-1.2-1.9-1.6-3.1-2c-1.8-0.5-3.7-0.5-5.5-0.6
		c-4.2-0.1-8.4-0.2-12.5-0.1c-2.5,0-5,0.3-7.4,1.3c-1.9,0.8-2.5,2.4-3,4.2c-0.6,2.2-0.8,4.4-0.9,6.6c-0.2,5.2-0.3,10.5-0.2,15.8
		c0,3.1,0.1,6.3,0.4,9.4c0.1,1.7,0.5,3.5,1,5.2c1,3.8,5.8,4.8,9.2,4.9c3.9,0.1,7.9,0.2,11.8,0.2c2.3,0,4.6-0.1,6.9-0.8
		c0.9-0.2,1.7-0.6,2.5-1.1c1-0.6,1.4-1.6,1.6-2.6c0.4-1.5,0.6-3,0.7-4.5c0.2-2.2,0.1-4.4,0.2-6.5c0-0.8-1-0.7-1.5-0.7
		c-0.9,0-1.9,0-2.8,0c-2.1,0-4.1,0-6.2,0c-2,0-4,0-6,0c-1.5,0-3.1-0.3-3.1-2.1c0-1.5,0-3,0-4.4c0-2.9,4-2.1,5.8-2.1
		C344.2,41.7,347.2,41.7,350.3,41.7z"/>
	<path class="st0" d="M40.9,66.7c2.4-0.1,4.8-0.3,7.1-0.9c1.2-0.4,2.4-1,3-2.3c0.7-1.6,1-3.7,1.1-5.4c0.2-2.7,0.1-5.4-0.8-8.1
		c-0.3-0.9-1-1.6-1.9-1.9c-1.2-0.4-2.5-0.8-3.8-0.9c-1.6-0.2-3.2-0.1-4.8-0.2c-3.1-0.2-6.2-0.3-9.3-0.6c-3-0.3-6-1-9-1.8
		c-3.3-0.9-5.9-2.8-7.4-5.8c-1.7-3.5-1.9-7.4-1.9-11.3c0-2.6,0.3-5.3,1.1-7.8c0.8-2.4,2.2-4.6,4.4-6c2.8-1.7,6-2.3,9.2-2.9
		c3.2-0.6,6.7-0.8,10-0.7c1.7,0,3.3,0.3,5,0.5c1.7,0.2,3.3,0.3,5,0.6c2.1,0.4,4.1,1,6.1,1.7c4.7,1.7,6.2,7.7,6.4,12.1
		c0.1,1.7,0.8,5.1-1.9,5.1c-1.6,0-3.1,0-4.7,0c-0.7,0-2.3,0.4-2.6-0.5c-0.2-0.5,0-1.3-0.1-1.8c0-0.7-0.1-1.3-0.2-2
		c-0.2-1.3-0.5-2.7-1.1-3.9c-1.1-2.2-3.7-2.6-5.9-2.9c-3-0.4-6.2-0.3-9.3-0.2c-3.9,0.2-9.9-0.1-11.3,4.5c-0.7,2.3-0.5,4.6-0.5,6.9
		c0,1.4,0.4,2.7,0.9,4c0.5,1.2,1.4,1.9,2.6,2.4c1.9,0.7,3.9,0.9,5.9,0.9c2.2,0.1,4.3,0,6.5,0.1c2.9,0.2,5.8,0.4,8.6,0.8
		c2.3,0.3,4.6,0.9,6.8,1.5c2.7,0.8,4.5,2.6,5.7,5.1c1.4,3,1.8,6.2,1.9,9.5c0,1.5,0.1,3-0.1,4.5c-0.3,2.7-0.7,5.4-1.6,7.9
		c-0.6,1.7-1.5,3.3-2.9,4.5c-1.4,1.2-3,1.9-4.7,2.4c-3.1,0.9-6.5,1-9.7,1.1c-3.3,0-6.6,0.1-9.9,0c-2.7,0-5.4-0.4-8.1-1
		c-1.8-0.4-3.5-0.9-5.2-1.6c-1.9-0.8-3.3-2.1-4.4-3.9c-1.1-1.9-1.6-4-2.1-6.1c-0.5-2-0.4-4-0.4-6.1c0-0.8-0.1-1.5,0.3-2.2
		c0.3-0.5,1-1.1,1.7-1.1c1.9,0,3.8,0,5.7,0c0.9,0,1.9,1.1,1.9,2c-0.1,2.2,0.1,4.4,0.7,6.6c0.4,1.4,0.8,2.9,2.3,3.6
		c1.3,0.6,2.7,1,4.1,1.1c2.5,0.2,5.1,0.3,7.6,0.5C38.9,66.9,39.6,66.7,40.9,66.7z"/>
	<path class="st0" d="M172.5,42.9c0,10,0,20,0,30c0,1-1,2.1-2,2.1c-1.9,0-3.7,0-5.6,0c-1,0-2-0.9-2-2c0-8.5,0-16.9,0-25.4
		c0-1-0.1-1.1-1.1-1.1c-10.4,0-20.8,0-31.2,0c-1,0-1.1,0.1-1.1,1.1c0,8.5,0,16.9,0,25.4c0,1.1-1,2-2,2c-1.8,0-3.7,0-5.5,0
		c-0.9,0-1.9-1-1.9-1.9c-0.2-7.7,0-15.4,0-23.1c0-7.9,0-15.8,0-23.7c0-4.5,0-8.9,0-13.4c0-2.4,3-2,4.6-2c1.6,0,4.9-0.5,4.9,2
		c0,4.7,0,9.4,0,14.1c0,2.3,0,4.5,0,6.8c0,1.1,0,2.3,0,3.4c0,0.7,0.2,0.9,1,0.9c10.5,0,21,0,31.4,0c0.9,0,1-0.1,1-1
		c0-8,0-16.1,0-24.1c0-2.5,2.8-2.1,4.5-2.1c1.6,0,5.2-0.6,5.2,2C172.5,22.8,172.5,32.8,172.5,42.9C172.5,52.9,172.5,32.8,172.5,42.9
		z"/>
	<path class="st1" d="M395.8,10.7c1.4,0,2.7,0,4.1,0c0.9,0,1.7-0.1,2,0.9c2.3,6.2,4.6,12.5,6.9,18.7c0.6,1.5,1.2,3,1.7,4.4
		c2.4,6.3,4.7,12.7,7.1,19c2.3,6.3,4.8,12.6,7.1,19c0,0.1,0.1,0.2,0.1,0.3c0,0.8-1.2,1.9-1.9,1.9c-2.2,0-4.3,0-6.5,0
		c-0.7,0-1-0.2-1.3-0.9c-1.3-3.6-2.7-7.2-4-10.9c-0.2-0.6-0.4-1.1-1.1-1.2c-1.2-0.2-2.5,0-3.7,0c-2.7,0-5.3,0-8,0
		c-5.3,0-10.6,0-15.9,0c-0.7,0-1.1,0.1-1.4,0.7c-0.5,1-0.8,2.2-1.2,3.3c-0.8,2.3-1.6,4.6-2.4,6.9c-0.2,0.5-0.3,0.9-0.5,1.4
		c-0.2,0.5-0.5,0.7-1,0.7c-2.3,0-4.6,0-6.9,0c-0.7,0-1.4-0.7-1.7-1.3c-0.3-0.9,0.2-1.8,0.5-2.6c0.8-2.1,1.5-4.3,2.3-6.4
		c1.6-4.3,3.1-8.5,4.7-12.8c3.1-8.5,6.2-16.9,9.3-25.4c1.7-4.7,3.4-9.4,5.1-14.1c0-0.1,0.1-0.1,0.1-0.2c0.3-0.8,0.5-1.3,1.5-1.4
		C392.5,10.6,394.1,10.7,395.8,10.7C395.8,10.7,395.8,10.7,395.8,10.7C397.4,10.7,395.8,10.7,395.8,10.7z M395.8,53.6
		C395.8,53.6,395.8,53.6,395.8,53.6c3.6,0,7.2,0,10.8,0c0.7,0,0.9-0.2,0.7-0.9c0-0.1-0.1-0.3-0.1-0.4c-3.7-10-7.2-20-10.9-30.1
		c-0.1-0.2-0.2-0.4-0.3-0.6c-0.2,0.2-0.4,0.3-0.5,0.5c-3.9,10.1-7.1,20.5-11,30.7c-0.3,0.9,0.5,0.8,1.1,0.8c1.2,0,2.3,0,3.5,0
		C391.3,53.6,393.5,53.6,395.8,53.6C395.8,53.6,392.2,53.6,395.8,53.6z"/>
	<path class="st0" d="M94.3,46.8c0,8.7,0,17.3,0,26c0,1.1-1,2.1-2.1,2.1c-1.9,0-3.8,0-5.6,0c-1,0-2-1-2-2c-0.2-9.4,0-18.9,0-28.4
		c0-4.7,0-9.4,0-14.1c0-2.4,0-4.8,0-7.1c0-0.8,0.3-2.3,0-3c-0.3-0.7-1.4-0.5-2.1-0.5c-5.3,0-10.6,0-15.9,0c-1.2,0-2-0.9-2-2
		c0-1.7,0-3.4,0-5.1c0-1,1-2,2-2c8.4,0,16.7,0,25.1,0c4.1,0,8.2,0,12.3,0c2.1,0,4.2,0,6.4,0c1.5,0,3.7,0,3.7,2.1c0,1.2,0,2.5,0,3.7
		c0,1,0.1,2.1-0.7,2.8c-0.8,0.7-2,0.5-3,0.5c-1.3,0-2.5,0-3.8,0c-2.5,0-4.9,0-7.4,0c-1.3,0-2.5,0-3.8,0c-0.8,0-1,0.2-1,1
		C94.2,29.5,94.2,38.2,94.3,46.8C94.2,46.8,94.3,46.8,94.3,46.8C94.3,55.5,94.3,46.8,94.3,46.8z"/>
	<path class="st0" d="M183.9,42.8c0-10,0-20,0-30c0-2.5,3-2.1,4.7-2.1c1.6,0,5.3-0.6,5.3,1.9c0,17.5,0,34.9,0,52.4
		c0,1.2,2,0.8,2.8,0.8c1.5,0,3,0,4.6,0c3,0,5.9,0,8.9,0c3,0,5.9,0,8.9,0c1.8,0,6-0.8,6,2c0,1.7,0,3.3,0,5c0,1.1-0.9,2-2,2
		c-12.4,0-24.8,0-37.2,0c-0.8,0-1.9-1-1.9-1.8c-0.2-5,0-10.1,0-15.1C183.9,52.9,183.9,47.9,183.9,42.8
		C183.9,42.8,183.9,42.8,183.9,42.8C183.9,32.8,183.9,42.8,183.9,42.8z"/>
	<path class="st1" d="M522.1,42.8c0,10,0,20,0,30c0,1.1-0.9,2.1-2.1,2.1c-1.8,0-3.6,0-5.5,0c-1.1,0-2.1-1-2.1-2c0-20,0-40.1,0-60.1
		c0-2.5,3.2-2,4.8-2c1.6,0,4.8-0.5,4.8,2C522.1,22.8,522.1,32.8,522.1,42.8C522.1,52.8,522.1,32.8,522.1,42.8z"/>
</g>
</svg>
