<svg width="36" height="38" viewBox="0 0 36 38" fill="none" xmlns="http://www.w3.org/2000/svg">
<path d="M23.7579 32.8201C23.7579 35.1839 21.8416 37.1001 19.4779 37.1001C17.1141 37.1001 15.1979 35.1839 15.1979 32.8201C15.1979 30.4564 17.1141 28.5401 19.4779 28.5401C21.8416 28.5401 23.7579 30.4564 23.7579 32.8201Z" stroke="#52586F" stroke-width="1.8"/>
<path d="M3 27.1C1.8402 27.1 0.9 26.1598 0.9 25L0.899999 16C0.899999 14.8402 1.8402 13.9 3 13.9L8 13.9C8.05523 13.9 8.1 13.9448 8.1 14L8.1 20.5L8.1 27C8.1 27.0552 8.05523 27.1 8 27.1L3 27.1Z" stroke="#52586F" stroke-width="1.8"/>
<path d="M33 13.9C34.1598 13.9 35.1 14.8402 35.1 16L35.1 25C35.1 26.1598 34.1598 27.1 33 27.1L28 27.1C27.9448 27.1 27.9 27.0552 27.9 27L27.9 14C27.9 13.9448 27.9448 13.9 28 13.9L33 13.9Z" stroke="#52586F" stroke-width="1.8"/>
<path d="M5 14V12.375C5 6.09276 10.5964 1 17.5 1C24.4036 1 30 6.09276 30 12.375V14" stroke="#52586F" stroke-width="1.8"/>
<path d="M23.999 33.0002C26.774 33.0002 30.0271 30.6002 30.9521 27.8252" stroke="#52586F" stroke-width="1.8"/>
</svg>
