<?xml version="1.0" encoding="UTF-8"?>
<svg width="80px" height="80px" viewBox="0 0 80 80" version="1.1" xmlns="http://www.w3.org/2000/svg" xmlns:xlink="http://www.w3.org/1999/xlink">
    <!-- Generator: Sketch 48.2 (47327) - http://www.bohemiancoding.com/sketch -->
    <title>thunderkick color</title>
    <desc>Created with Sketch.</desc>
    <defs></defs>
    <g id="Page-1" stroke="none" stroke-width="1" fill="none" fill-rule="evenodd">
        <g id="thunderkick-color" fill="#FF9F00" fill-rule="nonzero">
            <path d="M67.7408132,52.5171777 L69.8103683,37.9728042 L61.1115803,19.7189648 L55.1933788,21.7461607 L47.4718807,13.4649145 L33.8261298,6.03085458 L30.839798,17.059405 L28.7218322,11.2682814 L18.25303,21.5071331 L12.3892904,31.7490105 L12.1290832,42.3630447 L8.00207559,40.3993878 L10.8098931,57.406653 L17.2000984,68.3595618 L32.2648864,73.5213469 L44.6035499,73.9691454 L65.8770033,66.1931853 L71.9979244,51.0648584 L67.7408132,52.5171777 Z M58.5367391,44.4568051 L46.4734111,44.7593717 L46.0377153,58.329481 L45.3871972,66.3626226 L34.8790613,66.2536987 L34.8790613,58.5533802 L34.0106953,45.0921949 L21.399722,45.633789 L20.9731031,32.6082994 L39.5355604,32.4993755 L58.7515613,31.9577814 L59.0783332,33.6945133 L58.5367391,44.4568051 Z" id="Shape"></path>
        </g>
    </g>
</svg>