<svg id="lcoagsoi" viewBox="0 0 191 191" version="1.1" xmlns="http://www.w3.org/2000/svg" xmlns:xlink="http://www.w3.org/1999/xlink" style="position:absolute"><g stroke="none" stroke-width="1" fill="none" fill-rule="evenodd"><circle fill="#FFFFFF" cx="95.5" cy="95.5" r="95.5"></circle><g transform="translate(27.000000, 29.000000)" fill="#0A0A08"><path d="M108.967577,79.9639869 L82.9601759,80.6421521 L82.0223206,108.889945 L80.619604,125.613474 L57.9608304,125.386593 L57.9608304,109.343708 L56.087688,81.318251 L28.9112853,82.4481131 L27.9747141,55.3285295 L68.0011477,55.1028877 L109.435862,53.9738521 L110.137863,57.5907333 L108.967577,79.9639869 Z M128.816637,96.7722356 L133.305587,66.4940798 L114.521941,28.4969905 L101.7618,32.7176495 L85.1076977,15.4787804 L55.6878902,0 L49.2478931,22.959261 L44.7028689,10.9047811 L22.1053063,32.2167743 L9.4641633,53.5436449 L8.90555936,75.6412518 L0,71.5495309 L6.07059086,106.952153 L19.8370746,129.751068 L52.3187166,140.498395 L78.9232459,141.432784 L124.799397,125.24691 L138,93.7339231 L128.816637,96.7722356 L128.816637,96.7722356 Z"></path></g></g></svg>
