<svg width="19" height="23" viewBox="0 0 19 23" fill="none" xmlns="http://www.w3.org/2000/svg">
<path fill-rule="evenodd" clip-rule="evenodd" d="M12.8944 4.07999L13.6382 4.34941C13.5247 5.24937 14.1009 6.11175 15.0037 6.33494C15.7777 6.5263 16.5586 6.1901 16.967 5.55516L17.8001 5.85693C18.433 6.08618 18.6621 6.86164 18.2816 7.41657C18.0614 7.73759 17.8565 8.05185 17.6649 8.3619C15.9507 11.126 14.8876 15.0098 14.4079 17.4022C14.2827 18.0263 13.6299 18.408 13.0335 18.1847L12.0172 17.804C12.1203 16.9109 11.5458 16.059 10.6494 15.8374C9.89534 15.6509 9.13473 15.9652 8.71844 16.5686L7.86876 16.2504C7.45298 16.0946 7.18803 15.6847 7.25748 15.2464C7.54495 13.4325 8.49177 9.96653 10.7216 6.24131C11.0206 5.68913 11.3441 5.11632 11.6961 4.51151C11.9377 4.09647 12.4426 3.91638 12.8944 4.07999Z" fill="#E45809"/>
<path fill-rule="evenodd" clip-rule="evenodd" d="M5.16665 1.40572L6.68717 1.56617C6.84145 2.87666 7.95664 3.89333 9.30944 3.89333C10.4694 3.89333 11.4546 3.14589 11.8092 2.10666L13.7021 2.3064C14.3715 2.37704 14.7809 3.07499 14.5351 3.70125C14.2465 4.43615 13.9943 5.14094 13.7742 5.82612C12.2401 10.5743 12.1645 16.8289 12.3638 20.2902C12.4004 20.9257 11.8594 21.4522 11.2268 21.3785L9.1009 21.1309C8.93382 19.8343 7.82506 18.8324 6.48217 18.8324C5.35264 18.8324 4.38876 19.5412 4.01156 20.538L2.36059 20.3457C1.91956 20.2943 1.56359 19.9602 1.51699 19.519C1.24887 16.9798 1.30033 11.5616 3.2285 5.25569C3.48578 4.26344 3.7774 3.22375 4.1061 2.11187C4.24222 1.65139 4.68884 1.3553 5.16665 1.40572Z" fill="#E45809"/>
<path fill-rule="evenodd" clip-rule="evenodd" d="M6.83402 0.173789L7.94669 0.2912L8.07751 1.40237C8.14968 2.01547 8.6741 2.49322 9.30938 2.49322C9.85271 2.49322 10.3172 2.14368 10.4842 1.65444L10.845 0.597033L13.8489 0.914016C15.4686 1.08493 16.4106 2.75465 15.8382 4.21278C15.5595 4.92253 15.3174 5.59943 15.1071 6.25414L15.1064 6.25645C13.6532 10.754 13.5651 16.7995 13.7615 20.2096C13.8464 21.6844 12.5901 22.9467 11.0647 22.769L7.85214 22.3948L7.71232 21.3097C7.63414 20.703 7.11264 20.2323 6.48211 20.2323C5.95312 20.2323 5.4987 20.5635 5.32089 21.0334L4.93434 22.0549L2.19854 21.7362C1.1595 21.6151 0.245432 20.8095 0.12467 19.6659C-0.161478 16.956 -0.0972967 11.3602 1.8808 4.87513C2.14102 3.87314 2.43459 2.82736 2.76347 1.71486C3.09262 0.601464 4.16965 -0.107362 5.31351 0.0133408L5.16659 1.40561C4.68879 1.35519 4.24216 1.65128 4.10604 2.11176C3.77734 3.22363 3.48572 4.26333 3.22844 5.25558C1.30027 11.5614 1.24881 16.9797 1.51693 19.5189C1.56353 19.9601 1.9195 20.2942 2.36053 20.3456L4.0115 20.5379C4.3887 19.5411 5.35258 18.8323 6.48211 18.8323C7.82501 18.8323 8.93376 19.8342 9.10084 21.1308L11.2267 21.3784C11.8593 21.4521 12.4004 20.9256 12.3638 20.2901C12.1644 16.8288 12.24 10.5742 13.7742 5.82601C13.9943 5.14083 14.2465 4.43604 14.535 3.70114C14.7809 3.07488 14.3715 2.37693 13.702 2.30629L11.8092 2.10655C11.4546 3.14578 10.4693 3.89322 9.30938 3.89322C7.95658 3.89322 6.84139 2.87655 6.68711 1.56606L5.16659 1.40561M6.83402 0.173789L5.31351 0.0133408L6.83402 0.173789Z" fill="#0E152F"/>
<path d="M7.72626 8.58898C7.65687 8.45239 7.46584 8.44139 7.3812 8.5691L6.3781 10.0826C6.34709 10.1294 6.29784 10.161 6.24237 10.1697L4.44776 10.4512C4.29633 10.4749 4.22683 10.6531 4.32221 10.773L5.45262 12.1941C5.48756 12.238 5.50242 12.2946 5.49356 12.35L5.20686 14.1427C5.18267 14.294 5.33074 14.4151 5.47433 14.3615L7.17607 13.7262C7.22866 13.7066 7.2871 13.71 7.33709 13.7355L8.95452 14.562C9.09099 14.6317 9.25201 14.5284 9.24537 14.3753L9.16669 12.5616C9.16426 12.5056 9.18552 12.4511 9.22528 12.4114L10.5116 11.1296C10.6201 11.0214 10.5716 10.8364 10.4239 10.7955L8.67352 10.3098C8.61942 10.2948 8.57412 10.2577 8.5487 10.2077L7.72626 8.58898Z" fill="#0E152F"/>
</svg>
