<svg width="17" height="16" viewBox="0 0 17 16" fill="none" xmlns="http://www.w3.org/2000/svg">
<path fill-rule="evenodd" clip-rule="evenodd" d="M5.28765 8.15522C4.35889 7.29584 3.77778 6.06847 3.77778 4.70588C3.77778 2.1069 5.892 0 8.5 0C11.108 0 13.2222 2.1069 13.2222 4.70588C13.2222 6.06847 12.6411 7.29584 11.7123 8.15522C14.8142 9.41791 17 12.4546 17 16H0C0 12.4546 2.18576 9.41791 5.28765 8.15522ZM11.3333 4.70588C11.3333 6.26528 10.0648 7.52941 8.5 7.52941C6.93519 7.52941 5.66667 6.26528 5.66667 4.70588C5.66667 3.14648 6.93519 1.88235 8.5 1.88235C10.0648 1.88235 11.3333 3.14648 11.3333 4.70588ZM2.83333 14.1176C2.83333 11.5187 5.37037 9.41177 8.5 9.41177C11.6296 9.41177 14.1667 11.5187 14.1667 14.1176H2.83333Z" fill="white"/>
</svg>
