<svg width="14" height="16" viewBox="0 0 14 16" fill="none" xmlns="http://www.w3.org/2000/svg">
<path d="M7 8.0001C8.09902 8.0001 9.05068 7.60591 9.82825 6.82818C10.6058 6.05057 11 5.09912 11 3.99992C11 2.90111 10.6058 1.94953 9.82813 1.17167C9.05043 0.394189 8.09889 0 7 0C5.90086 0 4.94945 0.394189 4.17187 1.1718C3.3943 1.94941 3 2.90098 3 3.99992C3 5.09912 3.3943 6.0507 4.172 6.8283C4.9497 7.60579 5.90124 8.0001 7 8.0001Z" fill="url(#paint0_linear)"/>
<path d="M13.99 12.851C13.9673 12.5204 13.9213 12.1598 13.8536 11.7789C13.7852 11.3953 13.6972 11.0326 13.5919 10.701C13.4831 10.3584 13.3351 10.02 13.1522 9.69576C12.9623 9.35919 12.7393 9.06613 12.4891 8.82497C12.2274 8.57267 11.9071 8.36983 11.5366 8.22187C11.1674 8.07469 10.7582 8.00013 10.3206 8.00013C10.1487 8.00013 9.98249 8.0712 9.66147 8.28181C9.4639 8.41164 9.23281 8.5618 8.97486 8.72788C8.7543 8.8695 8.45551 9.00218 8.08644 9.12231C7.72638 9.23971 7.36078 9.29926 6.99994 9.29926C6.6391 9.29926 6.27364 9.23971 5.91319 9.12231C5.54451 9.00231 5.24572 8.86962 5.02541 8.72801C4.76991 8.56348 4.53868 8.41332 4.33816 8.28168C4.01753 8.07107 3.85117 8 3.67929 8C3.24151 8 2.8325 8.07469 2.46344 8.222C2.09322 8.3697 1.77272 8.57254 1.51079 8.82509C1.26068 9.06638 1.03755 9.35932 0.847944 9.69576C0.665148 10.02 0.517164 10.3583 0.408231 10.7012C0.303024 11.0327 0.21503 11.3953 0.14669 11.7789C0.0789925 12.1593 0.0330044 12.52 0.0102673 12.8514C-0.0126278 13.1828 0.00989821 13.2783 0.0100256 13.6848C0.0102673 14.456 0.696432 15.1181 0.806966 15.2136C1.51079 15.8218 2.07112 16.0001 2.9467 16.0001H11.054C11.9295 16.0001 12.6493 15.7355 13.1936 15.2136C13.4831 14.9359 13.9018 14.456 13.99 13.6848C13.99 13.3383 14.0125 13.1741 13.99 12.851Z" fill="url(#paint1_linear)"/>
<defs>
<linearGradient id="paint0_linear" x1="7" y1="0" x2="7" y2="8.0001" gradientUnits="userSpaceOnUse">
<stop stop-color="#F3B133"/>
<stop offset="1" stop-color="#F37933"/>
</linearGradient>
<linearGradient id="paint1_linear" x1="7" y1="8" x2="7" y2="16.0001" gradientUnits="userSpaceOnUse">
<stop stop-color="#F3B133"/>
<stop offset="1" stop-color="#F37933"/>
</linearGradient>
</defs>
</svg>
