<svg width="121" height="76" viewBox="0 0 121 76" fill="none" xmlns="http://www.w3.org/2000/svg">
<path d="M120.8 71.3396C120.8 73.819 118.817 75.8025 116.337 75.8025H5.26285C2.78352 75.8025 0.800049 73.819 0.800049 71.3396V4.56279C0.800049 2.08345 2.78352 0.0999756 5.26285 0.0999756H116.337C118.817 0.0999756 120.8 2.08345 120.8 4.56279V71.3396V71.3396Z" fill="white"/>
<path d="M46.4199 22.0834L33.0315 53.9842H24.2711L17.6595 28.5297C17.329 27.0421 16.8331 26.3809 15.6761 25.7198C13.6926 24.728 10.3868 23.571 7.5769 23.0751L7.74219 22.0834H21.7918C23.61 22.0834 25.2629 23.2404 25.5934 25.3892L29.0645 43.9016L37.6595 22.2487H46.4199V22.0834ZM80.6348 43.571C80.6348 35.1413 69.0645 34.6454 69.0645 31.009C69.0645 29.852 70.2215 28.695 72.5356 28.3644C73.6926 28.1991 76.9984 28.0338 80.6348 29.852L82.1224 23.0751C80.1389 22.414 77.6596 21.5875 74.3538 21.5875C66.2546 21.5875 60.4695 25.885 60.4695 32.166C60.4695 36.7941 64.6017 39.2735 67.7422 40.7611C70.8827 42.2487 72.0397 43.2404 72.0397 44.728C72.0397 46.8768 69.5604 47.8685 67.081 47.8685C62.9488 47.8685 60.4695 46.7115 58.6513 45.8851L57.1637 52.8272C59.1472 53.6536 62.6182 54.4801 66.2546 54.4801C74.8496 54.4801 80.4695 50.1826 80.6348 43.571ZM102.122 53.9842H109.726L103.114 22.0834H96.0067C94.3538 22.0834 93.0315 23.0751 92.5356 24.3974L80.1389 53.9842H88.7339L90.3868 49.1908H100.965L102.122 53.9842ZM92.8662 42.7446L97.1637 30.8437L99.643 42.7446H92.8662ZM58.1554 22.0834L51.3786 53.9842H43.1141L49.891 22.0834H58.1554Z" fill="#1A1F71"/>
</svg>
