<svg width="85" height="27" viewBox="0 0 85 27" fill="none" xmlns="http://www.w3.org/2000/svg">
<path d="M33.8824 0.433228L29.582 25.6691H36.4597L40.7636 0.433228H33.8824Z" fill="white"/>
<path d="M23.8137 0.461362L17.0775 17.6715L16.3593 15.0729C15.0308 11.9419 11.2594 7.44519 6.83173 4.61132L12.9912 25.6566L20.2687 25.6442L31.1 0.456055L23.8137 0.461362Z" fill="white"/>
<path d="M13.7483 2.26665C13.3485 0.729428 12.1899 0.271268 10.7517 0.216431H0.0884477L0 0.718814C8.29816 2.73188 13.789 7.58235 16.0674 13.4146L13.7483 2.26665Z" fill="white"/>
<path d="M54.7016 5.27136C56.9517 5.23598 58.5826 5.72775 59.8492 6.23721L60.4701 6.52908L61.4006 1.05948C60.0385 0.548252 57.9034 -0.00012207 55.2393 -0.00012207C48.443 -0.00012207 43.6527 3.4228 43.6155 8.32811C43.5713 11.9527 47.0278 13.9764 49.6388 15.1846C52.3188 16.4228 53.2174 17.21 53.205 18.3156C53.1838 20.005 51.0681 20.7798 49.0922 20.7798C46.338 20.7798 44.875 20.3994 42.6161 19.4584L41.7298 19.055L40.7622 24.7033C42.372 25.4091 45.342 26.0159 48.4253 26.0477C55.655 26.0477 60.3534 22.6655 60.4029 17.4241C60.433 14.5566 58.5986 12.3684 54.6237 10.5729C52.2179 9.40186 50.7462 8.62352 50.7603 7.44186C50.7603 6.39287 52.0092 5.27136 54.7016 5.27136Z" fill="white"/>
<path d="M79.0492 0.462036H73.7353C72.0848 0.462036 70.8572 0.91135 70.1319 2.55648L59.9197 25.6838H67.1424C67.1424 25.6838 68.3205 22.574 68.5876 21.8929C69.3783 21.8929 76.3958 21.9035 77.3952 21.9035C77.6004 22.7845 78.2337 25.6838 78.2337 25.6838H84.6143L79.0492 0.462036ZM70.5671 16.7276C71.1331 15.2788 73.3072 9.67475 73.3072 9.67475C73.27 9.74373 73.8679 8.21536 74.2235 7.26543L74.687 9.44124C74.687 9.44124 76.0048 15.4663 76.2808 16.7276H70.5671Z" fill="white"/>
</svg>
