<svg viewBox="0 0 491 490" fill="none" xmlns="http://www.w3.org/2000/svg">
<path d="M245.52 479.76C375.594 479.76 481.04 374.601 481.04 244.88C481.04 115.159 375.594 10 245.52 10C115.446 10 10 115.159 10 244.88C10 374.601 115.446 479.76 245.52 479.76Z" stroke="white" stroke-width="19"/>
<path d="M77 219.634H97.9476L127.859 286.931L157.586 219.634H178.531L132.041 320.04H123.693L77 219.634ZM381.073 194.028V219.633L410.538 219.634V237.448L381.073 237.447V286.394C381.073 297.5 386.023 301.859 398.019 302.028L398.385 302.032L398.759 302.033C402.011 302.033 405.637 301.72 409.983 301.064L410.999 300.907L413.64 300.487V317.468L411.862 317.867C405.422 319.311 400.135 320.04 395.657 320.04C374.337 320.04 361.836 308.805 361.588 287.99L361.585 287.356V237.447L345.689 237.448V219.634L361.585 219.633V194.028H381.073ZM234.079 219.633L234.855 219.643L235.66 219.639C262.541 219.71 285.258 241.784 285.601 268.174L285.605 268.975L285.594 269.745L285.605 270.509C285.712 296.783 262.931 319.507 236.259 319.854L235.45 319.858L234.669 319.847L233.895 319.858C207.276 319.964 184.652 297.63 184.131 271.328L184.123 270.529L184.127 269.738L184.117 268.973C184.006 242.434 206.519 219.972 233.267 219.637L234.079 219.633ZM325.81 169V319.621H306.322V169H325.81ZM234.339 238.036C217.164 237.963 202.567 252.57 202.939 269.746C202.688 286.845 217.335 301.823 234.735 301.448C234.909 301.452 235.083 301.454 235.257 301.455L235.777 301.452C252.731 301.223 267.151 286.503 266.783 269.746C267.151 252.743 252.851 238.378 235.902 238.046L235.382 238.04L234.861 238.043L234.339 238.036Z" fill="white"/>
<path d="M178.466 169H78.8966V185.992H178.466V169Z" fill="white"/>
</svg>
