<?xml version="1.0" encoding="UTF-8"?>
<svg width="80px" height="80px" viewBox="0 0 80 80" version="1.1" xmlns="http://www.w3.org/2000/svg" xmlns:xlink="http://www.w3.org/1999/xlink">
    <!-- Generator: Sketch 52.4 (67378) - http://www.bohemiancoding.com/sketch -->
    <title>Wazdan color</title>
    <desc>Created with Sketch.</desc>
    <g id="Wazdan-color" stroke="none" stroke-width="1" fill="none" fill-rule="evenodd">
        <g transform="translate(40.000000, 43.000000) scale(-1, 1) translate(-40.000000, -43.000000) translate(2.500000, 24.632653)" fill="#E23535" id="Group">
            <g>
                <path d="M32.5848619,35.2136594 L1.10042686,3.79035917 C-0.122269651,2.56766267 0.733617905,0.550213428 2.44539302,0.550213428 L33.9298281,0.550213428 C34.9691201,0.550213428 35.8250077,1.40610098 35.8250077,2.44539302 L35.8250077,33.8686933 C35.8250077,35.5193335 33.8075584,36.3752211 32.5848619,35.2136594" id="Path"></path>
                <path d="M39.6765017,33.8686933 L39.6765017,2.44539302 C39.6765017,1.40610098 40.5323892,0.550213428 41.5716813,0.550213428 L73.0561163,0.550213428 C74.7678914,0.550213428 75.623779,2.56766267 74.4010825,3.79035917 L42.9166474,35.2136594 C41.6939509,36.3752211 39.6765017,35.5193335 39.6765017,33.8686933" id="Path"></path>
            </g>
        </g>
    </g>
</svg>