<svg width="20" height="20" viewBox="0 0 20 20" fill="none" xmlns="http://www.w3.org/2000/svg">
<mask id="mask0" style="mask-type:alpha" maskUnits="userSpaceOnUse" x="0" y="0" width="20" height="20">
<circle cx="10" cy="10" r="10" fill="#C4C4C4"/>
</mask>
<g mask="url(#mask0)">
<path d="M19.2792 20H4.72036C1.59345 20 -0.941406 18.0413 -0.941406 15.625V4.375C-0.941406 1.95875 1.59345 0 4.72036 0H19.2792C22.4061 0 24.9409 1.95875 24.9409 4.375V15.625C24.9409 18.0413 22.4061 20 19.2792 20Z" fill="white"/>
<path d="M4.72036 0C1.59345 0 -0.941406 1.95875 -0.941406 4.375V9.41177H24.9409V4.375C24.9409 1.95875 22.4061 0 19.2792 0H4.72036Z" fill="#F23548"/>
<path d="M-0.941406 15.6253C-0.941406 18.0416 1.59345 20.0003 4.72036 20.0003H19.2792C22.4061 20.0003 24.9409 18.0416 24.9409 15.6253V9.41211H-0.941406V15.6253Z" fill="#170952"/>
<path d="M-0.941406 15.5356V4.37533C-0.941406 4.35362 -0.941202 4.33194 -0.940794 4.3103L6.54243 9.92273L-0.941406 15.5356Z" fill="#0F001E"/>
<path d="M2.15451 0.4729C0.659736 1.06143 -0.451748 2.14793 -0.813874 3.44953L7.35558 9.91697L-0.848633 16.4121C-0.537402 17.7333 0.541694 18.8475 2.01833 19.4686L11.4462 12.0051H24.942V7.82889H11.4462L2.15451 0.4729Z" fill="#79A12B"/>
<path d="M24.938 7.83314H11.4421L2.15039 0.477209C2.53874 0.324295 2.95296 0.204995 3.38663 0.124268L11.8053 6.78904H24.938V7.83314Z" fill="#F5F5F5"/>
<path d="M-0.941406 4.68709V4.38202C-0.941406 4.06431 -0.897583 3.75452 -0.814353 3.45605L7.35454 9.92305L-0.850159 16.4186C-0.910102 16.1634 -0.941406 15.9005 -0.941406 15.632V15.1592L5.67248 9.92305L-0.941406 4.68709Z" fill="#FFAE33"/>
<path d="M24.9387 13.0526H11.8062L3.23385 19.839H3.16835C2.76275 19.75 2.3757 19.6269 2.0127 19.474L11.443 12.0085H24.9387V13.0526Z" fill="#F5F5F5"/>
</g>
</svg>
