<svg width="24" height="23" viewBox="0 0 24 23" fill="none" xmlns="http://www.w3.org/2000/svg">
<path fill-rule="evenodd" clip-rule="evenodd" d="M20.3544 9.61611L18.3897 9.6332L18.4285 5.17809L13.9734 5.21683L13.9904 3.25215L20.4242 3.18237L20.3544 9.61611Z" fill="white"/>
<path d="M14.3321 10.3125L20.2253 4.561L19.0749 3.43616L13.1817 9.18766L14.3321 10.3125Z" fill="white"/>
<path fill-rule="evenodd" clip-rule="evenodd" d="M9.61561 3.25131L9.63269 5.21598L5.17758 5.17724L5.21632 9.63235L3.25165 9.61527L3.18186 3.18153L9.61561 3.25131Z" fill="white"/>
<path d="M10.3116 9.27344L4.56006 3.38025L3.43522 4.53063L9.18672 10.4238L10.3116 9.27344Z" fill="white"/>
<path fill-rule="evenodd" clip-rule="evenodd" d="M3.50183 13.3014L5.46651 13.2843L5.42777 17.7395L9.88288 17.7007L9.86579 19.6654L3.43205 19.7352L3.50183 13.3014Z" fill="white"/>
<path d="M9.52397 12.6035L3.63077 18.355L4.78116 19.4799L10.6744 13.7284L9.52397 12.6035Z" fill="white"/>
<path fill-rule="evenodd" clip-rule="evenodd" d="M14.2399 19.6647L14.2229 17.7L18.678 17.7388L18.6392 13.2837L20.6039 13.3007L20.6737 19.7345L14.2399 19.6647Z" fill="white"/>
<path d="M13.544 13.6445L19.2955 19.5377L20.4203 18.3873L14.6688 12.4941L13.544 13.6445Z" fill="white"/>
</svg>
