<svg width="18" height="18" viewBox="0 0 18 18" fill="none" xmlns="http://www.w3.org/2000/svg">
<path fill-rule="evenodd" clip-rule="evenodd" d="M10.2517 0.99088L12.2163 0.973796L12.1776 5.42891L16.6327 5.39017L16.6156 7.35484L10.1819 7.42462L10.2517 0.99088Z" fill="white"/>
<path d="M16.2733 0.294922L10.3801 6.04643L11.5305 7.17127L17.4237 1.41976L16.2733 0.294922Z" fill="white"/>
<path fill-rule="evenodd" clip-rule="evenodd" d="M0.991002 7.35495L0.973918 5.39028L5.42903 5.42902L5.39029 0.973909L7.35496 0.990994L7.42474 7.42473L0.991002 7.35495Z" fill="white"/>
<path d="M0.295044 1.33154L6.04655 7.22473L7.17139 6.07435L1.41988 0.181158L0.295044 1.33154Z" fill="white"/>
<path fill-rule="evenodd" clip-rule="evenodd" d="M7.35489 16.6165L5.39022 16.6336L5.42896 12.1785L0.973847 12.2173L0.990931 10.2526L7.42467 10.1828L7.35489 16.6165Z" fill="white"/>
<path d="M1.33276 17.3145L7.22595 11.5629L6.07557 10.4381L0.182379 16.1896L1.33276 17.3145Z" fill="white"/>
<path fill-rule="evenodd" clip-rule="evenodd" d="M16.6161 10.2513L16.6331 12.216L12.178 12.1772L12.2168 16.6324L10.2521 16.6153L10.1823 10.1815L16.6161 10.2513Z" fill="white"/>
<path d="M17.312 16.2715L11.5605 10.3783L10.4357 11.5287L16.1872 17.4219L17.312 16.2715Z" fill="white"/>
</svg>
