<svg xmlns="http://www.w3.org/2000/svg">
    <symbol id="logo" viewBox="0 0 172 20" fill="none">
      <path d="M9.80792 12.5728L14.2129 18.8638H10.5994L6.57303 13.0323H2.85634V18.8638H0V1.58134H6.2633C8.80992 1.58134 10.6339 2.02901 11.7351 2.92435C12.8593 3.79613 13.4214 5.2216 13.4214 7.20078C13.4214 10.0517 12.2169 11.8424 9.80792 12.5728ZM6.36654 10.4169C7.94958 10.4169 9.03934 10.1695 9.63585 9.67475C10.2324 9.17995 10.5306 8.34352 10.5306 7.16544C10.5306 6.03448 10.2324 5.26873 9.63585 4.86818C9.03934 4.44407 7.97252 4.23202 6.43537 4.23202H2.85634V10.4169H6.36654Z" fill="white"/>
      <path d="M56.1001 18.8638H53.2438V1.58134H57.6832L62.742 12.4315L67.8352 1.58134H72.2402V18.8638H69.4182V5.36297L63.5335 17.344H61.9505L56.1001 5.36297V18.8638Z" fill="white"/>
      <path d="M89.334 14.0925L91.1579 16.001C89.4143 18.0509 87.2577 19.0758 84.6881 19.0758C82.1415 19.0758 80.0193 18.2394 78.3216 16.5665C76.6468 14.8701 75.8094 12.7378 75.8094 10.1695C75.8094 7.57776 76.6697 5.43366 78.3904 3.73722C80.1111 2.01723 82.2792 1.15723 84.8946 1.15723C87.4642 1.15723 89.6322 2.14681 91.3988 4.12599L89.6093 6.14051C88.8063 5.33941 88.0492 4.78571 87.338 4.47941C86.6268 4.17311 85.7894 4.01996 84.8258 4.01996C83.1051 4.01996 81.6597 4.58544 80.4897 5.7164C79.3425 6.84735 78.769 8.28461 78.769 10.0282C78.769 11.7482 79.3425 13.209 80.4897 14.4106C81.6368 15.6123 83.0019 16.2131 84.5849 16.2131C85.5485 16.2131 86.3744 16.0482 87.0627 15.7183C87.7739 15.3884 88.531 14.8465 89.334 14.0925Z" fill="white"/>
      <path d="M97.019 14.9408L95.3327 18.8638H92.3043L99.7377 1.58134H102.766L110.165 18.8638H107.137L105.45 14.9408H97.019ZM104.315 12.2194L101.252 5.11558L98.1891 12.2194H104.315Z" fill="white"/>
      <path d="M114.78 5.92845C114.78 6.65886 115.044 7.189 115.572 7.51886C116.099 7.91941 117.223 8.33173 118.944 8.75584C120.757 9.20351 122.076 9.81612 122.902 10.5936C123.751 11.3712 124.175 12.4904 124.175 13.9512C124.175 15.4827 123.613 16.7197 122.489 17.6621C121.387 18.6046 119.942 19.0758 118.153 19.0758C115.56 19.0758 113.22 18.1334 111.132 16.2484L112.922 14.0572C114.665 15.5887 116.432 16.3545 118.221 16.3545C119.116 16.3545 119.839 16.1542 120.389 15.7536C120.94 15.3295 121.215 14.7876 121.215 14.1279C121.215 13.4682 120.963 12.9498 120.458 12.5728C119.976 12.1958 119.105 11.8542 117.843 11.5479C115.663 11.0295 114.149 10.4169 113.3 9.71009C112.314 8.93256 111.82 7.74269 111.82 6.14051C111.82 4.58544 112.371 3.37202 113.472 2.50024C114.574 1.6049 115.984 1.15723 117.705 1.15723C120.022 1.15723 122.007 1.85229 123.659 3.24243L122.145 5.43366C121.64 4.96243 120.963 4.58544 120.114 4.3027C119.265 3.9964 118.428 3.84325 117.602 3.84325C116.753 3.84325 116.065 4.03174 115.537 4.40873C115.032 4.76215 114.78 5.26873 114.78 5.92845Z" fill="white"/>
      <path d="M127.7 1.58134H130.556V18.8638H127.7V1.58134Z" fill="white"/>
      <path d="M147.827 1.58134H150.649V18.8638H147.587L138.054 6.24653V18.8638H135.198V1.58134H138.054L147.827 14.4813V1.58134Z" fill="white"/>
      <path d="M163.121 3.80791C161.446 3.80791 160.036 4.42051 158.888 5.64571C157.741 6.87092 157.168 8.3553 157.168 10.0989C157.168 11.8424 157.741 13.3268 158.888 14.552C160.036 15.7536 161.446 16.3545 163.121 16.3545C164.796 16.3545 166.207 15.7536 167.354 14.552C168.501 13.3268 169.075 11.8424 169.075 10.0989C169.075 8.3553 168.501 6.87092 167.354 5.64571C166.207 4.42051 164.796 3.80791 163.121 3.80791ZM163.121 19.0405C160.598 19.0405 158.487 18.1923 156.789 16.4958C155.091 14.7758 154.242 12.6435 154.242 10.0989C154.242 7.5542 155.091 5.43366 156.789 3.73722C158.487 2.01723 160.598 1.15723 163.121 1.15723C165.645 1.15723 167.756 2.01723 169.453 3.73722C171.151 5.43366 172 7.5542 172 10.0989C172 12.6435 171.14 14.7641 169.419 16.4605C167.698 18.1805 165.599 19.0405 163.121 19.0405Z" fill="white"/>
      <path d="M37 10.1582C37 15.1288 32.9706 19.1582 28 19.1582C23.0294 19.1582 19 15.1288 19 10.1582C19 5.18764 23.0294 1.1582 28 1.1582M37 10.1582C37 5.18764 32.9706 1.1582 28 1.1582M37 10.1582H33.7857M28 1.1582V5.01535M28 15.5582C30.9823 15.5582 33.4 13.1405 33.4 10.1582C33.4 7.17587 30.9823 4.7582 28 4.7582C25.0177 4.7582 22.6 7.17587 22.6 10.1582C22.6 13.1405 25.0177 15.5582 28 15.5582ZM28 15.5582V18.8368M22.8571 10.1582H21.0571H19.2571M31.9293 6.45409L34.4303 3.95312M22.0199 16.3633L24.2958 14.0874M22.0199 3.95312L24.2958 6.22897M31.6 13.7582L34.3 16.4582" stroke="#F3B233" stroke-width="1.2"/>
      <path d="M49 10.1582C49 14.5765 45.447 18.1582 41.0643 18.1582C39.5788 18.1582 38.1888 17.7468 37 17.0308M49 10.1582C49 5.73992 45.447 2.1582 41.0643 2.1582M49 10.1582H46.1658M41.0643 2.1582V5.3582M41.0643 2.1582C39.6903 2.1582 38.3978 2.51021 37.2709 3.12965M41.0643 14.9582C43.6939 14.9582 45.8257 12.8092 45.8257 10.1582C45.8257 7.50724 43.6939 5.3582 41.0643 5.3582M41.0643 14.9582V17.8725M41.0643 14.9582C40.4074 14.9582 39.7816 14.8241 39.2123 14.5816M41.0643 5.3582C40.4074 5.3582 39.7816 5.4923 39.2123 5.73482M44.5289 6.86566L46.7342 4.64258M44.442 13.5413L46.6193 15.7582" stroke="#F3B233" stroke-width="1.2" stroke-linecap="round"/>
  </symbol>
    <symbol id="best" viewBox="0 0 20 21" fill="none">
        <path fill-rule="evenodd" clip-rule="evenodd" d="M20 0.853516H0V20.8535H20V0.853516ZM4 8.84164L4.97297 15.2563H15.3513L16 8.84164L12.917 10.2254L10.1416 5.65634L7.55231 10.2254L4 8.84164Z" fill="#F3B233"/>
    </symbol>
    <symbol id="crown" viewBox="0 0 24 22" fill="none">
       <path d="M1.7182 20.2595L0 7.12875L6.20923 9.9325C6.70628 10.1569 7.29151 9.94173 7.52472 9.44874L11.9946 0L17.3588 9.49565C17.6239 9.96483 18.213 10.1396 18.6911 9.8909L24 7.12875L22.862 20.1738C22.7719 21.2071 21.9068 22 20.8696 22H3.70129C2.69703 22 1.84849 21.2553 1.7182 20.2595Z" fill="#F3B233"/>
  </symbol>

  <symbol id="star" viewBox="0 0 18 17" fill="none">
    <path d="M17.5753 6.14139L11.745 5.60585L9.42908 0.279705C9.26694 -0.0932351 8.73303 -0.0932351 8.57088 0.279705L6.25497 5.60589L0.424697 6.14139C0.016463 6.17889 -0.148525 6.68178 0.159479 6.94974L4.55844 10.7771L3.27108 16.4342C3.18094 16.8303 3.61287 17.1411 3.96538 16.9338L9 13.973L14.0346 16.9338C14.3871 17.1411 14.8191 16.8303 14.729 16.4342L13.4416 10.7771L17.8405 6.94974C18.1485 6.68178 17.9835 6.17889 17.5753 6.14139Z" fill="#F3B233"/>
  </symbol>

  <symbol id="live" viewBox="0 0 23 23" fill="none">
    <circle cx="11.5" cy="11.5" r="11.5" fill="#F3B233"/>
    <path d="M14.5 10.634C15.1667 11.0189 15.1667 11.9811 14.5 12.366L10.75 14.5311C10.0833 14.916 9.25 14.4349 9.25 13.6651L9.25 9.33493C9.25 8.56513 10.0833 8.08401 10.75 8.46891L14.5 10.634Z" fill="#060E2A"/>
  </symbol>

  <symbol id="slots" viewBox="0 0 46 23" fill="none">
    <path d="M0 2C0 0.89543 0.895431 0 2 0H12C13.1046 0 14 0.895431 14 2V21C14 22.1046 13.1046 23 12 23H2C0.89543 23 0 22.1046 0 21V2Z" fill="#F3B233"/>
    <path d="M16 2C16 0.89543 16.8954 0 18 0H28C29.1046 0 30 0.895431 30 2V21C30 22.1046 29.1046 23 28 23H18C16.8954 23 16 22.1046 16 21V2Z" fill="#F3B233"/>
    <path d="M32 2C32 0.89543 32.8954 0 34 0H44C45.1046 0 46 0.895431 46 2V21C46 22.1046 45.1046 23 44 23H34C32.8954 23 32 22.1046 32 21V2Z" fill="#F3B233"/>
    <path d="M4 8V10.8114H5.54011V9.50857H8.02139L5.3369 16H7.21925L10 9.2V8H4Z" fill="#0E152F"/>
    <path d="M20 8V10.8114H21.5401V9.50857H24.0214L21.3369 16H23.2193L26 9.2V8H20Z" fill="#0E152F"/>
    <path d="M36 8V10.8114H37.5401V9.50857H40.0214L37.3369 16H39.2193L42 9.2V8H36Z" fill="#0E152F"/>
  </symbol>

  <symbol id="roulette" viewBox="0 0 22 22" fill="none" xmlns="http://www.w3.org/2000/svg">
    <path d="M11 22C17.0751 22 22 17.0751 22 11C22 4.92487 17.0751 0 11 0C4.92488 0 0 4.92487 0 11C0 17.0751 4.92488 22 11 22Z" fill="#F3B233"/>
    <line x1="11" y1="14" x2="11" y2="22" stroke="#0E152F" stroke-width="2"/>
    <line x1="22" y1="11" x2="14" y2="11" stroke="#0E152F" stroke-width="2"/>
    <line x1="8" y1="11" x2="-4.37114e-08" y2="11" stroke="#0E152F" stroke-width="2"/>
    <path d="M11 14C12.6569 14 14 12.6569 14 11C14 9.34315 12.6569 8 11 8C9.34315 8 8 9.34315 8 11C8 12.6569 9.34315 14 11 14Z" stroke="#0E152F" stroke-width="1.8"/>
    <line x1="11" x2="11" y2="8" stroke="#0E152F" stroke-width="2"/>
    <line x1="8.87898" y1="13.1212" x2="3.22213" y2="18.778" stroke="#0E152F" stroke-width="2"/>
    <line x1="18.7773" y1="18.7774" x2="13.1204" y2="13.1206" stroke="#0E152F" stroke-width="2"/>
    <line x1="8.87883" y1="8.87898" x2="3.22198" y2="3.22213" stroke="#0E152F" stroke-width="2"/>
    <line x1="18.7774" y1="3.22273" x2="13.1206" y2="8.87959" stroke="#0E152F" stroke-width="2"/>
  </symbol>

  <symbol id="table" viewBox="0 0 22 22" fill="none" xmlns="http://www.w3.org/2000/svg">
    <rect width="22" height="22" rx="2" fill="#F3B233"/>
    <circle cx="15" cy="7" r="2" fill="#0E152F"/>
    <circle cx="7" cy="15" r="2" fill="#0E152F"/>
    <circle cx="15" cy="15" r="2" fill="#0E152F"/>
    <circle cx="7" cy="7" r="2" fill="#0E152F"/>
  </symbol>

  <symbol id="cards" viewBox="0 0 26 25" fill="none" xmlns="http://www.w3.org/2000/svg">
    <path fill-rule="evenodd" clip-rule="evenodd" d="M12.7004 0.0696075C11.6341 -0.218392 10.5396 0.41351 10.2558 1.481L9.32031 5H15.9982C17.1027 5 17.9982 5.89543 17.9982 7V20.4653L19.8117 20.9551C20.8781 21.2431 21.9726 20.6112 22.2564 19.5437L25.9326 5.71495C26.2164 4.64745 25.582 3.54861 24.5156 3.26061L12.7004 0.0696075Z" fill="#F3B233"/>
    <path fill-rule="evenodd" clip-rule="evenodd" d="M2 6.68164C0.895431 6.68164 0 7.57707 0 8.68164V23.0003C0 24.1049 0.895432 25.0003 2 25.0003H14.2298C15.3344 25.0003 16.2298 24.1049 16.2298 23.0003V8.68164C16.2298 7.57707 15.3344 6.68164 14.2298 6.68164H2ZM4.50597 15.2373C4.24141 15.5956 4.24141 16.0883 4.50597 16.4467L7.32329 20.2626C7.72013 20.8001 8.51382 20.8001 8.91067 20.2626L11.728 16.4467C11.9925 16.0883 11.9925 15.5956 11.728 15.2373L8.91067 11.4214C8.51382 10.8839 7.72013 10.8839 7.32328 11.4214L4.50597 15.2373Z" fill="#F3B233"/>
  </symbol>

  <symbol id="toggle" viewBox="0 0 17 12" fill="none" xmlns="http://www.w3.org/2000/svg">
    <path d="M1 6H16M1 11H16M1 1H16" stroke-width="2" stroke-linecap="round" stroke-linejoin="round"/>
  </symbol>

  <symbol id="promotions" viewBox="0 0 17 16" fill="none" xmlns="http://www.w3.org/2000/svg">
    <path fill-rule="evenodd" clip-rule="evenodd" d="M7.22479 2.50179C6.85114 1.92604 6.35882 1.45102 6.1187 1.30371C5.83553 1.12998 5.40045 1.20395 5.18257 1.60498C4.96468 2.00601 5.12193 2.44338 5.4051 2.6171C5.64522 2.76442 6.27852 2.97997 6.93457 3.03595C7.16982 3.05603 7.36312 3.05107 7.50769 3.03146C7.45139 2.88861 7.35878 2.70824 7.22479 2.50179ZM7.57194 3.26044C7.5718 3.26035 7.57156 3.25782 7.57164 3.25311C7.57212 3.25817 7.57208 3.26053 7.57194 3.26044ZM7.72031 2.97948C7.72411 2.97706 7.72629 2.97601 7.72643 2.9761C7.72657 2.97618 7.72467 2.9774 7.72031 2.97948ZM8.58221 2.60123C8.21775 1.67793 7.28767 0.633172 6.68418 0.262928C5.80194 -0.278333 4.67383 0.0428755 4.16447 0.980366C3.65511 1.91786 3.95738 3.11662 4.83962 3.65788C4.95306 3.72748 5.09169 3.79577 5.24824 3.85996H1C0.447715 3.85996 0 4.30022 0 4.8433V7.07204C0 7.61463 0.446903 8.13233 0.998497 8.13327L0.998465 8.12575L7.99971 8.12558V4.1982L9.00029 4.20246V8.12555L15.9961 8.12537L16 9.04391V8.13327C16.5523 8.13327 17 7.61512 17 7.07204V4.84331C17 4.30022 16.5523 3.85996 16 3.85996H11.918C12.0737 3.79603 12.2115 3.72805 12.3244 3.65878C13.2067 3.11752 13.509 1.91875 12.9996 0.981263C12.4902 0.0437727 11.3621 -0.277435 10.4799 0.263825C9.87659 0.633949 8.94692 1.67815 8.58221 2.60123ZM8.5817 3.81152C8.56933 3.82819 8.55628 3.84433 8.54255 3.85996H8.62072C8.60704 3.84433 8.59403 3.82819 8.5817 3.81152ZM1 13.9969V8.48329L1.00276 9.12517L7.99971 9.12499V15.9969H3C1.89543 15.9969 1 15.1015 1 13.9969ZM9.00029 15.9971V9.12497L16 9.12479V13.9992C16 15.1041 15.1041 15.9996 13.9992 15.9992L9.00029 15.9971ZM11.0454 1.3046C10.8052 1.45192 10.3129 1.92694 9.93927 2.50269C9.80528 2.70914 9.71268 2.8895 9.65637 3.03236C9.80095 3.05197 9.99424 3.05693 10.2295 3.03685C10.8855 2.98087 11.5188 2.76531 11.759 2.618C12.0421 2.44427 12.1994 2.0069 11.9815 1.60588C11.7636 1.20485 11.3285 1.13088 11.0454 1.3046Z" fill="#F3B233"/>
  </symbol>

  <symbol id="deposit" viewBox="0 0 18 15" fill="none" xmlns="http://www.w3.org/2000/svg">
    <path d="M1.40039 2C1.40039 1.17157 2.07196 0.5 2.90039 0.5H15.1004C15.9288 0.5 16.6004 1.17157 16.6004 2V10.3529C16.6004 11.1814 15.9288 11.8529 15.1004 11.8529H2.90039C2.07196 11.8529 1.40039 11.1814 1.40039 10.3529V2Z" fill="#F3B233" stroke="#0F0E23"/>
    <path d="M0.5 3.76465C0.5 2.93622 1.17157 2.26465 2 2.26465H16C16.8284 2.26465 17.5 2.93622 17.5 3.76465V12.9999C17.5 13.8284 16.8284 14.4999 16 14.4999H2C1.17157 14.4999 0.5 13.8284 0.5 12.9999V3.76465Z" fill="#F3B233" stroke="#0F0E23"/>
    <path d="M10.3984 8.17627C10.3984 7.34784 11.07 6.67627 11.8984 6.67627H16.9984C17.2746 6.67627 17.4984 6.90013 17.4984 7.17627V9.58803C17.4984 9.86418 17.2746 10.088 16.9984 10.088H11.8984C11.07 10.088 10.3984 9.41646 10.3984 8.58803V8.17627Z" stroke="#0F0E23"/>
    <ellipse cx="12.1492" cy="8.38209" rx="0.45" ry="0.441176" fill="#060E2A"/>
  </symbol>

  <symbol id="support" viewBox="0 0 16 14" fill="none" xmlns="http://www.w3.org/2000/svg">
    <path fill-rule="evenodd" clip-rule="evenodd" d="M1 0C0.447715 0 0 0.447715 0 1V11C0 11.5523 0.447714 12 0.999999 12H2.16215H3.28447L5.13158 14L7.10526 12H15C15.5523 12 16 11.5523 16 11V5.6V1C16 0.447715 15.5523 0 15 0H1ZM5 7C5.55228 7 6 6.55228 6 6C6 5.44772 5.55228 5 5 5C4.44772 5 4 5.44772 4 6C4 6.55228 4.44772 7 5 7ZM9 6C9 6.55228 8.55229 7 8 7C7.44772 7 7 6.55228 7 6C7 5.44772 7.44772 5 8 5C8.55229 5 9 5.44772 9 6ZM11 7C11.5523 7 12 6.55228 12 6C12 5.44772 11.5523 5 11 5C10.4477 5 10 5.44772 10 6C10 6.55228 10.4477 7 11 7Z" fill="#F3B233"/>
  </symbol>

  <symbol id="ssl" viewBox="0 0 47 21">
    <g opacity="0.5">
      <path fill-rule="evenodd" clip-rule="evenodd" d="M5.04078 9.8747C5.04078 8.95805 5.77911 8.21497 6.6899 8.21497H6.81668C6.81669 7.37412 6.91775 6.28609 7.44208 5.38097C8.0192 4.38471 9.03279 3.74023 10.5151 3.74023C11.9918 3.74023 13.022 4.378 13.6287 5.35458C14.1892 6.25669 14.3264 7.34568 14.3264 8.21497H14.4531C15.3639 8.21497 16.1023 8.95806 16.1023 9.8747V14.9047C16.1023 15.8214 15.3639 16.5644 14.4531 16.5644H6.6899C5.77911 16.5644 5.04078 15.8214 5.04078 14.9047V9.8747ZM12.3474 8.21497H8.79563C8.79563 7.4745 8.89739 6.82309 9.15169 6.3841C9.35322 6.03621 9.69409 5.7319 10.5151 5.7319C11.3417 5.7319 11.7224 6.04293 11.9508 6.41049C12.2254 6.85249 12.3474 7.50294 12.3474 8.21497ZM13.237 10.8786L12.7516 10.4007C12.6851 10.3352 12.6043 10.3024 12.5091 10.3024C12.4139 10.3024 12.3329 10.3352 12.2664 10.4007L9.92562 12.7097L8.8767 11.6729C8.80997 11.6073 8.72911 11.5745 8.63396 11.5745C8.53881 11.5745 8.45795 11.6073 8.39127 11.6729L7.90601 12.1507C7.8395 12.2164 7.80616 12.296 7.80616 12.3898C7.80616 12.4835 7.8395 12.5633 7.90601 12.6288L9.6831 14.3788C9.74961 14.4445 9.83047 14.4771 9.92562 14.4771C10.0208 14.4771 10.1016 14.4445 10.1683 14.3788L13.237 11.3567C13.3036 11.291 13.3369 11.2114 13.3369 11.1177C13.3369 11.024 13.3036 10.9443 13.237 10.8786Z" fill="white"/>
      <path fill-rule="evenodd" clip-rule="evenodd" d="M0 3.31946C0 1.48617 1.47668 0 3.29825 0H18.1404C19.9619 0 21.4386 1.48617 21.4386 3.31946V17.4272C21.4386 19.2604 19.9619 20.7466 18.1404 20.7466H3.29825C1.47667 20.7466 0 19.2604 0 17.4272V3.31946ZM3.29825 2.15765H18.1404C18.7779 2.15765 19.2947 2.67781 19.2947 3.31946V17.4272C19.2947 18.0688 18.7779 18.589 18.1404 18.589H3.29825C2.6607 18.589 2.14386 18.0688 2.14386 17.4272V3.31946C2.14386 2.67781 2.6607 2.15765 3.29825 2.15765Z" fill="white"/>
      <path d="M27.2337 11.411C27.7493 11.6292 28.3671 11.7384 29.0874 11.7384C29.7545 11.7384 30.3458 11.637 30.8614 11.4343C31.3845 11.2239 31.7901 10.9276 32.0782 10.5457C32.3738 10.1559 32.5217 9.69989 32.5217 9.17761C32.5217 8.7021 32.4231 8.30843 32.226 7.99662C32.0289 7.67702 31.7181 7.41977 31.2935 7.22489C30.8765 7.02221 30.3155 6.85461 29.6105 6.72209C29.1783 6.62855 28.8448 6.53891 28.6097 6.45316C28.3823 6.35961 28.2155 6.25828 28.1094 6.14914C28.0108 6.04001 27.9615 5.90359 27.9615 5.73989C27.9615 5.49824 28.0525 5.31505 28.2345 5.19032C28.4164 5.0656 28.678 5.00324 29.0191 5.00324C29.3148 5.00324 29.5612 5.0656 29.7583 5.19032C29.963 5.31505 30.0881 5.46706 30.1336 5.64635C30.1791 5.7165 30.2283 5.76717 30.2814 5.79835C30.3421 5.82954 30.4179 5.84513 30.5088 5.84513H32.0099C32.0782 5.84513 32.135 5.82174 32.1805 5.77497C32.226 5.7282 32.2487 5.66973 32.2487 5.59958C32.2336 5.25658 32.0971 4.90969 31.8393 4.55891C31.5892 4.20032 31.2215 3.9041 30.7363 3.67025C30.2511 3.43639 29.6787 3.31946 29.0191 3.31946C28.3823 3.31946 27.8251 3.42469 27.3475 3.63517C26.8698 3.84564 26.5022 4.13796 26.2444 4.51213C25.9866 4.88631 25.8577 5.31115 25.8577 5.78666C25.8577 6.48824 26.0814 7.03001 26.5287 7.41198C26.9836 7.78615 27.6659 8.07068 28.5756 8.26556C29.0684 8.37469 29.4399 8.47213 29.6901 8.55788C29.9402 8.64363 30.1222 8.74107 30.2359 8.8502C30.3572 8.95934 30.4179 9.09965 30.4179 9.27115C30.4179 9.5128 30.3041 9.70379 30.0767 9.8441C29.8493 9.98442 29.5195 10.0546 29.0874 10.0546C28.7235 10.0546 28.4316 9.98831 28.2117 9.85579C27.9919 9.72328 27.8327 9.55568 27.7341 9.353C27.6735 9.28284 27.6128 9.23217 27.5522 9.20099C27.4991 9.16201 27.4271 9.14253 27.3361 9.14253H25.9032C25.835 9.14253 25.7744 9.16981 25.7213 9.22438C25.6758 9.27115 25.6531 9.32572 25.6531 9.38808C25.6682 9.80902 25.8047 10.1988 26.0624 10.5574C26.3278 10.9082 26.7182 11.1927 27.2337 11.411Z" fill="white"/>
      <path d="M34.7743 11.411C35.2898 11.6292 35.9077 11.7384 36.6279 11.7384C37.295 11.7384 37.8864 11.637 38.4019 11.4343C38.925 11.2239 39.3306 10.9276 39.6187 10.5457C39.9144 10.1559 40.0622 9.69989 40.0622 9.17761C40.0622 8.7021 39.9636 8.30843 39.7665 7.99662C39.5694 7.67702 39.2586 7.41977 38.834 7.22489C38.4171 7.02221 37.856 6.85461 37.151 6.72209C36.7189 6.62855 36.3853 6.53891 36.1503 6.45316C35.9228 6.35961 35.756 6.25828 35.6499 6.14914C35.5513 6.04001 35.5021 5.90359 35.5021 5.73989C35.5021 5.49824 35.593 5.31505 35.775 5.19032C35.9569 5.0656 36.2185 5.00324 36.5597 5.00324C36.8553 5.00324 37.1017 5.0656 37.2988 5.19032C37.5035 5.31505 37.6286 5.46706 37.6741 5.64635C37.7196 5.7165 37.7689 5.76717 37.8219 5.79835C37.8826 5.82954 37.9584 5.84513 38.0494 5.84513H39.5504C39.6187 5.84513 39.6755 5.82174 39.721 5.77497C39.7665 5.7282 39.7893 5.66973 39.7893 5.59958C39.7741 5.25658 39.6376 4.90969 39.3799 4.55891C39.1297 4.20032 38.762 3.9041 38.2768 3.67025C37.7916 3.43639 37.2192 3.31946 36.5597 3.31946C35.9228 3.31946 35.3656 3.42469 34.888 3.63517C34.4104 3.84564 34.0427 4.13796 33.7849 4.51213C33.5272 4.88631 33.3983 5.31115 33.3983 5.78666C33.3983 6.48824 33.6219 7.03001 34.0692 7.41198C34.5241 7.78615 35.2064 8.07068 36.1161 8.26556C36.6089 8.37469 36.9804 8.47213 37.2306 8.55788C37.4808 8.64363 37.6627 8.74107 37.7764 8.8502C37.8977 8.95934 37.9584 9.09965 37.9584 9.27115C37.9584 9.5128 37.8447 9.70379 37.6172 9.8441C37.3898 9.98442 37.06 10.0546 36.6279 10.0546C36.264 10.0546 35.9721 9.98831 35.7522 9.85579C35.5324 9.72328 35.3732 9.55568 35.2746 9.353C35.214 9.28284 35.1533 9.23217 35.0927 9.20099C35.0396 9.16201 34.9676 9.14253 34.8766 9.14253H33.4438C33.3755 9.14253 33.3149 9.16981 33.2618 9.22438C33.2163 9.27115 33.1936 9.32572 33.1936 9.38808C33.2087 9.80902 33.3452 10.1988 33.603 10.5574C33.8683 10.9082 34.2587 11.1927 34.7743 11.411Z" fill="white"/>
      <path d="M41.4846 11.6214C41.4088 11.6214 41.3406 11.5941 41.28 11.5396C41.2269 11.4772 41.2004 11.4071 41.2004 11.3291V3.72871C41.2004 3.64296 41.2269 3.5728 41.28 3.51824C41.3406 3.46367 41.4088 3.43639 41.4846 3.43639H42.9857C43.0691 3.43639 43.1374 3.46367 43.1904 3.51824C43.2435 3.5728 43.27 3.64296 43.27 3.72871V9.85579H46.7157C46.7991 9.85579 46.8673 9.88698 46.9204 9.94934C46.9735 10.0039 47 10.0741 47 10.1598V11.3291C47 11.4071 46.9735 11.4772 46.9204 11.5396C46.8673 11.5941 46.7991 11.6214 46.7157 11.6214H41.4846Z" fill="white"/>
      <path d="M27.0966 18.257C26.782 18.257 26.5091 18.2063 26.2778 18.105C26.0504 18.0037 25.876 17.8711 25.7547 17.7074C25.6334 17.5398 25.569 17.3606 25.5614 17.1696C25.5614 17.1384 25.5728 17.1111 25.5955 17.0877C25.6221 17.0604 25.6524 17.0468 25.6865 17.0468H25.9765C26.0485 17.0468 26.0978 17.0858 26.1243 17.1637C26.1584 17.3274 26.2551 17.4677 26.4143 17.5847C26.5773 17.7016 26.8047 17.7601 27.0966 17.7601C27.4112 17.7601 27.6481 17.7035 27.8073 17.5905C27.9666 17.4736 28.0462 17.3118 28.0462 17.1053C28.0462 16.9727 28.0064 16.8656 27.9268 16.7837C27.8509 16.7019 27.7372 16.6297 27.5856 16.5674C27.434 16.505 27.2065 16.4271 26.9033 16.3335C26.6076 16.2478 26.3726 16.1562 26.1982 16.0587C26.0239 15.9613 25.8931 15.8405 25.8059 15.6963C25.7187 15.5521 25.6751 15.3708 25.6751 15.1525C25.6751 14.9421 25.7301 14.753 25.84 14.5854C25.9537 14.4178 26.1148 14.2873 26.3233 14.1937C26.5318 14.0963 26.7801 14.0476 27.0682 14.0476C27.3638 14.0476 27.6178 14.1021 27.8301 14.2113C28.0424 14.3165 28.2035 14.451 28.3134 14.6147C28.4233 14.7784 28.4821 14.9421 28.4897 15.1058C28.4897 15.137 28.4783 15.1642 28.4555 15.1876C28.4366 15.211 28.4082 15.2227 28.3703 15.2227H28.0689C27.9893 15.2227 27.94 15.1857 27.9211 15.1116C27.8983 14.9479 27.8092 14.8135 27.6538 14.7082C27.4984 14.5991 27.3032 14.5445 27.0682 14.5445C26.8104 14.5445 26.6076 14.5952 26.4598 14.6965C26.3119 14.7979 26.238 14.9479 26.238 15.1467C26.238 15.2792 26.2721 15.3884 26.3404 15.4741C26.4124 15.5598 26.5204 15.6359 26.6645 15.7021C26.8085 15.7645 27.0189 15.8366 27.2956 15.9184C27.6178 16.0081 27.8718 16.1016 28.0575 16.1991C28.2433 16.2926 28.3816 16.4115 28.4726 16.5557C28.5636 16.696 28.6091 16.8753 28.6091 17.0936C28.6091 17.456 28.4726 17.7406 28.1997 17.9472C27.9268 18.1537 27.5591 18.257 27.0966 18.257Z" fill="white"/>
      <path d="M29.4851 18.1985C29.4472 18.1985 29.415 18.1869 29.3884 18.1635C29.3657 18.1362 29.3543 18.1031 29.3543 18.0641V14.2463C29.3543 14.2035 29.3657 14.1703 29.3884 14.147C29.415 14.1197 29.4472 14.106 29.4851 14.106H31.8334C31.8713 14.106 31.9016 14.1197 31.9244 14.147C31.9509 14.1703 31.9642 14.2035 31.9642 14.2463V14.4685C31.9642 14.5075 31.9528 14.5406 31.93 14.5679C31.9073 14.5913 31.8751 14.603 31.8334 14.603H29.9002V15.8834H31.7083C31.7462 15.8834 31.7765 15.897 31.7993 15.9243C31.8258 15.9477 31.8391 15.9808 31.8391 16.0237V16.24C31.8391 16.279 31.8258 16.3121 31.7993 16.3394C31.7765 16.3628 31.7462 16.3745 31.7083 16.3745H29.9002V17.7016H31.8789C31.9206 17.7016 31.9528 17.7133 31.9755 17.7367C31.9983 17.7601 32.0097 17.7932 32.0097 17.8361V18.0641C32.0097 18.1031 31.9964 18.1362 31.9699 18.1635C31.9471 18.1869 31.9168 18.1985 31.8789 18.1985H29.4851Z" fill="white"/>
      <path d="M33.0366 17.8361C33.3019 18.1167 33.6886 18.257 34.1965 18.257C34.5339 18.257 34.8201 18.1966 35.0551 18.0758C35.2901 17.951 35.4683 17.7893 35.5896 17.5905C35.7109 17.3917 35.7772 17.1774 35.7886 16.9474C35.7924 16.9123 35.781 16.885 35.7545 16.8656C35.7317 16.8422 35.7033 16.8305 35.6692 16.8305H35.3564C35.3185 16.8305 35.2882 16.8402 35.2655 16.8597C35.2427 16.8792 35.2257 16.9143 35.2143 16.9649C35.1536 17.2573 35.038 17.4638 34.8675 17.5847C34.7007 17.7016 34.477 17.7601 34.1965 17.7601C33.5445 17.7601 33.2072 17.3878 33.1844 16.6434C33.1806 16.5304 33.1787 16.3647 33.1787 16.1464C33.1787 15.9282 33.1806 15.7664 33.1844 15.6612C33.2072 14.9167 33.5445 14.5445 34.1965 14.5445C34.477 14.5445 34.7007 14.6049 34.8675 14.7258C35.0342 14.8427 35.1499 15.0473 35.2143 15.3396C35.2332 15.4293 35.2806 15.4741 35.3564 15.4741H35.6692C35.6995 15.4741 35.726 15.4644 35.7488 15.4449C35.7753 15.4215 35.7886 15.3942 35.7886 15.363V15.3513C35.7772 15.1253 35.7109 14.9128 35.5896 14.7141C35.4683 14.5153 35.2901 14.3555 35.0551 14.2347C34.8201 14.1099 34.5339 14.0476 34.1965 14.0476C33.6924 14.0476 33.3076 14.1898 33.0423 14.4744C32.7769 14.755 32.6348 15.1409 32.6158 15.632C32.612 15.7411 32.6101 15.9165 32.6101 16.1581C32.6101 16.3959 32.612 16.5674 32.6158 16.6726C32.6348 17.1676 32.775 17.5554 33.0366 17.8361Z" fill="white"/>
      <path d="M38.0517 18.257C37.5627 18.257 37.1836 18.1225 36.9145 17.8536C36.6491 17.5808 36.5165 17.1696 36.5165 16.62V14.2463C36.5165 14.2035 36.5278 14.1703 36.5506 14.147C36.5771 14.1197 36.6093 14.106 36.6472 14.106H36.9372C36.9789 14.106 37.0111 14.1197 37.0339 14.147C37.0604 14.1703 37.0737 14.2035 37.0737 14.2463V16.6317C37.0737 17.0059 37.159 17.2865 37.3296 17.4736C37.5001 17.6607 37.7408 17.7542 38.0517 17.7542C38.3625 17.7542 38.6032 17.6607 38.7738 17.4736C38.9444 17.2865 39.0296 17.0059 39.0296 16.6317V14.2463C39.0296 14.2035 39.041 14.1703 39.0638 14.147C39.0903 14.1197 39.1225 14.106 39.1604 14.106H39.4561C39.494 14.106 39.5243 14.1197 39.5471 14.147C39.5736 14.1742 39.5869 14.2074 39.5869 14.2463V16.62C39.5869 17.1696 39.4523 17.5808 39.1832 17.8536C38.9178 18.1225 38.5407 18.257 38.0517 18.257Z" fill="white"/>
      <path fill-rule="evenodd" clip-rule="evenodd" d="M40.5715 18.1635C40.598 18.1869 40.6303 18.1985 40.6682 18.1985H40.9582C40.9961 18.1985 41.0283 18.1869 41.0548 18.1635C41.0813 18.1362 41.0946 18.1031 41.0946 18.0641V16.5557H42.0897L42.9141 18.0407C42.9407 18.0914 42.9691 18.1303 42.9994 18.1576C43.0335 18.1849 43.079 18.1985 43.1359 18.1985H43.4088C43.4391 18.1985 43.4656 18.1869 43.4884 18.1635C43.5149 18.1401 43.5282 18.1128 43.5282 18.0816C43.5282 18.0621 43.5225 18.0407 43.5111 18.0173L42.6355 16.4622C42.8933 16.3881 43.0923 16.2556 43.2325 16.0646C43.3766 15.8736 43.4486 15.63 43.4486 15.3338C43.4486 14.9362 43.3254 14.6322 43.079 14.4217C42.8326 14.2113 42.4915 14.106 42.0555 14.106H40.6682C40.6303 14.106 40.598 14.1197 40.5715 14.147C40.5488 14.1703 40.5374 14.2035 40.5374 14.2463V18.0641C40.5374 18.1031 40.5488 18.1362 40.5715 18.1635ZM42.88 15.3279C42.88 15.8151 42.5976 16.0587 42.0328 16.0587H41.0946V14.5971H42.0328C42.5976 14.5971 42.88 14.8407 42.88 15.3279Z" fill="white"/>
      <path d="M44.394 18.1985C44.3561 18.1985 44.3239 18.1869 44.2973 18.1635C44.2746 18.1362 44.2632 18.1031 44.2632 18.0641V14.2463C44.2632 14.2035 44.2746 14.1703 44.2973 14.147C44.3239 14.1197 44.3561 14.106 44.394 14.106H46.7423C46.7802 14.106 46.8105 14.1197 46.8333 14.147C46.8598 14.1703 46.8731 14.2035 46.8731 14.2463V14.4685C46.8731 14.5075 46.8617 14.5406 46.839 14.5679C46.8162 14.5913 46.784 14.603 46.7423 14.603H44.8091V15.8834H46.6172C46.6551 15.8834 46.6854 15.897 46.7082 15.9243C46.7347 15.9477 46.748 15.9808 46.748 16.0237V16.24C46.748 16.279 46.7347 16.3121 46.7082 16.3394C46.6854 16.3628 46.6551 16.3745 46.6172 16.3745H44.8091V17.7016H46.7878C46.8295 17.7016 46.8617 17.7133 46.8844 17.7367C46.9072 17.7601 46.9186 17.7932 46.9186 17.8361V18.0641C46.9186 18.1031 46.9053 18.1362 46.8788 18.1635C46.856 18.1869 46.8257 18.1985 46.7878 18.1985H44.394Z" fill="white"/>
    </g>
  </symbol>

  <symbol id="18" viewBox="0 0 24 24">
    <g opacity="0.5">
      <path d="M21.3729 8.82544C21.7185 9.84531 21.8937 10.912 21.8937 12C21.8937 17.4553 17.4554 21.8935 12 21.8935C6.54463 21.8935 2.10625 17.4553 2.10625 12C2.10625 6.54457 6.54455 2.10645 12 2.10645C13.0881 2.10645 14.1548 2.2816 15.1746 2.6273V0.425611C14.1445 0.143257 13.0807 0 12 0C5.38323 0 0 5.38319 0 12C0 18.6168 5.38323 24 12 24C18.6168 24 24 18.6168 24 12C24 10.9194 23.8568 9.85553 23.5745 8.82544H21.3729Z" fill="white"/>
      <path fill-rule="evenodd" clip-rule="evenodd" d="M16.3503 11.6356C16.9884 11.2875 17.3713 10.6609 17.3713 9.95309C17.3713 8.61873 16.2458 7.7717 14.4589 7.7717C12.6952 7.7717 11.558 8.59545 11.558 9.89515C11.558 10.6029 11.9989 11.2526 12.6835 11.6356C11.7437 12.0068 11.1403 12.7959 11.1403 13.7243C11.1403 15.163 12.4399 16.0797 14.4705 16.0797C16.501 16.0797 17.8006 15.1514 17.8006 13.6894C17.8006 12.7843 17.2436 12.0068 16.3503 11.6356ZM14.4705 14.583C13.577 14.583 13.0896 14.2001 13.0896 13.5154C13.0896 12.8424 13.577 12.4594 14.4705 12.4594C15.3639 12.4594 15.8629 12.8425 15.8629 13.5154C15.8629 14.2117 15.3639 14.583 14.4705 14.583ZM14.4705 10.9742C13.7163 10.9742 13.2986 10.6494 13.2986 10.0691C13.2986 9.4659 13.7162 9.12934 14.4705 9.12934C15.2247 9.12934 15.6424 9.4659 15.6424 10.0691C15.6424 10.6494 15.2247 10.9742 14.4705 10.9742Z" fill="white"/>
      <path d="M7.54498 9.51168V15.9865H9.61042V7.85243H6.04818V9.51168H7.54498Z" fill="white"/>
      <path d="M20.642 0.911458V3.19793H22.9283V4.84195H20.642V7.12835H18.9978V4.84195H16.725V3.19793H18.9978V0.911458H20.642Z" fill="white"/>
    </g>
  </symbol>

  <symbol id="history" viewBox="0 0 22 20" fill="none">
    <path fill-rule="evenodd" clip-rule="evenodd" d="M17.3961 19.0304C17.347 19.0917 17.2951 19.1509 17.2405 19.2079C16.7541 19.7151 16.0945 20 15.4068 20H2.59322C1.90546 20 1.24586 19.7151 0.759537 19.2079C0.273213 18.7007 0 18.0127 0 17.2955V17.2954C0 18.0127 0.273213 18.7006 0.759537 19.2078C1.24586 19.715 1.90546 20 2.59322 20H15.4068C16.0945 20 16.7541 19.715 17.2405 19.2078C17.2951 19.1509 17.347 19.0917 17.3961 19.0304ZM2.59322 0C2.18456 0 1.78368 0.168919 1.48134 0.484237C1.17763 0.800985 1 1.23922 1 1.70454V17.2954C1 17.7607 1.17763 18.199 1.48134 18.5157C1.78368 18.831 2.18456 19 2.59322 19H15.4068C15.8154 19 16.2163 18.831 16.5187 18.5157C16.8224 18.199 17 17.7607 17 17.2954V1.70454C17 1.23922 16.8224 0.800984 16.5187 0.484238C16.2163 0.168919 15.8154 0 15.4068 0H2.59322ZM4.5 11C4.22386 11 4 11.2239 4 11.5C4 11.7761 4.22386 12 4.5 12H8.5C8.77614 12 9 11.7761 9 11.5C9 11.2239 8.77614 11 8.5 11H4.5ZM4 8.5C4 8.22386 4.11193 8 4.25 8H8.75C8.88807 8 9 8.22386 9 8.5C9 8.77614 8.88807 9 8.75 9H4.25C4.11193 9 4 8.77614 4 8.5ZM4.5 5C4.22386 5 4 5.22386 4 5.5C4 5.77614 4.22386 6 4.5 6H13.5C13.7761 6 14 5.77614 14 5.5C14 5.22386 13.7761 5 13.5 5H4.5Z" fill="#F3B233"/>
    <circle cx="16" cy="14" r="5.5" fill="#F3B233" stroke="#0E152F"/>
    <path d="M15.5 12V14.5L18 15" stroke="#0E152F" stroke-linecap="round" stroke-linejoin="round"/>
  </symbol>

  <symbol id="verification" viewBox="0 0 20 23" fill="none" xmlns="http://www.w3.org/2000/svg">
    <path d="M0.570881 3.72429L9.64495 0.06868C9.87227 -0.0228709 10.1278 -0.0229158 10.355 0.06868L19.4291 3.72429C19.7747 3.86355 20 4.19094 20 4.55404V8.99794C20 15.1169 16.1885 20.621 10.3499 22.9334C10.1256 23.0222 9.8744 23.0222 9.65009 22.9334C3.81162 20.6211 0 15.1169 0 8.99794V4.55404C0 4.19094 0.225233 3.86355 0.570881 3.72429Z" fill="#F3B233"/>
    <path d="M2.4567 5.07659L9.71596 2.05674C9.89781 1.98111 10.1022 1.98107 10.284 2.05674L17.5433 5.07659C17.8198 5.19163 18 5.46208 18 5.76204V9.43308C18 14.4879 14.9508 19.0348 10.2799 20.945C10.1005 21.0183 9.89952 21.0183 9.72007 20.945C5.0493 19.0348 2 14.4879 2 9.43308V5.76204C2 5.46208 2.18018 5.19163 2.4567 5.07659Z" fill="#F3B233"/>
    <path fill-rule="evenodd" clip-rule="evenodd" d="M10.284 2.05674L17.5433 5.07659C17.8198 5.19163 18 5.46208 18 5.76204V9.43308C18 14.4879 14.9508 19.0348 10.2799 20.945C10.1005 21.0183 9.89952 21.0183 9.72007 20.945C5.0493 19.0348 2 14.4879 2 9.43308V5.76204C2 5.46208 2.18018 5.19163 2.4567 5.07659L9.71596 2.05674C9.89781 1.98111 10.1022 1.98107 10.284 2.05674ZM10 19.9785C5.76165 18.1991 3 14.047 3 9.43308V5.93365L10 3.02165L17 5.93365V9.43308C17 14.047 14.2384 18.199 10 19.9785Z" fill="#0E152F"/>
    <path d="M11.9548 9.16724L9.5 12.5L8.04517 10.4295C7.80609 10.2065 7.41845 10.2065 7.17933 10.4295C6.94022 10.6524 6.94022 11.014 7.17933 11.237L9.06708 13.7113C9.30613 13.9342 9.69378 13.9343 9.93292 13.7113L12.8207 9.97475C13.0598 9.75178 13.0598 9.39025 12.8207 9.16724C12.5816 8.94424 12.1939 8.94427 11.9548 9.16724Z" fill="#0E152F"/>
  </symbol>

  <symbol id="user" viewBox="0 0 20 22" fill="none" xmlns="http://www.w3.org/2000/svg">
    <path fill-rule="evenodd" clip-rule="evenodd" d="M13.9281 9.38853C12.8482 10.4579 11.5264 10.9999 10 10.9999C8.47394 10.9999 7.15236 10.4577 6.07222 9.38871C4.99208 8.31952 4.44444 7.01113 4.44444 5.49977C4.44444 3.98876 4.99208 2.68037 6.07204 1.61118C7.15201 0.541998 8.47341 0 10 0C11.5262 0 12.8478 0.541998 13.928 1.61101C15.0081 2.68055 15.5556 3.98894 15.5556 5.49977C15.5556 7.01113 15.0081 8.31935 13.9281 9.38853ZM19.7908 15.7966C19.8876 16.28 19.9533 16.7377 19.9857 17.1574C20.0063 17.4203 20.0005 17.6003 19.9937 17.8115C19.9898 17.9298 19.9857 18.0578 19.9857 18.2156C19.8597 19.1945 19.275 20.6491 18.8613 21.0016C18.0837 21.6641 17.0555 21.9999 15.8047 21.9999H4.22288C2.97207 21.9999 2.17159 21.7735 1.16612 21.0016C1.00822 20.8803 0.0146676 19.1945 0.0143223 18.2156C0.0142538 18.0216 0.00965852 17.8833 0.00569182 17.764C-0.000887567 17.5661 -0.0057375 17.4203 0.0146676 17.1579C0.0471492 16.7372 0.112846 16.2793 0.209557 15.7966C0.307186 15.3096 0.432891 14.8494 0.583188 14.4286C0.738806 13.9933 0.950212 13.564 1.21135 13.1524C1.48221 12.7254 1.80097 12.3536 2.15827 12.0473C2.53245 11.7267 2.99031 11.4693 3.5192 11.2818C4.04643 11.0948 4.63073 11 5.25614 11C5.50168 11 5.73933 11.0902 6.19737 11.3575C6.48383 11.5246 6.81415 11.7152 7.17916 11.9241C7.49388 12.1038 7.92073 12.2722 8.44741 12.4245C8.96235 12.5736 9.48444 12.6491 9.99992 12.6491C10.5154 12.6491 11.0377 12.5736 11.5521 12.4245C12.0793 12.2721 12.5061 12.1036 12.8212 11.9239C13.1897 11.7131 13.5199 11.5225 13.8021 11.3577C14.2607 11.0904 14.4982 11.0002 14.7437 11.0002C15.3689 11.0002 15.9534 11.0948 16.4808 11.2816C17.0101 11.4694 17.4678 11.7269 17.8416 12.0471C18.1991 12.3532 18.5176 12.7252 18.7889 13.1524C19.0502 13.564 19.2616 13.9935 19.417 14.4284C19.5675 14.8492 19.6932 15.3096 19.7908 15.7966Z" fill="#F3B233"/>
  </symbol>

  <symbol id="options" viewBox="0 0 20 20" fill="none" xmlns="http://www.w3.org/2000/svg">
    <path d="M19.5547 8.30469L17.2148 7.73047C17.0859 7.32031 16.9219 6.92188 16.7227 6.53516L17.918 4.54297C18.0586 4.30859 18.0234 4.01562 17.8359 3.82812L16.1719 2.16406C15.9844 1.97656 15.6914 1.94141 15.457 2.08203L13.4648 3.27734C13.0781 3.07812 12.6797 2.91406 12.2695 2.78516L11.707 0.445312C11.6367 0.1875 11.4023 0 11.1328 0H8.78906C8.51953 0 8.28516 0.1875 8.21484 0.445312L7.65234 2.78516C7.24219 2.91406 6.84375 3.07812 6.45703 3.27734L4.46484 2.08203C4.23047 1.94141 3.9375 1.97656 3.75 2.16406L2.08594 3.82812C1.89844 4.01562 1.86328 4.30859 2.00391 4.54297L3.19922 6.53516C3 6.92188 2.83594 7.32031 2.70703 7.73047L0.445312 8.30469C0.1875 8.36328 0 8.59766 0 8.86719V11.2109C0 11.4805 0.1875 11.7148 0.445312 11.7734L2.70703 12.3477C2.83594 12.7578 3 13.1563 3.19922 13.543L2.00391 15.5352C1.86328 15.7695 1.89844 16.0625 2.08594 16.25L3.75 17.9141C3.9375 18.1016 4.23047 18.1367 4.46484 17.9961L6.45703 16.8008C6.84375 17 7.24219 17.1641 7.65234 17.293L8.21484 19.5547C8.28516 19.8125 8.51953 20 8.78906 20H11.1328C11.4023 20 11.6367 19.8125 11.707 19.5547L12.2695 17.293C12.6797 17.1641 13.0781 17 13.4648 16.8008L15.457 17.9961C15.6914 18.1367 15.9844 18.1016 16.1719 17.9141L17.8359 16.25C18.0234 16.0625 18.0586 15.7695 17.918 15.5352L16.7227 13.543C16.9219 13.1563 17.0859 12.7578 17.2148 12.3477L19.5547 11.7734C19.8125 11.7148 20 11.4805 20 11.2109V8.86719C20 8.59766 19.8125 8.36328 19.5547 8.30469ZM9.96094 12.9688C8.34375 12.9688 7.03125 11.6562 7.03125 10.0391C7.03125 8.42188 8.34375 7.10938 9.96094 7.10938C11.5781 7.10938 12.8906 8.42188 12.8906 10.0391C12.8906 11.6562 11.5781 12.9688 9.96094 12.9688Z" fill="#F3B233"/>
  </symbol>

  <symbol id="exit" viewBox="0 0 22 18" fill="none" xmlns="http://www.w3.org/2000/svg">
    <path fill-rule="evenodd" clip-rule="evenodd" d="M2 1C1.44772 1 1 1.44772 1 2V16C1 16.5523 1.44772 17 2 17H8C8.55228 17 9 16.5523 9 16C9 15.4477 8.55228 15 8 15H3V3H8C8.55228 3 9 2.55228 9 2C9 1.44772 8.55228 1 8 1H2ZM7 6.5H14.2593V2L21 8.93069L14.2593 16V11.5H7V6.5Z" fill="#52586E"/>
    <path d="M3 15H2.5V15.5H3V15ZM3 3V2.5H2.5V3H3ZM14.2593 6.5V7H14.7593V6.5H14.2593ZM7 6.5V6H6.5V6.5H7ZM14.2593 2L14.6177 1.65139L13.7593 0.768771V2H14.2593ZM21 8.93069L21.3619 9.27574L21.6941 8.92726L21.3584 8.58209L21 8.93069ZM14.2593 16H13.7593V17.2489L14.6211 16.345L14.2593 16ZM14.2593 11.5H14.7593V11H14.2593V11.5ZM7 11.5H6.5V12H7V11.5ZM1.5 2C1.5 1.72386 1.72386 1.5 2 1.5V0.5C1.17157 0.5 0.5 1.17157 0.5 2H1.5ZM1.5 16V2H0.5V16H1.5ZM2 16.5C1.72386 16.5 1.5 16.2761 1.5 16H0.5C0.5 16.8284 1.17157 17.5 2 17.5V16.5ZM8 16.5H2V17.5H8V16.5ZM8.5 16C8.5 16.2761 8.27614 16.5 8 16.5V17.5C8.82843 17.5 9.5 16.8284 9.5 16H8.5ZM8 15.5C8.27614 15.5 8.5 15.7239 8.5 16H9.5C9.5 15.1716 8.82843 14.5 8 14.5V15.5ZM3 15.5H8V14.5H3V15.5ZM2.5 3V15H3.5V3H2.5ZM8 2.5H3V3.5H8V2.5ZM8.5 2C8.5 2.27614 8.27614 2.5 8 2.5V3.5C8.82843 3.5 9.5 2.82843 9.5 2H8.5ZM8 1.5C8.27614 1.5 8.5 1.72386 8.5 2H9.5C9.5 1.17157 8.82843 0.5 8 0.5V1.5ZM2 1.5H8V0.5H2V1.5ZM14.2593 6H7V7H14.2593V6ZM13.7593 2V6.5H14.7593V2H13.7593ZM21.3584 8.58209L14.6177 1.65139L13.9008 2.34861L20.6416 9.2793L21.3584 8.58209ZM14.6211 16.345L21.3619 9.27574L20.6381 8.58565L13.8974 15.655L14.6211 16.345ZM13.7593 11.5V16H14.7593V11.5H13.7593ZM7 12H14.2593V11H7V12ZM6.5 6.5V11.5H7.5V6.5H6.5Z" fill="#52586E"/>
  </symbol>

  <symbol id="time" viewBox="0 0 16 16" fill="none" xmlns="http://www.w3.org/2000/svg">
    <path fill-rule="evenodd" clip-rule="evenodd" d="M8 16C12.4183 16 16 12.4183 16 8C16 3.58172 12.4183 0 8 0C3.58172 0 0 3.58172 0 8C0 12.4183 3.58172 16 8 16ZM11.6069 10.0786C11.8777 10.1328 12.1411 9.95716 12.1953 9.68638C12.2494 9.4156 12.0738 9.15219 11.803 9.09803L7.96969 8.33136V5.35303C7.96969 5.07688 7.74583 4.85303 7.46969 4.85303C7.19354 4.85303 6.96969 5.07688 6.96969 5.35303V8.74126C6.96969 8.9796 7.13792 9.18481 7.37163 9.23155L11.6069 10.0786Z" fill="#F3B233"/>
  </symbol>

  <symbol id="filters" viewBox="0 0 13 15" fill="none" xmlns="http://www.w3.org/2000/svg">
    <path fill-rule="evenodd" clip-rule="evenodd" d="M9.43548 7.40098V0.715709C9.43548 0.320434 9.76405 0 10.1694 0C10.5747 0 10.9032 0.320434 10.9032 0.715709V7.40098C12.1184 7.72232 13 8.82257 13 10.1094C13 11.3962 12.1184 12.4964 10.9032 12.8178V14.2843C10.9032 14.6796 10.5747 15 10.1694 15C9.76405 15 9.43548 14.6796 9.43548 14.2843V12.8178C8.22032 12.4964 7.33871 11.3962 7.33871 10.1094C7.33871 8.82257 8.22032 7.72232 9.43548 7.40098ZM3.56452 0.716073C3.56452 0.320798 3.23595 0.000364252 2.83065 0.000364252C2.42534 0.000364252 2.09677 0.320798 2.09677 0.716073V2.18233C0.881611 2.50368 0 3.60393 0 4.89073C0 6.17754 0.881611 7.27778 2.09677 7.59913V14.2843C2.09677 14.6796 2.42534 15 2.83065 15C3.23595 15 3.56452 14.6796 3.56452 14.2843V7.59913C4.77968 7.27778 5.66129 6.17754 5.66129 4.89073C5.66129 3.60393 4.77968 2.50368 3.56452 2.18233V0.716073ZM4.19355 4.89073C4.19355 5.6623 3.56917 6.26248 2.83065 6.26248C2.09212 6.26248 1.46774 5.6623 1.46774 4.89073C1.46774 4.11916 2.09212 3.51899 2.83065 3.51899C3.56917 3.51899 4.19355 4.11916 4.19355 4.89073ZM11.5323 10.1094C11.5323 10.8809 10.9079 11.4811 10.1694 11.4811C9.43083 11.4811 8.80645 10.8809 8.80645 10.1094C8.80645 9.33781 9.43083 8.73763 10.1694 8.73763C10.9079 8.73763 11.5323 9.33781 11.5323 10.1094Z" fill="#F3B233"/>
  </symbol>

  <symbol id="approve" viewBox="0 0 34 34">
    <path fill-rule="evenodd" clip-rule="evenodd" d="M32 17C32 25.2843 25.2843 32 17 32C8.71573 32 2 25.2843 2 17C2 8.71573 8.71573 2 17 2C25.2843 2 32 8.71573 32 17ZM34 17C34 26.3888 26.3888 34 17 34C7.61116 34 0 26.3888 0 17C0 7.61116 7.61116 0 17 0C26.3888 0 34 7.61116 34 17ZM19.9969 13.2272L16.1895 17.9865L13.9563 15.5724L12.4882 16.9306L15.5104 20.1976L16.2994 21.0506L17.0253 20.1432L21.5586 14.4765L19.9969 13.2272Z"/>
  </symbol>

  <symbol id="verify" viewBox="0 0 17 17" fill="none" xmlns="http://www.w3.org/2000/svg">
    <path fill-rule="evenodd" clip-rule="evenodd" d="M8.5 17C13.1944 17 17 13.1944 17 8.5C17 3.80558 13.1944 0 8.5 0C3.80558 0 0 3.80558 0 8.5C0 13.1944 3.80558 17 8.5 17ZM11.7593 7.65079C12.1187 7.23147 12.0701 6.60017 11.6508 6.24074C11.2315 5.88132 10.6002 5.92988 10.2407 6.34921L7.94666 9.02564L6.71024 7.77819C6.32146 7.38593 5.6883 7.38312 5.29604 7.7719C4.90379 8.16069 4.90097 8.79384 5.28976 9.1861L7.28976 11.204C7.48638 11.4023 7.75702 11.5094 8.03616 11.4993C8.31529 11.4892 8.57748 11.3629 8.75926 11.1508L11.7593 7.65079Z" fill="#67B12D"/>
  </symbol>

  <symbol id="search" viewBox="0 0 18 17">
    <path fill-rule="evenodd" clip-rule="evenodd" d="M13.6684 7.55393C13.6684 10.5532 11.1257 13.1079 7.83422 13.1079C4.54276 13.1079 2 10.5532 2 7.55393C2 4.55463 4.54276 2 7.83422 2C11.1257 2 13.6684 4.55463 13.6684 7.55393ZM14.1559 12.0165C15.1069 10.7661 15.6684 9.22326 15.6684 7.55393C15.6684 3.38201 12.1609 0 7.83422 0C3.5075 0 0 3.38201 0 7.55393C0 11.7258 3.5075 15.1079 7.83422 15.1079C9.63378 15.1079 11.2916 14.5228 12.6143 13.5392L16.0908 16.7201C16.4983 17.0929 17.1589 17.0929 17.5664 16.7201L17.6938 16.6035C18.1012 16.2307 18.1012 15.6263 17.6938 15.2535L14.1559 12.0165Z" />
  </symbol>

  <symbol id="visible" viewBox="0 0 19 11">
    <path fill-rule="evenodd" clip-rule="evenodd" d="M9.5 9C12.9528 9 15.4257 7.67439 16.7196 5.56714C15.8723 4.3442 14.5565 3.25994 12.8876 2.61659C12.9609 2.89879 13 3.19483 13 3.5C13 5.433 11.433 7 9.5 7C7.567 7 6 5.433 6 3.5C6 3.13614 6.05552 2.78525 6.15856 2.45534C4.15477 3.04983 2.74146 4.17257 2.12777 5.5C3.04178 7.47703 5.72951 9 9.5 9ZM9.5 0C14 0 17.5 2.5 19 5.5C17.5 9 14 11 9.5 11C5 11 1 9 0 5.5C1 2 5 0 9.5 0Z"/>
  </symbol>

  <symbol id="password" viewBox="0 0 13 16" fill="none" xmlns="http://www.w3.org/2000/svg">
    <path fill-rule="evenodd" clip-rule="evenodd" d="M5 3.23032C5 2.6551 5.56119 2 6.5 2C7.43881 2 8 2.6551 8 3.23032V5H5V3.23032ZM3 5H2C0.895431 5 0 5.89543 0 7V14C0 15.1046 0.89543 16 2 16H11C12.1046 16 13 15.1046 13 14V7C13 5.89543 12.1046 5 11 5H10V3.23032C10 1.34199 8.32261 0 6.5 0C4.67739 0 3 1.34199 3 3.23032V5ZM2 14H11V7H2L2 14ZM8 10.5C8 11.3284 7.32843 12 6.5 12C5.67157 12 5 11.3284 5 10.5C5 9.67157 5.67157 9 6.5 9C7.32843 9 8 9.67157 8 10.5Z" fill="#6E7382"/>
  </symbol>
</svg>
