<svg width="131" height="33" viewBox="0 0 131 33" fill="none" xmlns="http://www.w3.org/2000/svg">
<path d="M114.011 0.0289956C116.703 -0.0874752 119.217 0.611349 121.583 1.80517C122.205 2.12547 122.205 2.35841 121.672 2.76606C120.637 3.61047 120.666 3.61047 119.69 2.64959C118.389 1.36841 118.389 1.36841 117.058 2.53312C116.407 3.08635 115.756 3.63959 115.105 4.22194C114.75 4.54224 114.455 4.57136 114.129 4.16371C113.686 3.63959 113.153 3.14459 112.68 2.62047C112.443 2.35841 112.266 2.30018 111.97 2.56223C109.959 4.36753 107.917 6.17283 105.876 7.94901C105.433 8.32754 105.551 8.61872 105.876 8.99724C107.03 10.2202 108.154 11.5014 109.337 12.7243C109.781 13.1902 109.811 13.4523 109.308 13.889C108.184 14.879 108.184 14.9081 109.16 16.0437C110.106 17.1502 111.083 18.2276 112.088 19.3049C112.502 19.7417 112.443 20.0328 112 20.3531C111.97 20.3823 111.97 20.3823 111.94 20.4114C110.816 21.4305 110.816 21.4305 111.881 22.5952C113.449 24.3132 115.017 26.002 116.555 27.749C116.91 28.1567 117.176 28.1858 117.561 27.8073C118.478 26.9629 119.424 26.1476 120.341 25.274C120.726 24.9246 120.962 24.9246 121.288 25.3032C122.116 26.2349 122.944 27.1667 123.772 28.0984C124.127 28.477 124.127 28.739 123.654 29.0884C116.851 34.0967 106.912 32.9902 101.469 26.497C97.3871 21.6343 96.3518 16.102 98.7182 10.2202C101.085 4.3093 105.669 0.989879 112.029 0.0289956C112.147 -0.000122081 112.236 -0.00012207 112.354 -0.00012207C112.946 0.0289956 113.479 0.0289956 114.011 0.0289956Z" fill="white"/>
<path d="M7.64059 13.8017C7.13773 15.6943 6.6053 17.587 6.10244 19.4796C5.92496 20.0911 5.77706 20.7317 5.59958 21.3431C5.2742 22.5661 4.77134 22.8281 3.49941 22.5661C3.14445 22.4787 3.05571 22.2458 2.96697 21.9546C2.05 17.9946 1.13302 14.0346 0.216043 10.0746C0.0977232 9.55047 0.304782 9.37577 0.80764 9.34665C2.19789 9.2593 2.28663 9.28841 2.58243 10.6278C3.11487 13.0155 3.61773 15.4322 4.12059 17.8199C4.17975 18.0528 4.23891 18.3149 4.44597 18.577C4.53471 18.3149 4.62345 18.082 4.6826 17.8199C5.30378 15.3158 5.95454 12.8117 6.54614 10.2784C6.69404 9.63782 6.96026 9.28841 7.69975 9.28841C8.38009 9.28841 8.64631 9.57959 8.82379 10.1911C9.47455 12.7825 10.1845 15.3449 10.8648 17.9072C10.924 18.1402 11.0127 18.4023 11.2198 18.6352C11.5156 17.1502 11.8114 15.6652 12.1072 14.1802C12.3734 12.8408 12.6396 11.5014 12.9058 10.1328C12.965 9.81253 12.965 9.40488 13.4087 9.34665C14.0003 9.2593 14.6214 9.14282 15.1835 9.434C15.4793 9.57959 15.2722 9.95812 15.213 10.2202C14.444 13.5105 13.7045 16.8299 12.9354 20.1202C12.8467 20.4987 12.7579 20.8773 12.6692 21.2558C12.3734 22.5078 12.3734 22.4787 11.0719 22.5078C10.4211 22.5078 10.1549 22.2749 10.007 21.6634C9.29707 19.0137 8.55757 16.3931 7.81807 13.7434C7.75891 13.8308 7.69975 13.8017 7.64059 13.8017Z" fill="white"/>
<path d="M46.065 13.5687C44.941 16.3349 43.817 19.1011 42.7521 21.8672C42.4859 22.5078 42.0718 22.6534 41.4802 22.5661C40.9773 22.4787 40.9181 22.042 40.7702 21.7217C39.735 19.2467 38.7292 16.8008 37.7235 14.3258C37.6348 14.1219 37.546 13.9181 37.4277 13.6269C37.2207 13.889 37.3094 14.1219 37.3094 14.3258C37.3094 16.7716 37.2798 19.2467 37.3094 21.6925C37.3094 22.3622 37.1319 22.6243 36.422 22.6243C35.7417 22.6243 35.505 22.4205 35.505 21.7217C35.5346 17.9072 35.5346 14.0637 35.505 10.2493C35.505 9.6087 35.7417 9.40487 36.3924 9.37575C37.8714 9.37575 37.8714 9.34664 38.4334 10.7152C39.5279 13.3649 40.5928 16.0437 41.6872 18.6934C41.776 18.9264 41.8943 19.1593 42.0718 19.5669C42.6634 18.0237 43.2254 16.6261 43.7578 15.2575C44.4086 13.5687 45.0593 11.8799 45.7397 10.1911C46.0059 9.49223 47.6624 9.05546 48.2835 9.52134C48.4906 9.69605 48.4906 9.92899 48.4906 10.1619V21.8672C48.4906 22.3914 48.254 22.6243 47.7215 22.5952H47.337C46.3017 22.5952 46.2721 22.5661 46.2721 21.5761V14.3549V13.5978C46.1538 13.5687 46.1242 13.5687 46.065 13.5687Z" fill="white"/>
<path d="M25.4188 15.3744V9.63817C25.4188 9.05581 26.8091 8.29875 27.3415 8.58993C27.6077 8.73552 27.519 8.99758 27.519 9.23052C27.519 10.4826 27.5486 11.7055 27.519 12.9576C27.519 13.4235 27.6077 13.6564 28.1402 13.4235C28.5543 13.2488 29.0276 13.1032 29.5009 13.0741C32.0152 12.8993 33.4054 14.2388 33.642 17.0341C33.7012 17.8785 33.6125 18.6938 33.435 19.5091C32.8434 22.0132 30.8615 23.1779 28.0219 22.712C25.5372 22.3044 25.4484 22.1879 25.4484 19.742C25.4188 18.2861 25.4188 16.8302 25.4188 15.3744ZM27.519 18.1405V20.4699C27.519 20.7611 27.519 21.0232 27.8444 21.1979C29.0867 21.8094 30.7136 21.1979 31.1573 19.8876C31.5123 18.8685 31.5123 17.8202 31.394 16.7429C31.1869 14.8211 29.6488 14.0641 27.9331 14.9958C27.6077 15.1705 27.4894 15.4035 27.4894 15.7529C27.519 16.5391 27.519 17.3252 27.519 18.1405Z" fill="white"/>
<path d="M50.2957 17.8782C50.2661 17.2959 50.3548 16.7426 50.5027 16.1894C51.0352 14.122 52.5437 13.0447 54.7918 13.0447C56.8328 13.0738 58.2822 14.2385 58.7555 16.2476C59.0809 17.6453 59.0217 19.0138 58.4893 20.3532C57.8385 21.9256 56.4187 22.7991 54.5552 22.77C52.6621 22.7409 51.331 21.8382 50.7098 20.2076C50.414 19.4797 50.2661 18.6935 50.2957 17.8782ZM56.7737 17.9656C56.8328 17.1794 56.7441 16.4223 56.3891 15.6944C56.0637 14.9956 55.5017 14.5588 54.6735 14.5297C53.8453 14.5006 53.2537 14.9082 52.9283 15.607C52.1888 17.1212 52.2479 18.6644 52.8395 20.1785C53.1649 20.9647 53.8157 21.3432 54.7031 21.3141C55.5905 21.285 56.0933 20.8191 56.4483 20.0912C56.7441 19.3923 56.8032 18.6935 56.7737 17.9656Z" fill="white"/>
<path d="M75.1428 18.3734H72.7764C72.3031 18.3734 72.1257 18.519 72.1848 19.014C72.4215 20.8484 73.8413 21.7219 75.9119 21.1978C76.3852 21.0813 76.8584 20.8775 77.3021 20.6737C77.805 20.4116 77.9233 20.6155 77.9529 21.0813C77.9825 21.7219 77.7458 22.1005 77.1542 22.3043C75.8823 22.7702 74.6104 22.8866 73.2793 22.6537C71.682 22.3625 70.7354 21.3725 70.3213 19.8875C69.9072 18.4316 69.9368 16.9757 70.4692 15.549C71.1495 13.7437 72.7468 12.8701 74.9653 13.0449C76.5922 13.1613 77.7163 14.326 78.0712 16.1604C78.4853 18.3443 78.4558 18.3734 76.2373 18.3734C75.8823 18.3734 75.4978 18.3734 75.1428 18.3734ZM74.2258 16.9466H75.7048C76.0894 16.9466 76.1781 16.7719 76.1485 16.4225C76.0894 15.4907 75.3795 14.6172 74.6104 14.5007C73.5159 14.3552 72.7764 14.8502 72.3919 15.9857C72.1257 16.7428 72.244 16.9175 73.0426 16.9175C73.4568 16.9466 73.8413 16.9466 74.2258 16.9466Z" fill="white"/>
<path d="M20.863 18.3734H18.4966C17.9937 18.3734 17.8754 18.6064 17.9346 19.0723C18.1712 20.8776 19.591 21.722 21.632 21.227C22.0166 21.1396 22.3715 20.9358 22.7561 20.8484C23.0519 20.7902 23.4068 20.2079 23.6435 20.7902C23.821 21.2561 23.9097 21.8967 23.2294 22.1879C22.2532 22.6246 21.2475 22.8285 20.1826 22.7993C17.5796 22.712 16.1893 21.4308 15.8935 18.8102C15.7752 17.9076 15.864 17.0049 16.1006 16.1314C16.7514 13.8311 18.8515 12.6081 21.2179 13.1905C22.8744 13.5981 23.7026 14.7628 23.8801 16.3061C24.1168 18.5481 24.5013 18.4317 22.1053 18.4317C21.632 18.3734 21.2475 18.3734 20.863 18.3734ZM20.0052 14.5008C18.9699 14.5008 17.9641 15.5781 18.0233 16.5973C18.0529 16.8884 18.1712 16.9467 18.4078 16.9467H21.4546C21.7799 16.9467 21.8983 16.772 21.9278 16.4517C21.9574 15.4326 21.0109 14.4717 20.0052 14.5008Z" fill="white"/>
<path d="M83.2476 19.8C83.8392 17.9365 84.4308 16.0438 85.0224 14.1803C85.259 13.4524 86.4718 13.0156 87.1226 13.3941C87.4775 13.6271 87.2409 13.9182 87.1522 14.1512C86.3831 16.3059 85.5844 18.4315 84.7858 20.5571C84.3125 21.8674 83.8984 23.2068 83.1885 24.4297C82.5969 25.4488 81.7982 26.1768 80.5854 26.3806C80.2601 26.4388 79.7572 26.5553 79.698 26.0312C79.6389 25.5653 79.4022 24.9538 80.1713 24.75C80.97 24.5462 81.4433 23.9638 81.8278 23.2941C82.094 22.8282 82.1236 22.3915 81.9165 21.8965C80.9108 19.3924 79.9347 16.8882 78.9585 14.3841C78.5444 13.365 78.6036 13.365 79.7276 13.3068C80.5559 13.2485 80.9404 13.5688 81.177 14.3259C81.739 16.1603 82.4194 17.9365 83.0701 19.7418C83.1293 19.8 83.1885 19.8 83.2476 19.8Z" fill="white"/>
<path d="M60.5589 18.3731C60.5589 17.2958 60.5885 16.1893 60.5589 15.1119C60.5589 14.6169 60.7068 14.2966 61.1801 14.0637C62.7478 13.2484 64.4339 12.9281 66.2087 13.0737C67.5989 13.1902 68.4567 14.0055 68.4863 15.374C68.5455 17.5287 68.4863 19.7125 68.5159 21.8672C68.5159 22.6534 68.013 22.5661 67.5102 22.5661C67.0073 22.5661 66.4157 22.6825 66.4157 21.8672C66.4453 20.0619 66.4157 18.2566 66.4157 16.4513C66.4157 14.9372 65.7354 14.4131 64.1972 14.7334C62.7478 15.0246 62.6591 15.1119 62.6591 16.5387V21.5761C62.6591 22.5369 62.6295 22.5661 61.6238 22.5661C60.618 22.5661 60.5589 22.5369 60.5589 21.6052C60.5293 20.5278 60.5589 19.4505 60.5589 18.3731Z" fill="white"/>
<path d="M111.792 12.375C111.526 12.3168 111.378 12.1421 111.26 11.9965C110.343 11.0065 109.456 9.98736 108.539 8.99736C108.243 8.67706 108.243 8.44412 108.568 8.15294C109.574 7.27941 110.55 6.40588 111.526 5.50324C111.911 5.15382 112.236 5.06647 112.65 5.53235C113.538 6.55147 114.455 7.54147 115.372 8.53148C115.608 8.79353 115.697 9.02648 115.372 9.31765C114.307 10.2494 113.271 11.1812 112.207 12.113C112.088 12.2294 111.911 12.3168 111.792 12.375Z" fill="white"/>
<path d="M118.389 15.4907C118.271 15.6363 118.182 15.7819 118.034 15.8984C116.999 16.8302 115.964 17.7328 114.958 18.6355C114.633 18.9266 114.396 18.9266 114.13 18.6063C113.213 17.5872 112.296 16.5681 111.349 15.549C111.024 15.1996 111.053 14.9666 111.379 14.6463C112.444 13.7146 113.479 12.7828 114.544 11.851C114.721 11.6763 114.928 11.5599 115.165 11.7928C116.2 12.9284 117.236 14.0349 118.271 15.1705C118.301 15.2578 118.33 15.3743 118.389 15.4907Z" fill="white"/>
<path d="M117.383 25.4779C117.117 25.507 117.028 25.3323 116.909 25.2159C115.963 24.1676 115.016 23.1485 114.07 22.1003C113.804 21.8091 113.774 21.6053 114.099 21.3141C115.164 20.3823 116.259 19.4214 117.294 18.4606C117.619 18.1694 117.826 18.2567 118.093 18.5479C119.039 19.5961 119.986 20.6153 120.932 21.6344C121.169 21.8673 121.258 22.1003 120.962 22.3623C119.838 23.3523 118.743 24.3132 117.619 25.3032C117.531 25.3906 117.442 25.4197 117.383 25.4779Z" fill="white"/>
<path d="M123.21 21.3722C123.003 21.3722 122.884 21.2849 122.796 21.1684C122.115 20.4114 121.465 19.6543 120.755 18.9264C120.488 18.6352 120.518 18.4022 120.814 18.1402C121.553 17.5287 122.263 16.8881 122.973 16.2475C123.299 15.9272 123.535 15.9855 123.831 16.2766C124.482 17.0046 125.162 17.7325 125.842 18.4605C126.02 18.6352 126.138 18.839 125.902 19.0719C125.073 19.829 124.245 20.5569 123.417 21.314C123.358 21.3431 123.269 21.3722 123.21 21.3722Z" fill="white"/>
<path d="M125.695 27.1667C125.577 27.0794 125.429 27.0211 125.34 26.9046C124.66 26.1767 124.039 25.4196 123.358 24.7208C123.092 24.4296 123.092 24.1967 123.388 23.9346C124.098 23.2941 124.837 22.6535 125.547 22.0129C125.873 21.7217 126.139 21.7508 126.405 22.0711C127.056 22.7991 127.736 23.527 128.416 24.2549C128.594 24.4296 128.712 24.6626 128.476 24.8664C127.647 25.6235 126.79 26.3514 125.961 27.0794C125.873 27.1085 125.784 27.1376 125.695 27.1667Z" fill="white"/>
<path d="M120.873 6.9882C120.873 7.19203 120.755 7.27938 120.636 7.39585C119.897 8.03644 119.157 8.70615 118.418 9.37586C118.122 9.63791 117.886 9.63792 117.619 9.34674C116.939 8.58968 116.259 7.86173 115.549 7.13379C115.312 6.90085 115.342 6.69703 115.578 6.46409C116.347 5.76526 117.116 5.06644 117.915 4.39673C118.093 4.22202 118.329 4.13467 118.536 4.33849C119.276 5.15379 120.045 5.9982 120.784 6.8135C120.814 6.84262 120.844 6.92997 120.873 6.9882Z" fill="white"/>
<path d="M120.902 9.9292C121.168 9.95832 121.257 10.1039 121.375 10.2495C121.996 10.9483 122.618 11.6471 123.268 12.3168C123.535 12.608 123.653 12.841 123.298 13.1613C122.558 13.8019 121.789 14.4424 121.079 15.1121C120.784 15.3742 120.577 15.3742 120.31 15.083C119.66 14.3551 118.979 13.6271 118.299 12.8992C118.092 12.6954 118.003 12.4624 118.24 12.2295C119.038 11.5016 119.867 10.7736 120.665 10.0457C120.754 9.98743 120.843 9.95832 120.902 9.9292Z" fill="white"/>
<path d="M130.368 16.8883C130.308 17.1795 130.072 17.3542 129.894 17.5289C128.415 18.8392 128.445 18.8101 127.143 17.3542C126.729 16.8592 126.7 16.5971 127.202 16.1603C128.681 14.8792 128.652 14.8792 129.953 16.3059C130.131 16.4806 130.338 16.6553 130.368 16.8883Z" fill="white"/>
<path d="M125.458 5.59043C125.34 5.73602 125.281 5.85249 125.162 5.96896C124.867 6.26013 124.541 6.52219 124.246 6.81337C123.743 7.33749 123.388 7.33749 122.885 6.75514C121.672 5.3866 121.642 5.44484 123.003 4.16366C123.506 3.66866 123.891 3.63954 124.334 4.2219C124.6 4.57131 124.926 4.86249 125.222 5.2119C125.31 5.29925 125.37 5.44484 125.458 5.59043Z" fill="white"/>
<path d="M126.196 9.40503C126.522 9.49238 126.67 9.78356 126.906 10.0165C128.089 11.2394 128.089 11.2394 126.877 12.375C126.048 13.1321 126.048 13.1321 125.25 12.3168C124.067 11.0647 124.067 11.0647 125.368 9.98738C125.605 9.75444 125.841 9.46326 126.196 9.40503Z" fill="white"/>
</svg>
