<svg width="129" height="26" viewBox="0 0 129 26" fill="none" xmlns="http://www.w3.org/2000/svg">
<path d="M28.076 -0.00012207H32.0661V4.02539H28.076V-0.00012207Z" fill="white"/>
<path d="M28.076 7.09753V25.321H32.0661V7.09753H28.076Z" fill="white"/>
<path d="M0.0537109 7.00244H4.30449L7.85235 20.6802H7.9227L11.3292 7.00244H15.3696L18.6367 20.6802H18.707L22.3949 7.00244H26.4705L20.7787 25.321H16.6686L13.2973 11.7148H13.2263L9.88948 25.321H5.67451L0.0537109 7.00244Z" fill="white"/>
<path d="M34.2734 7.00222H38.0317V10.5468H38.1021C38.5587 8.59647 40.9476 6.50671 43.4075 6.50671C44.3196 6.50671 44.5658 6.57705 44.917 6.6119V10.5101C44.3554 10.4391 43.7587 10.3339 43.1958 10.3339C40.4552 10.3339 38.2779 12.5662 38.2779 16.6051V25.3208H34.2734V7.00222Z" fill="white"/>
<path d="M57.4291 14.5501C57.2878 11.9985 55.5667 9.69645 52.8618 9.69645C50.0859 9.69645 48.1901 11.8217 48.0852 14.5501H57.4291ZM48.0852 17.207C48.0852 20.0768 49.6311 22.6291 52.9679 22.6291C55.2865 22.6291 56.6917 21.6019 57.394 19.5813H61.1875C60.3093 23.5852 56.9373 25.8169 52.9679 25.8169C47.2768 25.8169 44.0807 21.8136 44.0807 16.1799C44.0807 10.9713 47.4527 6.50671 52.8618 6.50671C58.5881 6.50671 62.1002 11.7146 61.4337 17.207H48.0852Z" fill="white"/>
<path d="M75.696 13.1316C75.3801 10.8992 73.7638 9.69597 71.5502 9.69597C69.4779 9.69597 66.5619 10.7928 66.5619 16.3568C66.5619 19.4033 67.8974 22.6286 71.3743 22.6286C73.6928 22.6286 75.3091 21.0679 75.696 18.4472H79.6993C78.9625 23.1951 76.0466 25.8171 71.3743 25.8171C65.6838 25.8171 62.5574 21.7428 62.5574 16.3568C62.5574 10.8283 65.5437 6.50623 71.5156 6.50623C75.7306 6.50623 79.313 8.63146 79.6993 13.1316H75.696Z" fill="white"/>
<path d="M93.118 16.1444C91.8893 16.9599 89.957 16.9238 88.2001 17.2425C86.4795 17.5257 84.9336 18.1632 84.9336 20.2903C84.9336 22.0974 87.217 22.6291 88.6216 22.6291C90.3779 22.6291 93.118 21.7084 93.118 19.1567V16.1444ZM97.1225 21.2484C97.1225 22.2394 97.3342 22.6291 98.0716 22.6291C98.3166 22.6291 98.6332 22.6291 99.0547 22.5581V25.3569C98.4573 25.5698 97.1935 25.8176 96.5251 25.8176C94.9095 25.8176 93.7505 25.2517 93.4352 23.5852C91.8535 25.1446 89.2893 25.8176 87.146 25.8176C83.8796 25.8176 80.9291 24.0465 80.9291 20.4665C80.9291 15.8966 84.5473 15.1534 87.9193 14.7618C90.7994 14.2308 93.3642 14.5502 93.3642 12.1765C93.3642 10.0849 91.2215 9.69647 89.6053 9.69647C87.3571 9.69647 85.776 10.6171 85.6007 12.6017H81.5968C81.877 7.88869 85.8457 6.50671 89.8515 6.50671C93.3994 6.50671 97.1225 7.95903 97.1225 11.8223V21.2484Z" fill="white"/>
<path d="M100.39 7.00222H104.149V10.5468H104.219C104.676 8.59647 107.065 6.50671 109.524 6.50671C110.437 6.50671 110.683 6.57705 111.034 6.6119V10.5101C110.472 10.4391 109.875 10.3339 109.313 10.3339C106.573 10.3339 104.395 12.5662 104.395 16.6051V25.3208H100.39V7.00222Z" fill="white"/>
<path d="M119.226 22.629C122.809 22.629 124.319 19.3341 124.319 16.1443C124.319 12.1049 122.387 9.69641 119.297 9.69641C115.538 9.69641 114.203 13.0617 114.203 16.3573C114.203 19.5102 115.748 22.629 119.226 22.629ZM128.184 25.3207H124.39V22.8407H124.319C123.266 24.9323 120.982 25.8169 118.699 25.8169C112.973 25.8169 110.198 21.529 110.198 16.0385C110.198 9.41191 114.098 6.50668 118.067 6.50668C120.35 6.50668 122.879 7.35703 124.109 9.3758H124.179V0.0213623H128.184V25.3207Z" fill="white"/>
</svg>
